M48
; DRILL file {KiCad 8.0.2-8.0.2-0~ubuntu22.04.1} date 2024-05-18T21:09:54+0200
; FORMAT={-:-/ absolute / inch / decimal}
; #@! TF.CreationDate,2024-05-18T21:09:54+02:00
; #@! TF.GenerationSoftware,Kicad,Pcbnew,8.0.2-8.0.2-0~ubuntu22.04.1
; #@! TF.FileFunction,Plated,1,2,PTH
FMAT,2
INCH
; #@! TA.AperFunction,Plated,PTH,ComponentDrill
T1C0.0236
; #@! TA.AperFunction,Plated,PTH,ViaDrill
T2C0.0276
; #@! TA.AperFunction,Plated,PTH,ComponentDrill
T3C0.0279
; #@! TA.AperFunction,Plated,PTH,ComponentDrill
T4C0.0280
; #@! TA.AperFunction,Plated,PTH,ComponentDrill
T5C0.0315
; #@! TA.AperFunction,Plated,PTH,ComponentDrill
T6C0.0335
; #@! TA.AperFunction,Plated,PTH,ComponentDrill
T7C0.0512
; #@! TA.AperFunction,Plated,PTH,ComponentDrill
T8C0.0531
; #@! TA.AperFunction,Plated,PTH,ComponentDrill
T9C0.0543
; #@! TA.AperFunction,Plated,PTH,ComponentDrill
T10C0.0571
; #@! TA.AperFunction,Plated,PTH,ComponentDrill
T11C0.2362
%
G90
G05
T1
X4.0157Y-2.2244
X4.0157Y-4.8622
X4.0676Y-2.0991
X4.0676Y-2.3497
X4.0676Y-4.7369
X4.0676Y-4.9875
X4.1929Y-2.0472
X4.1929Y-2.4016
X4.1929Y-4.685
X4.1929Y-5.0394
X4.3182Y-2.0991
X4.3182Y-2.3497
X4.3182Y-4.7369
X4.3182Y-4.9875
X4.3701Y-2.2244
X4.3701Y-4.8622
X7.4409Y-2.2244
X7.4409Y-4.8622
X7.4928Y-2.0991
X7.4928Y-2.3497
X7.4928Y-4.7369
X7.4928Y-4.9875
X7.6181Y-2.0472
X7.6181Y-2.4016
X7.6181Y-4.685
X7.6181Y-5.0394
X7.7434Y-2.0991
X7.7434Y-2.3497
X7.7434Y-4.7369
X7.7434Y-4.9875
X7.7953Y-2.2244
X7.7953Y-4.8622
T2
X4.9409Y-4.1142
X5.0197Y-4.1142
X5.1673Y-4.1142
X5.2854Y-4.1142
T3
X5.0346Y-3.622
X5.0346Y-3.722
X5.0346Y-3.822
X5.0346Y-3.922
X5.3346Y-3.622
X5.3346Y-3.722
X5.3346Y-3.822
X5.3346Y-3.922
T4
X4.2717Y-3.1693
X4.2717Y-3.3693
X4.4291Y-3.1677
X4.4291Y-3.3677
X4.9181Y-3.4449
X4.9394Y-2.6378
X5.1181Y-3.4449
X5.1394Y-2.6378
X5.2346Y-3.4449
X5.4346Y-3.4449
X5.7449Y-2.6181
X5.7677Y-4.526
X5.7677Y-4.726
X5.9449Y-2.6181
X6.6339Y-4.7409
X6.6339Y-4.9409
X6.8472Y-2.4016
X7.0472Y-2.4016
T5
X4.0551Y-2.7008
X4.0551Y-3.3622
X4.5472Y-2.0866
X4.5472Y-2.748
X4.9252Y-4.2717
X5.5866Y-4.2717
X5.9252Y-3.4291
X5.9252Y-4.0906
X6.3583Y-3.4291
X6.3583Y-4.0906
X6.5157Y-3.4291
X6.5157Y-4.0906
X6.6732Y-3.4291
X6.6732Y-4.0906
X7.1654Y-2.5827
X7.1654Y-3.2441
T6
X6.1417Y-4.4291
X6.1417Y-4.626
X6.6142Y-4.311
X6.6142Y-4.411
T7
X4.2008Y-3.6541
X4.2008Y-3.8541
X4.2008Y-4.2053
X4.2008Y-4.4053
X5.2134Y-2.2441
X5.2953Y-4.8425
X5.4134Y-2.2441
X5.4953Y-4.8425
X5.6134Y-2.2441
X6.3748Y-2.311
X6.5748Y-2.311
X6.811Y-2.674
X6.811Y-2.874
X6.811Y-3.074
T8
X5.022Y-3.0315
X5.222Y-3.0315
X6.122Y-3.0315
X7.0866Y-3.6441
X7.0866Y-3.8441
X7.0866Y-4.7441
T9
X4.7213Y-4.5866
X4.8213Y-4.5866
X4.9213Y-4.5866
T10
X4.7283Y-4.8819
X4.9213Y-4.8819
T11
X4.1929Y-2.2244
X4.1929Y-4.8622
X7.6181Y-2.2244
X7.6181Y-4.8622
M30
