%TF.GenerationSoftware,KiCad,Pcbnew,8.0.2-8.0.2-0~ubuntu22.04.1*%
%TF.CreationDate,2024-05-18T21:09:39+02:00*%
%TF.ProjectId,dc-to-dc-buck-converter,64632d74-6f2d-4646-932d-6275636b2d63,rev?*%
%TF.SameCoordinates,Original*%
%TF.FileFunction,Copper,L1,Top*%
%TF.FilePolarity,Positive*%
%FSLAX46Y46*%
G04 Gerber Fmt 4.6, Leading zero omitted, Abs format (unit mm)*
G04 Created by KiCad (PCBNEW 8.0.2-8.0.2-0~ubuntu22.04.1) date 2024-05-18 21:09:39*
%MOMM*%
%LPD*%
G01*
G04 APERTURE LIST*
%TA.AperFunction,ComponentPad*%
%ADD10C,2.200000*%
%TD*%
%TA.AperFunction,ComponentPad*%
%ADD11R,1.108000X1.108000*%
%TD*%
%TA.AperFunction,ComponentPad*%
%ADD12C,1.108000*%
%TD*%
%TA.AperFunction,ComponentPad*%
%ADD13C,1.210000*%
%TD*%
%TA.AperFunction,ComponentPad*%
%ADD14R,1.950000X1.950000*%
%TD*%
%TA.AperFunction,ComponentPad*%
%ADD15C,1.950000*%
%TD*%
%TA.AperFunction,ComponentPad*%
%ADD16C,1.200000*%
%TD*%
%TA.AperFunction,ComponentPad*%
%ADD17R,2.175000X2.175000*%
%TD*%
%TA.AperFunction,ComponentPad*%
%ADD18C,2.175000*%
%TD*%
%TA.AperFunction,ComponentPad*%
%ADD19R,1.275000X1.275000*%
%TD*%
%TA.AperFunction,ComponentPad*%
%ADD20C,1.275000*%
%TD*%
%TA.AperFunction,ComponentPad*%
%ADD21R,2.070000X2.070000*%
%TD*%
%TA.AperFunction,ComponentPad*%
%ADD22C,2.070000*%
%TD*%
%TA.AperFunction,ComponentPad*%
%ADD23C,0.900000*%
%TD*%
%TA.AperFunction,ComponentPad*%
%ADD24C,12.000000*%
%TD*%
%TA.AperFunction,ComponentPad*%
%ADD25C,1.416000*%
%TD*%
%TA.AperFunction,ViaPad*%
%ADD26C,1.000000*%
%TD*%
%TA.AperFunction,Conductor*%
%ADD27C,1.000000*%
%TD*%
%TA.AperFunction,Conductor*%
%ADD28C,0.200000*%
%TD*%
G04 APERTURE END LIST*
D10*
%TO.P,IC2,1,M*%
%TO.N,Net-(IC2-M)*%
X180000000Y-92560000D03*
%TO.P,IC2,2,NEG*%
%TO.N,GND*%
X180000000Y-97640000D03*
%TO.P,IC2,3,POS*%
%TO.N,Net-(IC1-POS)*%
X180000000Y-120500000D03*
%TD*%
D11*
%TO.P,IC3,1,V+_1*%
%TO.N,Net-(IC1-POS)*%
X127880000Y-92000000D03*
D12*
%TO.P,IC3,2,IN*%
%TO.N,Net-(IC3-IN)*%
X127880000Y-94540000D03*
%TO.P,IC3,3,NC*%
%TO.N,unconnected-(IC3-NC-Pad3)*%
X127880000Y-97080000D03*
%TO.P,IC3,4,GND_1*%
%TO.N,GND*%
X127880000Y-99620000D03*
%TO.P,IC3,5,GND_2*%
X135500000Y-99620000D03*
%TO.P,IC3,6,N_OUT*%
%TO.N,Net-(IC3-N_OUT)*%
X135500000Y-97080000D03*
%TO.P,IC3,7,P_OUT*%
X135500000Y-94540000D03*
%TO.P,IC3,8,V+_2*%
%TO.N,Net-(IC1-POS)*%
X135500000Y-92000000D03*
%TD*%
D13*
%TO.P,C3,1,1*%
%TO.N,Net-(C3-Pad1)*%
X125460000Y-67000000D03*
%TO.P,C3,2,2*%
%TO.N,GND*%
X130540000Y-67000000D03*
%TD*%
D14*
%TO.P,Jmc2,1,1*%
%TO.N,Net-(C6-Pad1)*%
X142580000Y-57000000D03*
D15*
%TO.P,Jmc2,2,2*%
%TO.N,Net-(C3-Pad1)*%
X137500000Y-57000000D03*
%TO.P,Jmc2,3,3*%
%TO.N,Net-(Jmc2-Pad3)*%
X132420000Y-57000000D03*
%TD*%
D16*
%TO.P,R4,1,1*%
%TO.N,Net-(C6-Pad1)*%
X182000000Y-65600000D03*
%TO.P,R4,2,2*%
%TO.N,Net-(IC2-M)*%
X182000000Y-82400000D03*
%TD*%
%TO.P,R5,1,1*%
%TO.N,Net-(IC3-N_OUT)*%
X141900000Y-108500000D03*
%TO.P,R5,2,2*%
%TO.N,Net-(U1-GATE)*%
X125100000Y-108500000D03*
%TD*%
D14*
%TO.P,J3,1,1*%
%TO.N,Net-(IC1-POS)*%
X161920000Y-58700000D03*
D15*
%TO.P,J3,2,2*%
%TO.N,GND*%
X167000000Y-58700000D03*
%TD*%
D14*
%TO.P,Jmc1,1,1*%
%TO.N,Net-(Jmc1-Pad1)*%
X173000000Y-78080000D03*
D15*
%TO.P,Jmc1,2,2*%
%TO.N,Net-(IC3-IN)*%
X173000000Y-73000000D03*
%TO.P,Jmc1,3,3*%
%TO.N,GND*%
X173000000Y-67920000D03*
%TD*%
D16*
%TO.P,R8,1,1*%
%TO.N,GND*%
X169500000Y-103900000D03*
%TO.P,R8,2,2*%
%TO.N,Net-(Jmc1-Pad1)*%
X169500000Y-87100000D03*
%TD*%
%TO.P,R3,1,1*%
%TO.N,Net-(C3-Pad1)*%
X150500000Y-87100000D03*
%TO.P,R3,2,2*%
%TO.N,Net-(IC1-M)*%
X150500000Y-103900000D03*
%TD*%
D17*
%TO.P,D1,1,K*%
%TO.N,Net-(C10-+)*%
X125000000Y-124000000D03*
D18*
%TO.P,D1,2,A*%
%TO.N,Net-(D1-A)*%
X120100000Y-124000000D03*
%TD*%
D14*
%TO.P,J4ind,1,1*%
%TO.N,Net-(C1-Pad2)*%
X106700000Y-106815000D03*
D15*
%TO.P,J4ind,2,2*%
%TO.N,Net-(D1-A)*%
X106700000Y-111895000D03*
%TD*%
D16*
%TO.P,R2,1,1*%
%TO.N,GND*%
X115500000Y-53000000D03*
%TO.P,R2,2,2*%
%TO.N,Net-(Jmc2-Pad3)*%
X115500000Y-69800000D03*
%TD*%
D13*
%TO.P,C4,1,1*%
%TO.N,Net-(IC1-POS)*%
X151000000Y-66500000D03*
%TO.P,C4,2,2*%
%TO.N,GND*%
X145920000Y-66500000D03*
%TD*%
D19*
%TO.P,C10,1,+*%
%TO.N,Net-(C10-+)*%
X156000000Y-112500000D03*
D20*
%TO.P,C10,2,-*%
%TO.N,GND*%
X156000000Y-117500000D03*
%TD*%
D13*
%TO.P,C7,1,1*%
%TO.N,GND*%
X124920000Y-87500000D03*
%TO.P,C7,2,2*%
%TO.N,Net-(IC1-POS)*%
X130000000Y-87500000D03*
%TD*%
D16*
%TO.P,R1,1,1*%
%TO.N,Net-(Jmc2-Pad3)*%
X103000000Y-68600000D03*
%TO.P,R1,2,2*%
%TO.N,Net-(C1-Pad2)*%
X103000000Y-85400000D03*
%TD*%
D21*
%TO.P,U1,1,GATE*%
%TO.N,Net-(U1-GATE)*%
X119920000Y-116500000D03*
D22*
%TO.P,U1,2,SOURCE*%
%TO.N,GND*%
X122460000Y-116500000D03*
%TO.P,U1,3,DRAIN*%
%TO.N,Net-(D1-A)*%
X125000000Y-116500000D03*
%TD*%
D16*
%TO.P,R6,1,1*%
%TO.N,Net-(Jmc1-Pad1)*%
X165500000Y-87100000D03*
%TO.P,R6,2,2*%
%TO.N,Net-(LED1-A)*%
X165500000Y-103900000D03*
%TD*%
D13*
%TO.P,C8,1,1*%
%TO.N,GND*%
X138040000Y-87500000D03*
%TO.P,C8,2,2*%
%TO.N,Net-(IC1-POS)*%
X132960000Y-87500000D03*
%TD*%
%TO.P,C2,1,1*%
%TO.N,GND*%
X112500000Y-80460000D03*
%TO.P,C2,2,2*%
%TO.N,Net-(C1-Pad2)*%
X112500000Y-85540000D03*
%TD*%
%TO.P,C1,1,1*%
%TO.N,GND*%
X108500000Y-80500000D03*
%TO.P,C1,2,2*%
%TO.N,Net-(C1-Pad2)*%
X108500000Y-85580000D03*
%TD*%
D14*
%TO.P,J5,1,1*%
%TO.N,Net-(C10-+)*%
X134500000Y-123000000D03*
D15*
%TO.P,J5,2,2*%
%TO.N,GND*%
X139580000Y-123000000D03*
%TD*%
D13*
%TO.P,C6,1,1*%
%TO.N,Net-(C6-Pad1)*%
X179000000Y-61000000D03*
%TO.P,C6,2,2*%
%TO.N,GND*%
X173920000Y-61000000D03*
%TD*%
D23*
%TO.P,3MH_6mm,1*%
%TO.N,N/C*%
X189000000Y-56500019D03*
X190318019Y-53318038D03*
X190318019Y-59682000D03*
X193500000Y-52000019D03*
D24*
X193500000Y-56500019D03*
D23*
X193500000Y-61000019D03*
X196681981Y-53318038D03*
X196681981Y-59682000D03*
X198000000Y-56500019D03*
%TD*%
D10*
%TO.P,IC1,1,M*%
%TO.N,Net-(IC1-M)*%
X127560000Y-77000000D03*
%TO.P,IC1,2,NEG*%
%TO.N,GND*%
X132640000Y-77000000D03*
%TO.P,IC1,3,POS*%
%TO.N,Net-(IC1-POS)*%
X155500000Y-77000000D03*
%TD*%
D23*
%TO.P,1MH_6mm,1*%
%TO.N,N/C*%
X102000000Y-56500019D03*
X103318019Y-53318038D03*
X103318019Y-59682000D03*
X106500000Y-52000019D03*
D24*
X106500000Y-56500019D03*
D23*
X106500000Y-61000019D03*
X109681981Y-53318038D03*
X109681981Y-59682000D03*
X111000000Y-56500019D03*
%TD*%
%TO.P,4MH_6mm,1*%
%TO.N,N/C*%
X189000000Y-123500019D03*
X190318019Y-120318038D03*
X190318019Y-126682000D03*
X193500000Y-119000019D03*
D24*
X193500000Y-123500019D03*
D23*
X193500000Y-128000019D03*
X196681981Y-120318038D03*
X196681981Y-126682000D03*
X198000000Y-123500019D03*
%TD*%
D16*
%TO.P,R7,1,1*%
%TO.N,Net-(Jmc1-Pad1)*%
X161500000Y-87100000D03*
%TO.P,R7,2,2*%
%TO.N,Net-(C10-+)*%
X161500000Y-103900000D03*
%TD*%
D25*
%TO.P,LED1,1,A*%
%TO.N,Net-(LED1-A)*%
X168000000Y-109500000D03*
%TO.P,LED1,2,K*%
%TO.N,GND*%
X168000000Y-112040000D03*
%TD*%
D14*
%TO.P,J2gen,1,1*%
%TO.N,Net-(C1-Pad2)*%
X106700000Y-92815000D03*
D15*
%TO.P,J2gen,2,2*%
%TO.N,GND*%
X106700000Y-97895000D03*
%TD*%
D13*
%TO.P,C5,1,1*%
%TO.N,Net-(IC1-POS)*%
X168500000Y-125500000D03*
%TO.P,C5,2,2*%
%TO.N,GND*%
X168500000Y-120420000D03*
%TD*%
%TO.P,C9,1,1*%
%TO.N,GND*%
X146500000Y-120040000D03*
%TO.P,C9,2,2*%
%TO.N,Net-(C10-+)*%
X146500000Y-114960000D03*
%TD*%
D23*
%TO.P,2MH_6mm,1*%
%TO.N,N/C*%
X102000000Y-123500019D03*
X103318019Y-120318038D03*
X103318019Y-126682000D03*
X106500000Y-119000019D03*
D24*
X106500000Y-123500019D03*
D23*
X106500000Y-128000019D03*
X109681981Y-120318038D03*
X109681981Y-126682000D03*
X111000000Y-123500019D03*
%TD*%
D26*
%TO.N,Net-(IC1-M)*%
X134250000Y-104500000D03*
X131250000Y-104500000D03*
X127500000Y-104500000D03*
X125500000Y-104500000D03*
%TD*%
D27*
%TO.N,Net-(Jmc2-Pad3)*%
X115500000Y-69800000D02*
X119620000Y-69800000D01*
X119620000Y-69800000D02*
X132420000Y-57000000D01*
X103000000Y-68600000D02*
X104600000Y-67000000D01*
X104600000Y-67000000D02*
X112700000Y-67000000D01*
X112700000Y-67000000D02*
X115500000Y-69800000D01*
%TO.N,Net-(C3-Pad1)*%
X125460000Y-67000000D02*
X135460000Y-57000000D01*
X135460000Y-57000000D02*
X137500000Y-57000000D01*
X150500000Y-87100000D02*
X163350000Y-74250000D01*
X171500000Y-63750000D02*
X171500000Y-53500000D01*
X163350000Y-74250000D02*
X170250000Y-74250000D01*
X170250000Y-74250000D02*
X170250000Y-65000000D01*
X147140136Y-64000000D02*
X143000000Y-64000000D01*
X170250000Y-65000000D02*
X171500000Y-63750000D01*
X171500000Y-53500000D02*
X157640136Y-53500000D01*
X157640136Y-53500000D02*
X147140136Y-64000000D01*
X143000000Y-64000000D02*
X133500000Y-73500000D01*
X133500000Y-73500000D02*
X131960000Y-73500000D01*
X131960000Y-73500000D02*
X125460000Y-67000000D01*
%TO.N,Net-(C6-Pad1)*%
X179000000Y-61000000D02*
X179000000Y-57000000D01*
X179000000Y-57000000D02*
X173500000Y-51500000D01*
X173500000Y-51500000D02*
X149250000Y-51500000D01*
X149250000Y-51500000D02*
X143750000Y-57000000D01*
X143750000Y-57000000D02*
X142580000Y-57000000D01*
X182000000Y-65600000D02*
X182000000Y-64000000D01*
X182000000Y-64000000D02*
X179000000Y-61000000D01*
%TO.N,Net-(IC2-M)*%
X180000000Y-90500000D02*
X182000000Y-88500000D01*
X182000000Y-88500000D02*
X182000000Y-82400000D01*
X180000000Y-92560000D02*
X180000000Y-90500000D01*
%TO.N,Net-(IC1-M)*%
X131250000Y-104500000D02*
X127500000Y-104500000D01*
X122250000Y-101250000D02*
X122250000Y-82310000D01*
X141250000Y-104500000D02*
X134250000Y-104500000D01*
X125500000Y-104500000D02*
X122250000Y-101250000D01*
X122250000Y-82310000D02*
X127560000Y-77000000D01*
X142750000Y-106000000D02*
X141250000Y-104500000D01*
X150500000Y-103900000D02*
X147650000Y-106750000D01*
X147650000Y-106750000D02*
X143500000Y-106750000D01*
X143500000Y-106750000D02*
X142750000Y-106000000D01*
%TO.N,Net-(IC3-N_OUT)*%
X135500000Y-97080000D02*
X135500000Y-94540000D01*
X141900000Y-108500000D02*
X139400000Y-106000000D01*
X139400000Y-106000000D02*
X133500000Y-106000000D01*
X133500000Y-106000000D02*
X132500000Y-105000000D01*
X132500000Y-105000000D02*
X132500000Y-100080000D01*
X132500000Y-100080000D02*
X135500000Y-97080000D01*
%TO.N,Net-(U1-GATE)*%
X119920000Y-116500000D02*
X119920000Y-113680000D01*
X119920000Y-113680000D02*
X125100000Y-108500000D01*
%TO.N,Net-(LED1-A)*%
X165500000Y-103900000D02*
X165500000Y-107000000D01*
X165500000Y-107000000D02*
X168000000Y-109500000D01*
D28*
%TO.N,Net-(IC3-IN)*%
X127880000Y-94540000D02*
X126500000Y-95920000D01*
X156500000Y-84000000D02*
X165000000Y-75500000D01*
X126500000Y-95920000D02*
X126500000Y-107500000D01*
X126500000Y-107500000D02*
X130500000Y-111500000D01*
X130500000Y-111500000D02*
X147500000Y-111500000D01*
X147500000Y-111500000D02*
X156500000Y-102500000D01*
X156500000Y-102500000D02*
X156500000Y-84000000D01*
X165000000Y-75500000D02*
X170500000Y-75500000D01*
X170500000Y-75500000D02*
X173000000Y-73000000D01*
%TD*%
%TA.AperFunction,Conductor*%
%TO.N,Net-(Jmc1-Pad1)*%
G36*
X174515677Y-76019685D02*
G01*
X174536319Y-76036319D01*
X175463681Y-76963681D01*
X175497166Y-77025004D01*
X175500000Y-77051362D01*
X175500000Y-87423364D01*
X175480315Y-87490403D01*
X175431454Y-87534273D01*
X173526182Y-88486909D01*
X173470728Y-88500000D01*
X160037544Y-88500000D01*
X159970505Y-88480315D01*
X159968761Y-88479174D01*
X158555217Y-87536811D01*
X158510356Y-87483246D01*
X158500000Y-87433637D01*
X158500000Y-87099999D01*
X160395287Y-87099999D01*
X160395287Y-87100000D01*
X160414096Y-87302989D01*
X160414097Y-87302992D01*
X160469883Y-87499063D01*
X160469886Y-87499069D01*
X160560751Y-87681551D01*
X160562533Y-87683911D01*
X161100000Y-87146445D01*
X161100000Y-87152661D01*
X161127259Y-87254394D01*
X161179920Y-87345606D01*
X161254394Y-87420080D01*
X161345606Y-87472741D01*
X161447339Y-87500000D01*
X161453553Y-87500000D01*
X160919311Y-88034240D01*
X161007585Y-88088897D01*
X161197678Y-88162539D01*
X161398072Y-88200000D01*
X161601928Y-88200000D01*
X161802322Y-88162539D01*
X161992412Y-88088899D01*
X161992416Y-88088897D01*
X162080686Y-88034241D01*
X162080686Y-88034240D01*
X161546448Y-87500000D01*
X161552661Y-87500000D01*
X161654394Y-87472741D01*
X161745606Y-87420080D01*
X161820080Y-87345606D01*
X161872741Y-87254394D01*
X161900000Y-87152661D01*
X161900000Y-87146447D01*
X162437465Y-87683912D01*
X162439247Y-87681553D01*
X162439248Y-87681551D01*
X162530113Y-87499069D01*
X162530116Y-87499063D01*
X162585902Y-87302992D01*
X162585903Y-87302989D01*
X162604713Y-87100000D01*
X162604713Y-87099999D01*
X164395287Y-87099999D01*
X164395287Y-87100000D01*
X164414096Y-87302989D01*
X164414097Y-87302992D01*
X164469883Y-87499063D01*
X164469886Y-87499069D01*
X164560751Y-87681551D01*
X164562533Y-87683911D01*
X165100000Y-87146445D01*
X165100000Y-87152661D01*
X165127259Y-87254394D01*
X165179920Y-87345606D01*
X165254394Y-87420080D01*
X165345606Y-87472741D01*
X165447339Y-87500000D01*
X165453553Y-87500000D01*
X164919311Y-88034240D01*
X165007585Y-88088897D01*
X165197678Y-88162539D01*
X165398072Y-88200000D01*
X165601928Y-88200000D01*
X165802322Y-88162539D01*
X165992412Y-88088899D01*
X165992416Y-88088897D01*
X166080686Y-88034241D01*
X166080686Y-88034240D01*
X165546448Y-87500000D01*
X165552661Y-87500000D01*
X165654394Y-87472741D01*
X165745606Y-87420080D01*
X165820080Y-87345606D01*
X165872741Y-87254394D01*
X165900000Y-87152661D01*
X165900000Y-87146447D01*
X166437465Y-87683912D01*
X166439247Y-87681553D01*
X166439248Y-87681551D01*
X166530113Y-87499069D01*
X166530116Y-87499063D01*
X166585902Y-87302992D01*
X166585903Y-87302989D01*
X166604713Y-87100000D01*
X166604713Y-87099999D01*
X168395287Y-87099999D01*
X168395287Y-87100000D01*
X168414096Y-87302989D01*
X168414097Y-87302992D01*
X168469883Y-87499063D01*
X168469886Y-87499069D01*
X168560751Y-87681551D01*
X168562533Y-87683911D01*
X169100000Y-87146445D01*
X169100000Y-87152661D01*
X169127259Y-87254394D01*
X169179920Y-87345606D01*
X169254394Y-87420080D01*
X169345606Y-87472741D01*
X169447339Y-87500000D01*
X169453553Y-87500000D01*
X168919311Y-88034240D01*
X169007585Y-88088897D01*
X169197678Y-88162539D01*
X169398072Y-88200000D01*
X169601928Y-88200000D01*
X169802322Y-88162539D01*
X169992412Y-88088899D01*
X169992416Y-88088897D01*
X170080686Y-88034241D01*
X170080686Y-88034240D01*
X169546448Y-87500000D01*
X169552661Y-87500000D01*
X169654394Y-87472741D01*
X169745606Y-87420080D01*
X169820080Y-87345606D01*
X169872741Y-87254394D01*
X169900000Y-87152661D01*
X169900000Y-87146447D01*
X170437465Y-87683912D01*
X170439247Y-87681553D01*
X170439248Y-87681551D01*
X170530113Y-87499069D01*
X170530116Y-87499063D01*
X170585902Y-87302992D01*
X170585903Y-87302989D01*
X170604713Y-87100000D01*
X170604713Y-87099999D01*
X170585903Y-86897010D01*
X170585902Y-86897007D01*
X170530116Y-86700936D01*
X170530113Y-86700930D01*
X170439249Y-86518449D01*
X170439247Y-86518447D01*
X170437465Y-86516087D01*
X169900000Y-87053552D01*
X169900000Y-87047339D01*
X169872741Y-86945606D01*
X169820080Y-86854394D01*
X169745606Y-86779920D01*
X169654394Y-86727259D01*
X169552661Y-86700000D01*
X169546447Y-86700000D01*
X170080687Y-86165758D01*
X169992413Y-86111101D01*
X169992411Y-86111100D01*
X169802321Y-86037460D01*
X169601928Y-86000000D01*
X169398072Y-86000000D01*
X169197678Y-86037460D01*
X169007588Y-86111100D01*
X169007581Y-86111104D01*
X168919312Y-86165757D01*
X168919311Y-86165758D01*
X169453554Y-86700000D01*
X169447339Y-86700000D01*
X169345606Y-86727259D01*
X169254394Y-86779920D01*
X169179920Y-86854394D01*
X169127259Y-86945606D01*
X169100000Y-87047339D01*
X169100000Y-87053554D01*
X168562533Y-86516087D01*
X168560755Y-86518442D01*
X168560754Y-86518443D01*
X168469886Y-86700930D01*
X168469883Y-86700936D01*
X168414097Y-86897007D01*
X168414096Y-86897010D01*
X168395287Y-87099999D01*
X166604713Y-87099999D01*
X166585903Y-86897010D01*
X166585902Y-86897007D01*
X166530116Y-86700936D01*
X166530113Y-86700930D01*
X166439249Y-86518449D01*
X166439247Y-86518447D01*
X166437465Y-86516087D01*
X165900000Y-87053552D01*
X165900000Y-87047339D01*
X165872741Y-86945606D01*
X165820080Y-86854394D01*
X165745606Y-86779920D01*
X165654394Y-86727259D01*
X165552661Y-86700000D01*
X165546447Y-86700000D01*
X166080687Y-86165758D01*
X165992413Y-86111101D01*
X165992411Y-86111100D01*
X165802321Y-86037460D01*
X165601928Y-86000000D01*
X165398072Y-86000000D01*
X165197678Y-86037460D01*
X165007588Y-86111100D01*
X165007581Y-86111104D01*
X164919312Y-86165757D01*
X164919311Y-86165758D01*
X165453554Y-86700000D01*
X165447339Y-86700000D01*
X165345606Y-86727259D01*
X165254394Y-86779920D01*
X165179920Y-86854394D01*
X165127259Y-86945606D01*
X165100000Y-87047339D01*
X165100000Y-87053553D01*
X164562533Y-86516087D01*
X164560755Y-86518442D01*
X164560754Y-86518443D01*
X164469886Y-86700930D01*
X164469883Y-86700936D01*
X164414097Y-86897007D01*
X164414096Y-86897010D01*
X164395287Y-87099999D01*
X162604713Y-87099999D01*
X162585903Y-86897010D01*
X162585902Y-86897007D01*
X162530116Y-86700936D01*
X162530113Y-86700930D01*
X162439249Y-86518449D01*
X162439247Y-86518447D01*
X162437465Y-86516087D01*
X161900000Y-87053552D01*
X161900000Y-87047339D01*
X161872741Y-86945606D01*
X161820080Y-86854394D01*
X161745606Y-86779920D01*
X161654394Y-86727259D01*
X161552661Y-86700000D01*
X161546447Y-86700000D01*
X162080687Y-86165758D01*
X161992413Y-86111101D01*
X161992411Y-86111100D01*
X161802321Y-86037460D01*
X161601928Y-86000000D01*
X161398072Y-86000000D01*
X161197678Y-86037460D01*
X161007588Y-86111100D01*
X161007581Y-86111104D01*
X160919312Y-86165757D01*
X160919311Y-86165758D01*
X161453554Y-86700000D01*
X161447339Y-86700000D01*
X161345606Y-86727259D01*
X161254394Y-86779920D01*
X161179920Y-86854394D01*
X161127259Y-86945606D01*
X161100000Y-87047339D01*
X161100000Y-87053554D01*
X160562533Y-86516087D01*
X160560755Y-86518442D01*
X160560754Y-86518443D01*
X160469886Y-86700930D01*
X160469883Y-86700936D01*
X160414097Y-86897007D01*
X160414096Y-86897010D01*
X160395287Y-87099999D01*
X158500000Y-87099999D01*
X158500000Y-85066362D01*
X158519685Y-84999323D01*
X158555215Y-84963189D01*
X159968761Y-84020826D01*
X160035460Y-84000018D01*
X160037544Y-84000000D01*
X170500000Y-84000000D01*
X170500000Y-77057155D01*
X171525000Y-77057155D01*
X171525000Y-77830000D01*
X172399999Y-77830000D01*
X172374979Y-77890402D01*
X172350000Y-78015981D01*
X172350000Y-78144019D01*
X172374979Y-78269598D01*
X172399999Y-78330000D01*
X171525000Y-78330000D01*
X171525000Y-79102844D01*
X171531401Y-79162372D01*
X171531403Y-79162379D01*
X171581645Y-79297086D01*
X171581649Y-79297093D01*
X171667809Y-79412187D01*
X171667812Y-79412190D01*
X171782906Y-79498350D01*
X171782913Y-79498354D01*
X171917620Y-79548596D01*
X171917627Y-79548598D01*
X171977155Y-79554999D01*
X171977172Y-79555000D01*
X172750000Y-79555000D01*
X172750000Y-78680001D01*
X172810402Y-78705021D01*
X172935981Y-78730000D01*
X173064019Y-78730000D01*
X173189598Y-78705021D01*
X173250000Y-78680001D01*
X173250000Y-79555000D01*
X174022828Y-79555000D01*
X174022844Y-79554999D01*
X174082372Y-79548598D01*
X174082379Y-79548596D01*
X174217086Y-79498354D01*
X174217093Y-79498350D01*
X174332187Y-79412190D01*
X174332190Y-79412187D01*
X174418350Y-79297093D01*
X174418354Y-79297086D01*
X174468596Y-79162379D01*
X174468598Y-79162372D01*
X174474999Y-79102844D01*
X174475000Y-79102827D01*
X174475000Y-78330000D01*
X173600001Y-78330000D01*
X173625021Y-78269598D01*
X173650000Y-78144019D01*
X173650000Y-78015981D01*
X173625021Y-77890402D01*
X173600001Y-77830000D01*
X174475000Y-77830000D01*
X174475000Y-77057172D01*
X174474999Y-77057155D01*
X174468598Y-76997627D01*
X174468596Y-76997620D01*
X174418354Y-76862913D01*
X174418350Y-76862906D01*
X174332190Y-76747812D01*
X174332187Y-76747809D01*
X174217093Y-76661649D01*
X174217086Y-76661645D01*
X174082379Y-76611403D01*
X174082372Y-76611401D01*
X174022844Y-76605000D01*
X173250000Y-76605000D01*
X173250000Y-77479998D01*
X173189598Y-77454979D01*
X173064019Y-77430000D01*
X172935981Y-77430000D01*
X172810402Y-77454979D01*
X172750000Y-77479998D01*
X172750000Y-76605000D01*
X171977155Y-76605000D01*
X171917627Y-76611401D01*
X171917620Y-76611403D01*
X171782913Y-76661645D01*
X171782906Y-76661649D01*
X171667812Y-76747809D01*
X171667809Y-76747812D01*
X171581649Y-76862906D01*
X171581645Y-76862913D01*
X171531403Y-76997620D01*
X171531401Y-76997627D01*
X171525000Y-77057155D01*
X170500000Y-77057155D01*
X170500000Y-77051362D01*
X170519685Y-76984323D01*
X170536319Y-76963681D01*
X171463681Y-76036319D01*
X171525004Y-76002834D01*
X171551362Y-76000000D01*
X174448638Y-76000000D01*
X174515677Y-76019685D01*
G37*
%TD.AperFunction*%
%TD*%
%TA.AperFunction,Conductor*%
%TO.N,Net-(D1-A)*%
G36*
X108774335Y-110010990D02*
G01*
X116427039Y-113467050D01*
X116480033Y-113512581D01*
X116499999Y-113579537D01*
X116500000Y-113580058D01*
X116500000Y-118000000D01*
X123499999Y-118250000D01*
X123500000Y-118250000D01*
X123500000Y-117688237D01*
X123519685Y-117621198D01*
X123543473Y-117593943D01*
X123549113Y-117589126D01*
X123549113Y-117589125D01*
X123549120Y-117589120D01*
X123673460Y-117443535D01*
X123731964Y-117405344D01*
X123741980Y-117404465D01*
X124368343Y-116778103D01*
X124388530Y-116826838D01*
X124464042Y-116939850D01*
X124560150Y-117035958D01*
X124673162Y-117111470D01*
X124721895Y-117131656D01*
X124102964Y-117750586D01*
X124102964Y-117750587D01*
X124300969Y-117871925D01*
X124300972Y-117871927D01*
X124524191Y-117964386D01*
X124759127Y-118020789D01*
X125000000Y-118039746D01*
X125240872Y-118020789D01*
X125475808Y-117964386D01*
X125475809Y-117964386D01*
X125699025Y-117871927D01*
X125897034Y-117750586D01*
X125278103Y-117131656D01*
X125326838Y-117111470D01*
X125439850Y-117035958D01*
X125535958Y-116939850D01*
X125611470Y-116826838D01*
X125631656Y-116778104D01*
X126250586Y-117397034D01*
X126371927Y-117199025D01*
X126464386Y-116975809D01*
X126464386Y-116975808D01*
X126520789Y-116740872D01*
X126539746Y-116500000D01*
X126520789Y-116259127D01*
X126464386Y-116024191D01*
X126464386Y-116024190D01*
X126371927Y-115800972D01*
X126371925Y-115800969D01*
X126250586Y-115602964D01*
X125631656Y-116221895D01*
X125611470Y-116173162D01*
X125535958Y-116060150D01*
X125439850Y-115964042D01*
X125326838Y-115888530D01*
X125278103Y-115868343D01*
X125897034Y-115249412D01*
X125699030Y-115128074D01*
X125699027Y-115128072D01*
X125475808Y-115035613D01*
X125240872Y-114979210D01*
X125000000Y-114960253D01*
X124759127Y-114979210D01*
X124524191Y-115035613D01*
X124524190Y-115035613D01*
X124300972Y-115128072D01*
X124300969Y-115128074D01*
X124102964Y-115249412D01*
X124721896Y-115868343D01*
X124673162Y-115888530D01*
X124560150Y-115964042D01*
X124464042Y-116060150D01*
X124388530Y-116173162D01*
X124368343Y-116221896D01*
X123738010Y-115591563D01*
X123713430Y-115587399D01*
X123673458Y-115556461D01*
X123615183Y-115488230D01*
X123549120Y-115410880D01*
X123543466Y-115406051D01*
X123505275Y-115347543D01*
X123500000Y-115311762D01*
X123500000Y-115291333D01*
X123519685Y-115224294D01*
X123524800Y-115216933D01*
X124212800Y-114299600D01*
X124268771Y-114257779D01*
X124312000Y-114250000D01*
X125940402Y-114250000D01*
X126007441Y-114269685D01*
X126037230Y-114296538D01*
X126972828Y-115466035D01*
X126999336Y-115530681D01*
X127000000Y-115543497D01*
X127000000Y-117789080D01*
X126980315Y-117856119D01*
X126968980Y-117871121D01*
X126673962Y-118205474D01*
X126648345Y-118227540D01*
X122750000Y-120749999D01*
X122683743Y-122091686D01*
X122660776Y-122157673D01*
X122654319Y-122165943D01*
X122594437Y-122236293D01*
X122594429Y-122236305D01*
X122590687Y-122244498D01*
X122590688Y-122244499D01*
X122534664Y-122367170D01*
X122514976Y-122434218D01*
X122494500Y-122576637D01*
X122494500Y-124775079D01*
X122474815Y-124842118D01*
X122442106Y-124876315D01*
X120551256Y-126213745D01*
X120485156Y-126236387D01*
X120440438Y-126230146D01*
X117529658Y-125259886D01*
X117478573Y-125227234D01*
X117076470Y-124800000D01*
X116323529Y-124000000D01*
X118507591Y-124000000D01*
X118527195Y-124249104D01*
X118585528Y-124492081D01*
X118681152Y-124722939D01*
X118811234Y-124935212D01*
X119441555Y-124304891D01*
X119457513Y-124343416D01*
X119536856Y-124462161D01*
X119637839Y-124563144D01*
X119756584Y-124642487D01*
X119795107Y-124658444D01*
X119164786Y-125288764D01*
X119377060Y-125418847D01*
X119607918Y-125514471D01*
X119850895Y-125572804D01*
X119850894Y-125572804D01*
X120100000Y-125592408D01*
X120349104Y-125572804D01*
X120592081Y-125514471D01*
X120822939Y-125418847D01*
X121035212Y-125288765D01*
X121035212Y-125288764D01*
X120404891Y-124658444D01*
X120443416Y-124642487D01*
X120562161Y-124563144D01*
X120663144Y-124462161D01*
X120742487Y-124343416D01*
X120758444Y-124304892D01*
X121388764Y-124935212D01*
X121388765Y-124935212D01*
X121518847Y-124722939D01*
X121614471Y-124492081D01*
X121672804Y-124249104D01*
X121692408Y-124000000D01*
X121672804Y-123750895D01*
X121614471Y-123507918D01*
X121518847Y-123277060D01*
X121388764Y-123064786D01*
X120758443Y-123695107D01*
X120742487Y-123656584D01*
X120663144Y-123537839D01*
X120562161Y-123436856D01*
X120443416Y-123357513D01*
X120404891Y-123341555D01*
X121035212Y-122711234D01*
X120822939Y-122581152D01*
X120592081Y-122485528D01*
X120349104Y-122427195D01*
X120349105Y-122427195D01*
X120100000Y-122407591D01*
X119850895Y-122427195D01*
X119607918Y-122485528D01*
X119377060Y-122581152D01*
X119164786Y-122711234D01*
X119795108Y-123341555D01*
X119756584Y-123357513D01*
X119637839Y-123436856D01*
X119536856Y-123537839D01*
X119457513Y-123656584D01*
X119441555Y-123695107D01*
X118811234Y-123064786D01*
X118681152Y-123277060D01*
X118585528Y-123507918D01*
X118527195Y-123750895D01*
X118507591Y-124000000D01*
X116323529Y-124000000D01*
X109500000Y-116750000D01*
X109499998Y-116749999D01*
X104842443Y-115524327D01*
X104782620Y-115488230D01*
X104751810Y-115425520D01*
X104750000Y-115404410D01*
X104750000Y-111894994D01*
X105219945Y-111894994D01*
X105219945Y-111895005D01*
X105240130Y-112138605D01*
X105300138Y-112375573D01*
X105398330Y-112599429D01*
X105494626Y-112746819D01*
X106098958Y-112142487D01*
X106123978Y-112202890D01*
X106195112Y-112309351D01*
X106285649Y-112399888D01*
X106392110Y-112471022D01*
X106452511Y-112496041D01*
X105847758Y-113100794D01*
X105847758Y-113100796D01*
X105890478Y-113134046D01*
X105890484Y-113134050D01*
X106105468Y-113250394D01*
X106105476Y-113250397D01*
X106336664Y-113329765D01*
X106577779Y-113370000D01*
X106822221Y-113370000D01*
X107063335Y-113329765D01*
X107294523Y-113250397D01*
X107294531Y-113250394D01*
X107509514Y-113134051D01*
X107509514Y-113134050D01*
X107552240Y-113100795D01*
X107552240Y-113100794D01*
X106947488Y-112496041D01*
X107007890Y-112471022D01*
X107114351Y-112399888D01*
X107204888Y-112309351D01*
X107276022Y-112202890D01*
X107301041Y-112142488D01*
X107905372Y-112746819D01*
X108001667Y-112599431D01*
X108001672Y-112599423D01*
X108099861Y-112375573D01*
X108159869Y-112138605D01*
X108180055Y-111895005D01*
X108180055Y-111894994D01*
X108159869Y-111651394D01*
X108099861Y-111414426D01*
X108001669Y-111190570D01*
X107905372Y-111043179D01*
X107301041Y-111647510D01*
X107276022Y-111587110D01*
X107204888Y-111480649D01*
X107114351Y-111390112D01*
X107007890Y-111318978D01*
X106947487Y-111293958D01*
X107552240Y-110689204D01*
X107552240Y-110689203D01*
X107509514Y-110655949D01*
X107294531Y-110539605D01*
X107294523Y-110539602D01*
X107063335Y-110460234D01*
X106822221Y-110420000D01*
X106577779Y-110420000D01*
X106336664Y-110460234D01*
X106105476Y-110539602D01*
X106105468Y-110539605D01*
X105890481Y-110655951D01*
X105847758Y-110689202D01*
X105847757Y-110689204D01*
X106452511Y-111293958D01*
X106392110Y-111318978D01*
X106285649Y-111390112D01*
X106195112Y-111480649D01*
X106123978Y-111587110D01*
X106098958Y-111647511D01*
X105494626Y-111043179D01*
X105398328Y-111190575D01*
X105300138Y-111414426D01*
X105240130Y-111651394D01*
X105219945Y-111894994D01*
X104750000Y-111894994D01*
X104750000Y-111029272D01*
X104763091Y-110973818D01*
X104922026Y-110655949D01*
X105215727Y-110068546D01*
X105263314Y-110017387D01*
X105326636Y-110000000D01*
X108723298Y-110000000D01*
X108774335Y-110010990D01*
G37*
%TD.AperFunction*%
%TD*%
%TA.AperFunction,Conductor*%
%TO.N,Net-(C10-+)*%
G36*
X162019996Y-102267584D02*
G01*
X162039286Y-102279465D01*
X162971016Y-102978262D01*
X163012721Y-103033923D01*
X163726150Y-104936400D01*
X163731258Y-105006082D01*
X163709245Y-105054339D01*
X159250000Y-110999999D01*
X158513797Y-113454007D01*
X158475679Y-113512563D01*
X158458824Y-113524705D01*
X156000385Y-114999769D01*
X155999670Y-115000195D01*
X150529184Y-118232755D01*
X150466102Y-118250000D01*
X145999999Y-118250000D01*
X144276846Y-119973153D01*
X144215523Y-120006638D01*
X144212728Y-120007213D01*
X136500000Y-121500000D01*
X136500000Y-126933637D01*
X136480315Y-127000676D01*
X136444783Y-127036811D01*
X135031239Y-127979174D01*
X134964540Y-127999982D01*
X134962456Y-128000000D01*
X125041333Y-128000000D01*
X124974294Y-127980315D01*
X124966933Y-127975200D01*
X123049600Y-126537200D01*
X123007779Y-126481229D01*
X123000000Y-126438000D01*
X123000000Y-122864655D01*
X123412500Y-122864655D01*
X123412500Y-123750000D01*
X124318819Y-123750000D01*
X124302861Y-123788525D01*
X124275000Y-123928594D01*
X124275000Y-124071406D01*
X124302861Y-124211475D01*
X124318819Y-124250000D01*
X123412500Y-124250000D01*
X123412500Y-125135344D01*
X123418901Y-125194872D01*
X123418903Y-125194879D01*
X123469145Y-125329586D01*
X123469149Y-125329593D01*
X123555309Y-125444687D01*
X123555312Y-125444690D01*
X123670406Y-125530850D01*
X123670413Y-125530854D01*
X123805120Y-125581096D01*
X123805127Y-125581098D01*
X123864655Y-125587499D01*
X123864672Y-125587500D01*
X124750000Y-125587500D01*
X124750000Y-124681181D01*
X124788525Y-124697139D01*
X124928594Y-124725000D01*
X125071406Y-124725000D01*
X125211475Y-124697139D01*
X125250000Y-124681181D01*
X125250000Y-125587500D01*
X126135328Y-125587500D01*
X126135344Y-125587499D01*
X126194872Y-125581098D01*
X126194879Y-125581096D01*
X126329586Y-125530854D01*
X126329593Y-125530850D01*
X126444687Y-125444690D01*
X126444690Y-125444687D01*
X126530850Y-125329593D01*
X126530854Y-125329586D01*
X126581096Y-125194879D01*
X126581098Y-125194872D01*
X126587499Y-125135344D01*
X126587500Y-125135327D01*
X126587500Y-124250000D01*
X125681181Y-124250000D01*
X125697139Y-124211475D01*
X125725000Y-124071406D01*
X125725000Y-123928594D01*
X125697139Y-123788525D01*
X125681181Y-123750000D01*
X126587500Y-123750000D01*
X126587500Y-122864672D01*
X126587499Y-122864655D01*
X126581098Y-122805127D01*
X126581096Y-122805120D01*
X126530854Y-122670413D01*
X126530850Y-122670406D01*
X126444690Y-122555312D01*
X126444687Y-122555309D01*
X126329593Y-122469149D01*
X126329586Y-122469145D01*
X126194879Y-122418903D01*
X126194872Y-122418901D01*
X126135344Y-122412500D01*
X125250000Y-122412500D01*
X125250000Y-123318818D01*
X125211475Y-123302861D01*
X125071406Y-123275000D01*
X124928594Y-123275000D01*
X124788525Y-123302861D01*
X124750000Y-123318818D01*
X124750000Y-122412500D01*
X123864655Y-122412500D01*
X123805127Y-122418901D01*
X123805120Y-122418903D01*
X123670413Y-122469145D01*
X123670406Y-122469149D01*
X123555312Y-122555309D01*
X123555309Y-122555312D01*
X123469149Y-122670406D01*
X123469145Y-122670413D01*
X123418903Y-122805120D01*
X123418901Y-122805127D01*
X123412500Y-122864655D01*
X123000000Y-122864655D01*
X123000000Y-122576636D01*
X123019685Y-122509597D01*
X123068546Y-122465727D01*
X123999996Y-122000002D01*
X124000000Y-122000000D01*
X124020157Y-121977155D01*
X133025000Y-121977155D01*
X133025000Y-122750000D01*
X133899999Y-122750000D01*
X133874979Y-122810402D01*
X133850000Y-122935981D01*
X133850000Y-123064019D01*
X133874979Y-123189598D01*
X133899999Y-123250000D01*
X133025000Y-123250000D01*
X133025000Y-124022844D01*
X133031401Y-124082372D01*
X133031403Y-124082379D01*
X133081645Y-124217086D01*
X133081649Y-124217093D01*
X133167809Y-124332187D01*
X133167812Y-124332190D01*
X133282906Y-124418350D01*
X133282913Y-124418354D01*
X133417620Y-124468596D01*
X133417627Y-124468598D01*
X133477155Y-124474999D01*
X133477172Y-124475000D01*
X134250000Y-124475000D01*
X134250000Y-123600001D01*
X134310402Y-123625021D01*
X134435981Y-123650000D01*
X134564019Y-123650000D01*
X134689598Y-123625021D01*
X134750000Y-123600001D01*
X134750000Y-124475000D01*
X135522828Y-124475000D01*
X135522844Y-124474999D01*
X135582372Y-124468598D01*
X135582379Y-124468596D01*
X135717086Y-124418354D01*
X135717093Y-124418350D01*
X135832187Y-124332190D01*
X135832190Y-124332187D01*
X135918350Y-124217093D01*
X135918354Y-124217086D01*
X135968596Y-124082379D01*
X135968598Y-124082372D01*
X135974999Y-124022844D01*
X135975000Y-124022827D01*
X135975000Y-123250000D01*
X135100001Y-123250000D01*
X135125021Y-123189598D01*
X135150000Y-123064019D01*
X135150000Y-122935981D01*
X135125021Y-122810402D01*
X135100001Y-122750000D01*
X135975000Y-122750000D01*
X135975000Y-121977172D01*
X135974999Y-121977155D01*
X135968598Y-121917627D01*
X135968596Y-121917620D01*
X135918354Y-121782913D01*
X135918350Y-121782906D01*
X135832190Y-121667812D01*
X135832187Y-121667809D01*
X135717093Y-121581649D01*
X135717086Y-121581645D01*
X135582379Y-121531403D01*
X135582372Y-121531401D01*
X135522844Y-121525000D01*
X134750000Y-121525000D01*
X134750000Y-122399998D01*
X134689598Y-122374979D01*
X134564019Y-122350000D01*
X134435981Y-122350000D01*
X134310402Y-122374979D01*
X134250000Y-122399998D01*
X134250000Y-121525000D01*
X133477155Y-121525000D01*
X133417627Y-121531401D01*
X133417620Y-121531403D01*
X133282913Y-121581645D01*
X133282906Y-121581649D01*
X133167812Y-121667809D01*
X133167809Y-121667812D01*
X133081649Y-121782906D01*
X133081645Y-121782913D01*
X133031403Y-121917620D01*
X133031401Y-121917627D01*
X133025000Y-121977155D01*
X124020157Y-121977155D01*
X130211764Y-114959999D01*
X145390266Y-114959999D01*
X145390266Y-114960000D01*
X145409160Y-115163912D01*
X145465203Y-115360879D01*
X145465210Y-115360897D01*
X145556482Y-115544196D01*
X145558963Y-115547481D01*
X145558965Y-115547482D01*
X146145000Y-114961447D01*
X146145000Y-115006737D01*
X146169193Y-115097025D01*
X146215930Y-115177975D01*
X146282025Y-115244070D01*
X146362975Y-115290807D01*
X146453263Y-115315000D01*
X146498553Y-115315000D01*
X145915679Y-115897871D01*
X146005347Y-115953392D01*
X146005349Y-115953393D01*
X146196299Y-116027367D01*
X146196309Y-116027370D01*
X146397610Y-116065000D01*
X146602390Y-116065000D01*
X146803690Y-116027370D01*
X146803700Y-116027367D01*
X146994650Y-115953393D01*
X146994654Y-115953391D01*
X147084318Y-115897872D01*
X147084318Y-115897871D01*
X146501448Y-115315000D01*
X146546737Y-115315000D01*
X146637025Y-115290807D01*
X146717975Y-115244070D01*
X146784070Y-115177975D01*
X146830807Y-115097025D01*
X146855000Y-115006737D01*
X146855000Y-114961448D01*
X147441034Y-115547482D01*
X147441035Y-115547481D01*
X147443516Y-115544199D01*
X147534789Y-115360897D01*
X147534796Y-115360879D01*
X147590839Y-115163912D01*
X147609734Y-114960000D01*
X147609734Y-114959999D01*
X147590839Y-114756087D01*
X147534796Y-114559120D01*
X147534789Y-114559102D01*
X147443517Y-114375803D01*
X147441034Y-114372517D01*
X146855000Y-114958551D01*
X146855000Y-114913263D01*
X146830807Y-114822975D01*
X146784070Y-114742025D01*
X146717975Y-114675930D01*
X146637025Y-114629193D01*
X146546737Y-114605000D01*
X146501448Y-114605000D01*
X147084319Y-114022127D01*
X146994648Y-113966606D01*
X146803691Y-113892629D01*
X146602390Y-113855000D01*
X146397610Y-113855000D01*
X146196309Y-113892629D01*
X146196308Y-113892629D01*
X146005351Y-113966606D01*
X146005345Y-113966609D01*
X145915680Y-114022126D01*
X145915679Y-114022127D01*
X146498553Y-114605000D01*
X146453263Y-114605000D01*
X146362975Y-114629193D01*
X146282025Y-114675930D01*
X146215930Y-114742025D01*
X146169193Y-114822975D01*
X146145000Y-114913263D01*
X146145000Y-114958552D01*
X145558964Y-114372516D01*
X145556482Y-114375803D01*
X145465210Y-114559102D01*
X145465203Y-114559120D01*
X145409160Y-114756087D01*
X145390266Y-114959999D01*
X130211764Y-114959999D01*
X131466650Y-113537795D01*
X131525764Y-113500552D01*
X131550259Y-113496192D01*
X148000000Y-112250000D01*
X148435345Y-111814655D01*
X154862500Y-111814655D01*
X154862500Y-112250000D01*
X155653590Y-112250000D01*
X155603963Y-112335956D01*
X155575000Y-112444048D01*
X155575000Y-112555952D01*
X155603963Y-112664044D01*
X155653590Y-112750000D01*
X154862500Y-112750000D01*
X154862500Y-113185344D01*
X154868901Y-113244872D01*
X154868903Y-113244879D01*
X154919145Y-113379586D01*
X154919149Y-113379593D01*
X155005309Y-113494687D01*
X155005312Y-113494690D01*
X155120406Y-113580850D01*
X155120413Y-113580854D01*
X155255120Y-113631096D01*
X155255127Y-113631098D01*
X155314655Y-113637499D01*
X155314672Y-113637500D01*
X155750000Y-113637500D01*
X155750000Y-112846409D01*
X155835956Y-112896037D01*
X155944048Y-112925000D01*
X156055952Y-112925000D01*
X156164044Y-112896037D01*
X156250000Y-112846409D01*
X156250000Y-113637500D01*
X156685328Y-113637500D01*
X156685344Y-113637499D01*
X156744872Y-113631098D01*
X156744879Y-113631096D01*
X156879586Y-113580854D01*
X156879593Y-113580850D01*
X156994687Y-113494690D01*
X156994690Y-113494687D01*
X157080850Y-113379593D01*
X157080854Y-113379586D01*
X157131096Y-113244879D01*
X157131098Y-113244872D01*
X157137499Y-113185344D01*
X157137500Y-113185327D01*
X157137500Y-112750000D01*
X156346410Y-112750000D01*
X156396037Y-112664044D01*
X156425000Y-112555952D01*
X156425000Y-112444048D01*
X156396037Y-112335956D01*
X156346410Y-112250000D01*
X157137500Y-112250000D01*
X157137500Y-111814672D01*
X157137499Y-111814655D01*
X157131098Y-111755127D01*
X157131096Y-111755120D01*
X157080854Y-111620413D01*
X157080850Y-111620406D01*
X156994690Y-111505312D01*
X156994687Y-111505309D01*
X156879593Y-111419149D01*
X156879586Y-111419145D01*
X156744879Y-111368903D01*
X156744872Y-111368901D01*
X156685344Y-111362500D01*
X156250000Y-111362500D01*
X156250000Y-112153590D01*
X156164044Y-112103963D01*
X156055952Y-112075000D01*
X155944048Y-112075000D01*
X155835956Y-112103963D01*
X155750000Y-112153590D01*
X155750000Y-111362500D01*
X155314655Y-111362500D01*
X155255127Y-111368901D01*
X155255120Y-111368903D01*
X155120413Y-111419145D01*
X155120406Y-111419149D01*
X155005312Y-111505309D01*
X155005309Y-111505312D01*
X154919149Y-111620406D01*
X154919145Y-111620413D01*
X154868903Y-111755120D01*
X154868901Y-111755127D01*
X154862500Y-111814655D01*
X148435345Y-111814655D01*
X156350000Y-103899999D01*
X160395287Y-103899999D01*
X160395287Y-103900000D01*
X160414096Y-104102989D01*
X160414097Y-104102992D01*
X160469883Y-104299063D01*
X160469886Y-104299069D01*
X160560751Y-104481551D01*
X160562533Y-104483911D01*
X161100000Y-103946445D01*
X161100000Y-103952661D01*
X161127259Y-104054394D01*
X161179920Y-104145606D01*
X161254394Y-104220080D01*
X161345606Y-104272741D01*
X161447339Y-104300000D01*
X161453553Y-104300000D01*
X160919311Y-104834240D01*
X161007585Y-104888897D01*
X161197678Y-104962539D01*
X161398072Y-105000000D01*
X161601928Y-105000000D01*
X161802322Y-104962539D01*
X161992412Y-104888899D01*
X161992416Y-104888897D01*
X162080686Y-104834241D01*
X162080686Y-104834240D01*
X161546448Y-104300000D01*
X161552661Y-104300000D01*
X161654394Y-104272741D01*
X161745606Y-104220080D01*
X161820080Y-104145606D01*
X161872741Y-104054394D01*
X161900000Y-103952661D01*
X161900000Y-103946447D01*
X162437465Y-104483912D01*
X162439247Y-104481553D01*
X162439248Y-104481551D01*
X162530113Y-104299069D01*
X162530116Y-104299063D01*
X162585902Y-104102992D01*
X162585903Y-104102989D01*
X162604713Y-103900000D01*
X162604713Y-103899999D01*
X162585903Y-103697010D01*
X162585902Y-103697007D01*
X162530116Y-103500936D01*
X162530113Y-103500930D01*
X162439249Y-103318449D01*
X162439247Y-103318447D01*
X162437465Y-103316087D01*
X161900000Y-103853552D01*
X161900000Y-103847339D01*
X161872741Y-103745606D01*
X161820080Y-103654394D01*
X161745606Y-103579920D01*
X161654394Y-103527259D01*
X161552661Y-103500000D01*
X161546447Y-103500000D01*
X162080687Y-102965758D01*
X161992413Y-102911101D01*
X161992411Y-102911100D01*
X161802321Y-102837460D01*
X161601928Y-102800000D01*
X161398072Y-102800000D01*
X161197678Y-102837460D01*
X161007588Y-102911100D01*
X161007581Y-102911104D01*
X160919312Y-102965757D01*
X160919311Y-102965758D01*
X161453554Y-103500000D01*
X161447339Y-103500000D01*
X161345606Y-103527259D01*
X161254394Y-103579920D01*
X161179920Y-103654394D01*
X161127259Y-103745606D01*
X161100000Y-103847339D01*
X161100000Y-103853554D01*
X160562533Y-103316087D01*
X160560755Y-103318442D01*
X160560754Y-103318443D01*
X160469886Y-103500930D01*
X160469883Y-103500936D01*
X160414097Y-103697007D01*
X160414096Y-103697010D01*
X160395287Y-103899999D01*
X156350000Y-103899999D01*
X157469244Y-102780755D01*
X157530565Y-102747272D01*
X157543217Y-102745198D01*
X161951193Y-102255423D01*
X162019996Y-102267584D01*
G37*
%TD.AperFunction*%
%TD*%
%TA.AperFunction,Conductor*%
%TO.N,Net-(IC1-POS)*%
G36*
X163529495Y-56519685D02*
G01*
X163531239Y-56520826D01*
X164194784Y-56963189D01*
X164239644Y-57016753D01*
X164250000Y-57066362D01*
X164250000Y-59679792D01*
X164230315Y-59746831D01*
X164189797Y-59786121D01*
X163000001Y-60499998D01*
X157760785Y-77714561D01*
X157722434Y-77772965D01*
X157721540Y-77773716D01*
X156267374Y-78985521D01*
X156228635Y-79007412D01*
X144000000Y-83249999D01*
X136750000Y-85999999D01*
X136750000Y-91653838D01*
X136730315Y-91720877D01*
X136677511Y-91766632D01*
X136608353Y-91776576D01*
X136544797Y-91747551D01*
X136507339Y-91689834D01*
X136478479Y-91594696D01*
X136401978Y-91451574D01*
X135854000Y-91999552D01*
X135854000Y-91953395D01*
X135829876Y-91863361D01*
X135783271Y-91782639D01*
X135717361Y-91716729D01*
X135636639Y-91670124D01*
X135546605Y-91646000D01*
X135500447Y-91646000D01*
X136048424Y-91098021D01*
X135905302Y-91021520D01*
X135706618Y-90961249D01*
X135500000Y-90940900D01*
X135293381Y-90961249D01*
X135094695Y-91021520D01*
X134951574Y-91098020D01*
X135499554Y-91646000D01*
X135453395Y-91646000D01*
X135363361Y-91670124D01*
X135282639Y-91716729D01*
X135216729Y-91782639D01*
X135170124Y-91863361D01*
X135146000Y-91953395D01*
X135146000Y-91999554D01*
X134598020Y-91451574D01*
X134521520Y-91594695D01*
X134461249Y-91793381D01*
X134440900Y-92000000D01*
X134461249Y-92206618D01*
X134521520Y-92405302D01*
X134598021Y-92548424D01*
X135146000Y-92000445D01*
X135146000Y-92046605D01*
X135170124Y-92136639D01*
X135216729Y-92217361D01*
X135282639Y-92283271D01*
X135363361Y-92329876D01*
X135453395Y-92354000D01*
X135499553Y-92354000D01*
X134951574Y-92901978D01*
X135094697Y-92978479D01*
X135293381Y-93038750D01*
X135500000Y-93059099D01*
X135706618Y-93038750D01*
X135905304Y-92978479D01*
X136048424Y-92901978D01*
X136048424Y-92901977D01*
X135500448Y-92354000D01*
X135546605Y-92354000D01*
X135636639Y-92329876D01*
X135717361Y-92283271D01*
X135783271Y-92217361D01*
X135829876Y-92136639D01*
X135854000Y-92046605D01*
X135854000Y-92000447D01*
X136401977Y-92548424D01*
X136401978Y-92548424D01*
X136478479Y-92405304D01*
X136507339Y-92310166D01*
X136545637Y-92251727D01*
X136609449Y-92223271D01*
X136678516Y-92233831D01*
X136730910Y-92280055D01*
X136750000Y-92346161D01*
X136750000Y-92948638D01*
X136730315Y-93015677D01*
X136713681Y-93036319D01*
X136286319Y-93463681D01*
X136224996Y-93497166D01*
X136198638Y-93500000D01*
X135705115Y-93500000D01*
X135692961Y-93499403D01*
X135500000Y-93480398D01*
X135307039Y-93499403D01*
X135294885Y-93500000D01*
X134576636Y-93500000D01*
X134509597Y-93480315D01*
X134465727Y-93431454D01*
X134250001Y-93000001D01*
X134250000Y-93000000D01*
X134249999Y-93000000D01*
X129249999Y-93000000D01*
X128786319Y-93463681D01*
X128724996Y-93497166D01*
X128698638Y-93500000D01*
X128085115Y-93500000D01*
X128072961Y-93499403D01*
X127880000Y-93480398D01*
X127687039Y-93499403D01*
X127674885Y-93500000D01*
X126787544Y-93500000D01*
X126720505Y-93480315D01*
X126718761Y-93479174D01*
X126055217Y-93036811D01*
X126010356Y-92983246D01*
X126000000Y-92933637D01*
X126000000Y-91398155D01*
X126826000Y-91398155D01*
X126826000Y-91750000D01*
X127629368Y-91750000D01*
X127596729Y-91782639D01*
X127550124Y-91863361D01*
X127526000Y-91953395D01*
X127526000Y-92046605D01*
X127550124Y-92136639D01*
X127596729Y-92217361D01*
X127629368Y-92250000D01*
X126826000Y-92250000D01*
X126826000Y-92601844D01*
X126832401Y-92661372D01*
X126832403Y-92661379D01*
X126882645Y-92796086D01*
X126882649Y-92796093D01*
X126968809Y-92911187D01*
X126968812Y-92911190D01*
X127083906Y-92997350D01*
X127083913Y-92997354D01*
X127218620Y-93047596D01*
X127218627Y-93047598D01*
X127278155Y-93053999D01*
X127278172Y-93054000D01*
X127630000Y-93054000D01*
X127630000Y-92250632D01*
X127662639Y-92283271D01*
X127743361Y-92329876D01*
X127833395Y-92354000D01*
X127926605Y-92354000D01*
X128016639Y-92329876D01*
X128097361Y-92283271D01*
X128130000Y-92250632D01*
X128130000Y-93054000D01*
X128481828Y-93054000D01*
X128481844Y-93053999D01*
X128541372Y-93047598D01*
X128541379Y-93047596D01*
X128676086Y-92997354D01*
X128676093Y-92997350D01*
X128791187Y-92911190D01*
X128791190Y-92911187D01*
X128877350Y-92796093D01*
X128877354Y-92796086D01*
X128927596Y-92661379D01*
X128927598Y-92661372D01*
X128933999Y-92601844D01*
X128934000Y-92601827D01*
X128934000Y-92250000D01*
X128130632Y-92250000D01*
X128163271Y-92217361D01*
X128209876Y-92136639D01*
X128234000Y-92046605D01*
X128234000Y-91953395D01*
X128209876Y-91863361D01*
X128163271Y-91782639D01*
X128130632Y-91750000D01*
X128934000Y-91750000D01*
X128934000Y-91398172D01*
X128933999Y-91398155D01*
X128927598Y-91338627D01*
X128927596Y-91338620D01*
X128877354Y-91203913D01*
X128877350Y-91203906D01*
X128791190Y-91088812D01*
X128791187Y-91088809D01*
X128676093Y-91002649D01*
X128676086Y-91002645D01*
X128541379Y-90952403D01*
X128541372Y-90952401D01*
X128481844Y-90946000D01*
X128130000Y-90946000D01*
X128130000Y-91749368D01*
X128097361Y-91716729D01*
X128016639Y-91670124D01*
X127926605Y-91646000D01*
X127833395Y-91646000D01*
X127743361Y-91670124D01*
X127662639Y-91716729D01*
X127630000Y-91749368D01*
X127630000Y-90946000D01*
X127278155Y-90946000D01*
X127218627Y-90952401D01*
X127218620Y-90952403D01*
X127083913Y-91002645D01*
X127083906Y-91002649D01*
X126968812Y-91088809D01*
X126968809Y-91088812D01*
X126882649Y-91203906D01*
X126882645Y-91203913D01*
X126832403Y-91338620D01*
X126832401Y-91338627D01*
X126826000Y-91398155D01*
X126000000Y-91398155D01*
X126000000Y-91076636D01*
X126019685Y-91009597D01*
X126068546Y-90965727D01*
X126118200Y-90940900D01*
X127000000Y-90500000D01*
X127078947Y-87499999D01*
X128890266Y-87499999D01*
X128890266Y-87500000D01*
X128909160Y-87703912D01*
X128965203Y-87900879D01*
X128965210Y-87900897D01*
X129056482Y-88084196D01*
X129058963Y-88087481D01*
X129058965Y-88087482D01*
X129645000Y-87501447D01*
X129645000Y-87546737D01*
X129669193Y-87637025D01*
X129715930Y-87717975D01*
X129782025Y-87784070D01*
X129862975Y-87830807D01*
X129953263Y-87855000D01*
X129998553Y-87855000D01*
X129415679Y-88437871D01*
X129505347Y-88493392D01*
X129505349Y-88493393D01*
X129696299Y-88567367D01*
X129696309Y-88567370D01*
X129897610Y-88605000D01*
X130102390Y-88605000D01*
X130303690Y-88567370D01*
X130303700Y-88567367D01*
X130494650Y-88493393D01*
X130494654Y-88493391D01*
X130584318Y-88437872D01*
X130584318Y-88437871D01*
X130001448Y-87855000D01*
X130046737Y-87855000D01*
X130137025Y-87830807D01*
X130217975Y-87784070D01*
X130284070Y-87717975D01*
X130330807Y-87637025D01*
X130355000Y-87546737D01*
X130355000Y-87501447D01*
X130941034Y-88087482D01*
X130941035Y-88087481D01*
X130943516Y-88084199D01*
X131034789Y-87900897D01*
X131034796Y-87900879D01*
X131090839Y-87703912D01*
X131109734Y-87500000D01*
X131109734Y-87499999D01*
X131850266Y-87499999D01*
X131850266Y-87500000D01*
X131869160Y-87703912D01*
X131925203Y-87900879D01*
X131925210Y-87900897D01*
X132016482Y-88084196D01*
X132018963Y-88087481D01*
X132018965Y-88087482D01*
X132605000Y-87501447D01*
X132605000Y-87546737D01*
X132629193Y-87637025D01*
X132675930Y-87717975D01*
X132742025Y-87784070D01*
X132822975Y-87830807D01*
X132913263Y-87855000D01*
X132958553Y-87855000D01*
X132375679Y-88437871D01*
X132465347Y-88493392D01*
X132465349Y-88493393D01*
X132656299Y-88567367D01*
X132656309Y-88567370D01*
X132857610Y-88605000D01*
X133062390Y-88605000D01*
X133263690Y-88567370D01*
X133263700Y-88567367D01*
X133454650Y-88493393D01*
X133454654Y-88493391D01*
X133544318Y-88437872D01*
X133544318Y-88437871D01*
X132961448Y-87855000D01*
X133006737Y-87855000D01*
X133097025Y-87830807D01*
X133177975Y-87784070D01*
X133244070Y-87717975D01*
X133290807Y-87637025D01*
X133315000Y-87546737D01*
X133315000Y-87501447D01*
X133901034Y-88087482D01*
X133901035Y-88087481D01*
X133903516Y-88084199D01*
X133994789Y-87900897D01*
X133994796Y-87900879D01*
X134050839Y-87703912D01*
X134069734Y-87500000D01*
X134069734Y-87499999D01*
X134050839Y-87296087D01*
X133994796Y-87099120D01*
X133994789Y-87099102D01*
X133903517Y-86915803D01*
X133901034Y-86912517D01*
X133315000Y-87498551D01*
X133315000Y-87453263D01*
X133290807Y-87362975D01*
X133244070Y-87282025D01*
X133177975Y-87215930D01*
X133097025Y-87169193D01*
X133006737Y-87145000D01*
X132961448Y-87145000D01*
X133544319Y-86562127D01*
X133454648Y-86506606D01*
X133263691Y-86432629D01*
X133062390Y-86395000D01*
X132857610Y-86395000D01*
X132656309Y-86432629D01*
X132656308Y-86432629D01*
X132465351Y-86506606D01*
X132465345Y-86506609D01*
X132375680Y-86562126D01*
X132375679Y-86562127D01*
X132958553Y-87145000D01*
X132913263Y-87145000D01*
X132822975Y-87169193D01*
X132742025Y-87215930D01*
X132675930Y-87282025D01*
X132629193Y-87362975D01*
X132605000Y-87453263D01*
X132605000Y-87498552D01*
X132018964Y-86912516D01*
X132016482Y-86915803D01*
X131925210Y-87099102D01*
X131925203Y-87099120D01*
X131869160Y-87296087D01*
X131850266Y-87499999D01*
X131109734Y-87499999D01*
X131090839Y-87296087D01*
X131034796Y-87099120D01*
X131034789Y-87099102D01*
X130943517Y-86915803D01*
X130941034Y-86912517D01*
X130355000Y-87498551D01*
X130355000Y-87453263D01*
X130330807Y-87362975D01*
X130284070Y-87282025D01*
X130217975Y-87215930D01*
X130137025Y-87169193D01*
X130046737Y-87145000D01*
X130001448Y-87145000D01*
X130584319Y-86562127D01*
X130494648Y-86506606D01*
X130303691Y-86432629D01*
X130102390Y-86395000D01*
X129897610Y-86395000D01*
X129696309Y-86432629D01*
X129696308Y-86432629D01*
X129505351Y-86506606D01*
X129505345Y-86506609D01*
X129415680Y-86562126D01*
X129415679Y-86562127D01*
X129998553Y-87145000D01*
X129953263Y-87145000D01*
X129862975Y-87169193D01*
X129782025Y-87215930D01*
X129715930Y-87282025D01*
X129669193Y-87362975D01*
X129645000Y-87453263D01*
X129645000Y-87498552D01*
X129058964Y-86912516D01*
X129056482Y-86915803D01*
X128965210Y-87099102D01*
X128965203Y-87099120D01*
X128909160Y-87296087D01*
X128890266Y-87499999D01*
X127078947Y-87499999D01*
X127247619Y-81090440D01*
X127269060Y-81023946D01*
X127323050Y-80979596D01*
X127336840Y-80974671D01*
X133250000Y-79250000D01*
X136014286Y-77000000D01*
X153895052Y-77000000D01*
X153914812Y-77251072D01*
X153973603Y-77495956D01*
X154069980Y-77728631D01*
X154201568Y-77943362D01*
X154202266Y-77944179D01*
X154879824Y-77266622D01*
X154901823Y-77319732D01*
X154975693Y-77430287D01*
X155069713Y-77524307D01*
X155180268Y-77598177D01*
X155233376Y-77620175D01*
X154555819Y-78297732D01*
X154555819Y-78297733D01*
X154556634Y-78298429D01*
X154771368Y-78430019D01*
X155004043Y-78526396D01*
X155248927Y-78585187D01*
X155500000Y-78604947D01*
X155751072Y-78585187D01*
X155995956Y-78526396D01*
X156228631Y-78430019D01*
X156443361Y-78298432D01*
X156443363Y-78298430D01*
X156444180Y-78297732D01*
X155766622Y-77620175D01*
X155819732Y-77598177D01*
X155930287Y-77524307D01*
X156024307Y-77430287D01*
X156098177Y-77319732D01*
X156120175Y-77266623D01*
X156797732Y-77944180D01*
X156798430Y-77943363D01*
X156798432Y-77943361D01*
X156930019Y-77728631D01*
X157026396Y-77495956D01*
X157085187Y-77251072D01*
X157104947Y-77000000D01*
X157085187Y-76748927D01*
X157026396Y-76504043D01*
X156930019Y-76271368D01*
X156798429Y-76056634D01*
X156797733Y-76055819D01*
X156797732Y-76055819D01*
X156120175Y-76733376D01*
X156098177Y-76680268D01*
X156024307Y-76569713D01*
X155930287Y-76475693D01*
X155819732Y-76401823D01*
X155766622Y-76379824D01*
X156444179Y-75702266D01*
X156443362Y-75701568D01*
X156228631Y-75569980D01*
X155995956Y-75473603D01*
X155751072Y-75414812D01*
X155500000Y-75395052D01*
X155248927Y-75414812D01*
X155004043Y-75473603D01*
X154771368Y-75569980D01*
X154556637Y-75701567D01*
X154555819Y-75702266D01*
X155233377Y-76379824D01*
X155180268Y-76401823D01*
X155069713Y-76475693D01*
X154975693Y-76569713D01*
X154901823Y-76680268D01*
X154879824Y-76733377D01*
X154202266Y-76055819D01*
X154201567Y-76056637D01*
X154069980Y-76271368D01*
X153973603Y-76504043D01*
X153914812Y-76748927D01*
X153895052Y-77000000D01*
X136014286Y-77000000D01*
X144000000Y-70500000D01*
X148000000Y-66499999D01*
X149890266Y-66499999D01*
X149890266Y-66500000D01*
X149909160Y-66703912D01*
X149965203Y-66900879D01*
X149965210Y-66900897D01*
X150056482Y-67084196D01*
X150058963Y-67087481D01*
X150058965Y-67087482D01*
X150645000Y-66501447D01*
X150645000Y-66546737D01*
X150669193Y-66637025D01*
X150715930Y-66717975D01*
X150782025Y-66784070D01*
X150862975Y-66830807D01*
X150953263Y-66855000D01*
X150998553Y-66855000D01*
X150415679Y-67437871D01*
X150505347Y-67493392D01*
X150505349Y-67493393D01*
X150696299Y-67567367D01*
X150696309Y-67567370D01*
X150897610Y-67605000D01*
X151102390Y-67605000D01*
X151303690Y-67567370D01*
X151303700Y-67567367D01*
X151494650Y-67493393D01*
X151494654Y-67493391D01*
X151584318Y-67437872D01*
X151584318Y-67437871D01*
X151001448Y-66855000D01*
X151046737Y-66855000D01*
X151137025Y-66830807D01*
X151217975Y-66784070D01*
X151284070Y-66717975D01*
X151330807Y-66637025D01*
X151355000Y-66546737D01*
X151355000Y-66501447D01*
X151941034Y-67087482D01*
X151941035Y-67087481D01*
X151943516Y-67084199D01*
X152034789Y-66900897D01*
X152034796Y-66900879D01*
X152090839Y-66703912D01*
X152109734Y-66500000D01*
X152109734Y-66499999D01*
X152090839Y-66296087D01*
X152034796Y-66099120D01*
X152034789Y-66099102D01*
X151943517Y-65915803D01*
X151941034Y-65912517D01*
X151355000Y-66498551D01*
X151355000Y-66453263D01*
X151330807Y-66362975D01*
X151284070Y-66282025D01*
X151217975Y-66215930D01*
X151137025Y-66169193D01*
X151046737Y-66145000D01*
X151001448Y-66145000D01*
X151584319Y-65562127D01*
X151494648Y-65506606D01*
X151303691Y-65432629D01*
X151102390Y-65395000D01*
X150897610Y-65395000D01*
X150696309Y-65432629D01*
X150696308Y-65432629D01*
X150505351Y-65506606D01*
X150505345Y-65506609D01*
X150415680Y-65562126D01*
X150415679Y-65562127D01*
X150998553Y-66145000D01*
X150953263Y-66145000D01*
X150862975Y-66169193D01*
X150782025Y-66215930D01*
X150715930Y-66282025D01*
X150669193Y-66362975D01*
X150645000Y-66453263D01*
X150645000Y-66498552D01*
X150058964Y-65912516D01*
X150056482Y-65915803D01*
X149965210Y-66099102D01*
X149965203Y-66099120D01*
X149909160Y-66296087D01*
X149890266Y-66499999D01*
X148000000Y-66499999D01*
X149243773Y-65256226D01*
X149257040Y-65244719D01*
X159347127Y-57677155D01*
X160445000Y-57677155D01*
X160445000Y-58450000D01*
X161319999Y-58450000D01*
X161294979Y-58510402D01*
X161270000Y-58635981D01*
X161270000Y-58764019D01*
X161294979Y-58889598D01*
X161319999Y-58950000D01*
X160445000Y-58950000D01*
X160445000Y-59722844D01*
X160451401Y-59782372D01*
X160451403Y-59782379D01*
X160501645Y-59917086D01*
X160501649Y-59917093D01*
X160587809Y-60032187D01*
X160587812Y-60032190D01*
X160702906Y-60118350D01*
X160702913Y-60118354D01*
X160837620Y-60168596D01*
X160837627Y-60168598D01*
X160897155Y-60174999D01*
X160897172Y-60175000D01*
X161670000Y-60175000D01*
X161670000Y-59300001D01*
X161730402Y-59325021D01*
X161855981Y-59350000D01*
X161984019Y-59350000D01*
X162109598Y-59325021D01*
X162170000Y-59300001D01*
X162170000Y-60175000D01*
X162942828Y-60175000D01*
X162942844Y-60174999D01*
X163002372Y-60168598D01*
X163002379Y-60168596D01*
X163137086Y-60118354D01*
X163137093Y-60118350D01*
X163252187Y-60032190D01*
X163252190Y-60032187D01*
X163338350Y-59917093D01*
X163338354Y-59917086D01*
X163388596Y-59782379D01*
X163388598Y-59782372D01*
X163394999Y-59722844D01*
X163395000Y-59722827D01*
X163395000Y-58950000D01*
X162520001Y-58950000D01*
X162545021Y-58889598D01*
X162570000Y-58764019D01*
X162570000Y-58635981D01*
X162545021Y-58510402D01*
X162520001Y-58450000D01*
X163395000Y-58450000D01*
X163395000Y-57677172D01*
X163394999Y-57677155D01*
X163388598Y-57617627D01*
X163388596Y-57617620D01*
X163338354Y-57482913D01*
X163338350Y-57482906D01*
X163252190Y-57367812D01*
X163252187Y-57367809D01*
X163137093Y-57281649D01*
X163137086Y-57281645D01*
X163002379Y-57231403D01*
X163002372Y-57231401D01*
X162942844Y-57225000D01*
X162170000Y-57225000D01*
X162170000Y-58099998D01*
X162109598Y-58074979D01*
X161984019Y-58050000D01*
X161855981Y-58050000D01*
X161730402Y-58074979D01*
X161670000Y-58099998D01*
X161670000Y-57225000D01*
X160897155Y-57225000D01*
X160837627Y-57231401D01*
X160837620Y-57231403D01*
X160702913Y-57281645D01*
X160702906Y-57281649D01*
X160587812Y-57367809D01*
X160587809Y-57367812D01*
X160501649Y-57482906D01*
X160501645Y-57482913D01*
X160451403Y-57617620D01*
X160451401Y-57617627D01*
X160445000Y-57677155D01*
X159347127Y-57677155D01*
X160250000Y-57000000D01*
X160713681Y-56536319D01*
X160775004Y-56502834D01*
X160801362Y-56500000D01*
X163462456Y-56500000D01*
X163529495Y-56519685D01*
G37*
%TD.AperFunction*%
%TD*%
%TA.AperFunction,Conductor*%
%TO.N,Net-(C1-Pad2)*%
G36*
X117276182Y-82263091D02*
G01*
X119681454Y-83465727D01*
X119732613Y-83513314D01*
X119750000Y-83576636D01*
X119750000Y-102250000D01*
X123159011Y-105659011D01*
X123192496Y-105720334D01*
X123187512Y-105790026D01*
X123155706Y-105837558D01*
X116316777Y-112187992D01*
X116254256Y-112219185D01*
X116184797Y-112211624D01*
X116170880Y-112204788D01*
X109250000Y-108249999D01*
X108276182Y-108736909D01*
X108220728Y-108750000D01*
X105291333Y-108750000D01*
X105224294Y-108730315D01*
X105216933Y-108725200D01*
X104299600Y-108037200D01*
X104257779Y-107981229D01*
X104250000Y-107938000D01*
X104250000Y-105792155D01*
X105225000Y-105792155D01*
X105225000Y-106565000D01*
X106099999Y-106565000D01*
X106074979Y-106625402D01*
X106050000Y-106750981D01*
X106050000Y-106879019D01*
X106074979Y-107004598D01*
X106099999Y-107065000D01*
X105225000Y-107065000D01*
X105225000Y-107837844D01*
X105231401Y-107897372D01*
X105231403Y-107897379D01*
X105281645Y-108032086D01*
X105281649Y-108032093D01*
X105367809Y-108147187D01*
X105367812Y-108147190D01*
X105482906Y-108233350D01*
X105482913Y-108233354D01*
X105617620Y-108283596D01*
X105617627Y-108283598D01*
X105677155Y-108289999D01*
X105677172Y-108290000D01*
X106450000Y-108290000D01*
X106450000Y-107415001D01*
X106510402Y-107440021D01*
X106635981Y-107465000D01*
X106764019Y-107465000D01*
X106889598Y-107440021D01*
X106950000Y-107415001D01*
X106950000Y-108290000D01*
X107722828Y-108290000D01*
X107722844Y-108289999D01*
X107782372Y-108283598D01*
X107782379Y-108283596D01*
X107917086Y-108233354D01*
X107917093Y-108233350D01*
X108032187Y-108147190D01*
X108032190Y-108147187D01*
X108118350Y-108032093D01*
X108118354Y-108032086D01*
X108168596Y-107897379D01*
X108168598Y-107897372D01*
X108174999Y-107837844D01*
X108175000Y-107837827D01*
X108175000Y-107065000D01*
X107300001Y-107065000D01*
X107325021Y-107004598D01*
X107350000Y-106879019D01*
X107350000Y-106750981D01*
X107325021Y-106625402D01*
X107300001Y-106565000D01*
X108175000Y-106565000D01*
X108175000Y-105792172D01*
X108174999Y-105792155D01*
X108168598Y-105732627D01*
X108168596Y-105732620D01*
X108118354Y-105597913D01*
X108118350Y-105597906D01*
X108032190Y-105482812D01*
X108032187Y-105482809D01*
X107917093Y-105396649D01*
X107917086Y-105396645D01*
X107782379Y-105346403D01*
X107782372Y-105346401D01*
X107722844Y-105340000D01*
X106950000Y-105340000D01*
X106950000Y-106214998D01*
X106889598Y-106189979D01*
X106764019Y-106165000D01*
X106635981Y-106165000D01*
X106510402Y-106189979D01*
X106450000Y-106214998D01*
X106450000Y-105340000D01*
X105677155Y-105340000D01*
X105617627Y-105346401D01*
X105617620Y-105346403D01*
X105482913Y-105396645D01*
X105482906Y-105396649D01*
X105367812Y-105482809D01*
X105367809Y-105482812D01*
X105281649Y-105597906D01*
X105281645Y-105597913D01*
X105231403Y-105732620D01*
X105231401Y-105732627D01*
X105225000Y-105792155D01*
X104250000Y-105792155D01*
X104250000Y-105036619D01*
X104269685Y-104969580D01*
X104269893Y-104969256D01*
X109750000Y-96500000D01*
X109749999Y-96499999D01*
X101581624Y-93529681D01*
X101525348Y-93488272D01*
X101500393Y-93423010D01*
X101500000Y-93413147D01*
X101500000Y-91792155D01*
X105225000Y-91792155D01*
X105225000Y-92565000D01*
X106099999Y-92565000D01*
X106074979Y-92625402D01*
X106050000Y-92750981D01*
X106050000Y-92879019D01*
X106074979Y-93004598D01*
X106099999Y-93065000D01*
X105225000Y-93065000D01*
X105225000Y-93837844D01*
X105231401Y-93897372D01*
X105231403Y-93897379D01*
X105281645Y-94032086D01*
X105281649Y-94032093D01*
X105367809Y-94147187D01*
X105367812Y-94147190D01*
X105482906Y-94233350D01*
X105482913Y-94233354D01*
X105617620Y-94283596D01*
X105617627Y-94283598D01*
X105677155Y-94289999D01*
X105677172Y-94290000D01*
X106450000Y-94290000D01*
X106450000Y-93415001D01*
X106510402Y-93440021D01*
X106635981Y-93465000D01*
X106764019Y-93465000D01*
X106889598Y-93440021D01*
X106950000Y-93415001D01*
X106950000Y-94290000D01*
X107722828Y-94290000D01*
X107722844Y-94289999D01*
X107782372Y-94283598D01*
X107782379Y-94283596D01*
X107917086Y-94233354D01*
X107917093Y-94233350D01*
X108032187Y-94147190D01*
X108032190Y-94147187D01*
X108118350Y-94032093D01*
X108118354Y-94032086D01*
X108168596Y-93897379D01*
X108168598Y-93897372D01*
X108174999Y-93837844D01*
X108175000Y-93837827D01*
X108175000Y-93065000D01*
X107300001Y-93065000D01*
X107325021Y-93004598D01*
X107350000Y-92879019D01*
X107350000Y-92750981D01*
X107325021Y-92625402D01*
X107300001Y-92565000D01*
X108175000Y-92565000D01*
X108175000Y-91792172D01*
X108174999Y-91792155D01*
X108168598Y-91732627D01*
X108168596Y-91732620D01*
X108118354Y-91597913D01*
X108118350Y-91597906D01*
X108032190Y-91482812D01*
X108032187Y-91482809D01*
X107917093Y-91396649D01*
X107917086Y-91396645D01*
X107782379Y-91346403D01*
X107782372Y-91346401D01*
X107722844Y-91340000D01*
X106950000Y-91340000D01*
X106950000Y-92214998D01*
X106889598Y-92189979D01*
X106764019Y-92165000D01*
X106635981Y-92165000D01*
X106510402Y-92189979D01*
X106450000Y-92214998D01*
X106450000Y-91340000D01*
X105677155Y-91340000D01*
X105617627Y-91346401D01*
X105617620Y-91346403D01*
X105482913Y-91396645D01*
X105482906Y-91396649D01*
X105367812Y-91482809D01*
X105367809Y-91482812D01*
X105281649Y-91597906D01*
X105281645Y-91597913D01*
X105231403Y-91732620D01*
X105231401Y-91732627D01*
X105225000Y-91792155D01*
X101500000Y-91792155D01*
X101500000Y-85399999D01*
X101895287Y-85399999D01*
X101895287Y-85400000D01*
X101914096Y-85602989D01*
X101914097Y-85602992D01*
X101969883Y-85799063D01*
X101969886Y-85799069D01*
X102060751Y-85981551D01*
X102062533Y-85983911D01*
X102600000Y-85446445D01*
X102600000Y-85452661D01*
X102627259Y-85554394D01*
X102679920Y-85645606D01*
X102754394Y-85720080D01*
X102845606Y-85772741D01*
X102947339Y-85800000D01*
X102953553Y-85800000D01*
X102419311Y-86334240D01*
X102507585Y-86388897D01*
X102697678Y-86462539D01*
X102898072Y-86500000D01*
X103101928Y-86500000D01*
X103302322Y-86462539D01*
X103492412Y-86388899D01*
X103492416Y-86388897D01*
X103580686Y-86334241D01*
X103580686Y-86334240D01*
X103046448Y-85800000D01*
X103052661Y-85800000D01*
X103154394Y-85772741D01*
X103245606Y-85720080D01*
X103320080Y-85645606D01*
X103372741Y-85554394D01*
X103400000Y-85452661D01*
X103400000Y-85446447D01*
X103937465Y-85983912D01*
X103939247Y-85981553D01*
X103939248Y-85981551D01*
X104030113Y-85799069D01*
X104030116Y-85799063D01*
X104085902Y-85602992D01*
X104085903Y-85602989D01*
X104088033Y-85579999D01*
X107390266Y-85579999D01*
X107390266Y-85580000D01*
X107409160Y-85783912D01*
X107465203Y-85980879D01*
X107465210Y-85980897D01*
X107556482Y-86164196D01*
X107558963Y-86167481D01*
X107558965Y-86167482D01*
X108145000Y-85581447D01*
X108145000Y-85626737D01*
X108169193Y-85717025D01*
X108215930Y-85797975D01*
X108282025Y-85864070D01*
X108362975Y-85910807D01*
X108453263Y-85935000D01*
X108498553Y-85935000D01*
X107915679Y-86517871D01*
X108005347Y-86573392D01*
X108005349Y-86573393D01*
X108196299Y-86647367D01*
X108196309Y-86647370D01*
X108397610Y-86685000D01*
X108602390Y-86685000D01*
X108803690Y-86647370D01*
X108803700Y-86647367D01*
X108994650Y-86573393D01*
X108994654Y-86573391D01*
X109084318Y-86517872D01*
X109084318Y-86517871D01*
X108501448Y-85935000D01*
X108546737Y-85935000D01*
X108637025Y-85910807D01*
X108717975Y-85864070D01*
X108784070Y-85797975D01*
X108830807Y-85717025D01*
X108855000Y-85626737D01*
X108855000Y-85581447D01*
X109441034Y-86167482D01*
X109441035Y-86167481D01*
X109443516Y-86164199D01*
X109534789Y-85980897D01*
X109534796Y-85980879D01*
X109590839Y-85783912D01*
X109609734Y-85580000D01*
X109609734Y-85579999D01*
X109606027Y-85539999D01*
X111390266Y-85539999D01*
X111390266Y-85540000D01*
X111409160Y-85743912D01*
X111465203Y-85940879D01*
X111465210Y-85940897D01*
X111556482Y-86124196D01*
X111558963Y-86127481D01*
X111558965Y-86127482D01*
X112145000Y-85541447D01*
X112145000Y-85586737D01*
X112169193Y-85677025D01*
X112215930Y-85757975D01*
X112282025Y-85824070D01*
X112362975Y-85870807D01*
X112453263Y-85895000D01*
X112498553Y-85895000D01*
X111915679Y-86477871D01*
X112005347Y-86533392D01*
X112005349Y-86533393D01*
X112196299Y-86607367D01*
X112196309Y-86607370D01*
X112397610Y-86645000D01*
X112602390Y-86645000D01*
X112803690Y-86607370D01*
X112803700Y-86607367D01*
X112994650Y-86533393D01*
X112994654Y-86533391D01*
X113084318Y-86477872D01*
X113084318Y-86477871D01*
X112501448Y-85895000D01*
X112546737Y-85895000D01*
X112637025Y-85870807D01*
X112717975Y-85824070D01*
X112784070Y-85757975D01*
X112830807Y-85677025D01*
X112855000Y-85586737D01*
X112855000Y-85541447D01*
X113441034Y-86127482D01*
X113441035Y-86127481D01*
X113443516Y-86124199D01*
X113534789Y-85940897D01*
X113534796Y-85940879D01*
X113590839Y-85743912D01*
X113609734Y-85540000D01*
X113609734Y-85539999D01*
X113590839Y-85336087D01*
X113534796Y-85139120D01*
X113534789Y-85139102D01*
X113443517Y-84955803D01*
X113441034Y-84952517D01*
X112855000Y-85538551D01*
X112855000Y-85493263D01*
X112830807Y-85402975D01*
X112784070Y-85322025D01*
X112717975Y-85255930D01*
X112637025Y-85209193D01*
X112546737Y-85185000D01*
X112501448Y-85185000D01*
X113084319Y-84602127D01*
X112994648Y-84546606D01*
X112803691Y-84472629D01*
X112602390Y-84435000D01*
X112397610Y-84435000D01*
X112196309Y-84472629D01*
X112196308Y-84472629D01*
X112005351Y-84546606D01*
X112005345Y-84546609D01*
X111915680Y-84602126D01*
X111915679Y-84602127D01*
X112498553Y-85185000D01*
X112453263Y-85185000D01*
X112362975Y-85209193D01*
X112282025Y-85255930D01*
X112215930Y-85322025D01*
X112169193Y-85402975D01*
X112145000Y-85493263D01*
X112145000Y-85538552D01*
X111558964Y-84952516D01*
X111556482Y-84955803D01*
X111465210Y-85139102D01*
X111465203Y-85139120D01*
X111409160Y-85336087D01*
X111390266Y-85539999D01*
X109606027Y-85539999D01*
X109590839Y-85376087D01*
X109534796Y-85179120D01*
X109534789Y-85179102D01*
X109443517Y-84995803D01*
X109441034Y-84992517D01*
X108855000Y-85578551D01*
X108855000Y-85533263D01*
X108830807Y-85442975D01*
X108784070Y-85362025D01*
X108717975Y-85295930D01*
X108637025Y-85249193D01*
X108546737Y-85225000D01*
X108501448Y-85225000D01*
X109084319Y-84642127D01*
X108994648Y-84586606D01*
X108803691Y-84512629D01*
X108602390Y-84475000D01*
X108397610Y-84475000D01*
X108196309Y-84512629D01*
X108196308Y-84512629D01*
X108005351Y-84586606D01*
X108005345Y-84586609D01*
X107915680Y-84642126D01*
X107915679Y-84642127D01*
X108498553Y-85225000D01*
X108453263Y-85225000D01*
X108362975Y-85249193D01*
X108282025Y-85295930D01*
X108215930Y-85362025D01*
X108169193Y-85442975D01*
X108145000Y-85533263D01*
X108145000Y-85578552D01*
X107558964Y-84992516D01*
X107556482Y-84995803D01*
X107465210Y-85179102D01*
X107465203Y-85179120D01*
X107409160Y-85376087D01*
X107390266Y-85579999D01*
X104088033Y-85579999D01*
X104104713Y-85400000D01*
X104104713Y-85399999D01*
X104085903Y-85197010D01*
X104085902Y-85197007D01*
X104030116Y-85000936D01*
X104030113Y-85000930D01*
X103939249Y-84818449D01*
X103939247Y-84818447D01*
X103937465Y-84816087D01*
X103400000Y-85353552D01*
X103400000Y-85347339D01*
X103372741Y-85245606D01*
X103320080Y-85154394D01*
X103245606Y-85079920D01*
X103154394Y-85027259D01*
X103052661Y-85000000D01*
X103046447Y-85000000D01*
X103580687Y-84465758D01*
X103492413Y-84411101D01*
X103492411Y-84411100D01*
X103302321Y-84337460D01*
X103101928Y-84300000D01*
X102898072Y-84300000D01*
X102697678Y-84337460D01*
X102507588Y-84411100D01*
X102507581Y-84411104D01*
X102419312Y-84465757D01*
X102419311Y-84465758D01*
X102953554Y-85000000D01*
X102947339Y-85000000D01*
X102845606Y-85027259D01*
X102754394Y-85079920D01*
X102679920Y-85154394D01*
X102627259Y-85245606D01*
X102600000Y-85347339D01*
X102600000Y-85353554D01*
X102062533Y-84816087D01*
X102060755Y-84818442D01*
X102060754Y-84818443D01*
X101969886Y-85000930D01*
X101969883Y-85000936D01*
X101914097Y-85197007D01*
X101914096Y-85197010D01*
X101895287Y-85399999D01*
X101500000Y-85399999D01*
X101500000Y-83576636D01*
X101519685Y-83509597D01*
X101568546Y-83465727D01*
X103973818Y-82263091D01*
X104029272Y-82250000D01*
X117220728Y-82250000D01*
X117276182Y-82263091D01*
G37*
%TD.AperFunction*%
%TD*%
M02*
