%TF.GenerationSoftware,KiCad,Pcbnew,8.0.2-8.0.2-0~ubuntu22.04.1*%
%TF.CreationDate,2024-05-18T21:09:39+02:00*%
%TF.ProjectId,dc-to-dc-buck-converter,64632d74-6f2d-4646-932d-6275636b2d63,rev?*%
%TF.SameCoordinates,Original*%
%TF.FileFunction,Copper,L2,Bot*%
%TF.FilePolarity,Positive*%
%FSLAX46Y46*%
G04 Gerber Fmt 4.6, Leading zero omitted, Abs format (unit mm)*
G04 Created by KiCad (PCBNEW 8.0.2-8.0.2-0~ubuntu22.04.1) date 2024-05-18 21:09:39*
%MOMM*%
%LPD*%
G01*
G04 APERTURE LIST*
%TA.AperFunction,ComponentPad*%
%ADD10C,2.200000*%
%TD*%
%TA.AperFunction,ComponentPad*%
%ADD11R,1.108000X1.108000*%
%TD*%
%TA.AperFunction,ComponentPad*%
%ADD12C,1.108000*%
%TD*%
%TA.AperFunction,ComponentPad*%
%ADD13C,1.210000*%
%TD*%
%TA.AperFunction,ComponentPad*%
%ADD14R,1.950000X1.950000*%
%TD*%
%TA.AperFunction,ComponentPad*%
%ADD15C,1.950000*%
%TD*%
%TA.AperFunction,ComponentPad*%
%ADD16C,1.200000*%
%TD*%
%TA.AperFunction,ComponentPad*%
%ADD17R,2.175000X2.175000*%
%TD*%
%TA.AperFunction,ComponentPad*%
%ADD18C,2.175000*%
%TD*%
%TA.AperFunction,ComponentPad*%
%ADD19R,1.275000X1.275000*%
%TD*%
%TA.AperFunction,ComponentPad*%
%ADD20C,1.275000*%
%TD*%
%TA.AperFunction,ComponentPad*%
%ADD21R,2.070000X2.070000*%
%TD*%
%TA.AperFunction,ComponentPad*%
%ADD22C,2.070000*%
%TD*%
%TA.AperFunction,ComponentPad*%
%ADD23C,0.900000*%
%TD*%
%TA.AperFunction,ComponentPad*%
%ADD24C,12.000000*%
%TD*%
%TA.AperFunction,ComponentPad*%
%ADD25C,1.416000*%
%TD*%
%TA.AperFunction,ViaPad*%
%ADD26C,1.000000*%
%TD*%
%TA.AperFunction,Conductor*%
%ADD27C,1.000000*%
%TD*%
G04 APERTURE END LIST*
D10*
%TO.P,IC2,1,M*%
%TO.N,Net-(IC2-M)*%
X180000000Y-92560000D03*
%TO.P,IC2,2,NEG*%
%TO.N,GND*%
X180000000Y-97640000D03*
%TO.P,IC2,3,POS*%
%TO.N,Net-(IC1-POS)*%
X180000000Y-120500000D03*
%TD*%
D11*
%TO.P,IC3,1,V+_1*%
%TO.N,Net-(IC1-POS)*%
X127880000Y-92000000D03*
D12*
%TO.P,IC3,2,IN*%
%TO.N,Net-(IC3-IN)*%
X127880000Y-94540000D03*
%TO.P,IC3,3,NC*%
%TO.N,unconnected-(IC3-NC-Pad3)*%
X127880000Y-97080000D03*
%TO.P,IC3,4,GND_1*%
%TO.N,GND*%
X127880000Y-99620000D03*
%TO.P,IC3,5,GND_2*%
X135500000Y-99620000D03*
%TO.P,IC3,6,N_OUT*%
%TO.N,Net-(IC3-N_OUT)*%
X135500000Y-97080000D03*
%TO.P,IC3,7,P_OUT*%
X135500000Y-94540000D03*
%TO.P,IC3,8,V+_2*%
%TO.N,Net-(IC1-POS)*%
X135500000Y-92000000D03*
%TD*%
D13*
%TO.P,C3,1,1*%
%TO.N,Net-(C3-Pad1)*%
X125460000Y-67000000D03*
%TO.P,C3,2,2*%
%TO.N,GND*%
X130540000Y-67000000D03*
%TD*%
D14*
%TO.P,Jmc2,1,1*%
%TO.N,Net-(C6-Pad1)*%
X142580000Y-57000000D03*
D15*
%TO.P,Jmc2,2,2*%
%TO.N,Net-(C3-Pad1)*%
X137500000Y-57000000D03*
%TO.P,Jmc2,3,3*%
%TO.N,Net-(Jmc2-Pad3)*%
X132420000Y-57000000D03*
%TD*%
D16*
%TO.P,R4,1,1*%
%TO.N,Net-(C6-Pad1)*%
X182000000Y-65600000D03*
%TO.P,R4,2,2*%
%TO.N,Net-(IC2-M)*%
X182000000Y-82400000D03*
%TD*%
%TO.P,R5,1,1*%
%TO.N,Net-(IC3-N_OUT)*%
X141900000Y-108500000D03*
%TO.P,R5,2,2*%
%TO.N,Net-(U1-GATE)*%
X125100000Y-108500000D03*
%TD*%
D14*
%TO.P,J3,1,1*%
%TO.N,Net-(IC1-POS)*%
X161920000Y-58700000D03*
D15*
%TO.P,J3,2,2*%
%TO.N,GND*%
X167000000Y-58700000D03*
%TD*%
D14*
%TO.P,Jmc1,1,1*%
%TO.N,Net-(Jmc1-Pad1)*%
X173000000Y-78080000D03*
D15*
%TO.P,Jmc1,2,2*%
%TO.N,Net-(IC3-IN)*%
X173000000Y-73000000D03*
%TO.P,Jmc1,3,3*%
%TO.N,GND*%
X173000000Y-67920000D03*
%TD*%
D16*
%TO.P,R8,1,1*%
%TO.N,GND*%
X169500000Y-103900000D03*
%TO.P,R8,2,2*%
%TO.N,Net-(Jmc1-Pad1)*%
X169500000Y-87100000D03*
%TD*%
%TO.P,R3,1,1*%
%TO.N,Net-(C3-Pad1)*%
X150500000Y-87100000D03*
%TO.P,R3,2,2*%
%TO.N,Net-(IC1-M)*%
X150500000Y-103900000D03*
%TD*%
D17*
%TO.P,D1,1,K*%
%TO.N,Net-(C10-+)*%
X125000000Y-124000000D03*
D18*
%TO.P,D1,2,A*%
%TO.N,Net-(D1-A)*%
X120100000Y-124000000D03*
%TD*%
D14*
%TO.P,J4ind,1,1*%
%TO.N,Net-(C1-Pad2)*%
X106700000Y-106815000D03*
D15*
%TO.P,J4ind,2,2*%
%TO.N,Net-(D1-A)*%
X106700000Y-111895000D03*
%TD*%
D16*
%TO.P,R2,1,1*%
%TO.N,GND*%
X115500000Y-53000000D03*
%TO.P,R2,2,2*%
%TO.N,Net-(Jmc2-Pad3)*%
X115500000Y-69800000D03*
%TD*%
D13*
%TO.P,C4,1,1*%
%TO.N,Net-(IC1-POS)*%
X151000000Y-66500000D03*
%TO.P,C4,2,2*%
%TO.N,GND*%
X145920000Y-66500000D03*
%TD*%
D19*
%TO.P,C10,1,+*%
%TO.N,Net-(C10-+)*%
X156000000Y-112500000D03*
D20*
%TO.P,C10,2,-*%
%TO.N,GND*%
X156000000Y-117500000D03*
%TD*%
D13*
%TO.P,C7,1,1*%
%TO.N,GND*%
X124920000Y-87500000D03*
%TO.P,C7,2,2*%
%TO.N,Net-(IC1-POS)*%
X130000000Y-87500000D03*
%TD*%
D16*
%TO.P,R1,1,1*%
%TO.N,Net-(Jmc2-Pad3)*%
X103000000Y-68600000D03*
%TO.P,R1,2,2*%
%TO.N,Net-(C1-Pad2)*%
X103000000Y-85400000D03*
%TD*%
D21*
%TO.P,U1,1,GATE*%
%TO.N,Net-(U1-GATE)*%
X119920000Y-116500000D03*
D22*
%TO.P,U1,2,SOURCE*%
%TO.N,GND*%
X122460000Y-116500000D03*
%TO.P,U1,3,DRAIN*%
%TO.N,Net-(D1-A)*%
X125000000Y-116500000D03*
%TD*%
D16*
%TO.P,R6,1,1*%
%TO.N,Net-(Jmc1-Pad1)*%
X165500000Y-87100000D03*
%TO.P,R6,2,2*%
%TO.N,Net-(LED1-A)*%
X165500000Y-103900000D03*
%TD*%
D13*
%TO.P,C8,1,1*%
%TO.N,GND*%
X138040000Y-87500000D03*
%TO.P,C8,2,2*%
%TO.N,Net-(IC1-POS)*%
X132960000Y-87500000D03*
%TD*%
%TO.P,C2,1,1*%
%TO.N,GND*%
X112500000Y-80460000D03*
%TO.P,C2,2,2*%
%TO.N,Net-(C1-Pad2)*%
X112500000Y-85540000D03*
%TD*%
%TO.P,C1,1,1*%
%TO.N,GND*%
X108500000Y-80500000D03*
%TO.P,C1,2,2*%
%TO.N,Net-(C1-Pad2)*%
X108500000Y-85580000D03*
%TD*%
D14*
%TO.P,J5,1,1*%
%TO.N,Net-(C10-+)*%
X134500000Y-123000000D03*
D15*
%TO.P,J5,2,2*%
%TO.N,GND*%
X139580000Y-123000000D03*
%TD*%
D13*
%TO.P,C6,1,1*%
%TO.N,Net-(C6-Pad1)*%
X179000000Y-61000000D03*
%TO.P,C6,2,2*%
%TO.N,GND*%
X173920000Y-61000000D03*
%TD*%
D23*
%TO.P,3MH_6mm,1*%
%TO.N,N/C*%
X189000000Y-56500019D03*
X190318019Y-53318038D03*
X190318019Y-59682000D03*
X193500000Y-52000019D03*
D24*
X193500000Y-56500019D03*
D23*
X193500000Y-61000019D03*
X196681981Y-53318038D03*
X196681981Y-59682000D03*
X198000000Y-56500019D03*
%TD*%
D10*
%TO.P,IC1,1,M*%
%TO.N,Net-(IC1-M)*%
X127560000Y-77000000D03*
%TO.P,IC1,2,NEG*%
%TO.N,GND*%
X132640000Y-77000000D03*
%TO.P,IC1,3,POS*%
%TO.N,Net-(IC1-POS)*%
X155500000Y-77000000D03*
%TD*%
D23*
%TO.P,1MH_6mm,1*%
%TO.N,N/C*%
X102000000Y-56500019D03*
X103318019Y-53318038D03*
X103318019Y-59682000D03*
X106500000Y-52000019D03*
D24*
X106500000Y-56500019D03*
D23*
X106500000Y-61000019D03*
X109681981Y-53318038D03*
X109681981Y-59682000D03*
X111000000Y-56500019D03*
%TD*%
%TO.P,4MH_6mm,1*%
%TO.N,N/C*%
X189000000Y-123500019D03*
X190318019Y-120318038D03*
X190318019Y-126682000D03*
X193500000Y-119000019D03*
D24*
X193500000Y-123500019D03*
D23*
X193500000Y-128000019D03*
X196681981Y-120318038D03*
X196681981Y-126682000D03*
X198000000Y-123500019D03*
%TD*%
D16*
%TO.P,R7,1,1*%
%TO.N,Net-(Jmc1-Pad1)*%
X161500000Y-87100000D03*
%TO.P,R7,2,2*%
%TO.N,Net-(C10-+)*%
X161500000Y-103900000D03*
%TD*%
D25*
%TO.P,LED1,1,A*%
%TO.N,Net-(LED1-A)*%
X168000000Y-109500000D03*
%TO.P,LED1,2,K*%
%TO.N,GND*%
X168000000Y-112040000D03*
%TD*%
D14*
%TO.P,J2gen,1,1*%
%TO.N,Net-(C1-Pad2)*%
X106700000Y-92815000D03*
D15*
%TO.P,J2gen,2,2*%
%TO.N,GND*%
X106700000Y-97895000D03*
%TD*%
D13*
%TO.P,C5,1,1*%
%TO.N,Net-(IC1-POS)*%
X168500000Y-125500000D03*
%TO.P,C5,2,2*%
%TO.N,GND*%
X168500000Y-120420000D03*
%TD*%
%TO.P,C9,1,1*%
%TO.N,GND*%
X146500000Y-120040000D03*
%TO.P,C9,2,2*%
%TO.N,Net-(C10-+)*%
X146500000Y-114960000D03*
%TD*%
D23*
%TO.P,2MH_6mm,1*%
%TO.N,N/C*%
X102000000Y-123500019D03*
X103318019Y-120318038D03*
X103318019Y-126682000D03*
X106500000Y-119000019D03*
D24*
X106500000Y-123500019D03*
D23*
X106500000Y-128000019D03*
X109681981Y-120318038D03*
X109681981Y-126682000D03*
X111000000Y-123500019D03*
%TD*%
D26*
%TO.N,Net-(IC1-M)*%
X134250000Y-104500000D03*
X131250000Y-104500000D03*
X127500000Y-104500000D03*
X125500000Y-104500000D03*
%TD*%
D27*
%TO.N,Net-(IC1-M)*%
X134250000Y-104500000D02*
X131250000Y-104500000D01*
X127500000Y-104500000D02*
X125500000Y-104500000D01*
%TD*%
%TA.AperFunction,Conductor*%
%TO.N,GND*%
G36*
X168145000Y-120466737D02*
G01*
X168169193Y-120557025D01*
X168215930Y-120637975D01*
X168282025Y-120704070D01*
X168362975Y-120750807D01*
X168453263Y-120775000D01*
X168498553Y-120775000D01*
X167915679Y-121357871D01*
X168005347Y-121413392D01*
X168005349Y-121413393D01*
X168196299Y-121487367D01*
X168196309Y-121487370D01*
X168397610Y-121525000D01*
X168602388Y-121525000D01*
X168612806Y-121523052D01*
X168682322Y-121530080D01*
X168737002Y-121573575D01*
X168759487Y-121639728D01*
X168742638Y-121707535D01*
X168697013Y-121752662D01*
X167960539Y-122172554D01*
X167892551Y-122188658D01*
X167826649Y-122165448D01*
X167785285Y-122113992D01*
X167380423Y-121176448D01*
X167371918Y-121107101D01*
X167402256Y-121044162D01*
X167461805Y-121007615D01*
X167502843Y-121003589D01*
X167558965Y-121007481D01*
X168145000Y-120421446D01*
X168145000Y-120466737D01*
G37*
%TD.AperFunction*%
%TA.AperFunction,Conductor*%
G36*
X190500964Y-50520204D02*
G01*
X190546719Y-50573008D01*
X190556663Y-50642166D01*
X190527638Y-50705722D01*
X190494517Y-50732705D01*
X190359360Y-50808398D01*
X190100878Y-50953154D01*
X189676151Y-51236948D01*
X189676147Y-51236950D01*
X189275012Y-51553179D01*
X189274999Y-51553190D01*
X188899906Y-51899925D01*
X188553171Y-52275018D01*
X188553160Y-52275031D01*
X188236931Y-52676166D01*
X188236929Y-52676170D01*
X187953135Y-53100897D01*
X187872095Y-53245606D01*
X187703543Y-53546577D01*
X187621630Y-53724259D01*
X187489685Y-54010469D01*
X187312888Y-54489698D01*
X187312887Y-54489704D01*
X187174234Y-54981325D01*
X187174229Y-54981348D01*
X187074581Y-55482316D01*
X187074575Y-55482352D01*
X187014538Y-55989591D01*
X187014537Y-55989607D01*
X186994484Y-56500008D01*
X186994484Y-56500029D01*
X187014537Y-57010430D01*
X187014538Y-57010446D01*
X187074575Y-57517685D01*
X187074576Y-57517695D01*
X187074578Y-57517706D01*
X187074581Y-57517721D01*
X187174229Y-58018689D01*
X187174234Y-58018712D01*
X187277412Y-58384552D01*
X187303062Y-58475499D01*
X187312887Y-58510333D01*
X187312888Y-58510339D01*
X187489685Y-58989568D01*
X187489687Y-58989572D01*
X187703543Y-59453461D01*
X187953136Y-59899142D01*
X188236927Y-60323865D01*
X188236929Y-60323867D01*
X188236931Y-60323871D01*
X188553160Y-60725006D01*
X188553171Y-60725019D01*
X188641529Y-60820603D01*
X188899906Y-61100113D01*
X189098909Y-61284070D01*
X189274999Y-61446847D01*
X189275012Y-61446858D01*
X189676147Y-61763087D01*
X189676148Y-61763087D01*
X189676154Y-61763092D01*
X190100877Y-62046883D01*
X190546558Y-62296476D01*
X191010447Y-62510332D01*
X191010450Y-62510333D01*
X191489679Y-62687130D01*
X191489680Y-62687130D01*
X191489685Y-62687132D01*
X191981317Y-62825787D01*
X192482313Y-62925441D01*
X192760677Y-62958387D01*
X192989572Y-62985480D01*
X192989577Y-62985480D01*
X192989583Y-62985481D01*
X193159722Y-62992165D01*
X193499990Y-63005535D01*
X193500000Y-63005535D01*
X193500010Y-63005535D01*
X193819010Y-62993001D01*
X194010417Y-62985481D01*
X194010423Y-62985480D01*
X194010427Y-62985480D01*
X194149599Y-62969007D01*
X194517687Y-62925441D01*
X195018683Y-62825787D01*
X195510315Y-62687132D01*
X195989553Y-62510332D01*
X196453442Y-62296476D01*
X196899123Y-62046883D01*
X197323846Y-61763092D01*
X197724995Y-61446852D01*
X198100094Y-61100113D01*
X198446833Y-60725014D01*
X198763073Y-60323865D01*
X199046864Y-59899142D01*
X199267312Y-59505502D01*
X199317242Y-59456632D01*
X199385670Y-59442512D01*
X199450869Y-59467628D01*
X199492139Y-59524007D01*
X199499500Y-59566094D01*
X199499500Y-120433943D01*
X199479815Y-120500982D01*
X199427011Y-120546737D01*
X199357853Y-120556681D01*
X199294297Y-120527656D01*
X199267310Y-120494532D01*
X199046864Y-120100896D01*
X198763073Y-119676173D01*
X198763068Y-119676167D01*
X198763068Y-119676166D01*
X198446839Y-119275031D01*
X198446828Y-119275018D01*
X198287007Y-119102126D01*
X198100094Y-118899925D01*
X197774299Y-118598762D01*
X197725000Y-118553190D01*
X197724987Y-118553179D01*
X197323852Y-118236950D01*
X197323849Y-118236948D01*
X197323846Y-118236946D01*
X196899123Y-117953155D01*
X196453442Y-117703562D01*
X196011885Y-117500001D01*
X195989549Y-117489704D01*
X195510320Y-117312907D01*
X195510315Y-117312906D01*
X195384533Y-117277431D01*
X195018693Y-117174253D01*
X195018670Y-117174248D01*
X194517702Y-117074600D01*
X194517687Y-117074597D01*
X194517676Y-117074595D01*
X194517666Y-117074594D01*
X194010427Y-117014557D01*
X194010411Y-117014556D01*
X193500010Y-116994503D01*
X193499990Y-116994503D01*
X192989588Y-117014556D01*
X192989572Y-117014557D01*
X192482333Y-117074594D01*
X192482319Y-117074596D01*
X192482313Y-117074597D01*
X192482302Y-117074599D01*
X192482297Y-117074600D01*
X191981329Y-117174248D01*
X191981306Y-117174253D01*
X191489685Y-117312906D01*
X191489679Y-117312907D01*
X191010450Y-117489704D01*
X190724240Y-117621649D01*
X190546558Y-117703562D01*
X190302780Y-117840084D01*
X190100878Y-117953154D01*
X189676151Y-118236948D01*
X189676147Y-118236950D01*
X189275012Y-118553179D01*
X189274999Y-118553190D01*
X188899906Y-118899925D01*
X188553171Y-119275018D01*
X188553160Y-119275031D01*
X188236931Y-119676166D01*
X188236929Y-119676170D01*
X187960956Y-120089193D01*
X187953136Y-120100896D01*
X187703543Y-120546577D01*
X187633699Y-120698081D01*
X187489685Y-121010469D01*
X187312888Y-121489698D01*
X187312887Y-121489704D01*
X187174234Y-121981325D01*
X187174229Y-121981348D01*
X187074581Y-122482316D01*
X187074575Y-122482352D01*
X187014538Y-122989591D01*
X187014537Y-122989607D01*
X186994484Y-123500008D01*
X186994484Y-123500029D01*
X187014537Y-124010430D01*
X187014538Y-124010446D01*
X187074575Y-124517685D01*
X187074576Y-124517695D01*
X187074578Y-124517706D01*
X187074581Y-124517721D01*
X187174229Y-125018689D01*
X187174234Y-125018712D01*
X187312887Y-125510333D01*
X187312888Y-125510339D01*
X187489685Y-125989568D01*
X187489687Y-125989572D01*
X187703543Y-126453461D01*
X187953136Y-126899142D01*
X188236927Y-127323865D01*
X188236929Y-127323867D01*
X188236931Y-127323871D01*
X188553160Y-127725006D01*
X188553171Y-127725019D01*
X188692632Y-127875886D01*
X188899906Y-128100113D01*
X189142471Y-128324338D01*
X189274999Y-128446847D01*
X189275012Y-128446858D01*
X189676147Y-128763087D01*
X189676148Y-128763087D01*
X189676154Y-128763092D01*
X190100877Y-129046883D01*
X190494516Y-129267331D01*
X190543387Y-129317261D01*
X190557507Y-129385689D01*
X190532391Y-129450888D01*
X190476012Y-129492158D01*
X190433925Y-129499519D01*
X109566075Y-129499519D01*
X109499036Y-129479834D01*
X109453281Y-129427030D01*
X109443337Y-129357872D01*
X109472362Y-129294316D01*
X109505482Y-129267332D01*
X109899123Y-129046883D01*
X110323846Y-128763092D01*
X110724995Y-128446852D01*
X111100094Y-128100113D01*
X111446833Y-127725014D01*
X111763073Y-127323865D01*
X112046864Y-126899142D01*
X112296457Y-126453461D01*
X112510313Y-125989572D01*
X112687113Y-125510334D01*
X112825768Y-125018702D01*
X112925422Y-124517706D01*
X112985462Y-124010436D01*
X112985872Y-124000000D01*
X118507090Y-124000000D01*
X118526700Y-124249181D01*
X118526700Y-124249184D01*
X118526701Y-124249186D01*
X118567421Y-124418793D01*
X118585054Y-124492240D01*
X118680704Y-124723162D01*
X118680706Y-124723165D01*
X118811305Y-124936283D01*
X118811306Y-124936285D01*
X118811307Y-124936287D01*
X118811309Y-124936289D01*
X118973643Y-125126357D01*
X119163711Y-125288691D01*
X119230845Y-125329831D01*
X119376834Y-125419293D01*
X119376837Y-125419295D01*
X119596625Y-125510333D01*
X119607764Y-125514947D01*
X119850814Y-125573299D01*
X120100000Y-125592910D01*
X120349186Y-125573299D01*
X120592236Y-125514947D01*
X120707701Y-125467120D01*
X120823162Y-125419295D01*
X120823163Y-125419294D01*
X120823166Y-125419293D01*
X121036289Y-125288691D01*
X121226357Y-125126357D01*
X121388691Y-124936289D01*
X121519293Y-124723166D01*
X121614947Y-124492236D01*
X121673299Y-124249186D01*
X121692910Y-124000000D01*
X121673299Y-123750814D01*
X121614947Y-123507764D01*
X121609147Y-123493761D01*
X121519295Y-123276837D01*
X121519293Y-123276834D01*
X121388694Y-123063716D01*
X121388693Y-123063714D01*
X121388692Y-123063713D01*
X121388691Y-123063711D01*
X121226357Y-122873643D01*
X121215810Y-122864635D01*
X123412000Y-122864635D01*
X123412000Y-125135370D01*
X123412001Y-125135376D01*
X123418408Y-125194983D01*
X123468702Y-125329828D01*
X123468706Y-125329835D01*
X123554952Y-125445044D01*
X123554955Y-125445047D01*
X123670164Y-125531293D01*
X123670171Y-125531297D01*
X123805017Y-125581591D01*
X123805016Y-125581591D01*
X123811944Y-125582335D01*
X123864627Y-125588000D01*
X126135372Y-125587999D01*
X126194983Y-125581591D01*
X126329831Y-125531296D01*
X126445046Y-125445046D01*
X126531296Y-125329831D01*
X126581591Y-125194983D01*
X126588000Y-125135373D01*
X126587999Y-122864628D01*
X126581591Y-122805017D01*
X126546640Y-122711309D01*
X126531297Y-122670171D01*
X126531293Y-122670164D01*
X126445047Y-122554955D01*
X126445044Y-122554952D01*
X126329835Y-122468706D01*
X126329828Y-122468702D01*
X126194982Y-122418408D01*
X126194983Y-122418408D01*
X126135383Y-122412001D01*
X126135381Y-122412000D01*
X126135373Y-122412000D01*
X126135364Y-122412000D01*
X123864629Y-122412000D01*
X123864623Y-122412001D01*
X123805016Y-122418408D01*
X123670171Y-122468702D01*
X123670164Y-122468706D01*
X123554955Y-122554952D01*
X123554952Y-122554955D01*
X123468706Y-122670164D01*
X123468702Y-122670171D01*
X123418408Y-122805017D01*
X123412001Y-122864616D01*
X123412001Y-122864623D01*
X123412000Y-122864635D01*
X121215810Y-122864635D01*
X121036289Y-122711309D01*
X121036287Y-122711307D01*
X121036285Y-122711306D01*
X121036283Y-122711305D01*
X120823165Y-122580706D01*
X120823162Y-122580704D01*
X120592240Y-122485054D01*
X120592236Y-122485053D01*
X120349186Y-122426701D01*
X120349184Y-122426700D01*
X120349181Y-122426700D01*
X120100000Y-122407090D01*
X119850818Y-122426700D01*
X119607759Y-122485054D01*
X119376837Y-122580704D01*
X119376834Y-122580706D01*
X119163716Y-122711305D01*
X119163714Y-122711306D01*
X118973643Y-122873643D01*
X118811306Y-123063714D01*
X118811305Y-123063716D01*
X118680706Y-123276834D01*
X118680704Y-123276837D01*
X118585054Y-123507759D01*
X118526700Y-123750818D01*
X118507090Y-124000000D01*
X112985872Y-124000000D01*
X112997485Y-123704423D01*
X113005516Y-123500029D01*
X113005516Y-123500008D01*
X112987955Y-123053045D01*
X112985462Y-122989602D01*
X112979115Y-122935981D01*
X112957860Y-122756394D01*
X112925422Y-122482332D01*
X112825768Y-121981336D01*
X112824583Y-121977135D01*
X133024500Y-121977135D01*
X133024500Y-124022870D01*
X133024501Y-124022876D01*
X133030908Y-124082483D01*
X133081202Y-124217328D01*
X133081206Y-124217335D01*
X133167452Y-124332544D01*
X133167455Y-124332547D01*
X133282664Y-124418793D01*
X133282671Y-124418797D01*
X133417517Y-124469091D01*
X133417516Y-124469091D01*
X133424444Y-124469835D01*
X133477127Y-124475500D01*
X135522872Y-124475499D01*
X135582483Y-124469091D01*
X135717331Y-124418796D01*
X135832546Y-124332546D01*
X135918796Y-124217331D01*
X135969091Y-124082483D01*
X135975500Y-124022873D01*
X135975499Y-122999994D01*
X138099945Y-122999994D01*
X138099945Y-123000005D01*
X138120130Y-123243605D01*
X138180138Y-123480573D01*
X138278330Y-123704429D01*
X138374626Y-123851819D01*
X138978958Y-123247487D01*
X139003978Y-123307890D01*
X139075112Y-123414351D01*
X139165649Y-123504888D01*
X139272110Y-123576022D01*
X139332511Y-123601041D01*
X138727758Y-124205794D01*
X138727758Y-124205796D01*
X138770478Y-124239046D01*
X138770484Y-124239050D01*
X138985468Y-124355394D01*
X138985476Y-124355397D01*
X139216664Y-124434765D01*
X139457779Y-124475000D01*
X139702221Y-124475000D01*
X139943335Y-124434765D01*
X140174523Y-124355397D01*
X140174531Y-124355394D01*
X140389514Y-124239051D01*
X140389514Y-124239050D01*
X140432240Y-124205795D01*
X140432240Y-124205794D01*
X139827488Y-123601041D01*
X139887890Y-123576022D01*
X139994351Y-123504888D01*
X140084888Y-123414351D01*
X140156022Y-123307890D01*
X140181041Y-123247488D01*
X140785372Y-123851819D01*
X140881667Y-123704431D01*
X140881672Y-123704423D01*
X140979861Y-123480573D01*
X141039869Y-123243605D01*
X141060055Y-123000005D01*
X141060055Y-122999994D01*
X141039869Y-122756394D01*
X140979861Y-122519426D01*
X140881669Y-122295570D01*
X140785372Y-122148179D01*
X140181041Y-122752510D01*
X140156022Y-122692110D01*
X140084888Y-122585649D01*
X139994351Y-122495112D01*
X139887890Y-122423978D01*
X139827487Y-122398958D01*
X140432240Y-121794204D01*
X140432240Y-121794203D01*
X140389514Y-121760949D01*
X140174531Y-121644605D01*
X140174523Y-121644602D01*
X139943335Y-121565234D01*
X139702221Y-121525000D01*
X139457779Y-121525000D01*
X139216664Y-121565234D01*
X138985476Y-121644602D01*
X138985468Y-121644605D01*
X138770481Y-121760951D01*
X138727758Y-121794202D01*
X138727757Y-121794204D01*
X139332511Y-122398958D01*
X139272110Y-122423978D01*
X139165649Y-122495112D01*
X139075112Y-122585649D01*
X139003978Y-122692110D01*
X138978958Y-122752511D01*
X138374626Y-122148179D01*
X138278328Y-122295575D01*
X138180138Y-122519426D01*
X138120130Y-122756394D01*
X138099945Y-122999994D01*
X135975499Y-122999994D01*
X135975499Y-121977128D01*
X135969091Y-121917517D01*
X135923098Y-121794204D01*
X135918797Y-121782671D01*
X135918793Y-121782664D01*
X135832547Y-121667455D01*
X135832544Y-121667452D01*
X135717335Y-121581206D01*
X135717328Y-121581202D01*
X135582482Y-121530908D01*
X135582483Y-121530908D01*
X135522883Y-121524501D01*
X135522881Y-121524500D01*
X135522873Y-121524500D01*
X135522864Y-121524500D01*
X133477129Y-121524500D01*
X133477123Y-121524501D01*
X133417516Y-121530908D01*
X133282671Y-121581202D01*
X133282664Y-121581206D01*
X133167455Y-121667452D01*
X133167452Y-121667455D01*
X133081206Y-121782664D01*
X133081202Y-121782671D01*
X133030908Y-121917517D01*
X133024501Y-121977116D01*
X133024501Y-121977123D01*
X133024500Y-121977135D01*
X112824583Y-121977135D01*
X112824581Y-121977129D01*
X112772991Y-121794203D01*
X112687113Y-121489704D01*
X112658960Y-121413393D01*
X112510314Y-121010469D01*
X112510313Y-121010466D01*
X112296457Y-120546577D01*
X112046864Y-120100896D01*
X112006174Y-120039999D01*
X145390266Y-120039999D01*
X145390266Y-120040000D01*
X145409160Y-120243912D01*
X145465203Y-120440879D01*
X145465210Y-120440897D01*
X145556482Y-120624196D01*
X145558963Y-120627481D01*
X145558965Y-120627482D01*
X146145000Y-120041447D01*
X146145000Y-120086737D01*
X146169193Y-120177025D01*
X146215930Y-120257975D01*
X146282025Y-120324070D01*
X146362975Y-120370807D01*
X146453263Y-120395000D01*
X146498553Y-120395000D01*
X145915679Y-120977871D01*
X146005347Y-121033392D01*
X146005349Y-121033393D01*
X146196299Y-121107367D01*
X146196309Y-121107370D01*
X146397610Y-121145000D01*
X146602390Y-121145000D01*
X146803690Y-121107370D01*
X146803700Y-121107367D01*
X146994650Y-121033393D01*
X146994654Y-121033391D01*
X147084318Y-120977872D01*
X147084318Y-120977871D01*
X146501448Y-120395000D01*
X146546737Y-120395000D01*
X146637025Y-120370807D01*
X146717975Y-120324070D01*
X146784070Y-120257975D01*
X146830807Y-120177025D01*
X146855000Y-120086737D01*
X146855000Y-120041448D01*
X147441034Y-120627482D01*
X147441035Y-120627481D01*
X147443516Y-120624199D01*
X147534789Y-120440897D01*
X147534796Y-120440879D01*
X147590839Y-120243912D01*
X147609734Y-120040000D01*
X147609734Y-120039999D01*
X147590839Y-119836087D01*
X147534796Y-119639120D01*
X147534789Y-119639102D01*
X147443517Y-119455803D01*
X147441034Y-119452517D01*
X146855000Y-120038551D01*
X146855000Y-119993263D01*
X146830807Y-119902975D01*
X146784070Y-119822025D01*
X146717975Y-119755930D01*
X146637025Y-119709193D01*
X146546737Y-119685000D01*
X146501448Y-119685000D01*
X147084319Y-119102127D01*
X146994648Y-119046606D01*
X146803691Y-118972629D01*
X146602390Y-118935000D01*
X146397610Y-118935000D01*
X146196309Y-118972629D01*
X146196308Y-118972629D01*
X146005351Y-119046606D01*
X146005345Y-119046609D01*
X145915680Y-119102126D01*
X145915679Y-119102127D01*
X146498553Y-119685000D01*
X146453263Y-119685000D01*
X146362975Y-119709193D01*
X146282025Y-119755930D01*
X146215930Y-119822025D01*
X146169193Y-119902975D01*
X146145000Y-119993263D01*
X146145000Y-120038552D01*
X145558964Y-119452516D01*
X145556482Y-119455803D01*
X145465210Y-119639102D01*
X145465203Y-119639120D01*
X145409160Y-119836087D01*
X145390266Y-120039999D01*
X112006174Y-120039999D01*
X111763073Y-119676173D01*
X111763068Y-119676167D01*
X111763068Y-119676166D01*
X111446839Y-119275031D01*
X111446828Y-119275018D01*
X111287007Y-119102126D01*
X111100094Y-118899925D01*
X110774299Y-118598762D01*
X110725000Y-118553190D01*
X110724987Y-118553179D01*
X110323852Y-118236950D01*
X110323849Y-118236948D01*
X110323846Y-118236946D01*
X109899123Y-117953155D01*
X109453442Y-117703562D01*
X109011885Y-117500001D01*
X108989549Y-117489704D01*
X108510320Y-117312907D01*
X108510315Y-117312906D01*
X108384533Y-117277431D01*
X108018693Y-117174253D01*
X108018670Y-117174248D01*
X107517702Y-117074600D01*
X107517687Y-117074597D01*
X107517676Y-117074595D01*
X107517666Y-117074594D01*
X107010427Y-117014557D01*
X107010411Y-117014556D01*
X106500010Y-116994503D01*
X106499990Y-116994503D01*
X105989588Y-117014556D01*
X105989572Y-117014557D01*
X105482333Y-117074594D01*
X105482319Y-117074596D01*
X105482313Y-117074597D01*
X105482302Y-117074599D01*
X105482297Y-117074600D01*
X104981329Y-117174248D01*
X104981306Y-117174253D01*
X104489685Y-117312906D01*
X104489679Y-117312907D01*
X104010450Y-117489704D01*
X103724240Y-117621649D01*
X103546558Y-117703562D01*
X103302780Y-117840084D01*
X103100878Y-117953154D01*
X102676151Y-118236948D01*
X102676147Y-118236950D01*
X102275012Y-118553179D01*
X102274999Y-118553190D01*
X101899906Y-118899925D01*
X101553171Y-119275018D01*
X101553160Y-119275031D01*
X101236931Y-119676166D01*
X101236929Y-119676170D01*
X100960956Y-120089193D01*
X100953136Y-120100896D01*
X100743052Y-120476030D01*
X100732690Y-120494532D01*
X100682758Y-120543405D01*
X100614330Y-120557525D01*
X100549131Y-120532409D01*
X100507861Y-120476030D01*
X100500500Y-120433943D01*
X100500500Y-115417135D01*
X118384500Y-115417135D01*
X118384500Y-117582870D01*
X118384501Y-117582876D01*
X118390908Y-117642483D01*
X118441202Y-117777328D01*
X118441206Y-117777335D01*
X118527452Y-117892544D01*
X118527455Y-117892547D01*
X118642664Y-117978793D01*
X118642671Y-117978797D01*
X118777517Y-118029091D01*
X118777516Y-118029091D01*
X118784444Y-118029835D01*
X118837127Y-118035500D01*
X121002872Y-118035499D01*
X121062483Y-118029091D01*
X121197331Y-117978796D01*
X121312546Y-117892546D01*
X121396433Y-117780486D01*
X121452367Y-117738616D01*
X121522059Y-117733632D01*
X121560490Y-117749071D01*
X121760969Y-117871925D01*
X121760972Y-117871927D01*
X121984191Y-117964386D01*
X122219127Y-118020789D01*
X122460000Y-118039746D01*
X122700872Y-118020789D01*
X122935808Y-117964386D01*
X122935809Y-117964386D01*
X123159025Y-117871927D01*
X123357034Y-117750586D01*
X122738104Y-117131656D01*
X122786838Y-117111470D01*
X122899850Y-117035958D01*
X122995958Y-116939850D01*
X123071470Y-116826838D01*
X123091656Y-116778103D01*
X123721987Y-117408434D01*
X123746563Y-117412597D01*
X123786540Y-117443537D01*
X123834764Y-117499999D01*
X123910880Y-117589120D01*
X123998605Y-117664044D01*
X124094667Y-117746089D01*
X124094669Y-117746090D01*
X124300741Y-117872371D01*
X124387097Y-117908140D01*
X124524037Y-117964863D01*
X124759052Y-118021285D01*
X125000000Y-118040248D01*
X125240948Y-118021285D01*
X125475963Y-117964863D01*
X125699258Y-117872371D01*
X125905335Y-117746087D01*
X126089120Y-117589120D01*
X126165236Y-117499999D01*
X154857627Y-117499999D01*
X154857627Y-117500000D01*
X154877077Y-117709909D01*
X154877078Y-117709912D01*
X154934766Y-117912668D01*
X154934769Y-117912674D01*
X155028732Y-118101376D01*
X155028733Y-118101379D01*
X155035761Y-118110684D01*
X155578274Y-117568172D01*
X155603963Y-117664044D01*
X155659916Y-117760956D01*
X155739044Y-117840084D01*
X155835956Y-117896037D01*
X155931827Y-117921725D01*
X155392071Y-118461479D01*
X155392072Y-118461480D01*
X155490797Y-118522608D01*
X155490800Y-118522609D01*
X155687372Y-118598762D01*
X155894597Y-118637500D01*
X156105403Y-118637500D01*
X156312627Y-118598762D01*
X156509200Y-118522608D01*
X156607927Y-118461479D01*
X156068173Y-117921725D01*
X156164044Y-117896037D01*
X156260956Y-117840084D01*
X156340084Y-117760956D01*
X156396037Y-117664044D01*
X156421725Y-117568173D01*
X156964237Y-118110685D01*
X156964237Y-118110684D01*
X156971264Y-118101382D01*
X157065230Y-117912674D01*
X157065233Y-117912668D01*
X157122921Y-117709912D01*
X157122922Y-117709909D01*
X157142373Y-117500000D01*
X157142373Y-117499999D01*
X157122922Y-117290090D01*
X157122921Y-117290087D01*
X157065233Y-117087331D01*
X157065230Y-117087325D01*
X156971264Y-116898617D01*
X156964238Y-116889314D01*
X156964236Y-116889314D01*
X156421725Y-117431826D01*
X156396037Y-117335956D01*
X156340084Y-117239044D01*
X156260956Y-117159916D01*
X156164044Y-117103963D01*
X156068173Y-117078274D01*
X156607927Y-116538519D01*
X156607926Y-116538518D01*
X156509202Y-116477392D01*
X156509196Y-116477388D01*
X156312624Y-116401236D01*
X156105403Y-116362500D01*
X155894597Y-116362500D01*
X155687375Y-116401236D01*
X155490803Y-116477388D01*
X155490800Y-116477390D01*
X155392071Y-116538519D01*
X155931827Y-117078274D01*
X155835956Y-117103963D01*
X155739044Y-117159916D01*
X155659916Y-117239044D01*
X155603963Y-117335956D01*
X155578274Y-117431826D01*
X155035761Y-116889313D01*
X155028739Y-116898611D01*
X155028731Y-116898624D01*
X154934769Y-117087325D01*
X154934766Y-117087331D01*
X154877078Y-117290087D01*
X154877077Y-117290090D01*
X154857627Y-117499999D01*
X126165236Y-117499999D01*
X126246087Y-117405335D01*
X126372371Y-117199258D01*
X126464863Y-116975963D01*
X126521285Y-116740948D01*
X126540248Y-116500000D01*
X126521285Y-116259052D01*
X126464863Y-116024037D01*
X126372371Y-115800742D01*
X126372371Y-115800741D01*
X126246090Y-115594669D01*
X126246089Y-115594667D01*
X126203211Y-115544464D01*
X126089120Y-115410880D01*
X125967611Y-115307101D01*
X125905332Y-115253910D01*
X125905330Y-115253909D01*
X125699258Y-115127628D01*
X125475958Y-115035135D01*
X125240944Y-114978714D01*
X125240945Y-114978714D01*
X125003139Y-114959999D01*
X145389764Y-114959999D01*
X145389764Y-114960000D01*
X145408667Y-115164000D01*
X145408667Y-115164002D01*
X145408668Y-115164005D01*
X145433400Y-115250928D01*
X145464737Y-115361067D01*
X145556058Y-115544464D01*
X145679527Y-115707963D01*
X145791457Y-115810000D01*
X145830933Y-115845987D01*
X146005125Y-115953843D01*
X146196169Y-116027853D01*
X146397560Y-116065500D01*
X146397562Y-116065500D01*
X146602438Y-116065500D01*
X146602440Y-116065500D01*
X146803831Y-116027853D01*
X146994875Y-115953843D01*
X147169067Y-115845987D01*
X147320474Y-115707961D01*
X147443942Y-115544464D01*
X147535264Y-115361064D01*
X147591332Y-115164005D01*
X147610236Y-114960000D01*
X147591332Y-114755995D01*
X147535264Y-114558936D01*
X147443942Y-114375536D01*
X147320474Y-114212039D01*
X147320472Y-114212036D01*
X147169068Y-114074014D01*
X147169067Y-114074013D01*
X146994875Y-113966157D01*
X146803831Y-113892147D01*
X146602440Y-113854500D01*
X146397560Y-113854500D01*
X146196169Y-113892147D01*
X146196166Y-113892147D01*
X146196166Y-113892148D01*
X146005122Y-113966158D01*
X145830931Y-114074014D01*
X145679527Y-114212036D01*
X145556058Y-114375535D01*
X145464737Y-114558932D01*
X145408667Y-114755999D01*
X145389764Y-114959999D01*
X125003139Y-114959999D01*
X125000000Y-114959752D01*
X124759054Y-114978714D01*
X124524041Y-115035135D01*
X124300741Y-115127628D01*
X124094669Y-115253909D01*
X124094667Y-115253910D01*
X123910880Y-115410880D01*
X123786541Y-115556461D01*
X123728034Y-115594654D01*
X123718019Y-115595532D01*
X123091656Y-116221895D01*
X123071470Y-116173162D01*
X122995958Y-116060150D01*
X122899850Y-115964042D01*
X122786838Y-115888530D01*
X122738103Y-115868343D01*
X123357034Y-115249412D01*
X123159030Y-115128074D01*
X123159027Y-115128072D01*
X122935808Y-115035613D01*
X122700872Y-114979210D01*
X122460000Y-114960253D01*
X122219127Y-114979210D01*
X121984191Y-115035613D01*
X121984190Y-115035613D01*
X121760972Y-115128072D01*
X121760969Y-115128074D01*
X121560490Y-115250928D01*
X121493044Y-115269173D01*
X121426442Y-115248057D01*
X121396434Y-115219513D01*
X121327982Y-115128074D01*
X121312546Y-115107454D01*
X121312544Y-115107453D01*
X121312544Y-115107452D01*
X121197335Y-115021206D01*
X121197328Y-115021202D01*
X121062482Y-114970908D01*
X121062483Y-114970908D01*
X121002883Y-114964501D01*
X121002881Y-114964500D01*
X121002873Y-114964500D01*
X121002864Y-114964500D01*
X118837129Y-114964500D01*
X118837123Y-114964501D01*
X118777516Y-114970908D01*
X118642671Y-115021202D01*
X118642664Y-115021206D01*
X118527455Y-115107452D01*
X118527452Y-115107455D01*
X118441206Y-115222664D01*
X118441202Y-115222671D01*
X118390908Y-115357517D01*
X118384501Y-115417116D01*
X118384500Y-115417135D01*
X100500500Y-115417135D01*
X100500500Y-111894994D01*
X105219443Y-111894994D01*
X105219443Y-111895005D01*
X105239634Y-112138683D01*
X105239636Y-112138695D01*
X105299663Y-112375734D01*
X105397888Y-112599666D01*
X105531632Y-112804378D01*
X105697242Y-112984277D01*
X105697252Y-112984286D01*
X105833275Y-113090157D01*
X105890212Y-113134473D01*
X106105267Y-113250855D01*
X106105270Y-113250856D01*
X106336541Y-113330251D01*
X106336543Y-113330251D01*
X106336545Y-113330252D01*
X106577737Y-113370500D01*
X106577738Y-113370500D01*
X106822262Y-113370500D01*
X106822263Y-113370500D01*
X107063455Y-113330252D01*
X107294733Y-113250855D01*
X107509788Y-113134473D01*
X107702754Y-112984281D01*
X107868368Y-112804377D01*
X108002111Y-112599667D01*
X108100336Y-112375736D01*
X108160364Y-112138692D01*
X108168542Y-112039998D01*
X108180557Y-111895005D01*
X108180557Y-111894994D01*
X108160365Y-111651316D01*
X108160363Y-111651304D01*
X108152477Y-111620164D01*
X108100336Y-111414264D01*
X108002111Y-111190333D01*
X107895421Y-111027031D01*
X107868367Y-110985621D01*
X107702757Y-110805722D01*
X107702747Y-110805713D01*
X107509791Y-110655529D01*
X107509787Y-110655526D01*
X107294734Y-110539145D01*
X107294729Y-110539143D01*
X107063458Y-110459748D01*
X106880985Y-110429299D01*
X106822263Y-110419500D01*
X106577737Y-110419500D01*
X106529498Y-110427549D01*
X106336541Y-110459748D01*
X106105270Y-110539143D01*
X106105265Y-110539145D01*
X105890212Y-110655526D01*
X105890208Y-110655529D01*
X105697252Y-110805713D01*
X105697242Y-110805722D01*
X105531632Y-110985621D01*
X105397888Y-111190333D01*
X105299663Y-111414265D01*
X105239636Y-111651304D01*
X105239634Y-111651316D01*
X105219443Y-111894994D01*
X100500500Y-111894994D01*
X100500500Y-108499999D01*
X123994785Y-108499999D01*
X123994785Y-108500000D01*
X124013602Y-108703082D01*
X124069417Y-108899247D01*
X124069422Y-108899260D01*
X124160327Y-109081821D01*
X124283237Y-109244581D01*
X124433958Y-109381980D01*
X124433960Y-109381982D01*
X124533141Y-109443392D01*
X124607363Y-109489348D01*
X124797544Y-109563024D01*
X124998024Y-109600500D01*
X124998026Y-109600500D01*
X125201974Y-109600500D01*
X125201976Y-109600500D01*
X125402456Y-109563024D01*
X125592637Y-109489348D01*
X125766041Y-109381981D01*
X125916764Y-109244579D01*
X126039673Y-109081821D01*
X126130582Y-108899250D01*
X126186397Y-108703083D01*
X126205215Y-108500000D01*
X126205215Y-108499999D01*
X140794785Y-108499999D01*
X140794785Y-108500000D01*
X140813602Y-108703082D01*
X140869417Y-108899247D01*
X140869422Y-108899260D01*
X140960327Y-109081821D01*
X141083237Y-109244581D01*
X141233958Y-109381980D01*
X141233960Y-109381982D01*
X141333141Y-109443392D01*
X141407363Y-109489348D01*
X141597544Y-109563024D01*
X141798024Y-109600500D01*
X141798026Y-109600500D01*
X142001974Y-109600500D01*
X142001976Y-109600500D01*
X142202456Y-109563024D01*
X142392637Y-109489348D01*
X142566041Y-109381981D01*
X142716764Y-109244579D01*
X142839673Y-109081821D01*
X142930582Y-108899250D01*
X142986397Y-108703083D01*
X143005215Y-108500000D01*
X142986397Y-108296917D01*
X142930582Y-108100750D01*
X142839673Y-107918179D01*
X142716764Y-107755421D01*
X142716762Y-107755418D01*
X142566041Y-107618019D01*
X142566039Y-107618017D01*
X142392642Y-107510655D01*
X142392635Y-107510651D01*
X142297546Y-107473814D01*
X142202456Y-107436976D01*
X142001976Y-107399500D01*
X141798024Y-107399500D01*
X141597544Y-107436976D01*
X141597541Y-107436976D01*
X141597541Y-107436977D01*
X141407364Y-107510651D01*
X141407357Y-107510655D01*
X141233960Y-107618017D01*
X141233958Y-107618019D01*
X141083237Y-107755418D01*
X140960327Y-107918178D01*
X140869422Y-108100739D01*
X140869417Y-108100752D01*
X140813602Y-108296917D01*
X140794785Y-108499999D01*
X126205215Y-108499999D01*
X126186397Y-108296917D01*
X126130582Y-108100750D01*
X126039673Y-107918179D01*
X125916764Y-107755421D01*
X125916762Y-107755418D01*
X125766041Y-107618019D01*
X125766039Y-107618017D01*
X125592642Y-107510655D01*
X125592635Y-107510651D01*
X125497546Y-107473814D01*
X125402456Y-107436976D01*
X125201976Y-107399500D01*
X124998024Y-107399500D01*
X124797544Y-107436976D01*
X124797541Y-107436976D01*
X124797541Y-107436977D01*
X124607364Y-107510651D01*
X124607357Y-107510655D01*
X124433960Y-107618017D01*
X124433958Y-107618019D01*
X124283237Y-107755418D01*
X124160327Y-107918178D01*
X124069422Y-108100739D01*
X124069417Y-108100752D01*
X124013602Y-108296917D01*
X123994785Y-108499999D01*
X100500500Y-108499999D01*
X100500500Y-105792135D01*
X105224500Y-105792135D01*
X105224500Y-107837870D01*
X105224501Y-107837876D01*
X105230908Y-107897483D01*
X105281202Y-108032328D01*
X105281206Y-108032335D01*
X105367452Y-108147544D01*
X105367455Y-108147547D01*
X105482664Y-108233793D01*
X105482671Y-108233797D01*
X105617517Y-108284091D01*
X105617516Y-108284091D01*
X105624444Y-108284835D01*
X105677127Y-108290500D01*
X107722872Y-108290499D01*
X107782483Y-108284091D01*
X107917331Y-108233796D01*
X108032546Y-108147546D01*
X108118796Y-108032331D01*
X108169091Y-107897483D01*
X108175500Y-107837873D01*
X108175499Y-105792128D01*
X108169091Y-105732517D01*
X108118796Y-105597669D01*
X108118795Y-105597668D01*
X108118793Y-105597664D01*
X108032547Y-105482455D01*
X108032544Y-105482452D01*
X107917335Y-105396206D01*
X107917328Y-105396202D01*
X107782482Y-105345908D01*
X107782483Y-105345908D01*
X107722883Y-105339501D01*
X107722881Y-105339500D01*
X107722873Y-105339500D01*
X107722864Y-105339500D01*
X105677129Y-105339500D01*
X105677123Y-105339501D01*
X105617516Y-105345908D01*
X105482671Y-105396202D01*
X105482664Y-105396206D01*
X105367455Y-105482452D01*
X105367452Y-105482455D01*
X105281206Y-105597664D01*
X105281202Y-105597671D01*
X105230908Y-105732517D01*
X105224501Y-105792116D01*
X105224501Y-105792123D01*
X105224500Y-105792135D01*
X100500500Y-105792135D01*
X100500500Y-104499999D01*
X124494659Y-104499999D01*
X124498903Y-104543090D01*
X124499500Y-104555244D01*
X124499500Y-104598544D01*
X124507945Y-104641006D01*
X124509730Y-104653035D01*
X124513975Y-104696130D01*
X124513976Y-104696134D01*
X124526547Y-104737575D01*
X124529503Y-104749378D01*
X124537946Y-104791827D01*
X124537948Y-104791834D01*
X124554517Y-104831834D01*
X124558612Y-104843277D01*
X124571186Y-104884726D01*
X124571187Y-104884729D01*
X124591597Y-104922913D01*
X124596800Y-104933915D01*
X124613368Y-104973914D01*
X124613370Y-104973918D01*
X124637425Y-105009918D01*
X124643678Y-105020350D01*
X124654948Y-105041436D01*
X124664088Y-105058535D01*
X124664094Y-105058543D01*
X124691552Y-105092002D01*
X124698799Y-105101772D01*
X124722860Y-105137781D01*
X124722862Y-105137783D01*
X124722865Y-105137787D01*
X124753479Y-105168401D01*
X124761651Y-105177416D01*
X124789117Y-105210883D01*
X124822579Y-105238345D01*
X124822581Y-105238346D01*
X124831599Y-105246520D01*
X124862214Y-105277136D01*
X124862217Y-105277138D01*
X124862218Y-105277139D01*
X124898217Y-105301193D01*
X124898219Y-105301194D01*
X124907988Y-105308438D01*
X124941462Y-105335910D01*
X124979640Y-105356316D01*
X124990078Y-105362572D01*
X124997899Y-105367797D01*
X125026086Y-105386632D01*
X125066095Y-105403203D01*
X125077091Y-105408404D01*
X125115273Y-105428814D01*
X125156710Y-105441383D01*
X125168160Y-105445480D01*
X125208165Y-105462051D01*
X125250640Y-105470499D01*
X125262414Y-105473448D01*
X125303868Y-105486024D01*
X125346964Y-105490268D01*
X125358990Y-105492052D01*
X125389480Y-105498117D01*
X125401458Y-105500500D01*
X125401459Y-105500500D01*
X125444756Y-105500500D01*
X125456909Y-105501096D01*
X125500000Y-105505341D01*
X125543090Y-105501096D01*
X125555244Y-105500500D01*
X127444756Y-105500500D01*
X127456909Y-105501096D01*
X127500000Y-105505341D01*
X127543090Y-105501096D01*
X127555244Y-105500500D01*
X127598542Y-105500500D01*
X127614454Y-105497334D01*
X127641005Y-105492053D01*
X127653037Y-105490268D01*
X127696132Y-105486024D01*
X127737580Y-105473450D01*
X127749353Y-105470500D01*
X127791835Y-105462051D01*
X127831847Y-105445476D01*
X127843280Y-105441386D01*
X127884727Y-105428814D01*
X127922918Y-105408399D01*
X127933910Y-105403201D01*
X127973914Y-105386632D01*
X128009938Y-105362560D01*
X128020351Y-105356320D01*
X128046591Y-105342295D01*
X128058535Y-105335912D01*
X128058539Y-105335909D01*
X128092005Y-105308444D01*
X128101782Y-105301193D01*
X128137781Y-105277140D01*
X128137783Y-105277138D01*
X128137785Y-105277136D01*
X128168408Y-105246512D01*
X128177402Y-105238359D01*
X128210883Y-105210883D01*
X128238359Y-105177402D01*
X128246512Y-105168408D01*
X128277139Y-105137782D01*
X128301200Y-105101772D01*
X128308444Y-105092005D01*
X128335909Y-105058539D01*
X128335912Y-105058535D01*
X128342295Y-105046591D01*
X128356320Y-105020351D01*
X128362560Y-105009938D01*
X128386632Y-104973914D01*
X128403202Y-104933906D01*
X128408402Y-104922913D01*
X128428814Y-104884727D01*
X128441386Y-104843280D01*
X128445476Y-104831847D01*
X128462051Y-104791835D01*
X128470500Y-104749353D01*
X128473450Y-104737580D01*
X128486024Y-104696132D01*
X128490268Y-104653037D01*
X128492054Y-104640999D01*
X128500500Y-104598541D01*
X128500500Y-104555244D01*
X128501097Y-104543090D01*
X128505341Y-104500000D01*
X128505341Y-104499999D01*
X130244659Y-104499999D01*
X130248903Y-104543090D01*
X130249500Y-104555244D01*
X130249500Y-104598544D01*
X130257945Y-104641006D01*
X130259730Y-104653035D01*
X130263975Y-104696130D01*
X130263976Y-104696134D01*
X130276547Y-104737575D01*
X130279503Y-104749378D01*
X130287946Y-104791827D01*
X130287948Y-104791834D01*
X130304517Y-104831834D01*
X130308612Y-104843277D01*
X130321186Y-104884726D01*
X130321187Y-104884729D01*
X130341597Y-104922913D01*
X130346800Y-104933915D01*
X130363368Y-104973914D01*
X130363370Y-104973918D01*
X130387425Y-105009918D01*
X130393678Y-105020350D01*
X130404948Y-105041436D01*
X130414088Y-105058535D01*
X130414094Y-105058543D01*
X130441552Y-105092002D01*
X130448799Y-105101772D01*
X130472860Y-105137781D01*
X130472862Y-105137783D01*
X130472865Y-105137787D01*
X130503479Y-105168401D01*
X130511651Y-105177416D01*
X130539117Y-105210883D01*
X130572579Y-105238345D01*
X130572581Y-105238346D01*
X130581599Y-105246520D01*
X130612214Y-105277136D01*
X130612217Y-105277138D01*
X130612218Y-105277139D01*
X130648217Y-105301193D01*
X130648219Y-105301194D01*
X130657988Y-105308438D01*
X130691462Y-105335910D01*
X130729640Y-105356316D01*
X130740078Y-105362572D01*
X130747899Y-105367797D01*
X130776086Y-105386632D01*
X130816095Y-105403203D01*
X130827091Y-105408404D01*
X130865273Y-105428814D01*
X130906710Y-105441383D01*
X130918160Y-105445480D01*
X130958165Y-105462051D01*
X131000640Y-105470499D01*
X131012414Y-105473448D01*
X131053868Y-105486024D01*
X131096964Y-105490268D01*
X131108990Y-105492052D01*
X131139480Y-105498117D01*
X131151458Y-105500500D01*
X131151459Y-105500500D01*
X131194756Y-105500500D01*
X131206909Y-105501096D01*
X131250000Y-105505341D01*
X131293090Y-105501096D01*
X131305244Y-105500500D01*
X134194756Y-105500500D01*
X134206909Y-105501096D01*
X134250000Y-105505341D01*
X134293090Y-105501096D01*
X134305244Y-105500500D01*
X134348542Y-105500500D01*
X134364454Y-105497334D01*
X134391005Y-105492053D01*
X134403037Y-105490268D01*
X134446132Y-105486024D01*
X134487580Y-105473450D01*
X134499353Y-105470500D01*
X134541835Y-105462051D01*
X134581847Y-105445476D01*
X134593280Y-105441386D01*
X134634727Y-105428814D01*
X134672918Y-105408399D01*
X134683910Y-105403201D01*
X134723914Y-105386632D01*
X134759938Y-105362560D01*
X134770351Y-105356320D01*
X134796591Y-105342295D01*
X134808535Y-105335912D01*
X134808539Y-105335909D01*
X134842005Y-105308444D01*
X134851782Y-105301193D01*
X134887781Y-105277140D01*
X134887783Y-105277138D01*
X134887785Y-105277136D01*
X134918408Y-105246512D01*
X134927402Y-105238359D01*
X134960883Y-105210883D01*
X134988359Y-105177402D01*
X134996512Y-105168408D01*
X135027139Y-105137782D01*
X135051200Y-105101772D01*
X135058444Y-105092005D01*
X135085909Y-105058539D01*
X135085912Y-105058535D01*
X135092295Y-105046591D01*
X135106320Y-105020351D01*
X135112560Y-105009938D01*
X135136632Y-104973914D01*
X135153202Y-104933906D01*
X135158402Y-104922913D01*
X135178814Y-104884727D01*
X135191386Y-104843280D01*
X135195476Y-104831847D01*
X135212051Y-104791835D01*
X135220500Y-104749353D01*
X135223450Y-104737580D01*
X135236024Y-104696132D01*
X135240268Y-104653037D01*
X135242054Y-104640999D01*
X135250500Y-104598541D01*
X135250500Y-104555244D01*
X135251097Y-104543090D01*
X135255341Y-104500000D01*
X135251097Y-104456907D01*
X135250500Y-104444754D01*
X135250500Y-104401458D01*
X135248117Y-104389480D01*
X135242052Y-104358990D01*
X135240268Y-104346961D01*
X135236024Y-104303869D01*
X135236024Y-104303868D01*
X135223448Y-104262414D01*
X135220499Y-104250640D01*
X135212051Y-104208165D01*
X135195480Y-104168159D01*
X135191383Y-104156710D01*
X135178814Y-104115273D01*
X135158404Y-104077091D01*
X135153203Y-104066095D01*
X135136632Y-104026086D01*
X135112572Y-103990078D01*
X135106316Y-103979640D01*
X135085911Y-103941464D01*
X135085910Y-103941462D01*
X135058438Y-103907988D01*
X135052514Y-103899999D01*
X149394785Y-103899999D01*
X149394785Y-103900000D01*
X149413602Y-104103082D01*
X149469417Y-104299247D01*
X149469422Y-104299260D01*
X149560327Y-104481821D01*
X149683237Y-104644581D01*
X149833958Y-104781980D01*
X149833960Y-104781982D01*
X149918360Y-104834240D01*
X150007363Y-104889348D01*
X150197544Y-104963024D01*
X150398024Y-105000500D01*
X150398026Y-105000500D01*
X150601974Y-105000500D01*
X150601976Y-105000500D01*
X150802456Y-104963024D01*
X150992637Y-104889348D01*
X151166041Y-104781981D01*
X151307488Y-104653035D01*
X151316762Y-104644581D01*
X151319467Y-104640999D01*
X151439673Y-104481821D01*
X151530582Y-104299250D01*
X151586397Y-104103083D01*
X151605215Y-103900000D01*
X151598876Y-103831595D01*
X151586397Y-103696917D01*
X151584872Y-103691557D01*
X151530582Y-103500750D01*
X151529662Y-103498903D01*
X151439804Y-103318443D01*
X151439673Y-103318179D01*
X151316764Y-103155421D01*
X151316762Y-103155418D01*
X151166041Y-103018019D01*
X151166039Y-103018017D01*
X150992642Y-102910655D01*
X150992635Y-102910651D01*
X150803705Y-102837460D01*
X150802456Y-102836976D01*
X150601976Y-102799500D01*
X150398024Y-102799500D01*
X150197544Y-102836976D01*
X150197541Y-102836976D01*
X150197541Y-102836977D01*
X150007364Y-102910651D01*
X150007357Y-102910655D01*
X149833960Y-103018017D01*
X149833958Y-103018019D01*
X149683237Y-103155418D01*
X149560327Y-103318178D01*
X149469422Y-103500739D01*
X149469417Y-103500752D01*
X149413602Y-103696917D01*
X149394785Y-103899999D01*
X135052514Y-103899999D01*
X135051194Y-103898219D01*
X135027140Y-103862219D01*
X135027136Y-103862214D01*
X134996520Y-103831599D01*
X134988346Y-103822581D01*
X134960884Y-103789118D01*
X134927416Y-103761651D01*
X134918401Y-103753479D01*
X134887787Y-103722865D01*
X134887783Y-103722862D01*
X134887780Y-103722860D01*
X134871139Y-103711740D01*
X134851772Y-103698799D01*
X134842002Y-103691552D01*
X134808543Y-103664094D01*
X134808535Y-103664088D01*
X134790398Y-103654394D01*
X134770350Y-103643678D01*
X134759918Y-103637425D01*
X134723918Y-103613370D01*
X134723914Y-103613368D01*
X134683915Y-103596800D01*
X134672913Y-103591597D01*
X134634729Y-103571187D01*
X134634728Y-103571186D01*
X134634727Y-103571186D01*
X134593277Y-103558612D01*
X134581834Y-103554517D01*
X134541834Y-103537948D01*
X134541827Y-103537946D01*
X134499378Y-103529503D01*
X134487575Y-103526547D01*
X134446134Y-103513976D01*
X134446130Y-103513975D01*
X134403035Y-103509730D01*
X134391006Y-103507945D01*
X134348544Y-103499500D01*
X134348541Y-103499500D01*
X134305244Y-103499500D01*
X134293090Y-103498903D01*
X134250000Y-103494659D01*
X134206910Y-103498903D01*
X134194756Y-103499500D01*
X131305244Y-103499500D01*
X131293090Y-103498903D01*
X131250000Y-103494659D01*
X131206910Y-103498903D01*
X131194756Y-103499500D01*
X131151453Y-103499500D01*
X131108991Y-103507945D01*
X131096963Y-103509730D01*
X131053867Y-103513976D01*
X131012427Y-103526546D01*
X131000626Y-103529502D01*
X130958166Y-103537948D01*
X130958161Y-103537949D01*
X130918159Y-103554518D01*
X130906707Y-103558616D01*
X130865272Y-103571186D01*
X130827091Y-103591594D01*
X130816093Y-103596795D01*
X130776091Y-103613364D01*
X130740080Y-103637426D01*
X130729645Y-103643680D01*
X130691465Y-103664087D01*
X130691460Y-103664091D01*
X130657990Y-103691557D01*
X130648225Y-103698799D01*
X130612225Y-103722855D01*
X130612219Y-103722860D01*
X130581595Y-103753483D01*
X130572584Y-103761650D01*
X130539117Y-103789117D01*
X130511650Y-103822584D01*
X130503483Y-103831595D01*
X130472860Y-103862219D01*
X130472855Y-103862225D01*
X130448799Y-103898225D01*
X130441557Y-103907990D01*
X130414091Y-103941460D01*
X130414087Y-103941465D01*
X130393680Y-103979645D01*
X130387426Y-103990080D01*
X130363364Y-104026091D01*
X130346795Y-104066093D01*
X130341594Y-104077091D01*
X130321186Y-104115272D01*
X130308616Y-104156707D01*
X130304518Y-104168159D01*
X130287949Y-104208161D01*
X130287948Y-104208166D01*
X130279502Y-104250626D01*
X130276546Y-104262427D01*
X130263976Y-104303867D01*
X130259730Y-104346963D01*
X130257945Y-104358991D01*
X130249500Y-104401453D01*
X130249500Y-104444754D01*
X130248903Y-104456907D01*
X130244659Y-104499999D01*
X128505341Y-104499999D01*
X128501097Y-104456907D01*
X128500500Y-104444754D01*
X128500500Y-104401458D01*
X128498117Y-104389480D01*
X128492052Y-104358990D01*
X128490268Y-104346961D01*
X128486024Y-104303869D01*
X128486024Y-104303868D01*
X128473448Y-104262414D01*
X128470499Y-104250640D01*
X128462051Y-104208165D01*
X128445480Y-104168159D01*
X128441383Y-104156710D01*
X128428814Y-104115273D01*
X128408404Y-104077091D01*
X128403203Y-104066095D01*
X128386632Y-104026086D01*
X128362572Y-103990078D01*
X128356316Y-103979640D01*
X128335911Y-103941464D01*
X128335910Y-103941462D01*
X128308438Y-103907988D01*
X128301194Y-103898219D01*
X128277140Y-103862219D01*
X128277136Y-103862214D01*
X128246520Y-103831599D01*
X128238346Y-103822581D01*
X128210884Y-103789118D01*
X128177416Y-103761651D01*
X128168401Y-103753479D01*
X128137787Y-103722865D01*
X128137783Y-103722862D01*
X128137780Y-103722860D01*
X128121139Y-103711740D01*
X128101772Y-103698799D01*
X128092002Y-103691552D01*
X128058543Y-103664094D01*
X128058535Y-103664088D01*
X128040398Y-103654394D01*
X128020350Y-103643678D01*
X128009918Y-103637425D01*
X127973918Y-103613370D01*
X127973914Y-103613368D01*
X127933915Y-103596800D01*
X127922913Y-103591597D01*
X127884729Y-103571187D01*
X127884728Y-103571186D01*
X127884727Y-103571186D01*
X127843277Y-103558612D01*
X127831834Y-103554517D01*
X127791834Y-103537948D01*
X127791827Y-103537946D01*
X127749378Y-103529503D01*
X127737575Y-103526547D01*
X127696134Y-103513976D01*
X127696130Y-103513975D01*
X127653035Y-103509730D01*
X127641006Y-103507945D01*
X127598544Y-103499500D01*
X127598541Y-103499500D01*
X127555244Y-103499500D01*
X127543090Y-103498903D01*
X127500000Y-103494659D01*
X127456910Y-103498903D01*
X127444756Y-103499500D01*
X125555244Y-103499500D01*
X125543090Y-103498903D01*
X125500000Y-103494659D01*
X125456910Y-103498903D01*
X125444756Y-103499500D01*
X125401453Y-103499500D01*
X125358991Y-103507945D01*
X125346963Y-103509730D01*
X125303867Y-103513976D01*
X125262427Y-103526546D01*
X125250626Y-103529502D01*
X125208166Y-103537948D01*
X125208161Y-103537949D01*
X125168159Y-103554518D01*
X125156707Y-103558616D01*
X125115272Y-103571186D01*
X125077091Y-103591594D01*
X125066093Y-103596795D01*
X125026091Y-103613364D01*
X124990080Y-103637426D01*
X124979645Y-103643680D01*
X124941465Y-103664087D01*
X124941460Y-103664091D01*
X124907990Y-103691557D01*
X124898225Y-103698799D01*
X124862225Y-103722855D01*
X124862219Y-103722860D01*
X124831595Y-103753483D01*
X124822584Y-103761650D01*
X124789117Y-103789117D01*
X124761650Y-103822584D01*
X124753483Y-103831595D01*
X124722860Y-103862219D01*
X124722855Y-103862225D01*
X124698799Y-103898225D01*
X124691557Y-103907990D01*
X124664091Y-103941460D01*
X124664087Y-103941465D01*
X124643680Y-103979645D01*
X124637426Y-103990080D01*
X124613364Y-104026091D01*
X124596795Y-104066093D01*
X124591594Y-104077091D01*
X124571186Y-104115272D01*
X124558616Y-104156707D01*
X124554518Y-104168159D01*
X124537949Y-104208161D01*
X124537948Y-104208166D01*
X124529502Y-104250626D01*
X124526546Y-104262427D01*
X124513976Y-104303867D01*
X124509730Y-104346963D01*
X124507945Y-104358991D01*
X124499500Y-104401453D01*
X124499500Y-104444754D01*
X124498903Y-104456907D01*
X124494659Y-104499999D01*
X100500500Y-104499999D01*
X100500500Y-99620000D01*
X126820900Y-99620000D01*
X126841249Y-99826618D01*
X126901520Y-100025302D01*
X126978021Y-100168424D01*
X127526000Y-99620445D01*
X127526000Y-99666605D01*
X127550124Y-99756639D01*
X127596729Y-99837361D01*
X127662639Y-99903271D01*
X127743361Y-99949876D01*
X127833395Y-99974000D01*
X127879553Y-99974000D01*
X127331574Y-100521978D01*
X127474697Y-100598479D01*
X127673381Y-100658750D01*
X127880000Y-100679099D01*
X128086618Y-100658750D01*
X128285304Y-100598479D01*
X128428424Y-100521978D01*
X128428424Y-100521977D01*
X127880448Y-99974000D01*
X127926605Y-99974000D01*
X128016639Y-99949876D01*
X128097361Y-99903271D01*
X128163271Y-99837361D01*
X128209876Y-99756639D01*
X128234000Y-99666605D01*
X128234000Y-99620447D01*
X128781977Y-100168424D01*
X128781978Y-100168424D01*
X128858479Y-100025304D01*
X128918750Y-99826618D01*
X128939099Y-99620000D01*
X134440900Y-99620000D01*
X134461249Y-99826618D01*
X134521520Y-100025302D01*
X134598021Y-100168424D01*
X135146000Y-99620445D01*
X135146000Y-99666605D01*
X135170124Y-99756639D01*
X135216729Y-99837361D01*
X135282639Y-99903271D01*
X135363361Y-99949876D01*
X135453395Y-99974000D01*
X135499553Y-99974000D01*
X134951574Y-100521978D01*
X135094697Y-100598479D01*
X135293381Y-100658750D01*
X135500000Y-100679099D01*
X135706618Y-100658750D01*
X135905304Y-100598479D01*
X136048424Y-100521978D01*
X136048424Y-100521977D01*
X135500448Y-99974000D01*
X135546605Y-99974000D01*
X135636639Y-99949876D01*
X135717361Y-99903271D01*
X135783271Y-99837361D01*
X135829876Y-99756639D01*
X135854000Y-99666605D01*
X135854000Y-99620447D01*
X136401977Y-100168424D01*
X136401978Y-100168424D01*
X136478479Y-100025304D01*
X136538750Y-99826618D01*
X136559099Y-99620000D01*
X136538750Y-99413381D01*
X136478479Y-99214697D01*
X136401978Y-99071574D01*
X135854000Y-99619552D01*
X135854000Y-99573395D01*
X135829876Y-99483361D01*
X135783271Y-99402639D01*
X135717361Y-99336729D01*
X135636639Y-99290124D01*
X135546605Y-99266000D01*
X135500447Y-99266000D01*
X136048424Y-98718021D01*
X135905302Y-98641520D01*
X135706618Y-98581249D01*
X135500000Y-98560900D01*
X135293381Y-98581249D01*
X135094695Y-98641520D01*
X134951574Y-98718020D01*
X135499554Y-99266000D01*
X135453395Y-99266000D01*
X135363361Y-99290124D01*
X135282639Y-99336729D01*
X135216729Y-99402639D01*
X135170124Y-99483361D01*
X135146000Y-99573395D01*
X135146000Y-99619554D01*
X134598020Y-99071574D01*
X134521520Y-99214695D01*
X134461249Y-99413381D01*
X134440900Y-99620000D01*
X128939099Y-99620000D01*
X128918750Y-99413381D01*
X128858479Y-99214697D01*
X128781978Y-99071574D01*
X128234000Y-99619552D01*
X128234000Y-99573395D01*
X128209876Y-99483361D01*
X128163271Y-99402639D01*
X128097361Y-99336729D01*
X128016639Y-99290124D01*
X127926605Y-99266000D01*
X127880447Y-99266000D01*
X128428424Y-98718021D01*
X128285302Y-98641520D01*
X128086618Y-98581249D01*
X127880000Y-98560900D01*
X127673381Y-98581249D01*
X127474695Y-98641520D01*
X127331574Y-98718020D01*
X127879554Y-99266000D01*
X127833395Y-99266000D01*
X127743361Y-99290124D01*
X127662639Y-99336729D01*
X127596729Y-99402639D01*
X127550124Y-99483361D01*
X127526000Y-99573395D01*
X127526000Y-99619554D01*
X126978020Y-99071574D01*
X126901520Y-99214695D01*
X126841249Y-99413381D01*
X126820900Y-99620000D01*
X100500500Y-99620000D01*
X100500500Y-97894994D01*
X105219945Y-97894994D01*
X105219945Y-97895005D01*
X105240130Y-98138605D01*
X105300138Y-98375573D01*
X105398330Y-98599429D01*
X105494626Y-98746819D01*
X106098958Y-98142487D01*
X106123978Y-98202890D01*
X106195112Y-98309351D01*
X106285649Y-98399888D01*
X106392110Y-98471022D01*
X106452511Y-98496041D01*
X105847758Y-99100794D01*
X105847758Y-99100796D01*
X105890478Y-99134046D01*
X105890484Y-99134050D01*
X106105468Y-99250394D01*
X106105476Y-99250397D01*
X106336664Y-99329765D01*
X106577779Y-99370000D01*
X106822221Y-99370000D01*
X107063335Y-99329765D01*
X107294523Y-99250397D01*
X107294531Y-99250394D01*
X107509514Y-99134051D01*
X107509514Y-99134050D01*
X107552240Y-99100795D01*
X107552240Y-99100794D01*
X106947488Y-98496041D01*
X107007890Y-98471022D01*
X107114351Y-98399888D01*
X107204888Y-98309351D01*
X107276022Y-98202890D01*
X107301041Y-98142488D01*
X107905372Y-98746819D01*
X108001667Y-98599431D01*
X108001672Y-98599423D01*
X108099861Y-98375573D01*
X108159869Y-98138605D01*
X108180055Y-97895005D01*
X108180055Y-97894994D01*
X108159869Y-97651394D01*
X108099861Y-97414426D01*
X108001669Y-97190570D01*
X107929429Y-97080000D01*
X126820398Y-97080000D01*
X126840757Y-97286716D01*
X126901056Y-97485496D01*
X126998969Y-97668677D01*
X126998974Y-97668684D01*
X127130747Y-97829252D01*
X127242483Y-97920950D01*
X127291317Y-97961027D01*
X127291320Y-97961028D01*
X127291322Y-97961030D01*
X127474503Y-98058943D01*
X127474505Y-98058943D01*
X127474508Y-98058945D01*
X127673282Y-98119242D01*
X127880000Y-98139602D01*
X128086718Y-98119242D01*
X128285492Y-98058945D01*
X128468683Y-97961027D01*
X128629252Y-97829252D01*
X128761027Y-97668683D01*
X128858945Y-97485492D01*
X128919242Y-97286718D01*
X128939602Y-97080000D01*
X134440398Y-97080000D01*
X134460757Y-97286716D01*
X134521056Y-97485496D01*
X134618969Y-97668677D01*
X134618974Y-97668684D01*
X134750747Y-97829252D01*
X134862483Y-97920950D01*
X134911317Y-97961027D01*
X134911320Y-97961028D01*
X134911322Y-97961030D01*
X135094503Y-98058943D01*
X135094505Y-98058943D01*
X135094508Y-98058945D01*
X135293282Y-98119242D01*
X135500000Y-98139602D01*
X135706718Y-98119242D01*
X135905492Y-98058945D01*
X136088683Y-97961027D01*
X136249252Y-97829252D01*
X136381027Y-97668683D01*
X136478945Y-97485492D01*
X136539242Y-97286718D01*
X136559602Y-97080000D01*
X136539242Y-96873282D01*
X136478945Y-96674508D01*
X136478943Y-96674505D01*
X136478943Y-96674503D01*
X136381030Y-96491322D01*
X136381028Y-96491320D01*
X136381027Y-96491317D01*
X136258132Y-96341568D01*
X136249252Y-96330747D01*
X136088684Y-96198974D01*
X136088677Y-96198969D01*
X135905496Y-96101056D01*
X135706716Y-96040757D01*
X135500000Y-96020398D01*
X135293283Y-96040757D01*
X135094503Y-96101056D01*
X134911322Y-96198969D01*
X134911315Y-96198974D01*
X134750747Y-96330747D01*
X134618974Y-96491315D01*
X134618969Y-96491322D01*
X134521056Y-96674503D01*
X134460757Y-96873283D01*
X134440398Y-97080000D01*
X128939602Y-97080000D01*
X128919242Y-96873282D01*
X128858945Y-96674508D01*
X128858943Y-96674505D01*
X128858943Y-96674503D01*
X128761030Y-96491322D01*
X128761028Y-96491320D01*
X128761027Y-96491317D01*
X128638132Y-96341568D01*
X128629252Y-96330747D01*
X128468684Y-96198974D01*
X128468677Y-96198969D01*
X128285496Y-96101056D01*
X128086716Y-96040757D01*
X127880000Y-96020398D01*
X127673283Y-96040757D01*
X127474503Y-96101056D01*
X127291322Y-96198969D01*
X127291315Y-96198974D01*
X127130747Y-96330747D01*
X126998974Y-96491315D01*
X126998969Y-96491322D01*
X126901056Y-96674503D01*
X126840757Y-96873283D01*
X126820398Y-97080000D01*
X107929429Y-97080000D01*
X107905372Y-97043179D01*
X107301041Y-97647510D01*
X107276022Y-97587110D01*
X107204888Y-97480649D01*
X107114351Y-97390112D01*
X107007890Y-97318978D01*
X106947487Y-97293958D01*
X107552240Y-96689204D01*
X107552240Y-96689203D01*
X107509514Y-96655949D01*
X107294531Y-96539605D01*
X107294523Y-96539602D01*
X107063335Y-96460234D01*
X106822221Y-96420000D01*
X106577779Y-96420000D01*
X106336664Y-96460234D01*
X106105476Y-96539602D01*
X106105468Y-96539605D01*
X105890481Y-96655951D01*
X105847758Y-96689202D01*
X105847757Y-96689204D01*
X106452511Y-97293958D01*
X106392110Y-97318978D01*
X106285649Y-97390112D01*
X106195112Y-97480649D01*
X106123978Y-97587110D01*
X106098958Y-97647511D01*
X105494626Y-97043179D01*
X105398328Y-97190575D01*
X105300138Y-97414426D01*
X105240130Y-97651394D01*
X105219945Y-97894994D01*
X100500500Y-97894994D01*
X100500500Y-91792135D01*
X105224500Y-91792135D01*
X105224500Y-93837870D01*
X105224501Y-93837876D01*
X105230908Y-93897483D01*
X105281202Y-94032328D01*
X105281206Y-94032335D01*
X105367452Y-94147544D01*
X105367455Y-94147547D01*
X105482664Y-94233793D01*
X105482671Y-94233797D01*
X105617517Y-94284091D01*
X105617516Y-94284091D01*
X105624444Y-94284835D01*
X105677127Y-94290500D01*
X107722872Y-94290499D01*
X107782483Y-94284091D01*
X107917331Y-94233796D01*
X108032546Y-94147546D01*
X108118796Y-94032331D01*
X108169091Y-93897483D01*
X108175500Y-93837873D01*
X108175499Y-91792128D01*
X108169091Y-91732517D01*
X108118796Y-91597669D01*
X108118795Y-91597668D01*
X108118793Y-91597664D01*
X108032547Y-91482455D01*
X108032544Y-91482452D01*
X107917335Y-91396206D01*
X107917328Y-91396202D01*
X107782482Y-91345908D01*
X107782483Y-91345908D01*
X107722883Y-91339501D01*
X107722881Y-91339500D01*
X107722873Y-91339500D01*
X107722864Y-91339500D01*
X105677129Y-91339500D01*
X105677123Y-91339501D01*
X105617516Y-91345908D01*
X105482671Y-91396202D01*
X105482664Y-91396206D01*
X105367455Y-91482452D01*
X105367452Y-91482455D01*
X105281206Y-91597664D01*
X105281202Y-91597671D01*
X105230908Y-91732517D01*
X105224501Y-91792116D01*
X105224501Y-91792123D01*
X105224500Y-91792135D01*
X100500500Y-91792135D01*
X100500500Y-91076637D01*
X125494500Y-91076637D01*
X125494500Y-92933638D01*
X125505166Y-93036930D01*
X125505169Y-93036946D01*
X125515522Y-93086543D01*
X125515526Y-93086555D01*
X125535975Y-93150680D01*
X125547074Y-93185483D01*
X125547075Y-93185485D01*
X125547077Y-93185489D01*
X125622813Y-93307809D01*
X125622818Y-93307815D01*
X125667668Y-93361367D01*
X125667672Y-93361371D01*
X125667678Y-93361378D01*
X125755511Y-93440108D01*
X125774819Y-93457415D01*
X126438292Y-93899730D01*
X126442112Y-93902253D01*
X126442900Y-93902767D01*
X126443753Y-93903326D01*
X126447208Y-93905567D01*
X126578085Y-93965338D01*
X126645124Y-93985023D01*
X126645128Y-93985024D01*
X126787544Y-94005500D01*
X126787547Y-94005500D01*
X126790878Y-94005979D01*
X126854434Y-94035004D01*
X126892209Y-94093782D01*
X126892209Y-94163651D01*
X126891893Y-94164712D01*
X126840757Y-94333283D01*
X126820398Y-94540000D01*
X126840757Y-94746716D01*
X126901056Y-94945496D01*
X126998969Y-95128677D01*
X126998974Y-95128684D01*
X127130747Y-95289252D01*
X127242483Y-95380950D01*
X127291317Y-95421027D01*
X127291320Y-95421028D01*
X127291322Y-95421030D01*
X127474503Y-95518943D01*
X127474505Y-95518943D01*
X127474508Y-95518945D01*
X127673282Y-95579242D01*
X127880000Y-95599602D01*
X128086718Y-95579242D01*
X128285492Y-95518945D01*
X128468683Y-95421027D01*
X128629252Y-95289252D01*
X128761027Y-95128683D01*
X128858945Y-94945492D01*
X128919242Y-94746718D01*
X128939602Y-94540000D01*
X128919242Y-94333282D01*
X128858945Y-94134508D01*
X128857490Y-94131787D01*
X128857159Y-94130194D01*
X128856613Y-94128876D01*
X128856862Y-94128772D01*
X128843245Y-94063386D01*
X128868242Y-93998141D01*
X128923512Y-93957148D01*
X128967257Y-93940832D01*
X129028580Y-93907347D01*
X129143762Y-93821123D01*
X129423066Y-93541817D01*
X129484387Y-93508334D01*
X129510746Y-93505500D01*
X133860948Y-93505500D01*
X133927987Y-93525185D01*
X133971857Y-93574046D01*
X134013594Y-93657521D01*
X134013595Y-93657522D01*
X134089589Y-93769167D01*
X134089591Y-93769169D01*
X134133461Y-93818030D01*
X134236300Y-93905567D01*
X134367177Y-93965338D01*
X134434216Y-93985023D01*
X134435548Y-93985414D01*
X134494325Y-94023190D01*
X134523349Y-94086746D01*
X134519272Y-94140386D01*
X134460757Y-94333283D01*
X134440398Y-94540000D01*
X134460757Y-94746716D01*
X134521056Y-94945496D01*
X134618969Y-95128677D01*
X134618974Y-95128684D01*
X134750747Y-95289252D01*
X134862483Y-95380950D01*
X134911317Y-95421027D01*
X134911320Y-95421028D01*
X134911322Y-95421030D01*
X135094503Y-95518943D01*
X135094505Y-95518943D01*
X135094508Y-95518945D01*
X135293282Y-95579242D01*
X135500000Y-95599602D01*
X135706718Y-95579242D01*
X135905492Y-95518945D01*
X136088683Y-95421027D01*
X136249252Y-95289252D01*
X136381027Y-95128683D01*
X136478945Y-94945492D01*
X136539242Y-94746718D01*
X136559602Y-94540000D01*
X136539242Y-94333282D01*
X136478945Y-94134508D01*
X136454103Y-94088033D01*
X136439862Y-94019633D01*
X136464861Y-93954389D01*
X136504034Y-93920749D01*
X136528580Y-93907347D01*
X136643762Y-93821123D01*
X136753339Y-93711544D01*
X136814662Y-93678059D01*
X136884354Y-93683043D01*
X136906741Y-93694073D01*
X144549860Y-98471022D01*
X152305743Y-103318449D01*
X152338974Y-103339218D01*
X152382760Y-103386195D01*
X154295865Y-106987332D01*
X156523126Y-111179825D01*
X156537195Y-111248263D01*
X156512029Y-111313444D01*
X156455619Y-111354671D01*
X156413620Y-111362000D01*
X155314629Y-111362000D01*
X155314623Y-111362001D01*
X155255016Y-111368408D01*
X155120171Y-111418702D01*
X155120164Y-111418706D01*
X155004955Y-111504952D01*
X155004952Y-111504955D01*
X154918706Y-111620164D01*
X154918703Y-111620170D01*
X154868408Y-111755017D01*
X154862001Y-111814616D01*
X154862000Y-111814635D01*
X154862000Y-113185370D01*
X154862001Y-113185376D01*
X154868408Y-113244983D01*
X154918702Y-113379828D01*
X154918706Y-113379835D01*
X155004952Y-113495044D01*
X155004955Y-113495047D01*
X155120164Y-113581293D01*
X155120171Y-113581297D01*
X155255017Y-113631591D01*
X155255016Y-113631591D01*
X155261944Y-113632335D01*
X155314627Y-113638000D01*
X156685372Y-113637999D01*
X156744983Y-113631591D01*
X156879831Y-113581296D01*
X156995046Y-113495046D01*
X157081296Y-113379831D01*
X157131591Y-113244983D01*
X157138000Y-113185373D01*
X157137999Y-112682495D01*
X157157683Y-112615458D01*
X157210487Y-112569703D01*
X157279646Y-112559759D01*
X157343202Y-112588784D01*
X157368789Y-112619474D01*
X165122036Y-125756921D01*
X165548658Y-126479809D01*
X165548660Y-126479812D01*
X165548661Y-126479813D01*
X165625264Y-126579035D01*
X165625268Y-126579039D01*
X165625272Y-126579044D01*
X165650411Y-126604365D01*
X165668255Y-126622339D01*
X165766914Y-126699658D01*
X165766917Y-126699660D01*
X165766920Y-126699662D01*
X166983111Y-127429377D01*
X167003045Y-127434058D01*
X167085603Y-127469483D01*
X167085605Y-127469483D01*
X167085611Y-127469486D01*
X167149408Y-127487157D01*
X167149412Y-127487157D01*
X167149414Y-127487158D01*
X167173142Y-127490383D01*
X167284345Y-127505500D01*
X167284350Y-127505500D01*
X169458660Y-127505500D01*
X169458667Y-127505500D01*
X169476938Y-127505170D01*
X169485896Y-127504846D01*
X169504143Y-127503855D01*
X169644707Y-127473144D01*
X169710149Y-127448668D01*
X169836367Y-127379600D01*
X170729231Y-126709949D01*
X170760935Y-126692733D01*
X174321705Y-125387118D01*
X178069084Y-124013078D01*
X178111772Y-124005500D01*
X180479874Y-124005500D01*
X180479877Y-124005500D01*
X180560846Y-123998973D01*
X180600058Y-123992610D01*
X180678942Y-123973196D01*
X182075065Y-123507821D01*
X182100422Y-123498610D01*
X182112721Y-123493767D01*
X182137504Y-123483238D01*
X182258543Y-123405450D01*
X182311347Y-123359695D01*
X182405567Y-123250961D01*
X182465338Y-123120084D01*
X182485023Y-123053045D01*
X182485024Y-123053041D01*
X182505500Y-122910625D01*
X182505500Y-114963434D01*
X182505177Y-114959999D01*
X182496625Y-114869129D01*
X182496624Y-114869125D01*
X182496623Y-114869124D01*
X182496623Y-114869115D01*
X182487989Y-114823654D01*
X182487988Y-114823648D01*
X182461671Y-114732651D01*
X182461669Y-114732647D01*
X182390406Y-114607655D01*
X182347514Y-114552500D01*
X182347513Y-114552499D01*
X182243922Y-114452647D01*
X182243921Y-114452646D01*
X182116392Y-114386022D01*
X182050502Y-114362816D01*
X182050498Y-114362815D01*
X182050495Y-114362814D01*
X182050494Y-114362814D01*
X181974387Y-114347717D01*
X181909366Y-114334819D01*
X181909365Y-114334819D01*
X181766064Y-114347717D01*
X181700778Y-114363180D01*
X181698436Y-114363679D01*
X181564214Y-114416570D01*
X172816009Y-119404263D01*
X171664367Y-120060859D01*
X170894134Y-120499999D01*
X169538942Y-121272646D01*
X169470954Y-121288750D01*
X169405052Y-121265540D01*
X169362160Y-121210385D01*
X169355896Y-121140797D01*
X169378572Y-121090196D01*
X169443516Y-121004197D01*
X169534791Y-120820892D01*
X169534796Y-120820879D01*
X169590839Y-120623912D01*
X169609734Y-120420000D01*
X169609734Y-120419999D01*
X169590839Y-120216087D01*
X169534796Y-120019120D01*
X169534789Y-120019102D01*
X169443517Y-119835803D01*
X169441034Y-119832517D01*
X168855000Y-120418552D01*
X168855000Y-120373263D01*
X168830807Y-120282975D01*
X168784070Y-120202025D01*
X168717975Y-120135930D01*
X168637025Y-120089193D01*
X168546737Y-120065000D01*
X168501448Y-120065000D01*
X169084319Y-119482127D01*
X168994648Y-119426606D01*
X168803691Y-119352629D01*
X168602390Y-119315000D01*
X168397610Y-119315000D01*
X168196309Y-119352629D01*
X168196308Y-119352629D01*
X168005351Y-119426606D01*
X168005345Y-119426609D01*
X167915680Y-119482126D01*
X167915679Y-119482127D01*
X168498553Y-120065000D01*
X168453263Y-120065000D01*
X168362975Y-120089193D01*
X168282025Y-120135930D01*
X168215930Y-120202025D01*
X168169193Y-120282975D01*
X168145000Y-120373263D01*
X168145000Y-120418552D01*
X167558964Y-119832516D01*
X167556482Y-119835803D01*
X167465210Y-120019102D01*
X167465203Y-120019120D01*
X167409160Y-120216087D01*
X167390266Y-120419999D01*
X167390266Y-120420000D01*
X167409161Y-120623913D01*
X167409577Y-120626139D01*
X167409467Y-120627221D01*
X167409690Y-120629622D01*
X167409220Y-120629665D01*
X167402545Y-120695654D01*
X167359047Y-120750332D01*
X167292893Y-120772813D01*
X167225086Y-120755959D01*
X167177155Y-120705123D01*
X167173849Y-120698081D01*
X167141821Y-120623913D01*
X162338156Y-109499998D01*
X166786884Y-109499998D01*
X166786884Y-109500001D01*
X166805313Y-109710649D01*
X166805315Y-109710660D01*
X166860041Y-109914902D01*
X166860043Y-109914906D01*
X166860044Y-109914910D01*
X166939391Y-110085071D01*
X166949410Y-110106556D01*
X166949411Y-110106558D01*
X167070700Y-110279778D01*
X167220221Y-110429299D01*
X167220224Y-110429301D01*
X167393442Y-110550589D01*
X167585090Y-110639956D01*
X167585096Y-110639957D01*
X167585097Y-110639958D01*
X167624381Y-110650484D01*
X167684041Y-110686848D01*
X167714571Y-110749695D01*
X167706277Y-110819071D01*
X167661792Y-110872949D01*
X167624383Y-110890033D01*
X167585264Y-110900515D01*
X167393694Y-110989844D01*
X167340584Y-111027031D01*
X167931827Y-111618274D01*
X167835956Y-111643963D01*
X167739044Y-111699916D01*
X167659916Y-111779044D01*
X167603963Y-111875956D01*
X167578274Y-111971827D01*
X166987031Y-111380584D01*
X166949844Y-111433694D01*
X166860517Y-111625260D01*
X166805808Y-111829430D01*
X166805807Y-111829437D01*
X166787386Y-112039998D01*
X166787386Y-112040001D01*
X166805807Y-112250562D01*
X166805808Y-112250569D01*
X166860518Y-112454743D01*
X166949845Y-112646307D01*
X166949846Y-112646309D01*
X166987030Y-112699414D01*
X166987032Y-112699415D01*
X167578274Y-112108172D01*
X167603963Y-112204044D01*
X167659916Y-112300956D01*
X167739044Y-112380084D01*
X167835956Y-112436037D01*
X167931827Y-112461725D01*
X167340583Y-113052967D01*
X167393692Y-113090154D01*
X167393698Y-113090157D01*
X167585256Y-113179481D01*
X167789430Y-113234191D01*
X167789437Y-113234192D01*
X167999998Y-113252614D01*
X168000002Y-113252614D01*
X168210562Y-113234192D01*
X168210569Y-113234191D01*
X168414743Y-113179481D01*
X168606303Y-113090156D01*
X168606305Y-113090155D01*
X168659415Y-113052967D01*
X168068173Y-112461725D01*
X168164044Y-112436037D01*
X168260956Y-112380084D01*
X168340084Y-112300956D01*
X168396037Y-112204044D01*
X168421725Y-112108173D01*
X169012967Y-112699415D01*
X169050155Y-112646305D01*
X169050156Y-112646303D01*
X169139481Y-112454743D01*
X169194191Y-112250569D01*
X169194192Y-112250562D01*
X169212614Y-112040001D01*
X169212614Y-112039998D01*
X169194192Y-111829437D01*
X169194191Y-111829430D01*
X169139481Y-111625256D01*
X169050157Y-111433698D01*
X169050154Y-111433692D01*
X169012967Y-111380584D01*
X169012967Y-111380583D01*
X168421725Y-111971826D01*
X168396037Y-111875956D01*
X168340084Y-111779044D01*
X168260956Y-111699916D01*
X168164044Y-111643963D01*
X168068173Y-111618274D01*
X168659415Y-111027032D01*
X168659414Y-111027030D01*
X168606309Y-110989846D01*
X168606307Y-110989845D01*
X168414739Y-110900516D01*
X168414740Y-110900516D01*
X168375616Y-110890033D01*
X168315956Y-110853668D01*
X168285428Y-110790821D01*
X168293723Y-110721445D01*
X168338209Y-110667568D01*
X168375619Y-110650484D01*
X168414900Y-110639959D01*
X168414901Y-110639958D01*
X168414910Y-110639956D01*
X168606558Y-110550589D01*
X168779776Y-110429301D01*
X168929301Y-110279776D01*
X169050589Y-110106558D01*
X169139956Y-109914910D01*
X169194686Y-109710655D01*
X169213116Y-109500000D01*
X169194686Y-109289345D01*
X169139956Y-109085090D01*
X169050589Y-108893442D01*
X168929301Y-108720224D01*
X168929299Y-108720221D01*
X168779778Y-108570700D01*
X168606558Y-108449411D01*
X168606556Y-108449410D01*
X168585071Y-108439391D01*
X168414910Y-108360044D01*
X168414906Y-108360043D01*
X168414902Y-108360041D01*
X168210660Y-108305315D01*
X168210656Y-108305314D01*
X168210655Y-108305314D01*
X168210654Y-108305313D01*
X168210649Y-108305313D01*
X168000002Y-108286884D01*
X167999998Y-108286884D01*
X167789350Y-108305313D01*
X167789339Y-108305315D01*
X167585097Y-108360041D01*
X167585088Y-108360045D01*
X167393443Y-108449410D01*
X167393441Y-108449411D01*
X167220221Y-108570700D01*
X167070700Y-108720221D01*
X166949411Y-108893441D01*
X166949410Y-108893443D01*
X166860045Y-109085088D01*
X166860041Y-109085097D01*
X166805315Y-109289339D01*
X166805313Y-109289350D01*
X166786884Y-109499998D01*
X162338156Y-109499998D01*
X161064331Y-106550182D01*
X159929605Y-103899999D01*
X160394785Y-103899999D01*
X160394785Y-103900000D01*
X160413602Y-104103082D01*
X160469417Y-104299247D01*
X160469422Y-104299260D01*
X160560327Y-104481821D01*
X160683237Y-104644581D01*
X160833958Y-104781980D01*
X160833960Y-104781982D01*
X160918360Y-104834240D01*
X161007363Y-104889348D01*
X161197544Y-104963024D01*
X161398024Y-105000500D01*
X161398026Y-105000500D01*
X161601974Y-105000500D01*
X161601976Y-105000500D01*
X161802456Y-104963024D01*
X161992637Y-104889348D01*
X162166041Y-104781981D01*
X162307488Y-104653035D01*
X162316762Y-104644581D01*
X162319467Y-104640999D01*
X162439673Y-104481821D01*
X162530582Y-104299250D01*
X162586397Y-104103083D01*
X162605215Y-103900000D01*
X162605215Y-103899999D01*
X164394785Y-103899999D01*
X164394785Y-103900000D01*
X164413602Y-104103082D01*
X164469417Y-104299247D01*
X164469422Y-104299260D01*
X164560327Y-104481821D01*
X164683237Y-104644581D01*
X164833958Y-104781980D01*
X164833960Y-104781982D01*
X164918360Y-104834240D01*
X165007363Y-104889348D01*
X165197544Y-104963024D01*
X165398024Y-105000500D01*
X165398026Y-105000500D01*
X165601974Y-105000500D01*
X165601976Y-105000500D01*
X165802456Y-104963024D01*
X165992637Y-104889348D01*
X166166041Y-104781981D01*
X166307488Y-104653035D01*
X166316762Y-104644581D01*
X166319467Y-104640999D01*
X166439673Y-104481821D01*
X166530582Y-104299250D01*
X166586397Y-104103083D01*
X166605215Y-103900000D01*
X166605215Y-103899999D01*
X168395287Y-103899999D01*
X168395287Y-103900000D01*
X168414096Y-104102989D01*
X168414097Y-104102992D01*
X168469883Y-104299063D01*
X168469886Y-104299069D01*
X168560751Y-104481551D01*
X168562533Y-104483911D01*
X169100000Y-103946445D01*
X169100000Y-103952661D01*
X169127259Y-104054394D01*
X169179920Y-104145606D01*
X169254394Y-104220080D01*
X169345606Y-104272741D01*
X169447339Y-104300000D01*
X169453553Y-104300000D01*
X168919311Y-104834240D01*
X169007585Y-104888897D01*
X169197678Y-104962539D01*
X169398072Y-105000000D01*
X169601928Y-105000000D01*
X169802322Y-104962539D01*
X169992412Y-104888899D01*
X169992416Y-104888897D01*
X170080686Y-104834241D01*
X170080686Y-104834240D01*
X169546448Y-104300000D01*
X169552661Y-104300000D01*
X169654394Y-104272741D01*
X169745606Y-104220080D01*
X169820080Y-104145606D01*
X169872741Y-104054394D01*
X169900000Y-103952661D01*
X169900000Y-103946447D01*
X170437465Y-104483912D01*
X170439247Y-104481553D01*
X170439248Y-104481551D01*
X170530113Y-104299069D01*
X170530116Y-104299063D01*
X170585902Y-104102992D01*
X170585903Y-104102989D01*
X170604713Y-103900000D01*
X170604713Y-103899999D01*
X170585903Y-103697010D01*
X170585902Y-103697007D01*
X170530116Y-103500936D01*
X170530113Y-103500930D01*
X170439249Y-103318449D01*
X170439247Y-103318447D01*
X170437465Y-103316087D01*
X169900000Y-103853552D01*
X169900000Y-103847339D01*
X169872741Y-103745606D01*
X169820080Y-103654394D01*
X169745606Y-103579920D01*
X169654394Y-103527259D01*
X169552661Y-103500000D01*
X169546447Y-103500000D01*
X170080687Y-102965758D01*
X169992413Y-102911101D01*
X169992411Y-102911100D01*
X169802321Y-102837460D01*
X169601928Y-102800000D01*
X169398072Y-102800000D01*
X169197678Y-102837460D01*
X169007588Y-102911100D01*
X169007581Y-102911104D01*
X168919312Y-102965757D01*
X168919311Y-102965758D01*
X169453554Y-103500000D01*
X169447339Y-103500000D01*
X169345606Y-103527259D01*
X169254394Y-103579920D01*
X169179920Y-103654394D01*
X169127259Y-103745606D01*
X169100000Y-103847339D01*
X169100000Y-103853554D01*
X168562533Y-103316087D01*
X168560755Y-103318442D01*
X168560754Y-103318443D01*
X168469886Y-103500930D01*
X168469883Y-103500936D01*
X168414097Y-103697007D01*
X168414096Y-103697010D01*
X168395287Y-103899999D01*
X166605215Y-103899999D01*
X166598876Y-103831595D01*
X166586397Y-103696917D01*
X166584872Y-103691557D01*
X166530582Y-103500750D01*
X166529662Y-103498903D01*
X166439804Y-103318443D01*
X166439673Y-103318179D01*
X166316764Y-103155421D01*
X166316762Y-103155418D01*
X166166041Y-103018019D01*
X166166039Y-103018017D01*
X165992642Y-102910655D01*
X165992635Y-102910651D01*
X165803705Y-102837460D01*
X165802456Y-102836976D01*
X165601976Y-102799500D01*
X165398024Y-102799500D01*
X165197544Y-102836976D01*
X165197541Y-102836976D01*
X165197541Y-102836977D01*
X165007364Y-102910651D01*
X165007357Y-102910655D01*
X164833960Y-103018017D01*
X164833958Y-103018019D01*
X164683237Y-103155418D01*
X164560327Y-103318178D01*
X164469422Y-103500739D01*
X164469417Y-103500752D01*
X164413602Y-103696917D01*
X164394785Y-103899999D01*
X162605215Y-103899999D01*
X162598876Y-103831595D01*
X162586397Y-103696917D01*
X162584872Y-103691557D01*
X162530582Y-103500750D01*
X162529662Y-103498903D01*
X162439804Y-103318443D01*
X162439673Y-103318179D01*
X162316764Y-103155421D01*
X162316762Y-103155418D01*
X162166041Y-103018019D01*
X162166039Y-103018017D01*
X161992642Y-102910655D01*
X161992635Y-102910651D01*
X161803705Y-102837460D01*
X161802456Y-102836976D01*
X161601976Y-102799500D01*
X161398024Y-102799500D01*
X161197544Y-102836976D01*
X161197541Y-102836976D01*
X161197541Y-102836977D01*
X161007364Y-102910651D01*
X161007357Y-102910655D01*
X160833960Y-103018017D01*
X160833958Y-103018019D01*
X160683237Y-103155418D01*
X160560327Y-103318178D01*
X160469422Y-103500739D01*
X160469417Y-103500752D01*
X160413602Y-103696917D01*
X160394785Y-103899999D01*
X159929605Y-103899999D01*
X157249267Y-97640000D01*
X178395052Y-97640000D01*
X178414812Y-97891072D01*
X178473603Y-98135956D01*
X178569980Y-98368631D01*
X178701568Y-98583362D01*
X178702266Y-98584179D01*
X179379824Y-97906622D01*
X179401823Y-97959732D01*
X179475693Y-98070287D01*
X179569713Y-98164307D01*
X179680268Y-98238177D01*
X179733376Y-98260175D01*
X179055819Y-98937732D01*
X179055819Y-98937733D01*
X179056634Y-98938429D01*
X179271368Y-99070019D01*
X179504043Y-99166396D01*
X179748927Y-99225187D01*
X180000000Y-99244947D01*
X180251072Y-99225187D01*
X180495956Y-99166396D01*
X180728631Y-99070019D01*
X180943361Y-98938432D01*
X180943363Y-98938430D01*
X180944180Y-98937732D01*
X180266622Y-98260175D01*
X180319732Y-98238177D01*
X180430287Y-98164307D01*
X180524307Y-98070287D01*
X180598177Y-97959732D01*
X180620175Y-97906622D01*
X181297732Y-98584180D01*
X181298430Y-98583363D01*
X181298432Y-98583361D01*
X181430019Y-98368631D01*
X181526396Y-98135956D01*
X181585187Y-97891072D01*
X181604947Y-97640000D01*
X181585187Y-97388927D01*
X181526396Y-97144043D01*
X181430019Y-96911368D01*
X181298429Y-96696634D01*
X181297733Y-96695819D01*
X181297732Y-96695819D01*
X180620175Y-97373376D01*
X180598177Y-97320268D01*
X180524307Y-97209713D01*
X180430287Y-97115693D01*
X180319732Y-97041823D01*
X180266622Y-97019824D01*
X180944179Y-96342266D01*
X180943362Y-96341568D01*
X180728631Y-96209980D01*
X180495956Y-96113603D01*
X180251072Y-96054812D01*
X180000000Y-96035052D01*
X179748927Y-96054812D01*
X179504043Y-96113603D01*
X179271368Y-96209980D01*
X179056637Y-96341567D01*
X179055819Y-96342266D01*
X179733377Y-97019824D01*
X179680268Y-97041823D01*
X179569713Y-97115693D01*
X179475693Y-97209713D01*
X179401823Y-97320268D01*
X179379824Y-97373377D01*
X178702266Y-96695819D01*
X178701567Y-96696637D01*
X178569980Y-96911368D01*
X178473603Y-97144043D01*
X178414812Y-97388927D01*
X178395052Y-97640000D01*
X157249267Y-97640000D01*
X156413677Y-95688457D01*
X155074168Y-92560000D01*
X178394551Y-92560000D01*
X178414317Y-92811151D01*
X178473126Y-93056110D01*
X178569533Y-93288859D01*
X178701160Y-93503653D01*
X178701161Y-93503656D01*
X178719549Y-93525185D01*
X178864776Y-93695224D01*
X179008550Y-93818019D01*
X179056343Y-93858838D01*
X179056346Y-93858839D01*
X179271140Y-93990466D01*
X179447186Y-94063386D01*
X179503889Y-94086873D01*
X179748852Y-94145683D01*
X180000000Y-94165449D01*
X180251148Y-94145683D01*
X180496111Y-94086873D01*
X180728859Y-93990466D01*
X180943659Y-93858836D01*
X181135224Y-93695224D01*
X181298836Y-93503659D01*
X181430466Y-93288859D01*
X181526873Y-93056111D01*
X181585683Y-92811148D01*
X181605449Y-92560000D01*
X181585683Y-92308852D01*
X181526873Y-92063889D01*
X181430466Y-91831141D01*
X181430466Y-91831140D01*
X181298839Y-91616346D01*
X181298838Y-91616343D01*
X181261875Y-91573066D01*
X181135224Y-91424776D01*
X181008571Y-91316604D01*
X180943656Y-91261161D01*
X180943653Y-91261160D01*
X180728859Y-91129533D01*
X180496110Y-91033126D01*
X180251151Y-90974317D01*
X180000000Y-90954551D01*
X179748848Y-90974317D01*
X179503889Y-91033126D01*
X179271140Y-91129533D01*
X179056346Y-91261160D01*
X179056343Y-91261161D01*
X178864776Y-91424776D01*
X178701161Y-91616343D01*
X178701160Y-91616346D01*
X178569533Y-91831140D01*
X178473126Y-92063889D01*
X178414317Y-92308848D01*
X178394551Y-92560000D01*
X155074168Y-92560000D01*
X153496890Y-88876225D01*
X153494429Y-88870572D01*
X153493232Y-88867868D01*
X153490817Y-88862496D01*
X153490815Y-88862492D01*
X153413033Y-88741462D01*
X153413024Y-88741451D01*
X153367280Y-88688659D01*
X153367276Y-88688656D01*
X153367274Y-88688653D01*
X153258540Y-88594433D01*
X153258537Y-88594431D01*
X153258535Y-88594430D01*
X153127669Y-88534664D01*
X153127664Y-88534662D01*
X153127663Y-88534662D01*
X153060624Y-88514977D01*
X153060626Y-88514977D01*
X153060621Y-88514976D01*
X153013148Y-88508150D01*
X152918204Y-88494500D01*
X152918202Y-88494500D01*
X138732309Y-88494500D01*
X138665270Y-88474815D01*
X138644628Y-88458181D01*
X138041447Y-87855000D01*
X138086737Y-87855000D01*
X138177025Y-87830807D01*
X138257975Y-87784070D01*
X138324070Y-87717975D01*
X138370807Y-87637025D01*
X138395000Y-87546737D01*
X138395000Y-87501447D01*
X138981034Y-88087482D01*
X138981035Y-88087481D01*
X138983516Y-88084199D01*
X139074789Y-87900897D01*
X139074796Y-87900879D01*
X139130839Y-87703912D01*
X139149734Y-87500000D01*
X139149734Y-87499999D01*
X139130839Y-87296087D01*
X139075046Y-87099999D01*
X149394785Y-87099999D01*
X149394785Y-87100000D01*
X149413602Y-87303082D01*
X149469417Y-87499247D01*
X149469422Y-87499260D01*
X149560327Y-87681821D01*
X149683237Y-87844581D01*
X149833958Y-87981980D01*
X149833960Y-87981982D01*
X149933141Y-88043392D01*
X150007363Y-88089348D01*
X150197544Y-88163024D01*
X150398024Y-88200500D01*
X150398026Y-88200500D01*
X150601974Y-88200500D01*
X150601976Y-88200500D01*
X150802456Y-88163024D01*
X150992637Y-88089348D01*
X151166041Y-87981981D01*
X151316764Y-87844579D01*
X151439673Y-87681821D01*
X151530582Y-87499250D01*
X151586397Y-87303083D01*
X151605215Y-87100000D01*
X151605215Y-87099999D01*
X160394785Y-87099999D01*
X160394785Y-87100000D01*
X160413602Y-87303082D01*
X160469417Y-87499247D01*
X160469422Y-87499260D01*
X160560327Y-87681821D01*
X160683237Y-87844581D01*
X160833958Y-87981980D01*
X160833960Y-87981982D01*
X160933141Y-88043392D01*
X161007363Y-88089348D01*
X161197544Y-88163024D01*
X161398024Y-88200500D01*
X161398026Y-88200500D01*
X161601974Y-88200500D01*
X161601976Y-88200500D01*
X161802456Y-88163024D01*
X161992637Y-88089348D01*
X162166041Y-87981981D01*
X162316764Y-87844579D01*
X162439673Y-87681821D01*
X162530582Y-87499250D01*
X162586397Y-87303083D01*
X162605215Y-87100000D01*
X162605215Y-87099999D01*
X164394785Y-87099999D01*
X164394785Y-87100000D01*
X164413602Y-87303082D01*
X164469417Y-87499247D01*
X164469422Y-87499260D01*
X164560327Y-87681821D01*
X164683237Y-87844581D01*
X164833958Y-87981980D01*
X164833960Y-87981982D01*
X164933141Y-88043392D01*
X165007363Y-88089348D01*
X165197544Y-88163024D01*
X165398024Y-88200500D01*
X165398026Y-88200500D01*
X165601974Y-88200500D01*
X165601976Y-88200500D01*
X165802456Y-88163024D01*
X165992637Y-88089348D01*
X166166041Y-87981981D01*
X166316764Y-87844579D01*
X166439673Y-87681821D01*
X166530582Y-87499250D01*
X166586397Y-87303083D01*
X166605215Y-87100000D01*
X166605215Y-87099999D01*
X168394785Y-87099999D01*
X168394785Y-87100000D01*
X168413602Y-87303082D01*
X168469417Y-87499247D01*
X168469422Y-87499260D01*
X168560327Y-87681821D01*
X168683237Y-87844581D01*
X168833958Y-87981980D01*
X168833960Y-87981982D01*
X168933141Y-88043392D01*
X169007363Y-88089348D01*
X169197544Y-88163024D01*
X169398024Y-88200500D01*
X169398026Y-88200500D01*
X169601974Y-88200500D01*
X169601976Y-88200500D01*
X169802456Y-88163024D01*
X169992637Y-88089348D01*
X170166041Y-87981981D01*
X170316764Y-87844579D01*
X170439673Y-87681821D01*
X170530582Y-87499250D01*
X170586397Y-87303083D01*
X170605215Y-87100000D01*
X170605133Y-87099120D01*
X170586397Y-86896917D01*
X170530582Y-86700750D01*
X170522988Y-86685500D01*
X170461556Y-86562126D01*
X170439673Y-86518179D01*
X170346653Y-86395000D01*
X170316762Y-86355418D01*
X170166041Y-86218019D01*
X170166039Y-86218017D01*
X169992642Y-86110655D01*
X169992635Y-86110651D01*
X169897546Y-86073814D01*
X169802456Y-86036976D01*
X169601976Y-85999500D01*
X169398024Y-85999500D01*
X169197544Y-86036976D01*
X169197541Y-86036976D01*
X169197541Y-86036977D01*
X169007364Y-86110651D01*
X169007357Y-86110655D01*
X168833960Y-86218017D01*
X168833958Y-86218019D01*
X168683237Y-86355418D01*
X168560327Y-86518178D01*
X168469422Y-86700739D01*
X168469417Y-86700752D01*
X168413602Y-86896917D01*
X168394785Y-87099999D01*
X166605215Y-87099999D01*
X166605133Y-87099120D01*
X166586397Y-86896917D01*
X166530582Y-86700750D01*
X166522988Y-86685500D01*
X166461556Y-86562126D01*
X166439673Y-86518179D01*
X166346653Y-86395000D01*
X166316762Y-86355418D01*
X166166041Y-86218019D01*
X166166039Y-86218017D01*
X165992642Y-86110655D01*
X165992635Y-86110651D01*
X165897546Y-86073814D01*
X165802456Y-86036976D01*
X165601976Y-85999500D01*
X165398024Y-85999500D01*
X165197544Y-86036976D01*
X165197541Y-86036976D01*
X165197541Y-86036977D01*
X165007364Y-86110651D01*
X165007357Y-86110655D01*
X164833960Y-86218017D01*
X164833958Y-86218019D01*
X164683237Y-86355418D01*
X164560327Y-86518178D01*
X164469422Y-86700739D01*
X164469417Y-86700752D01*
X164413602Y-86896917D01*
X164394785Y-87099999D01*
X162605215Y-87099999D01*
X162605133Y-87099120D01*
X162586397Y-86896917D01*
X162530582Y-86700750D01*
X162522988Y-86685500D01*
X162461556Y-86562126D01*
X162439673Y-86518179D01*
X162346653Y-86395000D01*
X162316762Y-86355418D01*
X162166041Y-86218019D01*
X162166039Y-86218017D01*
X161992642Y-86110655D01*
X161992635Y-86110651D01*
X161897546Y-86073814D01*
X161802456Y-86036976D01*
X161601976Y-85999500D01*
X161398024Y-85999500D01*
X161197544Y-86036976D01*
X161197541Y-86036976D01*
X161197541Y-86036977D01*
X161007364Y-86110651D01*
X161007357Y-86110655D01*
X160833960Y-86218017D01*
X160833958Y-86218019D01*
X160683237Y-86355418D01*
X160560327Y-86518178D01*
X160469422Y-86700739D01*
X160469417Y-86700752D01*
X160413602Y-86896917D01*
X160394785Y-87099999D01*
X151605215Y-87099999D01*
X151605133Y-87099120D01*
X151586397Y-86896917D01*
X151530582Y-86700750D01*
X151522988Y-86685500D01*
X151461556Y-86562126D01*
X151439673Y-86518179D01*
X151346653Y-86395000D01*
X151316762Y-86355418D01*
X151166041Y-86218019D01*
X151166039Y-86218017D01*
X150992642Y-86110655D01*
X150992635Y-86110651D01*
X150897546Y-86073814D01*
X150802456Y-86036976D01*
X150601976Y-85999500D01*
X150398024Y-85999500D01*
X150197544Y-86036976D01*
X150197541Y-86036976D01*
X150197541Y-86036977D01*
X150007364Y-86110651D01*
X150007357Y-86110655D01*
X149833960Y-86218017D01*
X149833958Y-86218019D01*
X149683237Y-86355418D01*
X149560327Y-86518178D01*
X149469422Y-86700739D01*
X149469417Y-86700752D01*
X149413602Y-86896917D01*
X149394785Y-87099999D01*
X139075046Y-87099999D01*
X139074796Y-87099120D01*
X139074789Y-87099102D01*
X138983517Y-86915803D01*
X138981034Y-86912517D01*
X138395000Y-87498551D01*
X138395000Y-87453263D01*
X138370807Y-87362975D01*
X138324070Y-87282025D01*
X138257975Y-87215930D01*
X138177025Y-87169193D01*
X138086737Y-87145000D01*
X138041447Y-87145000D01*
X138624319Y-86562127D01*
X138534648Y-86506606D01*
X138343691Y-86432629D01*
X138142390Y-86395000D01*
X137937609Y-86395000D01*
X137807272Y-86419363D01*
X137737757Y-86412331D01*
X137683079Y-86368833D01*
X137660597Y-86302679D01*
X137677450Y-86234873D01*
X137728287Y-86186941D01*
X137742577Y-86180772D01*
X148274732Y-82399999D01*
X180894785Y-82399999D01*
X180894785Y-82400000D01*
X180913602Y-82603082D01*
X180969417Y-82799247D01*
X180969422Y-82799260D01*
X181060327Y-82981821D01*
X181183237Y-83144581D01*
X181333958Y-83281980D01*
X181333960Y-83281982D01*
X181433141Y-83343392D01*
X181507363Y-83389348D01*
X181697544Y-83463024D01*
X181898024Y-83500500D01*
X181898026Y-83500500D01*
X182101974Y-83500500D01*
X182101976Y-83500500D01*
X182302456Y-83463024D01*
X182492637Y-83389348D01*
X182666041Y-83281981D01*
X182816764Y-83144579D01*
X182939673Y-82981821D01*
X183030582Y-82799250D01*
X183086397Y-82603083D01*
X183105215Y-82400000D01*
X183086397Y-82196917D01*
X183030582Y-82000750D01*
X182939673Y-81818179D01*
X182816764Y-81655421D01*
X182816762Y-81655418D01*
X182666041Y-81518019D01*
X182666039Y-81518017D01*
X182492642Y-81410655D01*
X182492635Y-81410651D01*
X182397546Y-81373814D01*
X182302456Y-81336976D01*
X182101976Y-81299500D01*
X181898024Y-81299500D01*
X181697544Y-81336976D01*
X181697541Y-81336976D01*
X181697541Y-81336977D01*
X181507364Y-81410651D01*
X181507357Y-81410655D01*
X181333960Y-81518017D01*
X181333958Y-81518019D01*
X181183237Y-81655418D01*
X181060327Y-81818178D01*
X180969422Y-82000739D01*
X180969417Y-82000752D01*
X180913602Y-82196917D01*
X180894785Y-82399999D01*
X148274732Y-82399999D01*
X156400150Y-79483183D01*
X156480398Y-79446168D01*
X156505437Y-79431841D01*
X156517878Y-79424724D01*
X156517880Y-79424721D01*
X156517886Y-79424719D01*
X156590460Y-79374296D01*
X156916171Y-79102870D01*
X158045009Y-78162173D01*
X158045584Y-78161691D01*
X158046684Y-78160771D01*
X158047578Y-78160020D01*
X158049692Y-78158234D01*
X158144979Y-78050429D01*
X158183330Y-77992025D01*
X158244384Y-77861743D01*
X158489265Y-77057135D01*
X171524500Y-77057135D01*
X171524500Y-79102870D01*
X171524501Y-79102876D01*
X171530908Y-79162483D01*
X171581202Y-79297328D01*
X171581206Y-79297335D01*
X171667452Y-79412544D01*
X171667455Y-79412547D01*
X171782664Y-79498793D01*
X171782671Y-79498797D01*
X171917517Y-79549091D01*
X171917516Y-79549091D01*
X171924444Y-79549835D01*
X171977127Y-79555500D01*
X174022872Y-79555499D01*
X174082483Y-79549091D01*
X174217331Y-79498796D01*
X174332546Y-79412546D01*
X174418796Y-79297331D01*
X174469091Y-79162483D01*
X174475500Y-79102873D01*
X174475499Y-77057128D01*
X174469091Y-76997517D01*
X174418796Y-76862669D01*
X174418795Y-76862668D01*
X174418793Y-76862664D01*
X174332547Y-76747455D01*
X174332544Y-76747452D01*
X174217335Y-76661206D01*
X174217328Y-76661202D01*
X174082482Y-76610908D01*
X174082483Y-76610908D01*
X174022883Y-76604501D01*
X174022881Y-76604500D01*
X174022873Y-76604500D01*
X174022864Y-76604500D01*
X171977129Y-76604500D01*
X171977123Y-76604501D01*
X171917516Y-76610908D01*
X171782671Y-76661202D01*
X171782664Y-76661206D01*
X171667455Y-76747452D01*
X171667452Y-76747455D01*
X171581206Y-76862664D01*
X171581202Y-76862671D01*
X171530908Y-76997517D01*
X171524501Y-77057116D01*
X171524501Y-77057123D01*
X171524500Y-77057135D01*
X158489265Y-77057135D01*
X159724047Y-72999994D01*
X171519443Y-72999994D01*
X171519443Y-73000005D01*
X171539634Y-73243683D01*
X171539636Y-73243695D01*
X171599663Y-73480734D01*
X171697888Y-73704666D01*
X171831632Y-73909378D01*
X171997242Y-74089277D01*
X171997246Y-74089281D01*
X172190212Y-74239473D01*
X172405267Y-74355855D01*
X172405270Y-74355856D01*
X172636541Y-74435251D01*
X172636543Y-74435251D01*
X172636545Y-74435252D01*
X172877737Y-74475500D01*
X172877738Y-74475500D01*
X173122262Y-74475500D01*
X173122263Y-74475500D01*
X173363455Y-74435252D01*
X173594733Y-74355855D01*
X173809788Y-74239473D01*
X174002754Y-74089281D01*
X174168368Y-73909377D01*
X174302111Y-73704667D01*
X174400336Y-73480736D01*
X174460364Y-73243692D01*
X174480557Y-73000000D01*
X174460364Y-72756308D01*
X174400336Y-72519264D01*
X174302111Y-72295333D01*
X174168368Y-72090623D01*
X174168367Y-72090621D01*
X174002757Y-71910722D01*
X174002747Y-71910713D01*
X173809791Y-71760529D01*
X173809787Y-71760526D01*
X173594734Y-71644145D01*
X173594729Y-71644143D01*
X173363458Y-71564748D01*
X173182561Y-71534562D01*
X173122263Y-71524500D01*
X172877737Y-71524500D01*
X172829498Y-71532549D01*
X172636541Y-71564748D01*
X172405270Y-71644143D01*
X172405265Y-71644145D01*
X172190212Y-71760526D01*
X172190208Y-71760529D01*
X171997252Y-71910713D01*
X171997242Y-71910722D01*
X171831632Y-72090621D01*
X171697888Y-72295333D01*
X171599663Y-72519265D01*
X171539636Y-72756304D01*
X171539634Y-72756316D01*
X171519443Y-72999994D01*
X159724047Y-72999994D01*
X161270134Y-67919994D01*
X171519945Y-67919994D01*
X171519945Y-67920005D01*
X171540130Y-68163605D01*
X171600138Y-68400573D01*
X171698330Y-68624429D01*
X171794626Y-68771819D01*
X172398958Y-68167487D01*
X172423978Y-68227890D01*
X172495112Y-68334351D01*
X172585649Y-68424888D01*
X172692110Y-68496022D01*
X172752511Y-68521041D01*
X172147758Y-69125794D01*
X172147758Y-69125796D01*
X172190478Y-69159046D01*
X172190484Y-69159050D01*
X172405468Y-69275394D01*
X172405476Y-69275397D01*
X172636664Y-69354765D01*
X172877779Y-69395000D01*
X173122221Y-69395000D01*
X173363335Y-69354765D01*
X173594523Y-69275397D01*
X173594531Y-69275394D01*
X173809514Y-69159051D01*
X173809514Y-69159050D01*
X173852240Y-69125795D01*
X173852240Y-69125794D01*
X173247488Y-68521041D01*
X173307890Y-68496022D01*
X173414351Y-68424888D01*
X173504888Y-68334351D01*
X173576022Y-68227890D01*
X173601041Y-68167488D01*
X174205372Y-68771819D01*
X174301667Y-68624431D01*
X174301672Y-68624423D01*
X174399861Y-68400573D01*
X174459869Y-68163605D01*
X174480055Y-67920005D01*
X174480055Y-67919994D01*
X174459869Y-67676394D01*
X174399861Y-67439426D01*
X174301669Y-67215570D01*
X174205372Y-67068179D01*
X173601041Y-67672510D01*
X173576022Y-67612110D01*
X173504888Y-67505649D01*
X173414351Y-67415112D01*
X173307890Y-67343978D01*
X173247487Y-67318958D01*
X173852240Y-66714204D01*
X173852240Y-66714203D01*
X173809514Y-66680949D01*
X173594531Y-66564605D01*
X173594523Y-66564602D01*
X173363335Y-66485234D01*
X173122221Y-66445000D01*
X172877779Y-66445000D01*
X172636664Y-66485234D01*
X172405476Y-66564602D01*
X172405468Y-66564605D01*
X172190481Y-66680951D01*
X172147758Y-66714202D01*
X172147757Y-66714204D01*
X172752511Y-67318958D01*
X172692110Y-67343978D01*
X172585649Y-67415112D01*
X172495112Y-67505649D01*
X172423978Y-67612110D01*
X172398958Y-67672511D01*
X171794626Y-67068179D01*
X171698328Y-67215575D01*
X171600138Y-67439426D01*
X171540130Y-67676394D01*
X171519945Y-67919994D01*
X161270134Y-67919994D01*
X161976219Y-65599999D01*
X180894785Y-65599999D01*
X180894785Y-65600000D01*
X180913602Y-65803082D01*
X180969417Y-65999247D01*
X180969422Y-65999260D01*
X181060327Y-66181821D01*
X181183237Y-66344581D01*
X181333958Y-66481980D01*
X181333960Y-66481982D01*
X181433141Y-66543392D01*
X181507363Y-66589348D01*
X181697544Y-66663024D01*
X181898024Y-66700500D01*
X181898026Y-66700500D01*
X182101974Y-66700500D01*
X182101976Y-66700500D01*
X182302456Y-66663024D01*
X182492637Y-66589348D01*
X182666041Y-66481981D01*
X182816764Y-66344579D01*
X182939673Y-66181821D01*
X183030582Y-65999250D01*
X183086397Y-65803083D01*
X183105215Y-65600000D01*
X183086397Y-65396917D01*
X183030582Y-65200750D01*
X182939673Y-65018179D01*
X182816764Y-64855421D01*
X182816762Y-64855418D01*
X182666041Y-64718019D01*
X182666039Y-64718017D01*
X182492642Y-64610655D01*
X182492635Y-64610651D01*
X182397546Y-64573814D01*
X182302456Y-64536976D01*
X182101976Y-64499500D01*
X181898024Y-64499500D01*
X181697544Y-64536976D01*
X181697541Y-64536976D01*
X181697541Y-64536977D01*
X181507364Y-64610651D01*
X181507357Y-64610655D01*
X181333960Y-64718017D01*
X181333958Y-64718019D01*
X181183237Y-64855418D01*
X181060327Y-65018178D01*
X180969422Y-65200739D01*
X180969417Y-65200752D01*
X180913602Y-65396917D01*
X180894785Y-65599999D01*
X161976219Y-65599999D01*
X163376218Y-60999999D01*
X172810266Y-60999999D01*
X172810266Y-61000000D01*
X172829160Y-61203912D01*
X172885203Y-61400879D01*
X172885210Y-61400897D01*
X172976482Y-61584196D01*
X172978963Y-61587481D01*
X172978965Y-61587482D01*
X173565000Y-61001447D01*
X173565000Y-61046737D01*
X173589193Y-61137025D01*
X173635930Y-61217975D01*
X173702025Y-61284070D01*
X173782975Y-61330807D01*
X173873263Y-61355000D01*
X173918553Y-61355000D01*
X173335679Y-61937871D01*
X173425347Y-61993392D01*
X173425349Y-61993393D01*
X173616299Y-62067367D01*
X173616309Y-62067370D01*
X173817610Y-62105000D01*
X174022390Y-62105000D01*
X174223690Y-62067370D01*
X174223700Y-62067367D01*
X174414650Y-61993393D01*
X174414654Y-61993391D01*
X174504318Y-61937872D01*
X174504318Y-61937871D01*
X173921448Y-61355000D01*
X173966737Y-61355000D01*
X174057025Y-61330807D01*
X174137975Y-61284070D01*
X174204070Y-61217975D01*
X174250807Y-61137025D01*
X174275000Y-61046737D01*
X174275000Y-61001447D01*
X174861034Y-61587482D01*
X174861035Y-61587481D01*
X174863516Y-61584199D01*
X174954789Y-61400897D01*
X174954796Y-61400879D01*
X175010839Y-61203912D01*
X175029734Y-61000000D01*
X175029734Y-60999999D01*
X177889764Y-60999999D01*
X177889764Y-61000000D01*
X177908667Y-61204000D01*
X177908667Y-61204002D01*
X177908668Y-61204005D01*
X177964736Y-61401064D01*
X177964737Y-61401067D01*
X178056058Y-61584464D01*
X178179527Y-61747963D01*
X178309777Y-61866701D01*
X178330933Y-61885987D01*
X178505125Y-61993843D01*
X178696169Y-62067853D01*
X178897560Y-62105500D01*
X178897562Y-62105500D01*
X179102438Y-62105500D01*
X179102440Y-62105500D01*
X179303831Y-62067853D01*
X179494875Y-61993843D01*
X179669067Y-61885987D01*
X179820474Y-61747961D01*
X179943942Y-61584464D01*
X180035264Y-61401064D01*
X180091332Y-61204005D01*
X180110236Y-61000000D01*
X180091332Y-60795995D01*
X180035264Y-60598936D01*
X179943942Y-60415536D01*
X179820474Y-60252039D01*
X179820472Y-60252036D01*
X179669068Y-60114014D01*
X179669067Y-60114013D01*
X179517442Y-60020130D01*
X179494877Y-60006158D01*
X179494875Y-60006157D01*
X179303831Y-59932147D01*
X179102440Y-59894500D01*
X178897560Y-59894500D01*
X178696169Y-59932147D01*
X178696166Y-59932147D01*
X178696166Y-59932148D01*
X178505122Y-60006158D01*
X178330931Y-60114014D01*
X178179527Y-60252036D01*
X178056058Y-60415535D01*
X177964737Y-60598932D01*
X177908667Y-60795999D01*
X177889764Y-60999999D01*
X175029734Y-60999999D01*
X175010839Y-60796087D01*
X174954796Y-60599120D01*
X174954789Y-60599102D01*
X174863517Y-60415803D01*
X174861034Y-60412517D01*
X174275000Y-60998551D01*
X174275000Y-60953263D01*
X174250807Y-60862975D01*
X174204070Y-60782025D01*
X174137975Y-60715930D01*
X174057025Y-60669193D01*
X173966737Y-60645000D01*
X173921448Y-60645000D01*
X174504319Y-60062127D01*
X174414648Y-60006606D01*
X174223691Y-59932629D01*
X174022390Y-59895000D01*
X173817610Y-59895000D01*
X173616309Y-59932629D01*
X173616308Y-59932629D01*
X173425351Y-60006606D01*
X173425345Y-60006609D01*
X173335680Y-60062126D01*
X173335679Y-60062127D01*
X173918553Y-60645000D01*
X173873263Y-60645000D01*
X173782975Y-60669193D01*
X173702025Y-60715930D01*
X173635930Y-60782025D01*
X173589193Y-60862975D01*
X173565000Y-60953263D01*
X173565000Y-60998552D01*
X172978964Y-60412516D01*
X172976482Y-60415803D01*
X172885210Y-60599102D01*
X172885203Y-60599120D01*
X172829160Y-60796087D01*
X172810266Y-60999999D01*
X163376218Y-60999999D01*
X163413043Y-60879004D01*
X163451393Y-60820603D01*
X163467865Y-60808787D01*
X164276062Y-60323871D01*
X164449871Y-60219586D01*
X164449874Y-60219584D01*
X164541698Y-60149020D01*
X164582216Y-60109730D01*
X164655567Y-60020128D01*
X164715338Y-59889251D01*
X164735023Y-59822212D01*
X164735024Y-59822208D01*
X164755500Y-59679792D01*
X164755500Y-58699994D01*
X165519945Y-58699994D01*
X165519945Y-58700005D01*
X165540130Y-58943605D01*
X165600138Y-59180573D01*
X165698330Y-59404429D01*
X165794626Y-59551819D01*
X166398958Y-58947487D01*
X166423978Y-59007890D01*
X166495112Y-59114351D01*
X166585649Y-59204888D01*
X166692110Y-59276022D01*
X166752511Y-59301041D01*
X166147758Y-59905794D01*
X166147758Y-59905796D01*
X166190478Y-59939046D01*
X166190484Y-59939050D01*
X166405468Y-60055394D01*
X166405476Y-60055397D01*
X166636664Y-60134765D01*
X166877779Y-60175000D01*
X167122221Y-60175000D01*
X167363335Y-60134765D01*
X167594523Y-60055397D01*
X167594531Y-60055394D01*
X167809514Y-59939051D01*
X167809514Y-59939050D01*
X167852240Y-59905795D01*
X167852240Y-59905794D01*
X167247488Y-59301041D01*
X167307890Y-59276022D01*
X167414351Y-59204888D01*
X167504888Y-59114351D01*
X167576022Y-59007890D01*
X167601041Y-58947488D01*
X168205372Y-59551819D01*
X168301667Y-59404431D01*
X168301672Y-59404423D01*
X168399861Y-59180573D01*
X168459869Y-58943605D01*
X168480055Y-58700005D01*
X168480055Y-58699994D01*
X168459869Y-58456394D01*
X168399861Y-58219426D01*
X168301669Y-57995570D01*
X168205372Y-57848179D01*
X167601041Y-58452510D01*
X167576022Y-58392110D01*
X167504888Y-58285649D01*
X167414351Y-58195112D01*
X167307890Y-58123978D01*
X167247487Y-58098958D01*
X167852240Y-57494204D01*
X167852240Y-57494203D01*
X167809514Y-57460949D01*
X167594531Y-57344605D01*
X167594523Y-57344602D01*
X167363335Y-57265234D01*
X167122221Y-57225000D01*
X166877779Y-57225000D01*
X166636664Y-57265234D01*
X166405476Y-57344602D01*
X166405468Y-57344605D01*
X166190481Y-57460951D01*
X166147758Y-57494202D01*
X166147757Y-57494204D01*
X166752511Y-58098958D01*
X166692110Y-58123978D01*
X166585649Y-58195112D01*
X166495112Y-58285649D01*
X166423978Y-58392110D01*
X166398958Y-58452511D01*
X165794626Y-57848179D01*
X165698328Y-57995575D01*
X165600138Y-58219426D01*
X165540130Y-58456394D01*
X165519945Y-58699994D01*
X164755500Y-58699994D01*
X164755500Y-57066362D01*
X164744833Y-56963064D01*
X164734477Y-56913455D01*
X164702927Y-56814517D01*
X164666886Y-56756308D01*
X164627187Y-56692191D01*
X164582324Y-56638623D01*
X164582323Y-56638622D01*
X164475181Y-56542583D01*
X163811697Y-56100262D01*
X163811640Y-56100224D01*
X163810564Y-56099514D01*
X163808071Y-56097867D01*
X163807601Y-56097560D01*
X163806247Y-56096674D01*
X163806068Y-56096557D01*
X163802792Y-56094433D01*
X163671918Y-56034663D01*
X163604873Y-56014976D01*
X163557400Y-56008150D01*
X163462456Y-55994500D01*
X160794997Y-55994500D01*
X160794983Y-55994500D01*
X160763429Y-55995486D01*
X160747931Y-55996456D01*
X160716518Y-55999411D01*
X160716510Y-55999412D01*
X160577765Y-56037483D01*
X160577760Y-56037485D01*
X160513700Y-56065373D01*
X160391299Y-56140991D01*
X160391292Y-56140996D01*
X159550749Y-56843540D01*
X159017436Y-57289294D01*
X158233529Y-57944500D01*
X157346656Y-58685767D01*
X156169690Y-59669500D01*
X148461533Y-66112138D01*
X146702993Y-67581961D01*
X146638931Y-67609850D01*
X146632894Y-67608872D01*
X146609078Y-67658789D01*
X146596262Y-67671169D01*
X143679038Y-70109445D01*
X143677794Y-70110472D01*
X136559711Y-75904263D01*
X135695178Y-76607953D01*
X135213521Y-76999999D01*
X134324386Y-77723712D01*
X134259966Y-77750765D01*
X134191147Y-77738696D01*
X134139777Y-77691336D01*
X134122167Y-77623722D01*
X134131547Y-77580089D01*
X134166396Y-77495956D01*
X134225187Y-77251072D01*
X134244948Y-76999999D01*
X134225187Y-76748927D01*
X134166396Y-76504043D01*
X134070019Y-76271368D01*
X133938429Y-76056634D01*
X133937733Y-76055819D01*
X133937732Y-76055819D01*
X133260175Y-76733376D01*
X133238177Y-76680268D01*
X133164307Y-76569713D01*
X133070287Y-76475693D01*
X132959732Y-76401823D01*
X132906622Y-76379824D01*
X133584179Y-75702266D01*
X133583362Y-75701568D01*
X133368631Y-75569980D01*
X133135956Y-75473603D01*
X132891072Y-75414812D01*
X132640000Y-75395052D01*
X132388927Y-75414812D01*
X132144043Y-75473603D01*
X131911368Y-75569980D01*
X131696637Y-75701567D01*
X131695819Y-75702266D01*
X132373377Y-76379824D01*
X132320268Y-76401823D01*
X132209713Y-76475693D01*
X132115693Y-76569713D01*
X132041823Y-76680268D01*
X132019824Y-76733377D01*
X131342266Y-76055819D01*
X131341567Y-76056637D01*
X131209980Y-76271368D01*
X131113603Y-76504043D01*
X131054812Y-76748927D01*
X131035052Y-76999999D01*
X131054812Y-77251072D01*
X131113603Y-77495956D01*
X131209980Y-77728631D01*
X131341568Y-77943362D01*
X131342266Y-77944179D01*
X132019824Y-77266622D01*
X132041823Y-77319732D01*
X132115693Y-77430287D01*
X132209713Y-77524307D01*
X132320268Y-77598177D01*
X132373376Y-77620175D01*
X131695819Y-78297732D01*
X131695819Y-78297733D01*
X131696634Y-78298429D01*
X131911368Y-78430019D01*
X132144043Y-78526396D01*
X132388927Y-78585187D01*
X132639999Y-78604947D01*
X132831504Y-78589875D01*
X132899882Y-78604239D01*
X132949639Y-78653290D01*
X132964978Y-78721455D01*
X132941030Y-78787092D01*
X132885397Y-78829362D01*
X132875954Y-78832533D01*
X127195312Y-80489387D01*
X127166811Y-80498623D01*
X127153038Y-80503542D01*
X127132179Y-80511694D01*
X127125229Y-80514411D01*
X127125227Y-80514411D01*
X127125227Y-80514412D01*
X127125221Y-80514414D01*
X127002188Y-80588984D01*
X127002183Y-80588987D01*
X126948195Y-80633336D01*
X126948188Y-80633343D01*
X126851149Y-80739550D01*
X126851145Y-80739555D01*
X126787954Y-80868807D01*
X126766511Y-80935310D01*
X126766510Y-80935311D01*
X126742293Y-81077148D01*
X126573622Y-87486701D01*
X126504610Y-90109132D01*
X126483169Y-90175630D01*
X126436108Y-90216779D01*
X125842475Y-90513596D01*
X125730832Y-90589589D01*
X125681980Y-90633451D01*
X125681974Y-90633457D01*
X125681970Y-90633461D01*
X125681967Y-90633465D01*
X125594432Y-90736300D01*
X125534663Y-90867173D01*
X125514976Y-90934218D01*
X125494500Y-91076637D01*
X100500500Y-91076637D01*
X100500500Y-87499999D01*
X123810266Y-87499999D01*
X123810266Y-87500000D01*
X123829160Y-87703912D01*
X123885203Y-87900879D01*
X123885210Y-87900897D01*
X123976482Y-88084196D01*
X123978963Y-88087481D01*
X123978965Y-88087482D01*
X124565000Y-87501447D01*
X124565000Y-87546737D01*
X124589193Y-87637025D01*
X124635930Y-87717975D01*
X124702025Y-87784070D01*
X124782975Y-87830807D01*
X124873263Y-87855000D01*
X124918553Y-87855000D01*
X124335679Y-88437871D01*
X124425347Y-88493392D01*
X124425349Y-88493393D01*
X124616299Y-88567367D01*
X124616309Y-88567370D01*
X124817610Y-88605000D01*
X125022390Y-88605000D01*
X125223690Y-88567370D01*
X125223700Y-88567367D01*
X125414650Y-88493393D01*
X125414654Y-88493391D01*
X125504318Y-88437872D01*
X125504318Y-88437871D01*
X124921448Y-87855000D01*
X124966737Y-87855000D01*
X125057025Y-87830807D01*
X125137975Y-87784070D01*
X125204070Y-87717975D01*
X125250807Y-87637025D01*
X125275000Y-87546737D01*
X125275000Y-87501447D01*
X125861034Y-88087482D01*
X125861035Y-88087481D01*
X125863516Y-88084199D01*
X125954789Y-87900897D01*
X125954796Y-87900879D01*
X126010839Y-87703912D01*
X126029734Y-87500000D01*
X126029734Y-87499999D01*
X126010839Y-87296087D01*
X125954796Y-87099120D01*
X125954789Y-87099102D01*
X125863517Y-86915803D01*
X125861034Y-86912517D01*
X125275000Y-87498551D01*
X125275000Y-87453263D01*
X125250807Y-87362975D01*
X125204070Y-87282025D01*
X125137975Y-87215930D01*
X125057025Y-87169193D01*
X124966737Y-87145000D01*
X124921448Y-87145000D01*
X125504319Y-86562127D01*
X125414648Y-86506606D01*
X125223691Y-86432629D01*
X125022390Y-86395000D01*
X124817610Y-86395000D01*
X124616309Y-86432629D01*
X124616308Y-86432629D01*
X124425351Y-86506606D01*
X124425345Y-86506609D01*
X124335680Y-86562126D01*
X124335679Y-86562127D01*
X124918553Y-87145000D01*
X124873263Y-87145000D01*
X124782975Y-87169193D01*
X124702025Y-87215930D01*
X124635930Y-87282025D01*
X124589193Y-87362975D01*
X124565000Y-87453263D01*
X124565000Y-87498552D01*
X123978964Y-86912516D01*
X123976482Y-86915803D01*
X123885210Y-87099102D01*
X123885203Y-87099120D01*
X123829160Y-87296087D01*
X123810266Y-87499999D01*
X100500500Y-87499999D01*
X100500500Y-85399999D01*
X101894785Y-85399999D01*
X101894785Y-85400000D01*
X101913602Y-85603082D01*
X101969417Y-85799247D01*
X101969422Y-85799260D01*
X102060327Y-85981821D01*
X102183237Y-86144581D01*
X102333958Y-86281980D01*
X102333960Y-86281982D01*
X102433141Y-86343392D01*
X102507363Y-86389348D01*
X102697544Y-86463024D01*
X102898024Y-86500500D01*
X102898026Y-86500500D01*
X103101974Y-86500500D01*
X103101976Y-86500500D01*
X103302456Y-86463024D01*
X103492637Y-86389348D01*
X103666041Y-86281981D01*
X103816764Y-86144579D01*
X103939673Y-85981821D01*
X104030582Y-85799250D01*
X104086397Y-85603083D01*
X104088536Y-85579999D01*
X107389764Y-85579999D01*
X107389764Y-85580000D01*
X107408667Y-85784000D01*
X107408667Y-85784002D01*
X107408668Y-85784005D01*
X107453355Y-85941064D01*
X107464737Y-85981067D01*
X107556058Y-86164464D01*
X107679527Y-86327963D01*
X107746864Y-86389348D01*
X107830933Y-86465987D01*
X108005125Y-86573843D01*
X108196169Y-86647853D01*
X108397560Y-86685500D01*
X108397562Y-86685500D01*
X108602438Y-86685500D01*
X108602440Y-86685500D01*
X108803831Y-86647853D01*
X108994875Y-86573843D01*
X109169067Y-86465987D01*
X109320474Y-86327961D01*
X109443942Y-86164464D01*
X109535264Y-85981064D01*
X109591332Y-85784005D01*
X109610236Y-85580000D01*
X109606529Y-85539999D01*
X111389764Y-85539999D01*
X111389764Y-85540000D01*
X111408667Y-85744000D01*
X111408667Y-85744002D01*
X111408668Y-85744005D01*
X111464736Y-85941064D01*
X111464737Y-85941067D01*
X111556058Y-86124464D01*
X111679527Y-86287963D01*
X111790742Y-86389348D01*
X111830933Y-86425987D01*
X112005125Y-86533843D01*
X112196169Y-86607853D01*
X112397560Y-86645500D01*
X112397562Y-86645500D01*
X112602438Y-86645500D01*
X112602440Y-86645500D01*
X112803831Y-86607853D01*
X112994875Y-86533843D01*
X113169067Y-86425987D01*
X113320474Y-86287961D01*
X113443942Y-86124464D01*
X113535264Y-85941064D01*
X113591332Y-85744005D01*
X113610236Y-85540000D01*
X113591332Y-85335995D01*
X113535264Y-85138936D01*
X113443942Y-84955536D01*
X113340214Y-84818179D01*
X113320472Y-84792036D01*
X113169068Y-84654014D01*
X113169067Y-84654013D01*
X112994875Y-84546157D01*
X112803831Y-84472147D01*
X112602440Y-84434500D01*
X112397560Y-84434500D01*
X112196169Y-84472147D01*
X112196166Y-84472147D01*
X112196166Y-84472148D01*
X112005122Y-84546158D01*
X111830931Y-84654014D01*
X111679527Y-84792036D01*
X111556058Y-84955535D01*
X111464737Y-85138932D01*
X111408667Y-85335999D01*
X111389764Y-85539999D01*
X109606529Y-85539999D01*
X109591332Y-85375995D01*
X109535264Y-85178936D01*
X109443942Y-84995536D01*
X109320474Y-84832039D01*
X109320472Y-84832036D01*
X109169068Y-84694014D01*
X109169067Y-84694013D01*
X108994875Y-84586157D01*
X108803831Y-84512147D01*
X108602440Y-84474500D01*
X108397560Y-84474500D01*
X108196169Y-84512147D01*
X108196166Y-84512147D01*
X108196166Y-84512148D01*
X108005122Y-84586158D01*
X107830931Y-84694014D01*
X107679527Y-84832036D01*
X107556058Y-84995535D01*
X107464737Y-85178932D01*
X107408667Y-85375999D01*
X107389764Y-85579999D01*
X104088536Y-85579999D01*
X104105215Y-85400000D01*
X104086397Y-85196917D01*
X104030582Y-85000750D01*
X104027985Y-84995535D01*
X103946574Y-84832039D01*
X103939673Y-84818179D01*
X103816764Y-84655421D01*
X103816762Y-84655418D01*
X103666041Y-84518019D01*
X103666039Y-84518017D01*
X103492642Y-84410655D01*
X103492635Y-84410651D01*
X103397546Y-84373814D01*
X103302456Y-84336976D01*
X103101976Y-84299500D01*
X102898024Y-84299500D01*
X102697544Y-84336976D01*
X102697541Y-84336976D01*
X102697541Y-84336977D01*
X102507364Y-84410651D01*
X102507357Y-84410655D01*
X102333960Y-84518017D01*
X102333958Y-84518019D01*
X102183237Y-84655418D01*
X102060327Y-84818178D01*
X101969422Y-85000739D01*
X101969417Y-85000752D01*
X101913602Y-85196917D01*
X101894785Y-85399999D01*
X100500500Y-85399999D01*
X100500500Y-80499999D01*
X107390266Y-80499999D01*
X107390266Y-80500000D01*
X107409160Y-80703912D01*
X107465203Y-80900879D01*
X107465210Y-80900897D01*
X107556482Y-81084196D01*
X107558963Y-81087481D01*
X107558965Y-81087482D01*
X108145000Y-80501447D01*
X108145000Y-80546737D01*
X108169193Y-80637025D01*
X108215930Y-80717975D01*
X108282025Y-80784070D01*
X108362975Y-80830807D01*
X108453263Y-80855000D01*
X108498553Y-80855000D01*
X107915679Y-81437871D01*
X108005347Y-81493392D01*
X108005349Y-81493393D01*
X108196299Y-81567367D01*
X108196309Y-81567370D01*
X108397610Y-81605000D01*
X108602390Y-81605000D01*
X108803690Y-81567370D01*
X108803700Y-81567367D01*
X108994650Y-81493393D01*
X108994654Y-81493391D01*
X109084318Y-81437872D01*
X109084318Y-81437871D01*
X108501448Y-80855000D01*
X108546737Y-80855000D01*
X108637025Y-80830807D01*
X108717975Y-80784070D01*
X108784070Y-80717975D01*
X108830807Y-80637025D01*
X108855000Y-80546737D01*
X108855000Y-80501447D01*
X109441034Y-81087482D01*
X109441035Y-81087481D01*
X109443516Y-81084199D01*
X109534789Y-80900897D01*
X109534796Y-80900879D01*
X109590839Y-80703912D01*
X109609734Y-80500000D01*
X109609734Y-80499999D01*
X109606027Y-80459999D01*
X111390266Y-80459999D01*
X111390266Y-80460000D01*
X111409160Y-80663912D01*
X111465203Y-80860879D01*
X111465210Y-80860897D01*
X111556482Y-81044196D01*
X111558963Y-81047481D01*
X111558965Y-81047482D01*
X112145000Y-80461447D01*
X112145000Y-80506737D01*
X112169193Y-80597025D01*
X112215930Y-80677975D01*
X112282025Y-80744070D01*
X112362975Y-80790807D01*
X112453263Y-80815000D01*
X112498553Y-80815000D01*
X111915679Y-81397871D01*
X112005347Y-81453392D01*
X112005349Y-81453393D01*
X112196299Y-81527367D01*
X112196309Y-81527370D01*
X112397610Y-81565000D01*
X112602390Y-81565000D01*
X112803690Y-81527370D01*
X112803700Y-81527367D01*
X112994650Y-81453393D01*
X112994654Y-81453391D01*
X113084318Y-81397872D01*
X113084318Y-81397871D01*
X112501448Y-80815000D01*
X112546737Y-80815000D01*
X112637025Y-80790807D01*
X112717975Y-80744070D01*
X112784070Y-80677975D01*
X112830807Y-80597025D01*
X112855000Y-80506737D01*
X112855000Y-80461447D01*
X113441034Y-81047482D01*
X113441035Y-81047481D01*
X113443516Y-81044199D01*
X113534789Y-80860897D01*
X113534796Y-80860879D01*
X113590839Y-80663912D01*
X113609734Y-80460000D01*
X113609734Y-80459999D01*
X113590839Y-80256087D01*
X113534796Y-80059120D01*
X113534789Y-80059102D01*
X113443517Y-79875803D01*
X113441034Y-79872517D01*
X112855000Y-80458551D01*
X112855000Y-80413263D01*
X112830807Y-80322975D01*
X112784070Y-80242025D01*
X112717975Y-80175930D01*
X112637025Y-80129193D01*
X112546737Y-80105000D01*
X112501448Y-80105000D01*
X113084319Y-79522127D01*
X112994648Y-79466606D01*
X112803691Y-79392629D01*
X112602390Y-79355000D01*
X112397610Y-79355000D01*
X112196309Y-79392629D01*
X112196308Y-79392629D01*
X112005351Y-79466606D01*
X112005345Y-79466609D01*
X111915680Y-79522126D01*
X111915679Y-79522127D01*
X112498553Y-80105000D01*
X112453263Y-80105000D01*
X112362975Y-80129193D01*
X112282025Y-80175930D01*
X112215930Y-80242025D01*
X112169193Y-80322975D01*
X112145000Y-80413263D01*
X112145000Y-80458552D01*
X111558964Y-79872516D01*
X111556482Y-79875803D01*
X111465210Y-80059102D01*
X111465203Y-80059120D01*
X111409160Y-80256087D01*
X111390266Y-80459999D01*
X109606027Y-80459999D01*
X109590839Y-80296087D01*
X109534796Y-80099120D01*
X109534789Y-80099102D01*
X109443517Y-79915803D01*
X109441034Y-79912517D01*
X108855000Y-80498551D01*
X108855000Y-80453263D01*
X108830807Y-80362975D01*
X108784070Y-80282025D01*
X108717975Y-80215930D01*
X108637025Y-80169193D01*
X108546737Y-80145000D01*
X108501448Y-80145000D01*
X109084319Y-79562127D01*
X108994648Y-79506606D01*
X108803691Y-79432629D01*
X108602390Y-79395000D01*
X108397610Y-79395000D01*
X108196309Y-79432629D01*
X108196308Y-79432629D01*
X108005351Y-79506606D01*
X108005345Y-79506609D01*
X107915680Y-79562126D01*
X107915679Y-79562127D01*
X108498553Y-80145000D01*
X108453263Y-80145000D01*
X108362975Y-80169193D01*
X108282025Y-80215930D01*
X108215930Y-80282025D01*
X108169193Y-80362975D01*
X108145000Y-80453263D01*
X108145000Y-80498552D01*
X107558964Y-79912516D01*
X107556482Y-79915803D01*
X107465210Y-80099102D01*
X107465203Y-80099120D01*
X107409160Y-80296087D01*
X107390266Y-80499999D01*
X100500500Y-80499999D01*
X100500500Y-76999999D01*
X125954551Y-76999999D01*
X125974317Y-77251151D01*
X126033126Y-77496110D01*
X126129533Y-77728859D01*
X126261160Y-77943653D01*
X126261161Y-77943656D01*
X126261164Y-77943659D01*
X126424776Y-78135224D01*
X126573066Y-78261875D01*
X126616343Y-78298838D01*
X126616346Y-78298839D01*
X126831140Y-78430466D01*
X127062737Y-78526396D01*
X127063889Y-78526873D01*
X127308852Y-78585683D01*
X127560000Y-78605449D01*
X127811148Y-78585683D01*
X128056111Y-78526873D01*
X128288859Y-78430466D01*
X128503659Y-78298836D01*
X128695224Y-78135224D01*
X128858836Y-77943659D01*
X128990466Y-77728859D01*
X129086873Y-77496111D01*
X129145683Y-77251148D01*
X129165449Y-77000000D01*
X129145683Y-76748852D01*
X129086873Y-76503889D01*
X128990466Y-76271141D01*
X128990466Y-76271140D01*
X128859017Y-76056637D01*
X128858838Y-76056345D01*
X128858838Y-76056343D01*
X128821875Y-76013066D01*
X128695224Y-75864776D01*
X128568571Y-75756604D01*
X128503656Y-75701161D01*
X128503653Y-75701160D01*
X128288859Y-75569533D01*
X128056110Y-75473126D01*
X127811151Y-75414317D01*
X127560000Y-75394551D01*
X127308848Y-75414317D01*
X127063889Y-75473126D01*
X126831140Y-75569533D01*
X126616346Y-75701160D01*
X126616343Y-75701161D01*
X126424776Y-75864776D01*
X126261161Y-76056343D01*
X126261160Y-76056346D01*
X126129533Y-76271140D01*
X126033126Y-76503889D01*
X125974317Y-76748848D01*
X125954551Y-76999999D01*
X100500500Y-76999999D01*
X100500500Y-69799999D01*
X114394785Y-69799999D01*
X114394785Y-69800000D01*
X114413602Y-70003082D01*
X114469417Y-70199247D01*
X114469422Y-70199260D01*
X114560327Y-70381821D01*
X114683237Y-70544581D01*
X114833958Y-70681980D01*
X114833960Y-70681982D01*
X114933141Y-70743392D01*
X115007363Y-70789348D01*
X115197544Y-70863024D01*
X115398024Y-70900500D01*
X115398026Y-70900500D01*
X115601974Y-70900500D01*
X115601976Y-70900500D01*
X115802456Y-70863024D01*
X115992637Y-70789348D01*
X116166041Y-70681981D01*
X116316764Y-70544579D01*
X116439673Y-70381821D01*
X116530582Y-70199250D01*
X116586397Y-70003083D01*
X116605215Y-69800000D01*
X116586397Y-69596917D01*
X116530582Y-69400750D01*
X116507684Y-69354765D01*
X116468164Y-69275397D01*
X116439673Y-69218179D01*
X116316764Y-69055421D01*
X116316762Y-69055418D01*
X116166041Y-68918019D01*
X116166039Y-68918017D01*
X115992642Y-68810655D01*
X115992635Y-68810651D01*
X115892397Y-68771819D01*
X115802456Y-68736976D01*
X115601976Y-68699500D01*
X115398024Y-68699500D01*
X115197544Y-68736976D01*
X115197541Y-68736976D01*
X115197541Y-68736977D01*
X115007364Y-68810651D01*
X115007357Y-68810655D01*
X114833960Y-68918017D01*
X114833958Y-68918019D01*
X114683237Y-69055418D01*
X114560327Y-69218178D01*
X114469422Y-69400739D01*
X114469417Y-69400752D01*
X114413602Y-69596917D01*
X114394785Y-69799999D01*
X100500500Y-69799999D01*
X100500500Y-68599999D01*
X101894785Y-68599999D01*
X101894785Y-68600000D01*
X101913602Y-68803082D01*
X101969417Y-68999247D01*
X101969422Y-68999260D01*
X102060327Y-69181821D01*
X102183237Y-69344581D01*
X102333958Y-69481980D01*
X102333960Y-69481982D01*
X102433141Y-69543392D01*
X102507363Y-69589348D01*
X102697544Y-69663024D01*
X102898024Y-69700500D01*
X102898026Y-69700500D01*
X103101974Y-69700500D01*
X103101976Y-69700500D01*
X103302456Y-69663024D01*
X103492637Y-69589348D01*
X103666041Y-69481981D01*
X103794122Y-69365219D01*
X103816762Y-69344581D01*
X103816764Y-69344579D01*
X103939673Y-69181821D01*
X104030582Y-68999250D01*
X104086397Y-68803083D01*
X104105215Y-68600000D01*
X104086397Y-68396917D01*
X104030582Y-68200750D01*
X103939673Y-68018179D01*
X103865527Y-67919994D01*
X103816762Y-67855418D01*
X103666041Y-67718019D01*
X103666039Y-67718017D01*
X103492642Y-67610655D01*
X103492635Y-67610651D01*
X103397546Y-67573814D01*
X103302456Y-67536976D01*
X103101976Y-67499500D01*
X102898024Y-67499500D01*
X102697544Y-67536976D01*
X102697541Y-67536976D01*
X102697541Y-67536977D01*
X102507364Y-67610651D01*
X102507357Y-67610655D01*
X102333960Y-67718017D01*
X102333958Y-67718019D01*
X102183237Y-67855418D01*
X102060327Y-68018178D01*
X101969422Y-68200739D01*
X101969417Y-68200752D01*
X101913602Y-68396917D01*
X101894785Y-68599999D01*
X100500500Y-68599999D01*
X100500500Y-66999999D01*
X124349764Y-66999999D01*
X124349764Y-67000000D01*
X124368667Y-67204000D01*
X124368667Y-67204002D01*
X124368668Y-67204005D01*
X124424736Y-67401064D01*
X124424737Y-67401067D01*
X124516058Y-67584464D01*
X124639527Y-67747963D01*
X124757400Y-67855418D01*
X124790933Y-67885987D01*
X124965125Y-67993843D01*
X125156169Y-68067853D01*
X125357560Y-68105500D01*
X125357562Y-68105500D01*
X125562438Y-68105500D01*
X125562440Y-68105500D01*
X125763831Y-68067853D01*
X125954875Y-67993843D01*
X126129067Y-67885987D01*
X126280474Y-67747961D01*
X126403942Y-67584464D01*
X126495264Y-67401064D01*
X126551332Y-67204005D01*
X126570236Y-67000000D01*
X126570236Y-66999999D01*
X129430266Y-66999999D01*
X129430266Y-67000000D01*
X129449160Y-67203912D01*
X129505203Y-67400879D01*
X129505210Y-67400897D01*
X129596482Y-67584196D01*
X129598963Y-67587481D01*
X129598965Y-67587482D01*
X130185000Y-67001447D01*
X130185000Y-67046737D01*
X130209193Y-67137025D01*
X130255930Y-67217975D01*
X130322025Y-67284070D01*
X130402975Y-67330807D01*
X130493263Y-67355000D01*
X130538553Y-67355000D01*
X129955679Y-67937871D01*
X130045347Y-67993392D01*
X130045349Y-67993393D01*
X130236299Y-68067367D01*
X130236309Y-68067370D01*
X130437610Y-68105000D01*
X130642390Y-68105000D01*
X130843690Y-68067370D01*
X130843700Y-68067367D01*
X131034650Y-67993393D01*
X131034654Y-67993391D01*
X131124318Y-67937872D01*
X131124318Y-67937871D01*
X130541448Y-67355000D01*
X130586737Y-67355000D01*
X130677025Y-67330807D01*
X130757975Y-67284070D01*
X130824070Y-67217975D01*
X130870807Y-67137025D01*
X130895000Y-67046737D01*
X130895000Y-67001447D01*
X131481034Y-67587482D01*
X131481035Y-67587481D01*
X131483516Y-67584199D01*
X131574789Y-67400897D01*
X131574796Y-67400879D01*
X131630839Y-67203912D01*
X131649734Y-67000000D01*
X131649734Y-66999999D01*
X131630839Y-66796087D01*
X131574796Y-66599120D01*
X131574789Y-66599102D01*
X131525442Y-66499999D01*
X144810266Y-66499999D01*
X144810266Y-66500000D01*
X144829160Y-66703912D01*
X144885203Y-66900879D01*
X144885210Y-66900897D01*
X144976482Y-67084196D01*
X144978963Y-67087481D01*
X144978965Y-67087482D01*
X145565000Y-66501447D01*
X145565000Y-66546737D01*
X145589193Y-66637025D01*
X145635930Y-66717975D01*
X145702025Y-66784070D01*
X145782975Y-66830807D01*
X145873263Y-66855000D01*
X145918553Y-66855000D01*
X145335679Y-67437871D01*
X145425347Y-67493392D01*
X145425349Y-67493393D01*
X145616299Y-67567367D01*
X145616309Y-67567370D01*
X145817610Y-67605000D01*
X146022390Y-67605000D01*
X146223690Y-67567370D01*
X146223700Y-67567367D01*
X146414650Y-67493393D01*
X146414651Y-67493392D01*
X146451459Y-67470601D01*
X146502140Y-67456638D01*
X146504317Y-67437870D01*
X145921448Y-66855000D01*
X145966737Y-66855000D01*
X146057025Y-66830807D01*
X146137975Y-66784070D01*
X146204070Y-66717975D01*
X146250807Y-66637025D01*
X146275000Y-66546737D01*
X146275000Y-66501447D01*
X146861034Y-67087482D01*
X146861035Y-67087481D01*
X146863516Y-67084199D01*
X146954789Y-66900897D01*
X146954796Y-66900879D01*
X147010839Y-66703912D01*
X147029734Y-66500000D01*
X147029734Y-66499999D01*
X147010839Y-66296087D01*
X146954796Y-66099120D01*
X146954789Y-66099102D01*
X146863517Y-65915803D01*
X146861034Y-65912517D01*
X146275000Y-66498551D01*
X146275000Y-66453263D01*
X146250807Y-66362975D01*
X146204070Y-66282025D01*
X146137975Y-66215930D01*
X146057025Y-66169193D01*
X145966737Y-66145000D01*
X145921448Y-66145000D01*
X146504319Y-65562127D01*
X146414648Y-65506606D01*
X146223691Y-65432629D01*
X146022390Y-65395000D01*
X145817610Y-65395000D01*
X145616309Y-65432629D01*
X145616308Y-65432629D01*
X145425351Y-65506606D01*
X145425345Y-65506609D01*
X145335680Y-65562126D01*
X145335679Y-65562127D01*
X145918553Y-66145000D01*
X145873263Y-66145000D01*
X145782975Y-66169193D01*
X145702025Y-66215930D01*
X145635930Y-66282025D01*
X145589193Y-66362975D01*
X145565000Y-66453263D01*
X145565000Y-66498552D01*
X144978964Y-65912516D01*
X144976482Y-65915803D01*
X144885210Y-66099102D01*
X144885203Y-66099120D01*
X144829160Y-66296087D01*
X144810266Y-66499999D01*
X131525442Y-66499999D01*
X131483517Y-66415803D01*
X131481034Y-66412517D01*
X130895000Y-66998551D01*
X130895000Y-66953263D01*
X130870807Y-66862975D01*
X130824070Y-66782025D01*
X130757975Y-66715930D01*
X130677025Y-66669193D01*
X130586737Y-66645000D01*
X130541448Y-66645000D01*
X131124319Y-66062127D01*
X131034648Y-66006606D01*
X130843691Y-65932629D01*
X130642390Y-65895000D01*
X130437610Y-65895000D01*
X130236309Y-65932629D01*
X130236308Y-65932629D01*
X130045351Y-66006606D01*
X130045345Y-66006609D01*
X129955680Y-66062126D01*
X129955679Y-66062127D01*
X130538553Y-66645000D01*
X130493263Y-66645000D01*
X130402975Y-66669193D01*
X130322025Y-66715930D01*
X130255930Y-66782025D01*
X130209193Y-66862975D01*
X130185000Y-66953263D01*
X130185000Y-66998552D01*
X129598964Y-66412516D01*
X129596482Y-66415803D01*
X129505210Y-66599102D01*
X129505203Y-66599120D01*
X129449160Y-66796087D01*
X129430266Y-66999999D01*
X126570236Y-66999999D01*
X126551332Y-66795995D01*
X126495264Y-66598936D01*
X126403942Y-66415536D01*
X126280474Y-66252039D01*
X126280472Y-66252036D01*
X126129068Y-66114014D01*
X126129067Y-66114013D01*
X125955605Y-66006609D01*
X125954877Y-66006158D01*
X125954875Y-66006157D01*
X125763831Y-65932147D01*
X125562440Y-65894500D01*
X125357560Y-65894500D01*
X125156169Y-65932147D01*
X125156166Y-65932147D01*
X125156166Y-65932148D01*
X124965122Y-66006158D01*
X124790931Y-66114014D01*
X124639527Y-66252036D01*
X124516058Y-66415535D01*
X124424737Y-66598932D01*
X124424736Y-66598936D01*
X124391940Y-66714204D01*
X124368667Y-66795999D01*
X124349764Y-66999999D01*
X100500500Y-66999999D01*
X100500500Y-59566094D01*
X100520185Y-59499055D01*
X100572989Y-59453300D01*
X100642147Y-59443356D01*
X100705703Y-59472381D01*
X100732686Y-59505501D01*
X100953136Y-59899142D01*
X101236927Y-60323865D01*
X101236929Y-60323867D01*
X101236931Y-60323871D01*
X101553160Y-60725006D01*
X101553171Y-60725019D01*
X101641529Y-60820603D01*
X101899906Y-61100113D01*
X102098909Y-61284070D01*
X102274999Y-61446847D01*
X102275012Y-61446858D01*
X102676147Y-61763087D01*
X102676148Y-61763087D01*
X102676154Y-61763092D01*
X103100877Y-62046883D01*
X103546558Y-62296476D01*
X104010447Y-62510332D01*
X104010450Y-62510333D01*
X104489679Y-62687130D01*
X104489680Y-62687130D01*
X104489685Y-62687132D01*
X104981317Y-62825787D01*
X105482313Y-62925441D01*
X105760677Y-62958387D01*
X105989572Y-62985480D01*
X105989577Y-62985480D01*
X105989583Y-62985481D01*
X106159722Y-62992165D01*
X106499990Y-63005535D01*
X106500000Y-63005535D01*
X106500010Y-63005535D01*
X106819010Y-62993001D01*
X107010417Y-62985481D01*
X107010423Y-62985480D01*
X107010427Y-62985480D01*
X107149599Y-62969007D01*
X107517687Y-62925441D01*
X108018683Y-62825787D01*
X108510315Y-62687132D01*
X108989553Y-62510332D01*
X109453442Y-62296476D01*
X109899123Y-62046883D01*
X110323846Y-61763092D01*
X110724995Y-61446852D01*
X111100094Y-61100113D01*
X111446833Y-60725014D01*
X111763073Y-60323865D01*
X112046864Y-59899142D01*
X112296457Y-59453461D01*
X112510313Y-58989572D01*
X112687113Y-58510334D01*
X112825768Y-58018702D01*
X112925422Y-57517706D01*
X112985462Y-57010436D01*
X112985872Y-56999994D01*
X130939443Y-56999994D01*
X130939443Y-57000005D01*
X130959634Y-57243683D01*
X130959636Y-57243695D01*
X131019663Y-57480734D01*
X131117888Y-57704666D01*
X131251632Y-57909378D01*
X131417242Y-58089277D01*
X131417252Y-58089286D01*
X131610208Y-58239470D01*
X131610212Y-58239473D01*
X131782197Y-58332547D01*
X131825267Y-58355855D01*
X131825270Y-58355856D01*
X132056541Y-58435251D01*
X132056543Y-58435251D01*
X132056545Y-58435252D01*
X132297737Y-58475500D01*
X132297738Y-58475500D01*
X132542262Y-58475500D01*
X132542263Y-58475500D01*
X132783455Y-58435252D01*
X133014733Y-58355855D01*
X133229788Y-58239473D01*
X133422754Y-58089281D01*
X133588368Y-57909377D01*
X133722111Y-57704667D01*
X133820336Y-57480736D01*
X133880364Y-57243692D01*
X133895058Y-57066362D01*
X133900557Y-57000005D01*
X133900557Y-56999994D01*
X136019443Y-56999994D01*
X136019443Y-57000005D01*
X136039634Y-57243683D01*
X136039636Y-57243695D01*
X136099663Y-57480734D01*
X136197888Y-57704666D01*
X136331632Y-57909378D01*
X136497242Y-58089277D01*
X136497252Y-58089286D01*
X136690208Y-58239470D01*
X136690212Y-58239473D01*
X136862197Y-58332547D01*
X136905267Y-58355855D01*
X136905270Y-58355856D01*
X137136541Y-58435251D01*
X137136543Y-58435251D01*
X137136545Y-58435252D01*
X137377737Y-58475500D01*
X137377738Y-58475500D01*
X137622262Y-58475500D01*
X137622263Y-58475500D01*
X137863455Y-58435252D01*
X138094733Y-58355855D01*
X138309788Y-58239473D01*
X138502754Y-58089281D01*
X138668368Y-57909377D01*
X138802111Y-57704667D01*
X138900336Y-57480736D01*
X138960364Y-57243692D01*
X138975058Y-57066362D01*
X138980557Y-57000005D01*
X138980557Y-56999994D01*
X138960365Y-56756316D01*
X138960363Y-56756304D01*
X138900336Y-56519265D01*
X138891898Y-56500029D01*
X138802111Y-56295333D01*
X138701275Y-56140991D01*
X138668367Y-56090621D01*
X138563895Y-55977135D01*
X141104500Y-55977135D01*
X141104500Y-58022870D01*
X141104501Y-58022876D01*
X141110908Y-58082483D01*
X141161202Y-58217328D01*
X141161206Y-58217335D01*
X141247452Y-58332544D01*
X141247455Y-58332547D01*
X141362664Y-58418793D01*
X141362671Y-58418797D01*
X141497517Y-58469091D01*
X141497516Y-58469091D01*
X141504444Y-58469835D01*
X141557127Y-58475500D01*
X143602872Y-58475499D01*
X143662483Y-58469091D01*
X143797331Y-58418796D01*
X143912546Y-58332546D01*
X143998796Y-58217331D01*
X144049091Y-58082483D01*
X144055500Y-58022873D01*
X144055499Y-55977128D01*
X144049091Y-55917517D01*
X144046553Y-55910713D01*
X143998797Y-55782671D01*
X143998793Y-55782664D01*
X143912547Y-55667455D01*
X143912544Y-55667452D01*
X143797335Y-55581206D01*
X143797328Y-55581202D01*
X143662482Y-55530908D01*
X143662483Y-55530908D01*
X143602883Y-55524501D01*
X143602881Y-55524500D01*
X143602873Y-55524500D01*
X143602864Y-55524500D01*
X141557129Y-55524500D01*
X141557123Y-55524501D01*
X141497516Y-55530908D01*
X141362671Y-55581202D01*
X141362664Y-55581206D01*
X141247455Y-55667452D01*
X141247452Y-55667455D01*
X141161206Y-55782664D01*
X141161202Y-55782671D01*
X141110908Y-55917517D01*
X141104501Y-55977116D01*
X141104501Y-55977123D01*
X141104500Y-55977135D01*
X138563895Y-55977135D01*
X138502757Y-55910722D01*
X138502747Y-55910713D01*
X138309791Y-55760529D01*
X138309787Y-55760526D01*
X138094734Y-55644145D01*
X138094729Y-55644143D01*
X137863458Y-55564748D01*
X137660664Y-55530908D01*
X137622263Y-55524500D01*
X137377737Y-55524500D01*
X137339336Y-55530908D01*
X137136541Y-55564748D01*
X136905270Y-55644143D01*
X136905265Y-55644145D01*
X136690212Y-55760526D01*
X136690208Y-55760529D01*
X136497252Y-55910713D01*
X136497242Y-55910722D01*
X136331632Y-56090621D01*
X136197888Y-56295333D01*
X136099663Y-56519265D01*
X136039636Y-56756304D01*
X136039634Y-56756316D01*
X136019443Y-56999994D01*
X133900557Y-56999994D01*
X133880365Y-56756316D01*
X133880363Y-56756304D01*
X133820336Y-56519265D01*
X133811898Y-56500029D01*
X133722111Y-56295333D01*
X133621275Y-56140991D01*
X133588367Y-56090621D01*
X133422757Y-55910722D01*
X133422747Y-55910713D01*
X133229791Y-55760529D01*
X133229787Y-55760526D01*
X133014734Y-55644145D01*
X133014729Y-55644143D01*
X132783458Y-55564748D01*
X132580664Y-55530908D01*
X132542263Y-55524500D01*
X132297737Y-55524500D01*
X132259336Y-55530908D01*
X132056541Y-55564748D01*
X131825270Y-55644143D01*
X131825265Y-55644145D01*
X131610212Y-55760526D01*
X131610208Y-55760529D01*
X131417252Y-55910713D01*
X131417242Y-55910722D01*
X131251632Y-56090621D01*
X131117888Y-56295333D01*
X131019663Y-56519265D01*
X130959636Y-56756304D01*
X130959634Y-56756316D01*
X130939443Y-56999994D01*
X112985872Y-56999994D01*
X112997966Y-56692187D01*
X113005516Y-56500029D01*
X113005516Y-56500008D01*
X112985462Y-55989607D01*
X112985461Y-55989591D01*
X112944574Y-55644143D01*
X112925422Y-55482332D01*
X112825768Y-54981336D01*
X112687113Y-54489704D01*
X112510313Y-54010466D01*
X112296457Y-53546577D01*
X112046864Y-53100896D01*
X111979447Y-52999999D01*
X114395287Y-52999999D01*
X114395287Y-53000000D01*
X114414096Y-53202989D01*
X114414097Y-53202992D01*
X114469883Y-53399063D01*
X114469886Y-53399069D01*
X114560751Y-53581551D01*
X114562533Y-53583911D01*
X115100000Y-53046445D01*
X115100000Y-53052661D01*
X115127259Y-53154394D01*
X115179920Y-53245606D01*
X115254394Y-53320080D01*
X115345606Y-53372741D01*
X115447339Y-53400000D01*
X115453553Y-53400000D01*
X114919311Y-53934240D01*
X115007585Y-53988897D01*
X115197678Y-54062539D01*
X115398072Y-54100000D01*
X115601928Y-54100000D01*
X115802322Y-54062539D01*
X115992412Y-53988899D01*
X115992416Y-53988897D01*
X116080686Y-53934241D01*
X116080686Y-53934240D01*
X115546448Y-53400000D01*
X115552661Y-53400000D01*
X115654394Y-53372741D01*
X115745606Y-53320080D01*
X115820080Y-53245606D01*
X115872741Y-53154394D01*
X115900000Y-53052661D01*
X115900000Y-53046447D01*
X116437465Y-53583912D01*
X116439247Y-53581553D01*
X116439248Y-53581551D01*
X116530113Y-53399069D01*
X116530116Y-53399063D01*
X116585902Y-53202992D01*
X116585903Y-53202989D01*
X116604713Y-53000000D01*
X116604713Y-52999999D01*
X116585903Y-52797010D01*
X116585902Y-52797007D01*
X116530116Y-52600936D01*
X116530113Y-52600930D01*
X116439249Y-52418449D01*
X116439247Y-52418447D01*
X116437465Y-52416087D01*
X115900000Y-52953552D01*
X115900000Y-52947339D01*
X115872741Y-52845606D01*
X115820080Y-52754394D01*
X115745606Y-52679920D01*
X115654394Y-52627259D01*
X115552661Y-52600000D01*
X115546447Y-52600000D01*
X116080687Y-52065758D01*
X115992413Y-52011101D01*
X115992411Y-52011100D01*
X115802321Y-51937460D01*
X115601928Y-51900000D01*
X115398072Y-51900000D01*
X115197678Y-51937460D01*
X115007588Y-52011100D01*
X115007581Y-52011104D01*
X114919312Y-52065757D01*
X114919311Y-52065758D01*
X115453554Y-52600000D01*
X115447339Y-52600000D01*
X115345606Y-52627259D01*
X115254394Y-52679920D01*
X115179920Y-52754394D01*
X115127259Y-52845606D01*
X115100000Y-52947339D01*
X115100000Y-52953554D01*
X114562533Y-52416087D01*
X114560755Y-52418442D01*
X114560754Y-52418443D01*
X114469886Y-52600930D01*
X114469883Y-52600936D01*
X114414097Y-52797007D01*
X114414096Y-52797010D01*
X114395287Y-52999999D01*
X111979447Y-52999999D01*
X111763073Y-52676173D01*
X111763068Y-52676167D01*
X111763068Y-52676166D01*
X111446839Y-52275031D01*
X111446828Y-52275018D01*
X111253388Y-52065757D01*
X111100094Y-51899925D01*
X110875867Y-51692651D01*
X110725000Y-51553190D01*
X110724987Y-51553179D01*
X110323852Y-51236950D01*
X110323849Y-51236948D01*
X110323846Y-51236946D01*
X109899123Y-50953155D01*
X109505483Y-50732706D01*
X109456613Y-50682777D01*
X109442493Y-50614349D01*
X109467609Y-50549150D01*
X109523988Y-50507880D01*
X109566075Y-50500519D01*
X190433925Y-50500519D01*
X190500964Y-50520204D01*
G37*
%TD.AperFunction*%
%TD*%
%TA.AperFunction,Conductor*%
%TO.N,Net-(IC1-POS)*%
G36*
X163529495Y-56519685D02*
G01*
X163531239Y-56520826D01*
X164194784Y-56963189D01*
X164239644Y-57016753D01*
X164250000Y-57066362D01*
X164250000Y-59679792D01*
X164230315Y-59746831D01*
X164189797Y-59786121D01*
X163000001Y-60499998D01*
X157760785Y-77714561D01*
X157722434Y-77772965D01*
X157721540Y-77773716D01*
X156266847Y-78985960D01*
X156229359Y-79007409D01*
X136750000Y-85999999D01*
X136750000Y-86000000D01*
X136750000Y-89000000D01*
X152918204Y-89000000D01*
X152985243Y-89019685D01*
X153030998Y-89072489D01*
X153032195Y-89075193D01*
X155948982Y-95887425D01*
X160600000Y-106750000D01*
X167578678Y-122910625D01*
X167600000Y-122959999D01*
X167600000Y-122960000D01*
X171914738Y-120500000D01*
X178395052Y-120500000D01*
X178414812Y-120751072D01*
X178473603Y-120995956D01*
X178569980Y-121228631D01*
X178701568Y-121443362D01*
X178702266Y-121444179D01*
X179379824Y-120766622D01*
X179401823Y-120819732D01*
X179475693Y-120930287D01*
X179569713Y-121024307D01*
X179680268Y-121098177D01*
X179733376Y-121120175D01*
X179055819Y-121797732D01*
X179055819Y-121797733D01*
X179056634Y-121798429D01*
X179271368Y-121930019D01*
X179504043Y-122026396D01*
X179748927Y-122085187D01*
X180000000Y-122104947D01*
X180251072Y-122085187D01*
X180495956Y-122026396D01*
X180728631Y-121930019D01*
X180943361Y-121798432D01*
X180943363Y-121798430D01*
X180944180Y-121797732D01*
X180266622Y-121120175D01*
X180319732Y-121098177D01*
X180430287Y-121024307D01*
X180524307Y-120930287D01*
X180598177Y-120819732D01*
X180620175Y-120766622D01*
X181297732Y-121444180D01*
X181298430Y-121443363D01*
X181298432Y-121443361D01*
X181430019Y-121228631D01*
X181526396Y-120995956D01*
X181585187Y-120751072D01*
X181604947Y-120500000D01*
X181585187Y-120248927D01*
X181526396Y-120004043D01*
X181430019Y-119771368D01*
X181298429Y-119556634D01*
X181297733Y-119555819D01*
X181297732Y-119555819D01*
X180620175Y-120233376D01*
X180598177Y-120180268D01*
X180524307Y-120069713D01*
X180430287Y-119975693D01*
X180319732Y-119901823D01*
X180266622Y-119879824D01*
X180944179Y-119202266D01*
X180943362Y-119201568D01*
X180728631Y-119069980D01*
X180495956Y-118973603D01*
X180251072Y-118914812D01*
X180000000Y-118895052D01*
X179748927Y-118914812D01*
X179504043Y-118973603D01*
X179271368Y-119069980D01*
X179056637Y-119201567D01*
X179055819Y-119202266D01*
X179733377Y-119879824D01*
X179680268Y-119901823D01*
X179569713Y-119975693D01*
X179475693Y-120069713D01*
X179401823Y-120180268D01*
X179379824Y-120233377D01*
X178702266Y-119555819D01*
X178701567Y-119556637D01*
X178569980Y-119771368D01*
X178473603Y-120004043D01*
X178414812Y-120248927D01*
X178395052Y-120500000D01*
X171914738Y-120500000D01*
X181814586Y-114855711D01*
X181882572Y-114839608D01*
X181948474Y-114862818D01*
X181991366Y-114917973D01*
X182000000Y-114963434D01*
X182000000Y-122910625D01*
X181980315Y-122977664D01*
X181927511Y-123023419D01*
X181915212Y-123028262D01*
X180519089Y-123493637D01*
X180479877Y-123500000D01*
X178000000Y-123500000D01*
X174147684Y-124912516D01*
X170499997Y-126250001D01*
X169533067Y-126975200D01*
X169467625Y-126999676D01*
X169458667Y-127000000D01*
X167284345Y-127000000D01*
X167220548Y-126982329D01*
X167208667Y-126975200D01*
X166026992Y-126266195D01*
X165984001Y-126222891D01*
X165557376Y-125499999D01*
X167390266Y-125499999D01*
X167390266Y-125500000D01*
X167409160Y-125703912D01*
X167465203Y-125900879D01*
X167465210Y-125900897D01*
X167556482Y-126084196D01*
X167558963Y-126087481D01*
X167558965Y-126087482D01*
X168145000Y-125501447D01*
X168145000Y-125546737D01*
X168169193Y-125637025D01*
X168215930Y-125717975D01*
X168282025Y-125784070D01*
X168362975Y-125830807D01*
X168453263Y-125855000D01*
X168498553Y-125855000D01*
X167915679Y-126437871D01*
X168005347Y-126493392D01*
X168005349Y-126493393D01*
X168196299Y-126567367D01*
X168196309Y-126567370D01*
X168397610Y-126605000D01*
X168602390Y-126605000D01*
X168803690Y-126567370D01*
X168803700Y-126567367D01*
X168994650Y-126493393D01*
X168994654Y-126493391D01*
X169084318Y-126437872D01*
X169084318Y-126437871D01*
X168501448Y-125855000D01*
X168546737Y-125855000D01*
X168637025Y-125830807D01*
X168717975Y-125784070D01*
X168784070Y-125717975D01*
X168830807Y-125637025D01*
X168855000Y-125546737D01*
X168855000Y-125501447D01*
X169441034Y-126087482D01*
X169441035Y-126087481D01*
X169443516Y-126084199D01*
X169534789Y-125900897D01*
X169534796Y-125900879D01*
X169590839Y-125703912D01*
X169609734Y-125500000D01*
X169609734Y-125499999D01*
X169590839Y-125296087D01*
X169534796Y-125099120D01*
X169534789Y-125099102D01*
X169443517Y-124915803D01*
X169441034Y-124912517D01*
X168855000Y-125498551D01*
X168855000Y-125453263D01*
X168830807Y-125362975D01*
X168784070Y-125282025D01*
X168717975Y-125215930D01*
X168637025Y-125169193D01*
X168546737Y-125145000D01*
X168501448Y-125145000D01*
X169084319Y-124562127D01*
X168994648Y-124506606D01*
X168803691Y-124432629D01*
X168602390Y-124395000D01*
X168397610Y-124395000D01*
X168196309Y-124432629D01*
X168196308Y-124432629D01*
X168005351Y-124506606D01*
X168005345Y-124506609D01*
X167915680Y-124562126D01*
X167915679Y-124562127D01*
X168498553Y-125145000D01*
X168453263Y-125145000D01*
X168362975Y-125169193D01*
X168282025Y-125215930D01*
X168215930Y-125282025D01*
X168169193Y-125362975D01*
X168145000Y-125453263D01*
X168145000Y-125498552D01*
X167558964Y-124912516D01*
X167556482Y-124915803D01*
X167465210Y-125099102D01*
X167465203Y-125099120D01*
X167409160Y-125296087D01*
X167390266Y-125499999D01*
X165557376Y-125499999D01*
X157001407Y-111002384D01*
X156998691Y-110997536D01*
X154742280Y-106750174D01*
X152750000Y-103000000D01*
X136750000Y-93000000D01*
X136749999Y-93000000D01*
X136286319Y-93463681D01*
X136224996Y-93497166D01*
X136198638Y-93500000D01*
X135705115Y-93500000D01*
X135692961Y-93499403D01*
X135500000Y-93480398D01*
X135307039Y-93499403D01*
X135294885Y-93500000D01*
X134576636Y-93500000D01*
X134509597Y-93480315D01*
X134465727Y-93431454D01*
X134250001Y-93000001D01*
X134250000Y-93000000D01*
X134249999Y-93000000D01*
X129249999Y-93000000D01*
X128786319Y-93463681D01*
X128724996Y-93497166D01*
X128698638Y-93500000D01*
X128085115Y-93500000D01*
X128072961Y-93499403D01*
X127880000Y-93480398D01*
X127687039Y-93499403D01*
X127674885Y-93500000D01*
X126787544Y-93500000D01*
X126720505Y-93480315D01*
X126718761Y-93479174D01*
X126055217Y-93036811D01*
X126010356Y-92983246D01*
X126000000Y-92933637D01*
X126000000Y-91398155D01*
X126826000Y-91398155D01*
X126826000Y-91750000D01*
X127629368Y-91750000D01*
X127596729Y-91782639D01*
X127550124Y-91863361D01*
X127526000Y-91953395D01*
X127526000Y-92046605D01*
X127550124Y-92136639D01*
X127596729Y-92217361D01*
X127629368Y-92250000D01*
X126826000Y-92250000D01*
X126826000Y-92601844D01*
X126832401Y-92661372D01*
X126832403Y-92661379D01*
X126882645Y-92796086D01*
X126882649Y-92796093D01*
X126968809Y-92911187D01*
X126968812Y-92911190D01*
X127083906Y-92997350D01*
X127083913Y-92997354D01*
X127218620Y-93047596D01*
X127218627Y-93047598D01*
X127278155Y-93053999D01*
X127278172Y-93054000D01*
X127630000Y-93054000D01*
X127630000Y-92250632D01*
X127662639Y-92283271D01*
X127743361Y-92329876D01*
X127833395Y-92354000D01*
X127926605Y-92354000D01*
X128016639Y-92329876D01*
X128097361Y-92283271D01*
X128130000Y-92250632D01*
X128130000Y-93054000D01*
X128481828Y-93054000D01*
X128481844Y-93053999D01*
X128541372Y-93047598D01*
X128541379Y-93047596D01*
X128676086Y-92997354D01*
X128676093Y-92997350D01*
X128791187Y-92911190D01*
X128791190Y-92911187D01*
X128877350Y-92796093D01*
X128877354Y-92796086D01*
X128927596Y-92661379D01*
X128927598Y-92661372D01*
X128933999Y-92601844D01*
X128934000Y-92601827D01*
X128934000Y-92250000D01*
X128130632Y-92250000D01*
X128163271Y-92217361D01*
X128209876Y-92136639D01*
X128234000Y-92046605D01*
X128234000Y-92000000D01*
X134440900Y-92000000D01*
X134461249Y-92206618D01*
X134521520Y-92405302D01*
X134598021Y-92548424D01*
X135146000Y-92000445D01*
X135146000Y-92046605D01*
X135170124Y-92136639D01*
X135216729Y-92217361D01*
X135282639Y-92283271D01*
X135363361Y-92329876D01*
X135453395Y-92354000D01*
X135499553Y-92354000D01*
X134951574Y-92901978D01*
X135094697Y-92978479D01*
X135293381Y-93038750D01*
X135500000Y-93059099D01*
X135706618Y-93038750D01*
X135905304Y-92978479D01*
X136048424Y-92901978D01*
X136048424Y-92901977D01*
X135500448Y-92354000D01*
X135546605Y-92354000D01*
X135636639Y-92329876D01*
X135717361Y-92283271D01*
X135783271Y-92217361D01*
X135829876Y-92136639D01*
X135854000Y-92046605D01*
X135854000Y-92000447D01*
X136401977Y-92548424D01*
X136401978Y-92548424D01*
X136478479Y-92405304D01*
X136538750Y-92206618D01*
X136559099Y-92000000D01*
X136538750Y-91793381D01*
X136478479Y-91594697D01*
X136401978Y-91451574D01*
X135854000Y-91999552D01*
X135854000Y-91953395D01*
X135829876Y-91863361D01*
X135783271Y-91782639D01*
X135717361Y-91716729D01*
X135636639Y-91670124D01*
X135546605Y-91646000D01*
X135500447Y-91646000D01*
X136048424Y-91098021D01*
X135905302Y-91021520D01*
X135706618Y-90961249D01*
X135500000Y-90940900D01*
X135293381Y-90961249D01*
X135094695Y-91021520D01*
X134951574Y-91098020D01*
X135499554Y-91646000D01*
X135453395Y-91646000D01*
X135363361Y-91670124D01*
X135282639Y-91716729D01*
X135216729Y-91782639D01*
X135170124Y-91863361D01*
X135146000Y-91953395D01*
X135146000Y-91999554D01*
X134598020Y-91451574D01*
X134521520Y-91594695D01*
X134461249Y-91793381D01*
X134440900Y-92000000D01*
X128234000Y-92000000D01*
X128234000Y-91953395D01*
X128209876Y-91863361D01*
X128163271Y-91782639D01*
X128130632Y-91750000D01*
X128934000Y-91750000D01*
X128934000Y-91398172D01*
X128933999Y-91398155D01*
X128927598Y-91338627D01*
X128927596Y-91338620D01*
X128877354Y-91203913D01*
X128877350Y-91203906D01*
X128791190Y-91088812D01*
X128791187Y-91088809D01*
X128676093Y-91002649D01*
X128676086Y-91002645D01*
X128541379Y-90952403D01*
X128541372Y-90952401D01*
X128481844Y-90946000D01*
X128130000Y-90946000D01*
X128130000Y-91749368D01*
X128097361Y-91716729D01*
X128016639Y-91670124D01*
X127926605Y-91646000D01*
X127833395Y-91646000D01*
X127743361Y-91670124D01*
X127662639Y-91716729D01*
X127630000Y-91749368D01*
X127630000Y-90946000D01*
X127278155Y-90946000D01*
X127218627Y-90952401D01*
X127218620Y-90952403D01*
X127083913Y-91002645D01*
X127083906Y-91002649D01*
X126968812Y-91088809D01*
X126968809Y-91088812D01*
X126882649Y-91203906D01*
X126882645Y-91203913D01*
X126832403Y-91338620D01*
X126832401Y-91338627D01*
X126826000Y-91398155D01*
X126000000Y-91398155D01*
X126000000Y-91076636D01*
X126019685Y-91009597D01*
X126068546Y-90965727D01*
X126118200Y-90940900D01*
X127000000Y-90500000D01*
X127078947Y-87499999D01*
X128890266Y-87499999D01*
X128890266Y-87500000D01*
X128909160Y-87703912D01*
X128965203Y-87900879D01*
X128965210Y-87900897D01*
X129056482Y-88084196D01*
X129058963Y-88087481D01*
X129058965Y-88087482D01*
X129645000Y-87501447D01*
X129645000Y-87546737D01*
X129669193Y-87637025D01*
X129715930Y-87717975D01*
X129782025Y-87784070D01*
X129862975Y-87830807D01*
X129953263Y-87855000D01*
X129998553Y-87855000D01*
X129415679Y-88437871D01*
X129505347Y-88493392D01*
X129505349Y-88493393D01*
X129696299Y-88567367D01*
X129696309Y-88567370D01*
X129897610Y-88605000D01*
X130102390Y-88605000D01*
X130303690Y-88567370D01*
X130303700Y-88567367D01*
X130494650Y-88493393D01*
X130494654Y-88493391D01*
X130584318Y-88437872D01*
X130584318Y-88437871D01*
X130001448Y-87855000D01*
X130046737Y-87855000D01*
X130137025Y-87830807D01*
X130217975Y-87784070D01*
X130284070Y-87717975D01*
X130330807Y-87637025D01*
X130355000Y-87546737D01*
X130355000Y-87501447D01*
X130941034Y-88087482D01*
X130941035Y-88087481D01*
X130943516Y-88084199D01*
X131034789Y-87900897D01*
X131034796Y-87900879D01*
X131090839Y-87703912D01*
X131109734Y-87500000D01*
X131109734Y-87499999D01*
X131850266Y-87499999D01*
X131850266Y-87500000D01*
X131869160Y-87703912D01*
X131925203Y-87900879D01*
X131925210Y-87900897D01*
X132016482Y-88084196D01*
X132018963Y-88087481D01*
X132018965Y-88087482D01*
X132605000Y-87501447D01*
X132605000Y-87546737D01*
X132629193Y-87637025D01*
X132675930Y-87717975D01*
X132742025Y-87784070D01*
X132822975Y-87830807D01*
X132913263Y-87855000D01*
X132958553Y-87855000D01*
X132375679Y-88437871D01*
X132465347Y-88493392D01*
X132465349Y-88493393D01*
X132656299Y-88567367D01*
X132656309Y-88567370D01*
X132857610Y-88605000D01*
X133062390Y-88605000D01*
X133263690Y-88567370D01*
X133263700Y-88567367D01*
X133454650Y-88493393D01*
X133454654Y-88493391D01*
X133544318Y-88437872D01*
X133544318Y-88437871D01*
X132961448Y-87855000D01*
X133006737Y-87855000D01*
X133097025Y-87830807D01*
X133177975Y-87784070D01*
X133244070Y-87717975D01*
X133290807Y-87637025D01*
X133315000Y-87546737D01*
X133315000Y-87501447D01*
X133901034Y-88087482D01*
X133901035Y-88087481D01*
X133903516Y-88084199D01*
X133994789Y-87900897D01*
X133994796Y-87900879D01*
X134050839Y-87703912D01*
X134069734Y-87500000D01*
X134069734Y-87499999D01*
X134050839Y-87296087D01*
X133994796Y-87099120D01*
X133994789Y-87099102D01*
X133903517Y-86915803D01*
X133901034Y-86912517D01*
X133315000Y-87498551D01*
X133315000Y-87453263D01*
X133290807Y-87362975D01*
X133244070Y-87282025D01*
X133177975Y-87215930D01*
X133097025Y-87169193D01*
X133006737Y-87145000D01*
X132961448Y-87145000D01*
X133544319Y-86562127D01*
X133454648Y-86506606D01*
X133263691Y-86432629D01*
X133062390Y-86395000D01*
X132857610Y-86395000D01*
X132656309Y-86432629D01*
X132656308Y-86432629D01*
X132465351Y-86506606D01*
X132465345Y-86506609D01*
X132375680Y-86562126D01*
X132375679Y-86562127D01*
X132958553Y-87145000D01*
X132913263Y-87145000D01*
X132822975Y-87169193D01*
X132742025Y-87215930D01*
X132675930Y-87282025D01*
X132629193Y-87362975D01*
X132605000Y-87453263D01*
X132605000Y-87498552D01*
X132018964Y-86912516D01*
X132016482Y-86915803D01*
X131925210Y-87099102D01*
X131925203Y-87099120D01*
X131869160Y-87296087D01*
X131850266Y-87499999D01*
X131109734Y-87499999D01*
X131090839Y-87296087D01*
X131034796Y-87099120D01*
X131034789Y-87099102D01*
X130943517Y-86915803D01*
X130941034Y-86912517D01*
X130355000Y-87498551D01*
X130355000Y-87453263D01*
X130330807Y-87362975D01*
X130284070Y-87282025D01*
X130217975Y-87215930D01*
X130137025Y-87169193D01*
X130046737Y-87145000D01*
X130001448Y-87145000D01*
X130584319Y-86562127D01*
X130494648Y-86506606D01*
X130303691Y-86432629D01*
X130102390Y-86395000D01*
X129897610Y-86395000D01*
X129696309Y-86432629D01*
X129696308Y-86432629D01*
X129505351Y-86506606D01*
X129505345Y-86506609D01*
X129415680Y-86562126D01*
X129415679Y-86562127D01*
X129998553Y-87145000D01*
X129953263Y-87145000D01*
X129862975Y-87169193D01*
X129782025Y-87215930D01*
X129715930Y-87282025D01*
X129669193Y-87362975D01*
X129645000Y-87453263D01*
X129645000Y-87498552D01*
X129058964Y-86912516D01*
X129056482Y-86915803D01*
X128965210Y-87099102D01*
X128965203Y-87099120D01*
X128909160Y-87296087D01*
X128890266Y-87499999D01*
X127078947Y-87499999D01*
X127247619Y-81090440D01*
X127269060Y-81023946D01*
X127323050Y-80979596D01*
X127336840Y-80974671D01*
X133250000Y-79250000D01*
X136014286Y-77000000D01*
X153895052Y-77000000D01*
X153914812Y-77251072D01*
X153973603Y-77495956D01*
X154069980Y-77728631D01*
X154201568Y-77943362D01*
X154202266Y-77944179D01*
X154879824Y-77266622D01*
X154901823Y-77319732D01*
X154975693Y-77430287D01*
X155069713Y-77524307D01*
X155180268Y-77598177D01*
X155233376Y-77620175D01*
X154555819Y-78297732D01*
X154555819Y-78297733D01*
X154556634Y-78298429D01*
X154771368Y-78430019D01*
X155004043Y-78526396D01*
X155248927Y-78585187D01*
X155500000Y-78604947D01*
X155751072Y-78585187D01*
X155995956Y-78526396D01*
X156228631Y-78430019D01*
X156443361Y-78298432D01*
X156443363Y-78298430D01*
X156444180Y-78297732D01*
X155766622Y-77620175D01*
X155819732Y-77598177D01*
X155930287Y-77524307D01*
X156024307Y-77430287D01*
X156098177Y-77319732D01*
X156120175Y-77266623D01*
X156797732Y-77944180D01*
X156798430Y-77943363D01*
X156798432Y-77943361D01*
X156930019Y-77728631D01*
X157026396Y-77495956D01*
X157085187Y-77251072D01*
X157104947Y-77000000D01*
X157085187Y-76748927D01*
X157026396Y-76504043D01*
X156930019Y-76271368D01*
X156798429Y-76056634D01*
X156797733Y-76055819D01*
X156797732Y-76055819D01*
X156120175Y-76733376D01*
X156098177Y-76680268D01*
X156024307Y-76569713D01*
X155930287Y-76475693D01*
X155819732Y-76401823D01*
X155766622Y-76379824D01*
X156444179Y-75702266D01*
X156443362Y-75701568D01*
X156228631Y-75569980D01*
X155995956Y-75473603D01*
X155751072Y-75414812D01*
X155500000Y-75395052D01*
X155248927Y-75414812D01*
X155004043Y-75473603D01*
X154771368Y-75569980D01*
X154556637Y-75701567D01*
X154555819Y-75702266D01*
X155233377Y-76379824D01*
X155180268Y-76401823D01*
X155069713Y-76475693D01*
X154975693Y-76569713D01*
X154901823Y-76680268D01*
X154879824Y-76733377D01*
X154202266Y-76055819D01*
X154201567Y-76056637D01*
X154069980Y-76271368D01*
X153973603Y-76504043D01*
X153914812Y-76748927D01*
X153895052Y-77000000D01*
X136014286Y-77000000D01*
X144000000Y-70500000D01*
X148785715Y-66499999D01*
X149890266Y-66499999D01*
X149890266Y-66500000D01*
X149909160Y-66703912D01*
X149965203Y-66900879D01*
X149965210Y-66900897D01*
X150056482Y-67084196D01*
X150058963Y-67087481D01*
X150058965Y-67087482D01*
X150645000Y-66501447D01*
X150645000Y-66546737D01*
X150669193Y-66637025D01*
X150715930Y-66717975D01*
X150782025Y-66784070D01*
X150862975Y-66830807D01*
X150953263Y-66855000D01*
X150998553Y-66855000D01*
X150415679Y-67437871D01*
X150505347Y-67493392D01*
X150505349Y-67493393D01*
X150696299Y-67567367D01*
X150696309Y-67567370D01*
X150897610Y-67605000D01*
X151102390Y-67605000D01*
X151303690Y-67567370D01*
X151303700Y-67567367D01*
X151494650Y-67493393D01*
X151494654Y-67493391D01*
X151584318Y-67437872D01*
X151584318Y-67437871D01*
X151001448Y-66855000D01*
X151046737Y-66855000D01*
X151137025Y-66830807D01*
X151217975Y-66784070D01*
X151284070Y-66717975D01*
X151330807Y-66637025D01*
X151355000Y-66546737D01*
X151355000Y-66501447D01*
X151941034Y-67087482D01*
X151941035Y-67087481D01*
X151943516Y-67084199D01*
X152034789Y-66900897D01*
X152034796Y-66900879D01*
X152090839Y-66703912D01*
X152109734Y-66500000D01*
X152109734Y-66499999D01*
X152090839Y-66296087D01*
X152034796Y-66099120D01*
X152034789Y-66099102D01*
X151943517Y-65915803D01*
X151941034Y-65912517D01*
X151355000Y-66498551D01*
X151355000Y-66453263D01*
X151330807Y-66362975D01*
X151284070Y-66282025D01*
X151217975Y-66215930D01*
X151137025Y-66169193D01*
X151046737Y-66145000D01*
X151001448Y-66145000D01*
X151584319Y-65562127D01*
X151494648Y-65506606D01*
X151303691Y-65432629D01*
X151102390Y-65395000D01*
X150897610Y-65395000D01*
X150696309Y-65432629D01*
X150696308Y-65432629D01*
X150505351Y-65506606D01*
X150505345Y-65506609D01*
X150415680Y-65562126D01*
X150415679Y-65562127D01*
X150998553Y-66145000D01*
X150953263Y-66145000D01*
X150862975Y-66169193D01*
X150782025Y-66215930D01*
X150715930Y-66282025D01*
X150669193Y-66362975D01*
X150645000Y-66453263D01*
X150645000Y-66498552D01*
X150058964Y-65912516D01*
X150056482Y-65915803D01*
X149965210Y-66099102D01*
X149965203Y-66099120D01*
X149909160Y-66296087D01*
X149890266Y-66499999D01*
X148785715Y-66499999D01*
X159341618Y-57677155D01*
X160445000Y-57677155D01*
X160445000Y-58450000D01*
X161319999Y-58450000D01*
X161294979Y-58510402D01*
X161270000Y-58635981D01*
X161270000Y-58764019D01*
X161294979Y-58889598D01*
X161319999Y-58950000D01*
X160445000Y-58950000D01*
X160445000Y-59722844D01*
X160451401Y-59782372D01*
X160451403Y-59782379D01*
X160501645Y-59917086D01*
X160501649Y-59917093D01*
X160587809Y-60032187D01*
X160587812Y-60032190D01*
X160702906Y-60118350D01*
X160702913Y-60118354D01*
X160837620Y-60168596D01*
X160837627Y-60168598D01*
X160897155Y-60174999D01*
X160897172Y-60175000D01*
X161670000Y-60175000D01*
X161670000Y-59300001D01*
X161730402Y-59325021D01*
X161855981Y-59350000D01*
X161984019Y-59350000D01*
X162109598Y-59325021D01*
X162170000Y-59300001D01*
X162170000Y-60175000D01*
X162942828Y-60175000D01*
X162942844Y-60174999D01*
X163002372Y-60168598D01*
X163002379Y-60168596D01*
X163137086Y-60118354D01*
X163137093Y-60118350D01*
X163252187Y-60032190D01*
X163252190Y-60032187D01*
X163338350Y-59917093D01*
X163338354Y-59917086D01*
X163388596Y-59782379D01*
X163388598Y-59782372D01*
X163394999Y-59722844D01*
X163395000Y-59722827D01*
X163395000Y-58950000D01*
X162520001Y-58950000D01*
X162545021Y-58889598D01*
X162570000Y-58764019D01*
X162570000Y-58635981D01*
X162545021Y-58510402D01*
X162520001Y-58450000D01*
X163395000Y-58450000D01*
X163395000Y-57677172D01*
X163394999Y-57677155D01*
X163388598Y-57617627D01*
X163388596Y-57617620D01*
X163338354Y-57482913D01*
X163338350Y-57482906D01*
X163252190Y-57367812D01*
X163252187Y-57367809D01*
X163137093Y-57281649D01*
X163137086Y-57281645D01*
X163002379Y-57231403D01*
X163002372Y-57231401D01*
X162942844Y-57225000D01*
X162170000Y-57225000D01*
X162170000Y-58099998D01*
X162109598Y-58074979D01*
X161984019Y-58050000D01*
X161855981Y-58050000D01*
X161730402Y-58074979D01*
X161670000Y-58099998D01*
X161670000Y-57225000D01*
X160897155Y-57225000D01*
X160837627Y-57231401D01*
X160837620Y-57231403D01*
X160702913Y-57281645D01*
X160702906Y-57281649D01*
X160587812Y-57367809D01*
X160587809Y-57367812D01*
X160501649Y-57482906D01*
X160501645Y-57482913D01*
X160451403Y-57617620D01*
X160451401Y-57617627D01*
X160445000Y-57677155D01*
X159341618Y-57677155D01*
X159874931Y-57231401D01*
X160715475Y-56528857D01*
X160779537Y-56500968D01*
X160794997Y-56500000D01*
X163462456Y-56500000D01*
X163529495Y-56519685D01*
G37*
%TD.AperFunction*%
%TD*%
M02*
