%TF.GenerationSoftware,KiCad,Pcbnew,8.0.2-8.0.2-0~ubuntu22.04.1*%
%TF.CreationDate,2024-05-18T21:09:40+02:00*%
%TF.ProjectId,dc-to-dc-buck-converter,64632d74-6f2d-4646-932d-6275636b2d63,rev?*%
%TF.SameCoordinates,Original*%
%TF.FileFunction,Legend,Top*%
%TF.FilePolarity,Positive*%
%FSLAX46Y46*%
G04 Gerber Fmt 4.6, Leading zero omitted, Abs format (unit mm)*
G04 Created by KiCad (PCBNEW 8.0.2-8.0.2-0~ubuntu22.04.1) date 2024-05-18 21:09:40*
%MOMM*%
%LPD*%
G01*
G04 APERTURE LIST*
%ADD10C,0.300000*%
%ADD11C,0.254000*%
%ADD12C,0.150000*%
%ADD13C,0.100000*%
%ADD14C,0.200000*%
G04 APERTURE END LIST*
D10*
X188930282Y-105516917D02*
X188787425Y-105802632D01*
X188787425Y-105802632D02*
X188787425Y-106231203D01*
X188787425Y-106231203D02*
X188930282Y-106659774D01*
X188930282Y-106659774D02*
X189215996Y-106945489D01*
X189215996Y-106945489D02*
X189501710Y-107088346D01*
X189501710Y-107088346D02*
X190073139Y-107231203D01*
X190073139Y-107231203D02*
X190501710Y-107231203D01*
X190501710Y-107231203D02*
X191073139Y-107088346D01*
X191073139Y-107088346D02*
X191358853Y-106945489D01*
X191358853Y-106945489D02*
X191644568Y-106659774D01*
X191644568Y-106659774D02*
X191787425Y-106231203D01*
X191787425Y-106231203D02*
X191787425Y-105945489D01*
X191787425Y-105945489D02*
X191644568Y-105516917D01*
X191644568Y-105516917D02*
X191501710Y-105374060D01*
X191501710Y-105374060D02*
X190501710Y-105374060D01*
X190501710Y-105374060D02*
X190501710Y-105945489D01*
X191787425Y-104088346D02*
X189787425Y-104088346D01*
X190358853Y-104088346D02*
X190073139Y-103945489D01*
X190073139Y-103945489D02*
X189930282Y-103802632D01*
X189930282Y-103802632D02*
X189787425Y-103516917D01*
X189787425Y-103516917D02*
X189787425Y-103231203D01*
X191787425Y-101802631D02*
X191644568Y-102088346D01*
X191644568Y-102088346D02*
X191501710Y-102231203D01*
X191501710Y-102231203D02*
X191215996Y-102374060D01*
X191215996Y-102374060D02*
X190358853Y-102374060D01*
X190358853Y-102374060D02*
X190073139Y-102231203D01*
X190073139Y-102231203D02*
X189930282Y-102088346D01*
X189930282Y-102088346D02*
X189787425Y-101802631D01*
X189787425Y-101802631D02*
X189787425Y-101374060D01*
X189787425Y-101374060D02*
X189930282Y-101088346D01*
X189930282Y-101088346D02*
X190073139Y-100945489D01*
X190073139Y-100945489D02*
X190358853Y-100802631D01*
X190358853Y-100802631D02*
X191215996Y-100802631D01*
X191215996Y-100802631D02*
X191501710Y-100945489D01*
X191501710Y-100945489D02*
X191644568Y-101088346D01*
X191644568Y-101088346D02*
X191787425Y-101374060D01*
X191787425Y-101374060D02*
X191787425Y-101802631D01*
X189787425Y-98231203D02*
X191787425Y-98231203D01*
X189787425Y-99516917D02*
X191358853Y-99516917D01*
X191358853Y-99516917D02*
X191644568Y-99374060D01*
X191644568Y-99374060D02*
X191787425Y-99088345D01*
X191787425Y-99088345D02*
X191787425Y-98659774D01*
X191787425Y-98659774D02*
X191644568Y-98374060D01*
X191644568Y-98374060D02*
X191501710Y-98231203D01*
X189787425Y-96802631D02*
X192787425Y-96802631D01*
X189930282Y-96802631D02*
X189787425Y-96516917D01*
X189787425Y-96516917D02*
X189787425Y-95945488D01*
X189787425Y-95945488D02*
X189930282Y-95659774D01*
X189930282Y-95659774D02*
X190073139Y-95516917D01*
X190073139Y-95516917D02*
X190358853Y-95374059D01*
X190358853Y-95374059D02*
X191215996Y-95374059D01*
X191215996Y-95374059D02*
X191501710Y-95516917D01*
X191501710Y-95516917D02*
X191644568Y-95659774D01*
X191644568Y-95659774D02*
X191787425Y-95945488D01*
X191787425Y-95945488D02*
X191787425Y-96516917D01*
X191787425Y-96516917D02*
X191644568Y-96802631D01*
X191787425Y-90231202D02*
X191787425Y-91945488D01*
X191787425Y-91088345D02*
X188787425Y-91088345D01*
X188787425Y-91088345D02*
X189215996Y-91374059D01*
X189215996Y-91374059D02*
X189501710Y-91659774D01*
X189501710Y-91659774D02*
X189644568Y-91945488D01*
X188787425Y-88374059D02*
X188787425Y-88088345D01*
X188787425Y-88088345D02*
X188930282Y-87802631D01*
X188930282Y-87802631D02*
X189073139Y-87659774D01*
X189073139Y-87659774D02*
X189358853Y-87516916D01*
X189358853Y-87516916D02*
X189930282Y-87374059D01*
X189930282Y-87374059D02*
X190644568Y-87374059D01*
X190644568Y-87374059D02*
X191215996Y-87516916D01*
X191215996Y-87516916D02*
X191501710Y-87659774D01*
X191501710Y-87659774D02*
X191644568Y-87802631D01*
X191644568Y-87802631D02*
X191787425Y-88088345D01*
X191787425Y-88088345D02*
X191787425Y-88374059D01*
X191787425Y-88374059D02*
X191644568Y-88659774D01*
X191644568Y-88659774D02*
X191501710Y-88802631D01*
X191501710Y-88802631D02*
X191215996Y-88945488D01*
X191215996Y-88945488D02*
X190644568Y-89088345D01*
X190644568Y-89088345D02*
X189930282Y-89088345D01*
X189930282Y-89088345D02*
X189358853Y-88945488D01*
X189358853Y-88945488D02*
X189073139Y-88802631D01*
X189073139Y-88802631D02*
X188930282Y-88659774D01*
X188930282Y-88659774D02*
X188787425Y-88374059D01*
X193617257Y-107374060D02*
X196617257Y-106659774D01*
X196617257Y-106659774D02*
X194474400Y-106088346D01*
X194474400Y-106088346D02*
X196617257Y-105516917D01*
X196617257Y-105516917D02*
X193617257Y-104802632D01*
X196617257Y-103659775D02*
X194617257Y-103659775D01*
X193617257Y-103659775D02*
X193760114Y-103802632D01*
X193760114Y-103802632D02*
X193902971Y-103659775D01*
X193902971Y-103659775D02*
X193760114Y-103516918D01*
X193760114Y-103516918D02*
X193617257Y-103659775D01*
X193617257Y-103659775D02*
X193902971Y-103659775D01*
X196617257Y-102231204D02*
X194617257Y-102231204D01*
X195188685Y-102231204D02*
X194902971Y-102088347D01*
X194902971Y-102088347D02*
X194760114Y-101945490D01*
X194760114Y-101945490D02*
X194617257Y-101659775D01*
X194617257Y-101659775D02*
X194617257Y-101374061D01*
X196474400Y-99231204D02*
X196617257Y-99516918D01*
X196617257Y-99516918D02*
X196617257Y-100088347D01*
X196617257Y-100088347D02*
X196474400Y-100374061D01*
X196474400Y-100374061D02*
X196188685Y-100516918D01*
X196188685Y-100516918D02*
X195045828Y-100516918D01*
X195045828Y-100516918D02*
X194760114Y-100374061D01*
X194760114Y-100374061D02*
X194617257Y-100088347D01*
X194617257Y-100088347D02*
X194617257Y-99516918D01*
X194617257Y-99516918D02*
X194760114Y-99231204D01*
X194760114Y-99231204D02*
X195045828Y-99088347D01*
X195045828Y-99088347D02*
X195331542Y-99088347D01*
X195331542Y-99088347D02*
X195617257Y-100516918D01*
X196617257Y-97374060D02*
X196474400Y-97659775D01*
X196474400Y-97659775D02*
X196188685Y-97802632D01*
X196188685Y-97802632D02*
X193617257Y-97802632D01*
X196474400Y-95088346D02*
X196617257Y-95374060D01*
X196617257Y-95374060D02*
X196617257Y-95945489D01*
X196617257Y-95945489D02*
X196474400Y-96231203D01*
X196474400Y-96231203D02*
X196188685Y-96374060D01*
X196188685Y-96374060D02*
X195045828Y-96374060D01*
X195045828Y-96374060D02*
X194760114Y-96231203D01*
X194760114Y-96231203D02*
X194617257Y-95945489D01*
X194617257Y-95945489D02*
X194617257Y-95374060D01*
X194617257Y-95374060D02*
X194760114Y-95088346D01*
X194760114Y-95088346D02*
X195045828Y-94945489D01*
X195045828Y-94945489D02*
X195331542Y-94945489D01*
X195331542Y-94945489D02*
X195617257Y-96374060D01*
X196474400Y-93802631D02*
X196617257Y-93516917D01*
X196617257Y-93516917D02*
X196617257Y-92945488D01*
X196617257Y-92945488D02*
X196474400Y-92659774D01*
X196474400Y-92659774D02*
X196188685Y-92516917D01*
X196188685Y-92516917D02*
X196045828Y-92516917D01*
X196045828Y-92516917D02*
X195760114Y-92659774D01*
X195760114Y-92659774D02*
X195617257Y-92945488D01*
X195617257Y-92945488D02*
X195617257Y-93374060D01*
X195617257Y-93374060D02*
X195474400Y-93659774D01*
X195474400Y-93659774D02*
X195188685Y-93802631D01*
X195188685Y-93802631D02*
X195045828Y-93802631D01*
X195045828Y-93802631D02*
X194760114Y-93659774D01*
X194760114Y-93659774D02*
X194617257Y-93374060D01*
X194617257Y-93374060D02*
X194617257Y-92945488D01*
X194617257Y-92945488D02*
X194760114Y-92659774D01*
X196474400Y-91374060D02*
X196617257Y-91088346D01*
X196617257Y-91088346D02*
X196617257Y-90516917D01*
X196617257Y-90516917D02*
X196474400Y-90231203D01*
X196474400Y-90231203D02*
X196188685Y-90088346D01*
X196188685Y-90088346D02*
X196045828Y-90088346D01*
X196045828Y-90088346D02*
X195760114Y-90231203D01*
X195760114Y-90231203D02*
X195617257Y-90516917D01*
X195617257Y-90516917D02*
X195617257Y-90945489D01*
X195617257Y-90945489D02*
X195474400Y-91231203D01*
X195474400Y-91231203D02*
X195188685Y-91374060D01*
X195188685Y-91374060D02*
X195045828Y-91374060D01*
X195045828Y-91374060D02*
X194760114Y-91231203D01*
X194760114Y-91231203D02*
X194617257Y-90945489D01*
X194617257Y-90945489D02*
X194617257Y-90516917D01*
X194617257Y-90516917D02*
X194760114Y-90231203D01*
X193617257Y-86802632D02*
X196617257Y-86088346D01*
X196617257Y-86088346D02*
X194474400Y-85516918D01*
X194474400Y-85516918D02*
X196617257Y-84945489D01*
X196617257Y-84945489D02*
X193617257Y-84231204D01*
X196617257Y-81802633D02*
X195045828Y-81802633D01*
X195045828Y-81802633D02*
X194760114Y-81945490D01*
X194760114Y-81945490D02*
X194617257Y-82231204D01*
X194617257Y-82231204D02*
X194617257Y-82802633D01*
X194617257Y-82802633D02*
X194760114Y-83088347D01*
X196474400Y-81802633D02*
X196617257Y-82088347D01*
X196617257Y-82088347D02*
X196617257Y-82802633D01*
X196617257Y-82802633D02*
X196474400Y-83088347D01*
X196474400Y-83088347D02*
X196188685Y-83231204D01*
X196188685Y-83231204D02*
X195902971Y-83231204D01*
X195902971Y-83231204D02*
X195617257Y-83088347D01*
X195617257Y-83088347D02*
X195474400Y-82802633D01*
X195474400Y-82802633D02*
X195474400Y-82088347D01*
X195474400Y-82088347D02*
X195331542Y-81802633D01*
X196617257Y-80374061D02*
X194617257Y-80374061D01*
X195188685Y-80374061D02*
X194902971Y-80231204D01*
X194902971Y-80231204D02*
X194760114Y-80088347D01*
X194760114Y-80088347D02*
X194617257Y-79802632D01*
X194617257Y-79802632D02*
X194617257Y-79516918D01*
X196617257Y-78516918D02*
X194617257Y-78516918D01*
X195188685Y-78516918D02*
X194902971Y-78374061D01*
X194902971Y-78374061D02*
X194760114Y-78231204D01*
X194760114Y-78231204D02*
X194617257Y-77945489D01*
X194617257Y-77945489D02*
X194617257Y-77659775D01*
X196617257Y-76659775D02*
X194617257Y-76659775D01*
X193617257Y-76659775D02*
X193760114Y-76802632D01*
X193760114Y-76802632D02*
X193902971Y-76659775D01*
X193902971Y-76659775D02*
X193760114Y-76516918D01*
X193760114Y-76516918D02*
X193617257Y-76659775D01*
X193617257Y-76659775D02*
X193902971Y-76659775D01*
X196617257Y-74802632D02*
X196474400Y-75088347D01*
X196474400Y-75088347D02*
X196331542Y-75231204D01*
X196331542Y-75231204D02*
X196045828Y-75374061D01*
X196045828Y-75374061D02*
X195188685Y-75374061D01*
X195188685Y-75374061D02*
X194902971Y-75231204D01*
X194902971Y-75231204D02*
X194760114Y-75088347D01*
X194760114Y-75088347D02*
X194617257Y-74802632D01*
X194617257Y-74802632D02*
X194617257Y-74374061D01*
X194617257Y-74374061D02*
X194760114Y-74088347D01*
X194760114Y-74088347D02*
X194902971Y-73945490D01*
X194902971Y-73945490D02*
X195188685Y-73802632D01*
X195188685Y-73802632D02*
X196045828Y-73802632D01*
X196045828Y-73802632D02*
X196331542Y-73945490D01*
X196331542Y-73945490D02*
X196474400Y-74088347D01*
X196474400Y-74088347D02*
X196617257Y-74374061D01*
X196617257Y-74374061D02*
X196617257Y-74802632D01*
X196617257Y-72516918D02*
X194617257Y-72516918D01*
X195188685Y-72516918D02*
X194902971Y-72374061D01*
X194902971Y-72374061D02*
X194760114Y-72231204D01*
X194760114Y-72231204D02*
X194617257Y-71945489D01*
X194617257Y-71945489D02*
X194617257Y-71659775D01*
X196474400Y-70802632D02*
X196617257Y-70516918D01*
X196617257Y-70516918D02*
X196617257Y-69945489D01*
X196617257Y-69945489D02*
X196474400Y-69659775D01*
X196474400Y-69659775D02*
X196188685Y-69516918D01*
X196188685Y-69516918D02*
X196045828Y-69516918D01*
X196045828Y-69516918D02*
X195760114Y-69659775D01*
X195760114Y-69659775D02*
X195617257Y-69945489D01*
X195617257Y-69945489D02*
X195617257Y-70374061D01*
X195617257Y-70374061D02*
X195474400Y-70659775D01*
X195474400Y-70659775D02*
X195188685Y-70802632D01*
X195188685Y-70802632D02*
X195045828Y-70802632D01*
X195045828Y-70802632D02*
X194760114Y-70659775D01*
X194760114Y-70659775D02*
X194617257Y-70374061D01*
X194617257Y-70374061D02*
X194617257Y-69945489D01*
X194617257Y-69945489D02*
X194760114Y-69659775D01*
D11*
X180774318Y-107339762D02*
X179504318Y-107339762D01*
X180653365Y-106009285D02*
X180713842Y-106069761D01*
X180713842Y-106069761D02*
X180774318Y-106251190D01*
X180774318Y-106251190D02*
X180774318Y-106372142D01*
X180774318Y-106372142D02*
X180713842Y-106553571D01*
X180713842Y-106553571D02*
X180592889Y-106674523D01*
X180592889Y-106674523D02*
X180471937Y-106735000D01*
X180471937Y-106735000D02*
X180230032Y-106795476D01*
X180230032Y-106795476D02*
X180048603Y-106795476D01*
X180048603Y-106795476D02*
X179806699Y-106735000D01*
X179806699Y-106735000D02*
X179685746Y-106674523D01*
X179685746Y-106674523D02*
X179564794Y-106553571D01*
X179564794Y-106553571D02*
X179504318Y-106372142D01*
X179504318Y-106372142D02*
X179504318Y-106251190D01*
X179504318Y-106251190D02*
X179564794Y-106069761D01*
X179564794Y-106069761D02*
X179625270Y-106009285D01*
X179625270Y-105525476D02*
X179564794Y-105465000D01*
X179564794Y-105465000D02*
X179504318Y-105344047D01*
X179504318Y-105344047D02*
X179504318Y-105041666D01*
X179504318Y-105041666D02*
X179564794Y-104920714D01*
X179564794Y-104920714D02*
X179625270Y-104860238D01*
X179625270Y-104860238D02*
X179746222Y-104799761D01*
X179746222Y-104799761D02*
X179867175Y-104799761D01*
X179867175Y-104799761D02*
X180048603Y-104860238D01*
X180048603Y-104860238D02*
X180774318Y-105585952D01*
X180774318Y-105585952D02*
X180774318Y-104799761D01*
X130450237Y-96384318D02*
X130450237Y-95114318D01*
X131780714Y-96263365D02*
X131720238Y-96323842D01*
X131720238Y-96323842D02*
X131538809Y-96384318D01*
X131538809Y-96384318D02*
X131417857Y-96384318D01*
X131417857Y-96384318D02*
X131236428Y-96323842D01*
X131236428Y-96323842D02*
X131115476Y-96202889D01*
X131115476Y-96202889D02*
X131054999Y-96081937D01*
X131054999Y-96081937D02*
X130994523Y-95840032D01*
X130994523Y-95840032D02*
X130994523Y-95658603D01*
X130994523Y-95658603D02*
X131054999Y-95416699D01*
X131054999Y-95416699D02*
X131115476Y-95295746D01*
X131115476Y-95295746D02*
X131236428Y-95174794D01*
X131236428Y-95174794D02*
X131417857Y-95114318D01*
X131417857Y-95114318D02*
X131538809Y-95114318D01*
X131538809Y-95114318D02*
X131720238Y-95174794D01*
X131720238Y-95174794D02*
X131780714Y-95235270D01*
X132204047Y-95114318D02*
X132990238Y-95114318D01*
X132990238Y-95114318D02*
X132566904Y-95598127D01*
X132566904Y-95598127D02*
X132748333Y-95598127D01*
X132748333Y-95598127D02*
X132869285Y-95658603D01*
X132869285Y-95658603D02*
X132929761Y-95719080D01*
X132929761Y-95719080D02*
X132990238Y-95840032D01*
X132990238Y-95840032D02*
X132990238Y-96142413D01*
X132990238Y-96142413D02*
X132929761Y-96263365D01*
X132929761Y-96263365D02*
X132869285Y-96323842D01*
X132869285Y-96323842D02*
X132748333Y-96384318D01*
X132748333Y-96384318D02*
X132385476Y-96384318D01*
X132385476Y-96384318D02*
X132264523Y-96323842D01*
X132264523Y-96323842D02*
X132204047Y-96263365D01*
X127488333Y-67409365D02*
X127427857Y-67469842D01*
X127427857Y-67469842D02*
X127246428Y-67530318D01*
X127246428Y-67530318D02*
X127125476Y-67530318D01*
X127125476Y-67530318D02*
X126944047Y-67469842D01*
X126944047Y-67469842D02*
X126823095Y-67348889D01*
X126823095Y-67348889D02*
X126762618Y-67227937D01*
X126762618Y-67227937D02*
X126702142Y-66986032D01*
X126702142Y-66986032D02*
X126702142Y-66804603D01*
X126702142Y-66804603D02*
X126762618Y-66562699D01*
X126762618Y-66562699D02*
X126823095Y-66441746D01*
X126823095Y-66441746D02*
X126944047Y-66320794D01*
X126944047Y-66320794D02*
X127125476Y-66260318D01*
X127125476Y-66260318D02*
X127246428Y-66260318D01*
X127246428Y-66260318D02*
X127427857Y-66320794D01*
X127427857Y-66320794D02*
X127488333Y-66381270D01*
X127911666Y-66260318D02*
X128697857Y-66260318D01*
X128697857Y-66260318D02*
X128274523Y-66744127D01*
X128274523Y-66744127D02*
X128455952Y-66744127D01*
X128455952Y-66744127D02*
X128576904Y-66804603D01*
X128576904Y-66804603D02*
X128637380Y-66865080D01*
X128637380Y-66865080D02*
X128697857Y-66986032D01*
X128697857Y-66986032D02*
X128697857Y-67288413D01*
X128697857Y-67288413D02*
X128637380Y-67409365D01*
X128637380Y-67409365D02*
X128576904Y-67469842D01*
X128576904Y-67469842D02*
X128455952Y-67530318D01*
X128455952Y-67530318D02*
X128093095Y-67530318D01*
X128093095Y-67530318D02*
X127972142Y-67469842D01*
X127972142Y-67469842D02*
X127911666Y-67409365D01*
X136435715Y-59804318D02*
X136435715Y-60711461D01*
X136435715Y-60711461D02*
X136375238Y-60892889D01*
X136375238Y-60892889D02*
X136254286Y-61013842D01*
X136254286Y-61013842D02*
X136072857Y-61074318D01*
X136072857Y-61074318D02*
X135951905Y-61074318D01*
X137040476Y-61074318D02*
X137040476Y-60227651D01*
X137040476Y-60348603D02*
X137100953Y-60288127D01*
X137100953Y-60288127D02*
X137221905Y-60227651D01*
X137221905Y-60227651D02*
X137403334Y-60227651D01*
X137403334Y-60227651D02*
X137524286Y-60288127D01*
X137524286Y-60288127D02*
X137584762Y-60409080D01*
X137584762Y-60409080D02*
X137584762Y-61074318D01*
X137584762Y-60409080D02*
X137645238Y-60288127D01*
X137645238Y-60288127D02*
X137766191Y-60227651D01*
X137766191Y-60227651D02*
X137947619Y-60227651D01*
X137947619Y-60227651D02*
X138068572Y-60288127D01*
X138068572Y-60288127D02*
X138129048Y-60409080D01*
X138129048Y-60409080D02*
X138129048Y-61074318D01*
X139278095Y-61013842D02*
X139157143Y-61074318D01*
X139157143Y-61074318D02*
X138915238Y-61074318D01*
X138915238Y-61074318D02*
X138794286Y-61013842D01*
X138794286Y-61013842D02*
X138733809Y-60953365D01*
X138733809Y-60953365D02*
X138673333Y-60832413D01*
X138673333Y-60832413D02*
X138673333Y-60469556D01*
X138673333Y-60469556D02*
X138733809Y-60348603D01*
X138733809Y-60348603D02*
X138794286Y-60288127D01*
X138794286Y-60288127D02*
X138915238Y-60227651D01*
X138915238Y-60227651D02*
X139157143Y-60227651D01*
X139157143Y-60227651D02*
X139278095Y-60288127D01*
X139761904Y-59925270D02*
X139822380Y-59864794D01*
X139822380Y-59864794D02*
X139943333Y-59804318D01*
X139943333Y-59804318D02*
X140245714Y-59804318D01*
X140245714Y-59804318D02*
X140366666Y-59864794D01*
X140366666Y-59864794D02*
X140427142Y-59925270D01*
X140427142Y-59925270D02*
X140487619Y-60046222D01*
X140487619Y-60046222D02*
X140487619Y-60167175D01*
X140487619Y-60167175D02*
X140427142Y-60348603D01*
X140427142Y-60348603D02*
X139701428Y-61074318D01*
X139701428Y-61074318D02*
X140487619Y-61074318D01*
X181788333Y-74574318D02*
X181364999Y-73969556D01*
X181062618Y-74574318D02*
X181062618Y-73304318D01*
X181062618Y-73304318D02*
X181546428Y-73304318D01*
X181546428Y-73304318D02*
X181667380Y-73364794D01*
X181667380Y-73364794D02*
X181727857Y-73425270D01*
X181727857Y-73425270D02*
X181788333Y-73546222D01*
X181788333Y-73546222D02*
X181788333Y-73727651D01*
X181788333Y-73727651D02*
X181727857Y-73848603D01*
X181727857Y-73848603D02*
X181667380Y-73909080D01*
X181667380Y-73909080D02*
X181546428Y-73969556D01*
X181546428Y-73969556D02*
X181062618Y-73969556D01*
X182876904Y-73727651D02*
X182876904Y-74574318D01*
X182574523Y-73243842D02*
X182272142Y-74150984D01*
X182272142Y-74150984D02*
X183058333Y-74150984D01*
X143788333Y-109074318D02*
X143364999Y-108469556D01*
X143062618Y-109074318D02*
X143062618Y-107804318D01*
X143062618Y-107804318D02*
X143546428Y-107804318D01*
X143546428Y-107804318D02*
X143667380Y-107864794D01*
X143667380Y-107864794D02*
X143727857Y-107925270D01*
X143727857Y-107925270D02*
X143788333Y-108046222D01*
X143788333Y-108046222D02*
X143788333Y-108227651D01*
X143788333Y-108227651D02*
X143727857Y-108348603D01*
X143727857Y-108348603D02*
X143667380Y-108409080D01*
X143667380Y-108409080D02*
X143546428Y-108469556D01*
X143546428Y-108469556D02*
X143062618Y-108469556D01*
X144937380Y-107804318D02*
X144332618Y-107804318D01*
X144332618Y-107804318D02*
X144272142Y-108409080D01*
X144272142Y-108409080D02*
X144332618Y-108348603D01*
X144332618Y-108348603D02*
X144453571Y-108288127D01*
X144453571Y-108288127D02*
X144755952Y-108288127D01*
X144755952Y-108288127D02*
X144876904Y-108348603D01*
X144876904Y-108348603D02*
X144937380Y-108409080D01*
X144937380Y-108409080D02*
X144997857Y-108530032D01*
X144997857Y-108530032D02*
X144997857Y-108832413D01*
X144997857Y-108832413D02*
X144937380Y-108953365D01*
X144937380Y-108953365D02*
X144876904Y-109013842D01*
X144876904Y-109013842D02*
X144755952Y-109074318D01*
X144755952Y-109074318D02*
X144453571Y-109074318D01*
X144453571Y-109074318D02*
X144332618Y-109013842D01*
X144332618Y-109013842D02*
X144272142Y-108953365D01*
X164576667Y-55304318D02*
X164576667Y-56211461D01*
X164576667Y-56211461D02*
X164516190Y-56392889D01*
X164516190Y-56392889D02*
X164395238Y-56513842D01*
X164395238Y-56513842D02*
X164213809Y-56574318D01*
X164213809Y-56574318D02*
X164092857Y-56574318D01*
X165060476Y-55304318D02*
X165846667Y-55304318D01*
X165846667Y-55304318D02*
X165423333Y-55788127D01*
X165423333Y-55788127D02*
X165604762Y-55788127D01*
X165604762Y-55788127D02*
X165725714Y-55848603D01*
X165725714Y-55848603D02*
X165786190Y-55909080D01*
X165786190Y-55909080D02*
X165846667Y-56030032D01*
X165846667Y-56030032D02*
X165846667Y-56332413D01*
X165846667Y-56332413D02*
X165786190Y-56453365D01*
X165786190Y-56453365D02*
X165725714Y-56513842D01*
X165725714Y-56513842D02*
X165604762Y-56574318D01*
X165604762Y-56574318D02*
X165241905Y-56574318D01*
X165241905Y-56574318D02*
X165120952Y-56513842D01*
X165120952Y-56513842D02*
X165060476Y-56453365D01*
X172304318Y-79894284D02*
X173211461Y-79894284D01*
X173211461Y-79894284D02*
X173392889Y-79954761D01*
X173392889Y-79954761D02*
X173513842Y-80075713D01*
X173513842Y-80075713D02*
X173574318Y-80257142D01*
X173574318Y-80257142D02*
X173574318Y-80378094D01*
X173574318Y-79289523D02*
X172727651Y-79289523D01*
X172848603Y-79289523D02*
X172788127Y-79229046D01*
X172788127Y-79229046D02*
X172727651Y-79108094D01*
X172727651Y-79108094D02*
X172727651Y-78926665D01*
X172727651Y-78926665D02*
X172788127Y-78805713D01*
X172788127Y-78805713D02*
X172909080Y-78745237D01*
X172909080Y-78745237D02*
X173574318Y-78745237D01*
X172909080Y-78745237D02*
X172788127Y-78684761D01*
X172788127Y-78684761D02*
X172727651Y-78563808D01*
X172727651Y-78563808D02*
X172727651Y-78382380D01*
X172727651Y-78382380D02*
X172788127Y-78261427D01*
X172788127Y-78261427D02*
X172909080Y-78200951D01*
X172909080Y-78200951D02*
X173574318Y-78200951D01*
X173513842Y-77051904D02*
X173574318Y-77172856D01*
X173574318Y-77172856D02*
X173574318Y-77414761D01*
X173574318Y-77414761D02*
X173513842Y-77535713D01*
X173513842Y-77535713D02*
X173453365Y-77596190D01*
X173453365Y-77596190D02*
X173332413Y-77656666D01*
X173332413Y-77656666D02*
X172969556Y-77656666D01*
X172969556Y-77656666D02*
X172848603Y-77596190D01*
X172848603Y-77596190D02*
X172788127Y-77535713D01*
X172788127Y-77535713D02*
X172727651Y-77414761D01*
X172727651Y-77414761D02*
X172727651Y-77172856D01*
X172727651Y-77172856D02*
X172788127Y-77051904D01*
X173574318Y-75842380D02*
X173574318Y-76568095D01*
X173574318Y-76205238D02*
X172304318Y-76205238D01*
X172304318Y-76205238D02*
X172485746Y-76326190D01*
X172485746Y-76326190D02*
X172606699Y-76447142D01*
X172606699Y-76447142D02*
X172667175Y-76568095D01*
X169288333Y-85574318D02*
X168864999Y-84969556D01*
X168562618Y-85574318D02*
X168562618Y-84304318D01*
X168562618Y-84304318D02*
X169046428Y-84304318D01*
X169046428Y-84304318D02*
X169167380Y-84364794D01*
X169167380Y-84364794D02*
X169227857Y-84425270D01*
X169227857Y-84425270D02*
X169288333Y-84546222D01*
X169288333Y-84546222D02*
X169288333Y-84727651D01*
X169288333Y-84727651D02*
X169227857Y-84848603D01*
X169227857Y-84848603D02*
X169167380Y-84909080D01*
X169167380Y-84909080D02*
X169046428Y-84969556D01*
X169046428Y-84969556D02*
X168562618Y-84969556D01*
X170014047Y-84848603D02*
X169893095Y-84788127D01*
X169893095Y-84788127D02*
X169832618Y-84727651D01*
X169832618Y-84727651D02*
X169772142Y-84606699D01*
X169772142Y-84606699D02*
X169772142Y-84546222D01*
X169772142Y-84546222D02*
X169832618Y-84425270D01*
X169832618Y-84425270D02*
X169893095Y-84364794D01*
X169893095Y-84364794D02*
X170014047Y-84304318D01*
X170014047Y-84304318D02*
X170255952Y-84304318D01*
X170255952Y-84304318D02*
X170376904Y-84364794D01*
X170376904Y-84364794D02*
X170437380Y-84425270D01*
X170437380Y-84425270D02*
X170497857Y-84546222D01*
X170497857Y-84546222D02*
X170497857Y-84606699D01*
X170497857Y-84606699D02*
X170437380Y-84727651D01*
X170437380Y-84727651D02*
X170376904Y-84788127D01*
X170376904Y-84788127D02*
X170255952Y-84848603D01*
X170255952Y-84848603D02*
X170014047Y-84848603D01*
X170014047Y-84848603D02*
X169893095Y-84909080D01*
X169893095Y-84909080D02*
X169832618Y-84969556D01*
X169832618Y-84969556D02*
X169772142Y-85090508D01*
X169772142Y-85090508D02*
X169772142Y-85332413D01*
X169772142Y-85332413D02*
X169832618Y-85453365D01*
X169832618Y-85453365D02*
X169893095Y-85513842D01*
X169893095Y-85513842D02*
X170014047Y-85574318D01*
X170014047Y-85574318D02*
X170255952Y-85574318D01*
X170255952Y-85574318D02*
X170376904Y-85513842D01*
X170376904Y-85513842D02*
X170437380Y-85453365D01*
X170437380Y-85453365D02*
X170497857Y-85332413D01*
X170497857Y-85332413D02*
X170497857Y-85090508D01*
X170497857Y-85090508D02*
X170437380Y-84969556D01*
X170437380Y-84969556D02*
X170376904Y-84909080D01*
X170376904Y-84909080D02*
X170255952Y-84848603D01*
X151074318Y-87311666D02*
X150469556Y-87735000D01*
X151074318Y-88037381D02*
X149804318Y-88037381D01*
X149804318Y-88037381D02*
X149804318Y-87553571D01*
X149804318Y-87553571D02*
X149864794Y-87432619D01*
X149864794Y-87432619D02*
X149925270Y-87372142D01*
X149925270Y-87372142D02*
X150046222Y-87311666D01*
X150046222Y-87311666D02*
X150227651Y-87311666D01*
X150227651Y-87311666D02*
X150348603Y-87372142D01*
X150348603Y-87372142D02*
X150409080Y-87432619D01*
X150409080Y-87432619D02*
X150469556Y-87553571D01*
X150469556Y-87553571D02*
X150469556Y-88037381D01*
X149804318Y-86888333D02*
X149804318Y-86102142D01*
X149804318Y-86102142D02*
X150288127Y-86525476D01*
X150288127Y-86525476D02*
X150288127Y-86344047D01*
X150288127Y-86344047D02*
X150348603Y-86223095D01*
X150348603Y-86223095D02*
X150409080Y-86162619D01*
X150409080Y-86162619D02*
X150530032Y-86102142D01*
X150530032Y-86102142D02*
X150832413Y-86102142D01*
X150832413Y-86102142D02*
X150953365Y-86162619D01*
X150953365Y-86162619D02*
X151013842Y-86223095D01*
X151013842Y-86223095D02*
X151074318Y-86344047D01*
X151074318Y-86344047D02*
X151074318Y-86706904D01*
X151074318Y-86706904D02*
X151013842Y-86827857D01*
X151013842Y-86827857D02*
X150953365Y-86888333D01*
X121562618Y-126574318D02*
X121562618Y-125304318D01*
X121562618Y-125304318D02*
X121864999Y-125304318D01*
X121864999Y-125304318D02*
X122046428Y-125364794D01*
X122046428Y-125364794D02*
X122167380Y-125485746D01*
X122167380Y-125485746D02*
X122227857Y-125606699D01*
X122227857Y-125606699D02*
X122288333Y-125848603D01*
X122288333Y-125848603D02*
X122288333Y-126030032D01*
X122288333Y-126030032D02*
X122227857Y-126271937D01*
X122227857Y-126271937D02*
X122167380Y-126392889D01*
X122167380Y-126392889D02*
X122046428Y-126513842D01*
X122046428Y-126513842D02*
X121864999Y-126574318D01*
X121864999Y-126574318D02*
X121562618Y-126574318D01*
X123497857Y-126574318D02*
X122772142Y-126574318D01*
X123134999Y-126574318D02*
X123134999Y-125304318D01*
X123134999Y-125304318D02*
X123014047Y-125485746D01*
X123014047Y-125485746D02*
X122893095Y-125606699D01*
X122893095Y-125606699D02*
X122772142Y-125667175D01*
X104825238Y-108804318D02*
X104825238Y-109711461D01*
X104825238Y-109711461D02*
X104764761Y-109892889D01*
X104764761Y-109892889D02*
X104643809Y-110013842D01*
X104643809Y-110013842D02*
X104462380Y-110074318D01*
X104462380Y-110074318D02*
X104341428Y-110074318D01*
X105974285Y-109227651D02*
X105974285Y-110074318D01*
X105671904Y-108743842D02*
X105369523Y-109650984D01*
X105369523Y-109650984D02*
X106155714Y-109650984D01*
X106639523Y-110074318D02*
X106639523Y-109227651D01*
X106639523Y-108804318D02*
X106579047Y-108864794D01*
X106579047Y-108864794D02*
X106639523Y-108925270D01*
X106639523Y-108925270D02*
X106700000Y-108864794D01*
X106700000Y-108864794D02*
X106639523Y-108804318D01*
X106639523Y-108804318D02*
X106639523Y-108925270D01*
X107244285Y-109227651D02*
X107244285Y-110074318D01*
X107244285Y-109348603D02*
X107304762Y-109288127D01*
X107304762Y-109288127D02*
X107425714Y-109227651D01*
X107425714Y-109227651D02*
X107607143Y-109227651D01*
X107607143Y-109227651D02*
X107728095Y-109288127D01*
X107728095Y-109288127D02*
X107788571Y-109409080D01*
X107788571Y-109409080D02*
X107788571Y-110074318D01*
X108937619Y-110074318D02*
X108937619Y-108804318D01*
X108937619Y-110013842D02*
X108816667Y-110074318D01*
X108816667Y-110074318D02*
X108574762Y-110074318D01*
X108574762Y-110074318D02*
X108453810Y-110013842D01*
X108453810Y-110013842D02*
X108393333Y-109953365D01*
X108393333Y-109953365D02*
X108332857Y-109832413D01*
X108332857Y-109832413D02*
X108332857Y-109469556D01*
X108332857Y-109469556D02*
X108393333Y-109348603D01*
X108393333Y-109348603D02*
X108453810Y-109288127D01*
X108453810Y-109288127D02*
X108574762Y-109227651D01*
X108574762Y-109227651D02*
X108816667Y-109227651D01*
X108816667Y-109227651D02*
X108937619Y-109288127D01*
X116074318Y-53211666D02*
X115469556Y-53635000D01*
X116074318Y-53937381D02*
X114804318Y-53937381D01*
X114804318Y-53937381D02*
X114804318Y-53453571D01*
X114804318Y-53453571D02*
X114864794Y-53332619D01*
X114864794Y-53332619D02*
X114925270Y-53272142D01*
X114925270Y-53272142D02*
X115046222Y-53211666D01*
X115046222Y-53211666D02*
X115227651Y-53211666D01*
X115227651Y-53211666D02*
X115348603Y-53272142D01*
X115348603Y-53272142D02*
X115409080Y-53332619D01*
X115409080Y-53332619D02*
X115469556Y-53453571D01*
X115469556Y-53453571D02*
X115469556Y-53937381D01*
X114925270Y-52727857D02*
X114864794Y-52667381D01*
X114864794Y-52667381D02*
X114804318Y-52546428D01*
X114804318Y-52546428D02*
X114804318Y-52244047D01*
X114804318Y-52244047D02*
X114864794Y-52123095D01*
X114864794Y-52123095D02*
X114925270Y-52062619D01*
X114925270Y-52062619D02*
X115046222Y-52002142D01*
X115046222Y-52002142D02*
X115167175Y-52002142D01*
X115167175Y-52002142D02*
X115348603Y-52062619D01*
X115348603Y-52062619D02*
X116074318Y-52788333D01*
X116074318Y-52788333D02*
X116074318Y-52002142D01*
X148548333Y-66997365D02*
X148487857Y-67057842D01*
X148487857Y-67057842D02*
X148306428Y-67118318D01*
X148306428Y-67118318D02*
X148185476Y-67118318D01*
X148185476Y-67118318D02*
X148004047Y-67057842D01*
X148004047Y-67057842D02*
X147883095Y-66936889D01*
X147883095Y-66936889D02*
X147822618Y-66815937D01*
X147822618Y-66815937D02*
X147762142Y-66574032D01*
X147762142Y-66574032D02*
X147762142Y-66392603D01*
X147762142Y-66392603D02*
X147822618Y-66150699D01*
X147822618Y-66150699D02*
X147883095Y-66029746D01*
X147883095Y-66029746D02*
X148004047Y-65908794D01*
X148004047Y-65908794D02*
X148185476Y-65848318D01*
X148185476Y-65848318D02*
X148306428Y-65848318D01*
X148306428Y-65848318D02*
X148487857Y-65908794D01*
X148487857Y-65908794D02*
X148548333Y-65969270D01*
X149636904Y-66271651D02*
X149636904Y-67118318D01*
X149334523Y-65787842D02*
X149032142Y-66694984D01*
X149032142Y-66694984D02*
X149818333Y-66694984D01*
X156453365Y-113316428D02*
X156513842Y-113376904D01*
X156513842Y-113376904D02*
X156574318Y-113558333D01*
X156574318Y-113558333D02*
X156574318Y-113679285D01*
X156574318Y-113679285D02*
X156513842Y-113860714D01*
X156513842Y-113860714D02*
X156392889Y-113981666D01*
X156392889Y-113981666D02*
X156271937Y-114042143D01*
X156271937Y-114042143D02*
X156030032Y-114102619D01*
X156030032Y-114102619D02*
X155848603Y-114102619D01*
X155848603Y-114102619D02*
X155606699Y-114042143D01*
X155606699Y-114042143D02*
X155485746Y-113981666D01*
X155485746Y-113981666D02*
X155364794Y-113860714D01*
X155364794Y-113860714D02*
X155304318Y-113679285D01*
X155304318Y-113679285D02*
X155304318Y-113558333D01*
X155304318Y-113558333D02*
X155364794Y-113376904D01*
X155364794Y-113376904D02*
X155425270Y-113316428D01*
X156574318Y-112106904D02*
X156574318Y-112832619D01*
X156574318Y-112469762D02*
X155304318Y-112469762D01*
X155304318Y-112469762D02*
X155485746Y-112590714D01*
X155485746Y-112590714D02*
X155606699Y-112711666D01*
X155606699Y-112711666D02*
X155667175Y-112832619D01*
X155304318Y-111320714D02*
X155304318Y-111199761D01*
X155304318Y-111199761D02*
X155364794Y-111078809D01*
X155364794Y-111078809D02*
X155425270Y-111018333D01*
X155425270Y-111018333D02*
X155546222Y-110957857D01*
X155546222Y-110957857D02*
X155788127Y-110897380D01*
X155788127Y-110897380D02*
X156090508Y-110897380D01*
X156090508Y-110897380D02*
X156332413Y-110957857D01*
X156332413Y-110957857D02*
X156453365Y-111018333D01*
X156453365Y-111018333D02*
X156513842Y-111078809D01*
X156513842Y-111078809D02*
X156574318Y-111199761D01*
X156574318Y-111199761D02*
X156574318Y-111320714D01*
X156574318Y-111320714D02*
X156513842Y-111441666D01*
X156513842Y-111441666D02*
X156453365Y-111502142D01*
X156453365Y-111502142D02*
X156332413Y-111562619D01*
X156332413Y-111562619D02*
X156090508Y-111623095D01*
X156090508Y-111623095D02*
X155788127Y-111623095D01*
X155788127Y-111623095D02*
X155546222Y-111562619D01*
X155546222Y-111562619D02*
X155425270Y-111502142D01*
X155425270Y-111502142D02*
X155364794Y-111441666D01*
X155364794Y-111441666D02*
X155304318Y-111320714D01*
X126948333Y-87909365D02*
X126887857Y-87969842D01*
X126887857Y-87969842D02*
X126706428Y-88030318D01*
X126706428Y-88030318D02*
X126585476Y-88030318D01*
X126585476Y-88030318D02*
X126404047Y-87969842D01*
X126404047Y-87969842D02*
X126283095Y-87848889D01*
X126283095Y-87848889D02*
X126222618Y-87727937D01*
X126222618Y-87727937D02*
X126162142Y-87486032D01*
X126162142Y-87486032D02*
X126162142Y-87304603D01*
X126162142Y-87304603D02*
X126222618Y-87062699D01*
X126222618Y-87062699D02*
X126283095Y-86941746D01*
X126283095Y-86941746D02*
X126404047Y-86820794D01*
X126404047Y-86820794D02*
X126585476Y-86760318D01*
X126585476Y-86760318D02*
X126706428Y-86760318D01*
X126706428Y-86760318D02*
X126887857Y-86820794D01*
X126887857Y-86820794D02*
X126948333Y-86881270D01*
X127371666Y-86760318D02*
X128218333Y-86760318D01*
X128218333Y-86760318D02*
X127674047Y-88030318D01*
X102788333Y-77574318D02*
X102364999Y-76969556D01*
X102062618Y-77574318D02*
X102062618Y-76304318D01*
X102062618Y-76304318D02*
X102546428Y-76304318D01*
X102546428Y-76304318D02*
X102667380Y-76364794D01*
X102667380Y-76364794D02*
X102727857Y-76425270D01*
X102727857Y-76425270D02*
X102788333Y-76546222D01*
X102788333Y-76546222D02*
X102788333Y-76727651D01*
X102788333Y-76727651D02*
X102727857Y-76848603D01*
X102727857Y-76848603D02*
X102667380Y-76909080D01*
X102667380Y-76909080D02*
X102546428Y-76969556D01*
X102546428Y-76969556D02*
X102062618Y-76969556D01*
X103997857Y-77574318D02*
X103272142Y-77574318D01*
X103634999Y-77574318D02*
X103634999Y-76304318D01*
X103634999Y-76304318D02*
X103514047Y-76485746D01*
X103514047Y-76485746D02*
X103393095Y-76606699D01*
X103393095Y-76606699D02*
X103272142Y-76667175D01*
X121532380Y-113804318D02*
X121532380Y-114832413D01*
X121532380Y-114832413D02*
X121592857Y-114953365D01*
X121592857Y-114953365D02*
X121653333Y-115013842D01*
X121653333Y-115013842D02*
X121774285Y-115074318D01*
X121774285Y-115074318D02*
X122016190Y-115074318D01*
X122016190Y-115074318D02*
X122137142Y-115013842D01*
X122137142Y-115013842D02*
X122197619Y-114953365D01*
X122197619Y-114953365D02*
X122258095Y-114832413D01*
X122258095Y-114832413D02*
X122258095Y-113804318D01*
X123528095Y-115074318D02*
X122802380Y-115074318D01*
X123165237Y-115074318D02*
X123165237Y-113804318D01*
X123165237Y-113804318D02*
X123044285Y-113985746D01*
X123044285Y-113985746D02*
X122923333Y-114106699D01*
X122923333Y-114106699D02*
X122802380Y-114167175D01*
X165288333Y-85574318D02*
X164864999Y-84969556D01*
X164562618Y-85574318D02*
X164562618Y-84304318D01*
X164562618Y-84304318D02*
X165046428Y-84304318D01*
X165046428Y-84304318D02*
X165167380Y-84364794D01*
X165167380Y-84364794D02*
X165227857Y-84425270D01*
X165227857Y-84425270D02*
X165288333Y-84546222D01*
X165288333Y-84546222D02*
X165288333Y-84727651D01*
X165288333Y-84727651D02*
X165227857Y-84848603D01*
X165227857Y-84848603D02*
X165167380Y-84909080D01*
X165167380Y-84909080D02*
X165046428Y-84969556D01*
X165046428Y-84969556D02*
X164562618Y-84969556D01*
X166376904Y-84304318D02*
X166134999Y-84304318D01*
X166134999Y-84304318D02*
X166014047Y-84364794D01*
X166014047Y-84364794D02*
X165953571Y-84425270D01*
X165953571Y-84425270D02*
X165832618Y-84606699D01*
X165832618Y-84606699D02*
X165772142Y-84848603D01*
X165772142Y-84848603D02*
X165772142Y-85332413D01*
X165772142Y-85332413D02*
X165832618Y-85453365D01*
X165832618Y-85453365D02*
X165893095Y-85513842D01*
X165893095Y-85513842D02*
X166014047Y-85574318D01*
X166014047Y-85574318D02*
X166255952Y-85574318D01*
X166255952Y-85574318D02*
X166376904Y-85513842D01*
X166376904Y-85513842D02*
X166437380Y-85453365D01*
X166437380Y-85453365D02*
X166497857Y-85332413D01*
X166497857Y-85332413D02*
X166497857Y-85030032D01*
X166497857Y-85030032D02*
X166437380Y-84909080D01*
X166437380Y-84909080D02*
X166376904Y-84848603D01*
X166376904Y-84848603D02*
X166255952Y-84788127D01*
X166255952Y-84788127D02*
X166014047Y-84788127D01*
X166014047Y-84788127D02*
X165893095Y-84848603D01*
X165893095Y-84848603D02*
X165832618Y-84909080D01*
X165832618Y-84909080D02*
X165772142Y-85030032D01*
X135588333Y-87997365D02*
X135527857Y-88057842D01*
X135527857Y-88057842D02*
X135346428Y-88118318D01*
X135346428Y-88118318D02*
X135225476Y-88118318D01*
X135225476Y-88118318D02*
X135044047Y-88057842D01*
X135044047Y-88057842D02*
X134923095Y-87936889D01*
X134923095Y-87936889D02*
X134862618Y-87815937D01*
X134862618Y-87815937D02*
X134802142Y-87574032D01*
X134802142Y-87574032D02*
X134802142Y-87392603D01*
X134802142Y-87392603D02*
X134862618Y-87150699D01*
X134862618Y-87150699D02*
X134923095Y-87029746D01*
X134923095Y-87029746D02*
X135044047Y-86908794D01*
X135044047Y-86908794D02*
X135225476Y-86848318D01*
X135225476Y-86848318D02*
X135346428Y-86848318D01*
X135346428Y-86848318D02*
X135527857Y-86908794D01*
X135527857Y-86908794D02*
X135588333Y-86969270D01*
X136314047Y-87392603D02*
X136193095Y-87332127D01*
X136193095Y-87332127D02*
X136132618Y-87271651D01*
X136132618Y-87271651D02*
X136072142Y-87150699D01*
X136072142Y-87150699D02*
X136072142Y-87090222D01*
X136072142Y-87090222D02*
X136132618Y-86969270D01*
X136132618Y-86969270D02*
X136193095Y-86908794D01*
X136193095Y-86908794D02*
X136314047Y-86848318D01*
X136314047Y-86848318D02*
X136555952Y-86848318D01*
X136555952Y-86848318D02*
X136676904Y-86908794D01*
X136676904Y-86908794D02*
X136737380Y-86969270D01*
X136737380Y-86969270D02*
X136797857Y-87090222D01*
X136797857Y-87090222D02*
X136797857Y-87150699D01*
X136797857Y-87150699D02*
X136737380Y-87271651D01*
X136737380Y-87271651D02*
X136676904Y-87332127D01*
X136676904Y-87332127D02*
X136555952Y-87392603D01*
X136555952Y-87392603D02*
X136314047Y-87392603D01*
X136314047Y-87392603D02*
X136193095Y-87453080D01*
X136193095Y-87453080D02*
X136132618Y-87513556D01*
X136132618Y-87513556D02*
X136072142Y-87634508D01*
X136072142Y-87634508D02*
X136072142Y-87876413D01*
X136072142Y-87876413D02*
X136132618Y-87997365D01*
X136132618Y-87997365D02*
X136193095Y-88057842D01*
X136193095Y-88057842D02*
X136314047Y-88118318D01*
X136314047Y-88118318D02*
X136555952Y-88118318D01*
X136555952Y-88118318D02*
X136676904Y-88057842D01*
X136676904Y-88057842D02*
X136737380Y-87997365D01*
X136737380Y-87997365D02*
X136797857Y-87876413D01*
X136797857Y-87876413D02*
X136797857Y-87634508D01*
X136797857Y-87634508D02*
X136737380Y-87513556D01*
X136737380Y-87513556D02*
X136676904Y-87453080D01*
X136676904Y-87453080D02*
X136555952Y-87392603D01*
X112997365Y-82911666D02*
X113057842Y-82972142D01*
X113057842Y-82972142D02*
X113118318Y-83153571D01*
X113118318Y-83153571D02*
X113118318Y-83274523D01*
X113118318Y-83274523D02*
X113057842Y-83455952D01*
X113057842Y-83455952D02*
X112936889Y-83576904D01*
X112936889Y-83576904D02*
X112815937Y-83637381D01*
X112815937Y-83637381D02*
X112574032Y-83697857D01*
X112574032Y-83697857D02*
X112392603Y-83697857D01*
X112392603Y-83697857D02*
X112150699Y-83637381D01*
X112150699Y-83637381D02*
X112029746Y-83576904D01*
X112029746Y-83576904D02*
X111908794Y-83455952D01*
X111908794Y-83455952D02*
X111848318Y-83274523D01*
X111848318Y-83274523D02*
X111848318Y-83153571D01*
X111848318Y-83153571D02*
X111908794Y-82972142D01*
X111908794Y-82972142D02*
X111969270Y-82911666D01*
X111969270Y-82427857D02*
X111908794Y-82367381D01*
X111908794Y-82367381D02*
X111848318Y-82246428D01*
X111848318Y-82246428D02*
X111848318Y-81944047D01*
X111848318Y-81944047D02*
X111908794Y-81823095D01*
X111908794Y-81823095D02*
X111969270Y-81762619D01*
X111969270Y-81762619D02*
X112090222Y-81702142D01*
X112090222Y-81702142D02*
X112211175Y-81702142D01*
X112211175Y-81702142D02*
X112392603Y-81762619D01*
X112392603Y-81762619D02*
X113118318Y-82488333D01*
X113118318Y-82488333D02*
X113118318Y-81702142D01*
X108953365Y-82951666D02*
X109013842Y-83012142D01*
X109013842Y-83012142D02*
X109074318Y-83193571D01*
X109074318Y-83193571D02*
X109074318Y-83314523D01*
X109074318Y-83314523D02*
X109013842Y-83495952D01*
X109013842Y-83495952D02*
X108892889Y-83616904D01*
X108892889Y-83616904D02*
X108771937Y-83677381D01*
X108771937Y-83677381D02*
X108530032Y-83737857D01*
X108530032Y-83737857D02*
X108348603Y-83737857D01*
X108348603Y-83737857D02*
X108106699Y-83677381D01*
X108106699Y-83677381D02*
X107985746Y-83616904D01*
X107985746Y-83616904D02*
X107864794Y-83495952D01*
X107864794Y-83495952D02*
X107804318Y-83314523D01*
X107804318Y-83314523D02*
X107804318Y-83193571D01*
X107804318Y-83193571D02*
X107864794Y-83012142D01*
X107864794Y-83012142D02*
X107925270Y-82951666D01*
X109074318Y-81742142D02*
X109074318Y-82467857D01*
X109074318Y-82105000D02*
X107804318Y-82105000D01*
X107804318Y-82105000D02*
X107985746Y-82225952D01*
X107985746Y-82225952D02*
X108106699Y-82346904D01*
X108106699Y-82346904D02*
X108167175Y-82467857D01*
X136576667Y-125304318D02*
X136576667Y-126211461D01*
X136576667Y-126211461D02*
X136516190Y-126392889D01*
X136516190Y-126392889D02*
X136395238Y-126513842D01*
X136395238Y-126513842D02*
X136213809Y-126574318D01*
X136213809Y-126574318D02*
X136092857Y-126574318D01*
X137786190Y-125304318D02*
X137181428Y-125304318D01*
X137181428Y-125304318D02*
X137120952Y-125909080D01*
X137120952Y-125909080D02*
X137181428Y-125848603D01*
X137181428Y-125848603D02*
X137302381Y-125788127D01*
X137302381Y-125788127D02*
X137604762Y-125788127D01*
X137604762Y-125788127D02*
X137725714Y-125848603D01*
X137725714Y-125848603D02*
X137786190Y-125909080D01*
X137786190Y-125909080D02*
X137846667Y-126030032D01*
X137846667Y-126030032D02*
X137846667Y-126332413D01*
X137846667Y-126332413D02*
X137786190Y-126453365D01*
X137786190Y-126453365D02*
X137725714Y-126513842D01*
X137725714Y-126513842D02*
X137604762Y-126574318D01*
X137604762Y-126574318D02*
X137302381Y-126574318D01*
X137302381Y-126574318D02*
X137181428Y-126513842D01*
X137181428Y-126513842D02*
X137120952Y-126453365D01*
X176548333Y-61497365D02*
X176487857Y-61557842D01*
X176487857Y-61557842D02*
X176306428Y-61618318D01*
X176306428Y-61618318D02*
X176185476Y-61618318D01*
X176185476Y-61618318D02*
X176004047Y-61557842D01*
X176004047Y-61557842D02*
X175883095Y-61436889D01*
X175883095Y-61436889D02*
X175822618Y-61315937D01*
X175822618Y-61315937D02*
X175762142Y-61074032D01*
X175762142Y-61074032D02*
X175762142Y-60892603D01*
X175762142Y-60892603D02*
X175822618Y-60650699D01*
X175822618Y-60650699D02*
X175883095Y-60529746D01*
X175883095Y-60529746D02*
X176004047Y-60408794D01*
X176004047Y-60408794D02*
X176185476Y-60348318D01*
X176185476Y-60348318D02*
X176306428Y-60348318D01*
X176306428Y-60348318D02*
X176487857Y-60408794D01*
X176487857Y-60408794D02*
X176548333Y-60469270D01*
X177636904Y-60348318D02*
X177394999Y-60348318D01*
X177394999Y-60348318D02*
X177274047Y-60408794D01*
X177274047Y-60408794D02*
X177213571Y-60469270D01*
X177213571Y-60469270D02*
X177092618Y-60650699D01*
X177092618Y-60650699D02*
X177032142Y-60892603D01*
X177032142Y-60892603D02*
X177032142Y-61376413D01*
X177032142Y-61376413D02*
X177092618Y-61497365D01*
X177092618Y-61497365D02*
X177153095Y-61557842D01*
X177153095Y-61557842D02*
X177274047Y-61618318D01*
X177274047Y-61618318D02*
X177515952Y-61618318D01*
X177515952Y-61618318D02*
X177636904Y-61557842D01*
X177636904Y-61557842D02*
X177697380Y-61497365D01*
X177697380Y-61497365D02*
X177757857Y-61376413D01*
X177757857Y-61376413D02*
X177757857Y-61074032D01*
X177757857Y-61074032D02*
X177697380Y-60953080D01*
X177697380Y-60953080D02*
X177636904Y-60892603D01*
X177636904Y-60892603D02*
X177515952Y-60832127D01*
X177515952Y-60832127D02*
X177274047Y-60832127D01*
X177274047Y-60832127D02*
X177153095Y-60892603D01*
X177153095Y-60892603D02*
X177092618Y-60953080D01*
X177092618Y-60953080D02*
X177032142Y-61074032D01*
D12*
X189880953Y-62954819D02*
X190500000Y-62954819D01*
X190500000Y-62954819D02*
X190166667Y-63335771D01*
X190166667Y-63335771D02*
X190309524Y-63335771D01*
X190309524Y-63335771D02*
X190404762Y-63383390D01*
X190404762Y-63383390D02*
X190452381Y-63431009D01*
X190452381Y-63431009D02*
X190500000Y-63526247D01*
X190500000Y-63526247D02*
X190500000Y-63764342D01*
X190500000Y-63764342D02*
X190452381Y-63859580D01*
X190452381Y-63859580D02*
X190404762Y-63907200D01*
X190404762Y-63907200D02*
X190309524Y-63954819D01*
X190309524Y-63954819D02*
X190023810Y-63954819D01*
X190023810Y-63954819D02*
X189928572Y-63907200D01*
X189928572Y-63907200D02*
X189880953Y-63859580D01*
X190928572Y-63954819D02*
X190928572Y-62954819D01*
X190928572Y-62954819D02*
X191261905Y-63669104D01*
X191261905Y-63669104D02*
X191595238Y-62954819D01*
X191595238Y-62954819D02*
X191595238Y-63954819D01*
X192071429Y-63954819D02*
X192071429Y-62954819D01*
X192071429Y-63431009D02*
X192642857Y-63431009D01*
X192642857Y-63954819D02*
X192642857Y-62954819D01*
X192880953Y-64050057D02*
X193642857Y-64050057D01*
X194309524Y-62954819D02*
X194119048Y-62954819D01*
X194119048Y-62954819D02*
X194023810Y-63002438D01*
X194023810Y-63002438D02*
X193976191Y-63050057D01*
X193976191Y-63050057D02*
X193880953Y-63192914D01*
X193880953Y-63192914D02*
X193833334Y-63383390D01*
X193833334Y-63383390D02*
X193833334Y-63764342D01*
X193833334Y-63764342D02*
X193880953Y-63859580D01*
X193880953Y-63859580D02*
X193928572Y-63907200D01*
X193928572Y-63907200D02*
X194023810Y-63954819D01*
X194023810Y-63954819D02*
X194214286Y-63954819D01*
X194214286Y-63954819D02*
X194309524Y-63907200D01*
X194309524Y-63907200D02*
X194357143Y-63859580D01*
X194357143Y-63859580D02*
X194404762Y-63764342D01*
X194404762Y-63764342D02*
X194404762Y-63526247D01*
X194404762Y-63526247D02*
X194357143Y-63431009D01*
X194357143Y-63431009D02*
X194309524Y-63383390D01*
X194309524Y-63383390D02*
X194214286Y-63335771D01*
X194214286Y-63335771D02*
X194023810Y-63335771D01*
X194023810Y-63335771D02*
X193928572Y-63383390D01*
X193928572Y-63383390D02*
X193880953Y-63431009D01*
X193880953Y-63431009D02*
X193833334Y-63526247D01*
X194833334Y-63954819D02*
X194833334Y-63288152D01*
X194833334Y-63383390D02*
X194880953Y-63335771D01*
X194880953Y-63335771D02*
X194976191Y-63288152D01*
X194976191Y-63288152D02*
X195119048Y-63288152D01*
X195119048Y-63288152D02*
X195214286Y-63335771D01*
X195214286Y-63335771D02*
X195261905Y-63431009D01*
X195261905Y-63431009D02*
X195261905Y-63954819D01*
X195261905Y-63431009D02*
X195309524Y-63335771D01*
X195309524Y-63335771D02*
X195404762Y-63288152D01*
X195404762Y-63288152D02*
X195547619Y-63288152D01*
X195547619Y-63288152D02*
X195642858Y-63335771D01*
X195642858Y-63335771D02*
X195690477Y-63431009D01*
X195690477Y-63431009D02*
X195690477Y-63954819D01*
X196166667Y-63954819D02*
X196166667Y-63288152D01*
X196166667Y-63383390D02*
X196214286Y-63335771D01*
X196214286Y-63335771D02*
X196309524Y-63288152D01*
X196309524Y-63288152D02*
X196452381Y-63288152D01*
X196452381Y-63288152D02*
X196547619Y-63335771D01*
X196547619Y-63335771D02*
X196595238Y-63431009D01*
X196595238Y-63431009D02*
X196595238Y-63954819D01*
X196595238Y-63431009D02*
X196642857Y-63335771D01*
X196642857Y-63335771D02*
X196738095Y-63288152D01*
X196738095Y-63288152D02*
X196880952Y-63288152D01*
X196880952Y-63288152D02*
X196976191Y-63335771D01*
X196976191Y-63335771D02*
X197023810Y-63431009D01*
X197023810Y-63431009D02*
X197023810Y-63954819D01*
D11*
X139860237Y-77374318D02*
X139860237Y-76104318D01*
X141190714Y-77253365D02*
X141130238Y-77313842D01*
X141130238Y-77313842D02*
X140948809Y-77374318D01*
X140948809Y-77374318D02*
X140827857Y-77374318D01*
X140827857Y-77374318D02*
X140646428Y-77313842D01*
X140646428Y-77313842D02*
X140525476Y-77192889D01*
X140525476Y-77192889D02*
X140464999Y-77071937D01*
X140464999Y-77071937D02*
X140404523Y-76830032D01*
X140404523Y-76830032D02*
X140404523Y-76648603D01*
X140404523Y-76648603D02*
X140464999Y-76406699D01*
X140464999Y-76406699D02*
X140525476Y-76285746D01*
X140525476Y-76285746D02*
X140646428Y-76164794D01*
X140646428Y-76164794D02*
X140827857Y-76104318D01*
X140827857Y-76104318D02*
X140948809Y-76104318D01*
X140948809Y-76104318D02*
X141130238Y-76164794D01*
X141130238Y-76164794D02*
X141190714Y-76225270D01*
X142400238Y-77374318D02*
X141674523Y-77374318D01*
X142037380Y-77374318D02*
X142037380Y-76104318D01*
X142037380Y-76104318D02*
X141916428Y-76285746D01*
X141916428Y-76285746D02*
X141795476Y-76406699D01*
X141795476Y-76406699D02*
X141674523Y-76467175D01*
D12*
X103500000Y-63954819D02*
X102928572Y-63954819D01*
X103214286Y-63954819D02*
X103214286Y-62954819D01*
X103214286Y-62954819D02*
X103119048Y-63097676D01*
X103119048Y-63097676D02*
X103023810Y-63192914D01*
X103023810Y-63192914D02*
X102928572Y-63240533D01*
X103928572Y-63954819D02*
X103928572Y-62954819D01*
X103928572Y-62954819D02*
X104261905Y-63669104D01*
X104261905Y-63669104D02*
X104595238Y-62954819D01*
X104595238Y-62954819D02*
X104595238Y-63954819D01*
X105071429Y-63954819D02*
X105071429Y-62954819D01*
X105071429Y-63431009D02*
X105642857Y-63431009D01*
X105642857Y-63954819D02*
X105642857Y-62954819D01*
X105880953Y-64050057D02*
X106642857Y-64050057D01*
X107309524Y-62954819D02*
X107119048Y-62954819D01*
X107119048Y-62954819D02*
X107023810Y-63002438D01*
X107023810Y-63002438D02*
X106976191Y-63050057D01*
X106976191Y-63050057D02*
X106880953Y-63192914D01*
X106880953Y-63192914D02*
X106833334Y-63383390D01*
X106833334Y-63383390D02*
X106833334Y-63764342D01*
X106833334Y-63764342D02*
X106880953Y-63859580D01*
X106880953Y-63859580D02*
X106928572Y-63907200D01*
X106928572Y-63907200D02*
X107023810Y-63954819D01*
X107023810Y-63954819D02*
X107214286Y-63954819D01*
X107214286Y-63954819D02*
X107309524Y-63907200D01*
X107309524Y-63907200D02*
X107357143Y-63859580D01*
X107357143Y-63859580D02*
X107404762Y-63764342D01*
X107404762Y-63764342D02*
X107404762Y-63526247D01*
X107404762Y-63526247D02*
X107357143Y-63431009D01*
X107357143Y-63431009D02*
X107309524Y-63383390D01*
X107309524Y-63383390D02*
X107214286Y-63335771D01*
X107214286Y-63335771D02*
X107023810Y-63335771D01*
X107023810Y-63335771D02*
X106928572Y-63383390D01*
X106928572Y-63383390D02*
X106880953Y-63431009D01*
X106880953Y-63431009D02*
X106833334Y-63526247D01*
X107833334Y-63954819D02*
X107833334Y-63288152D01*
X107833334Y-63383390D02*
X107880953Y-63335771D01*
X107880953Y-63335771D02*
X107976191Y-63288152D01*
X107976191Y-63288152D02*
X108119048Y-63288152D01*
X108119048Y-63288152D02*
X108214286Y-63335771D01*
X108214286Y-63335771D02*
X108261905Y-63431009D01*
X108261905Y-63431009D02*
X108261905Y-63954819D01*
X108261905Y-63431009D02*
X108309524Y-63335771D01*
X108309524Y-63335771D02*
X108404762Y-63288152D01*
X108404762Y-63288152D02*
X108547619Y-63288152D01*
X108547619Y-63288152D02*
X108642858Y-63335771D01*
X108642858Y-63335771D02*
X108690477Y-63431009D01*
X108690477Y-63431009D02*
X108690477Y-63954819D01*
X109166667Y-63954819D02*
X109166667Y-63288152D01*
X109166667Y-63383390D02*
X109214286Y-63335771D01*
X109214286Y-63335771D02*
X109309524Y-63288152D01*
X109309524Y-63288152D02*
X109452381Y-63288152D01*
X109452381Y-63288152D02*
X109547619Y-63335771D01*
X109547619Y-63335771D02*
X109595238Y-63431009D01*
X109595238Y-63431009D02*
X109595238Y-63954819D01*
X109595238Y-63431009D02*
X109642857Y-63335771D01*
X109642857Y-63335771D02*
X109738095Y-63288152D01*
X109738095Y-63288152D02*
X109880952Y-63288152D01*
X109880952Y-63288152D02*
X109976191Y-63335771D01*
X109976191Y-63335771D02*
X110023810Y-63431009D01*
X110023810Y-63431009D02*
X110023810Y-63954819D01*
X190404762Y-116288171D02*
X190404762Y-116954838D01*
X190166667Y-115907219D02*
X189928572Y-116621504D01*
X189928572Y-116621504D02*
X190547619Y-116621504D01*
X190928572Y-116954838D02*
X190928572Y-115954838D01*
X190928572Y-115954838D02*
X191261905Y-116669123D01*
X191261905Y-116669123D02*
X191595238Y-115954838D01*
X191595238Y-115954838D02*
X191595238Y-116954838D01*
X192071429Y-116954838D02*
X192071429Y-115954838D01*
X192071429Y-116431028D02*
X192642857Y-116431028D01*
X192642857Y-116954838D02*
X192642857Y-115954838D01*
X192880953Y-117050076D02*
X193642857Y-117050076D01*
X194309524Y-115954838D02*
X194119048Y-115954838D01*
X194119048Y-115954838D02*
X194023810Y-116002457D01*
X194023810Y-116002457D02*
X193976191Y-116050076D01*
X193976191Y-116050076D02*
X193880953Y-116192933D01*
X193880953Y-116192933D02*
X193833334Y-116383409D01*
X193833334Y-116383409D02*
X193833334Y-116764361D01*
X193833334Y-116764361D02*
X193880953Y-116859599D01*
X193880953Y-116859599D02*
X193928572Y-116907219D01*
X193928572Y-116907219D02*
X194023810Y-116954838D01*
X194023810Y-116954838D02*
X194214286Y-116954838D01*
X194214286Y-116954838D02*
X194309524Y-116907219D01*
X194309524Y-116907219D02*
X194357143Y-116859599D01*
X194357143Y-116859599D02*
X194404762Y-116764361D01*
X194404762Y-116764361D02*
X194404762Y-116526266D01*
X194404762Y-116526266D02*
X194357143Y-116431028D01*
X194357143Y-116431028D02*
X194309524Y-116383409D01*
X194309524Y-116383409D02*
X194214286Y-116335790D01*
X194214286Y-116335790D02*
X194023810Y-116335790D01*
X194023810Y-116335790D02*
X193928572Y-116383409D01*
X193928572Y-116383409D02*
X193880953Y-116431028D01*
X193880953Y-116431028D02*
X193833334Y-116526266D01*
X194833334Y-116954838D02*
X194833334Y-116288171D01*
X194833334Y-116383409D02*
X194880953Y-116335790D01*
X194880953Y-116335790D02*
X194976191Y-116288171D01*
X194976191Y-116288171D02*
X195119048Y-116288171D01*
X195119048Y-116288171D02*
X195214286Y-116335790D01*
X195214286Y-116335790D02*
X195261905Y-116431028D01*
X195261905Y-116431028D02*
X195261905Y-116954838D01*
X195261905Y-116431028D02*
X195309524Y-116335790D01*
X195309524Y-116335790D02*
X195404762Y-116288171D01*
X195404762Y-116288171D02*
X195547619Y-116288171D01*
X195547619Y-116288171D02*
X195642858Y-116335790D01*
X195642858Y-116335790D02*
X195690477Y-116431028D01*
X195690477Y-116431028D02*
X195690477Y-116954838D01*
X196166667Y-116954838D02*
X196166667Y-116288171D01*
X196166667Y-116383409D02*
X196214286Y-116335790D01*
X196214286Y-116335790D02*
X196309524Y-116288171D01*
X196309524Y-116288171D02*
X196452381Y-116288171D01*
X196452381Y-116288171D02*
X196547619Y-116335790D01*
X196547619Y-116335790D02*
X196595238Y-116431028D01*
X196595238Y-116431028D02*
X196595238Y-116954838D01*
X196595238Y-116431028D02*
X196642857Y-116335790D01*
X196642857Y-116335790D02*
X196738095Y-116288171D01*
X196738095Y-116288171D02*
X196880952Y-116288171D01*
X196880952Y-116288171D02*
X196976191Y-116335790D01*
X196976191Y-116335790D02*
X197023810Y-116431028D01*
X197023810Y-116431028D02*
X197023810Y-116954838D01*
D11*
X161288333Y-85574318D02*
X160864999Y-84969556D01*
X160562618Y-85574318D02*
X160562618Y-84304318D01*
X160562618Y-84304318D02*
X161046428Y-84304318D01*
X161046428Y-84304318D02*
X161167380Y-84364794D01*
X161167380Y-84364794D02*
X161227857Y-84425270D01*
X161227857Y-84425270D02*
X161288333Y-84546222D01*
X161288333Y-84546222D02*
X161288333Y-84727651D01*
X161288333Y-84727651D02*
X161227857Y-84848603D01*
X161227857Y-84848603D02*
X161167380Y-84909080D01*
X161167380Y-84909080D02*
X161046428Y-84969556D01*
X161046428Y-84969556D02*
X160562618Y-84969556D01*
X161711666Y-84304318D02*
X162558333Y-84304318D01*
X162558333Y-84304318D02*
X162014047Y-85574318D01*
X168574318Y-112191190D02*
X168574318Y-112795952D01*
X168574318Y-112795952D02*
X167304318Y-112795952D01*
X167909080Y-111767857D02*
X167909080Y-111344523D01*
X168574318Y-111163095D02*
X168574318Y-111767857D01*
X168574318Y-111767857D02*
X167304318Y-111767857D01*
X167304318Y-111767857D02*
X167304318Y-111163095D01*
X168574318Y-110618809D02*
X167304318Y-110618809D01*
X167304318Y-110618809D02*
X167304318Y-110316428D01*
X167304318Y-110316428D02*
X167364794Y-110134999D01*
X167364794Y-110134999D02*
X167485746Y-110014047D01*
X167485746Y-110014047D02*
X167606699Y-109953570D01*
X167606699Y-109953570D02*
X167848603Y-109893094D01*
X167848603Y-109893094D02*
X168030032Y-109893094D01*
X168030032Y-109893094D02*
X168271937Y-109953570D01*
X168271937Y-109953570D02*
X168392889Y-110014047D01*
X168392889Y-110014047D02*
X168513842Y-110134999D01*
X168513842Y-110134999D02*
X168574318Y-110316428D01*
X168574318Y-110316428D02*
X168574318Y-110618809D01*
X168574318Y-108683570D02*
X168574318Y-109409285D01*
X168574318Y-109046428D02*
X167304318Y-109046428D01*
X167304318Y-109046428D02*
X167485746Y-109167380D01*
X167485746Y-109167380D02*
X167606699Y-109288332D01*
X167606699Y-109288332D02*
X167667175Y-109409285D01*
X104883333Y-94804318D02*
X104883333Y-95711461D01*
X104883333Y-95711461D02*
X104822856Y-95892889D01*
X104822856Y-95892889D02*
X104701904Y-96013842D01*
X104701904Y-96013842D02*
X104520475Y-96074318D01*
X104520475Y-96074318D02*
X104399523Y-96074318D01*
X105427618Y-94925270D02*
X105488094Y-94864794D01*
X105488094Y-94864794D02*
X105609047Y-94804318D01*
X105609047Y-94804318D02*
X105911428Y-94804318D01*
X105911428Y-94804318D02*
X106032380Y-94864794D01*
X106032380Y-94864794D02*
X106092856Y-94925270D01*
X106092856Y-94925270D02*
X106153333Y-95046222D01*
X106153333Y-95046222D02*
X106153333Y-95167175D01*
X106153333Y-95167175D02*
X106092856Y-95348603D01*
X106092856Y-95348603D02*
X105367142Y-96074318D01*
X105367142Y-96074318D02*
X106153333Y-96074318D01*
X107241904Y-95227651D02*
X107241904Y-96255746D01*
X107241904Y-96255746D02*
X107181428Y-96376699D01*
X107181428Y-96376699D02*
X107120952Y-96437175D01*
X107120952Y-96437175D02*
X106999999Y-96497651D01*
X106999999Y-96497651D02*
X106818571Y-96497651D01*
X106818571Y-96497651D02*
X106697618Y-96437175D01*
X107241904Y-96013842D02*
X107120952Y-96074318D01*
X107120952Y-96074318D02*
X106879047Y-96074318D01*
X106879047Y-96074318D02*
X106758095Y-96013842D01*
X106758095Y-96013842D02*
X106697618Y-95953365D01*
X106697618Y-95953365D02*
X106637142Y-95832413D01*
X106637142Y-95832413D02*
X106637142Y-95469556D01*
X106637142Y-95469556D02*
X106697618Y-95348603D01*
X106697618Y-95348603D02*
X106758095Y-95288127D01*
X106758095Y-95288127D02*
X106879047Y-95227651D01*
X106879047Y-95227651D02*
X107120952Y-95227651D01*
X107120952Y-95227651D02*
X107241904Y-95288127D01*
X108330476Y-96013842D02*
X108209524Y-96074318D01*
X108209524Y-96074318D02*
X107967619Y-96074318D01*
X107967619Y-96074318D02*
X107846666Y-96013842D01*
X107846666Y-96013842D02*
X107786190Y-95892889D01*
X107786190Y-95892889D02*
X107786190Y-95409080D01*
X107786190Y-95409080D02*
X107846666Y-95288127D01*
X107846666Y-95288127D02*
X107967619Y-95227651D01*
X107967619Y-95227651D02*
X108209524Y-95227651D01*
X108209524Y-95227651D02*
X108330476Y-95288127D01*
X108330476Y-95288127D02*
X108390952Y-95409080D01*
X108390952Y-95409080D02*
X108390952Y-95530032D01*
X108390952Y-95530032D02*
X107786190Y-95650984D01*
X108935237Y-95227651D02*
X108935237Y-96074318D01*
X108935237Y-95348603D02*
X108995714Y-95288127D01*
X108995714Y-95288127D02*
X109116666Y-95227651D01*
X109116666Y-95227651D02*
X109298095Y-95227651D01*
X109298095Y-95227651D02*
X109419047Y-95288127D01*
X109419047Y-95288127D02*
X109479523Y-95409080D01*
X109479523Y-95409080D02*
X109479523Y-96074318D01*
X168909365Y-123471666D02*
X168969842Y-123532142D01*
X168969842Y-123532142D02*
X169030318Y-123713571D01*
X169030318Y-123713571D02*
X169030318Y-123834523D01*
X169030318Y-123834523D02*
X168969842Y-124015952D01*
X168969842Y-124015952D02*
X168848889Y-124136904D01*
X168848889Y-124136904D02*
X168727937Y-124197381D01*
X168727937Y-124197381D02*
X168486032Y-124257857D01*
X168486032Y-124257857D02*
X168304603Y-124257857D01*
X168304603Y-124257857D02*
X168062699Y-124197381D01*
X168062699Y-124197381D02*
X167941746Y-124136904D01*
X167941746Y-124136904D02*
X167820794Y-124015952D01*
X167820794Y-124015952D02*
X167760318Y-123834523D01*
X167760318Y-123834523D02*
X167760318Y-123713571D01*
X167760318Y-123713571D02*
X167820794Y-123532142D01*
X167820794Y-123532142D02*
X167881270Y-123471666D01*
X167760318Y-122322619D02*
X167760318Y-122927381D01*
X167760318Y-122927381D02*
X168365080Y-122987857D01*
X168365080Y-122987857D02*
X168304603Y-122927381D01*
X168304603Y-122927381D02*
X168244127Y-122806428D01*
X168244127Y-122806428D02*
X168244127Y-122504047D01*
X168244127Y-122504047D02*
X168304603Y-122383095D01*
X168304603Y-122383095D02*
X168365080Y-122322619D01*
X168365080Y-122322619D02*
X168486032Y-122262142D01*
X168486032Y-122262142D02*
X168788413Y-122262142D01*
X168788413Y-122262142D02*
X168909365Y-122322619D01*
X168909365Y-122322619D02*
X168969842Y-122383095D01*
X168969842Y-122383095D02*
X169030318Y-122504047D01*
X169030318Y-122504047D02*
X169030318Y-122806428D01*
X169030318Y-122806428D02*
X168969842Y-122927381D01*
X168969842Y-122927381D02*
X168909365Y-122987857D01*
X146909365Y-118011666D02*
X146969842Y-118072142D01*
X146969842Y-118072142D02*
X147030318Y-118253571D01*
X147030318Y-118253571D02*
X147030318Y-118374523D01*
X147030318Y-118374523D02*
X146969842Y-118555952D01*
X146969842Y-118555952D02*
X146848889Y-118676904D01*
X146848889Y-118676904D02*
X146727937Y-118737381D01*
X146727937Y-118737381D02*
X146486032Y-118797857D01*
X146486032Y-118797857D02*
X146304603Y-118797857D01*
X146304603Y-118797857D02*
X146062699Y-118737381D01*
X146062699Y-118737381D02*
X145941746Y-118676904D01*
X145941746Y-118676904D02*
X145820794Y-118555952D01*
X145820794Y-118555952D02*
X145760318Y-118374523D01*
X145760318Y-118374523D02*
X145760318Y-118253571D01*
X145760318Y-118253571D02*
X145820794Y-118072142D01*
X145820794Y-118072142D02*
X145881270Y-118011666D01*
X147030318Y-117406904D02*
X147030318Y-117165000D01*
X147030318Y-117165000D02*
X146969842Y-117044047D01*
X146969842Y-117044047D02*
X146909365Y-116983571D01*
X146909365Y-116983571D02*
X146727937Y-116862619D01*
X146727937Y-116862619D02*
X146486032Y-116802142D01*
X146486032Y-116802142D02*
X146002222Y-116802142D01*
X146002222Y-116802142D02*
X145881270Y-116862619D01*
X145881270Y-116862619D02*
X145820794Y-116923095D01*
X145820794Y-116923095D02*
X145760318Y-117044047D01*
X145760318Y-117044047D02*
X145760318Y-117285952D01*
X145760318Y-117285952D02*
X145820794Y-117406904D01*
X145820794Y-117406904D02*
X145881270Y-117467381D01*
X145881270Y-117467381D02*
X146002222Y-117527857D01*
X146002222Y-117527857D02*
X146304603Y-117527857D01*
X146304603Y-117527857D02*
X146425556Y-117467381D01*
X146425556Y-117467381D02*
X146486032Y-117406904D01*
X146486032Y-117406904D02*
X146546508Y-117285952D01*
X146546508Y-117285952D02*
X146546508Y-117044047D01*
X146546508Y-117044047D02*
X146486032Y-116923095D01*
X146486032Y-116923095D02*
X146425556Y-116862619D01*
X146425556Y-116862619D02*
X146304603Y-116802142D01*
D12*
X102928572Y-116050076D02*
X102976191Y-116002457D01*
X102976191Y-116002457D02*
X103071429Y-115954838D01*
X103071429Y-115954838D02*
X103309524Y-115954838D01*
X103309524Y-115954838D02*
X103404762Y-116002457D01*
X103404762Y-116002457D02*
X103452381Y-116050076D01*
X103452381Y-116050076D02*
X103500000Y-116145314D01*
X103500000Y-116145314D02*
X103500000Y-116240552D01*
X103500000Y-116240552D02*
X103452381Y-116383409D01*
X103452381Y-116383409D02*
X102880953Y-116954838D01*
X102880953Y-116954838D02*
X103500000Y-116954838D01*
X103928572Y-116954838D02*
X103928572Y-115954838D01*
X103928572Y-115954838D02*
X104261905Y-116669123D01*
X104261905Y-116669123D02*
X104595238Y-115954838D01*
X104595238Y-115954838D02*
X104595238Y-116954838D01*
X105071429Y-116954838D02*
X105071429Y-115954838D01*
X105071429Y-116431028D02*
X105642857Y-116431028D01*
X105642857Y-116954838D02*
X105642857Y-115954838D01*
X105880953Y-117050076D02*
X106642857Y-117050076D01*
X107309524Y-115954838D02*
X107119048Y-115954838D01*
X107119048Y-115954838D02*
X107023810Y-116002457D01*
X107023810Y-116002457D02*
X106976191Y-116050076D01*
X106976191Y-116050076D02*
X106880953Y-116192933D01*
X106880953Y-116192933D02*
X106833334Y-116383409D01*
X106833334Y-116383409D02*
X106833334Y-116764361D01*
X106833334Y-116764361D02*
X106880953Y-116859599D01*
X106880953Y-116859599D02*
X106928572Y-116907219D01*
X106928572Y-116907219D02*
X107023810Y-116954838D01*
X107023810Y-116954838D02*
X107214286Y-116954838D01*
X107214286Y-116954838D02*
X107309524Y-116907219D01*
X107309524Y-116907219D02*
X107357143Y-116859599D01*
X107357143Y-116859599D02*
X107404762Y-116764361D01*
X107404762Y-116764361D02*
X107404762Y-116526266D01*
X107404762Y-116526266D02*
X107357143Y-116431028D01*
X107357143Y-116431028D02*
X107309524Y-116383409D01*
X107309524Y-116383409D02*
X107214286Y-116335790D01*
X107214286Y-116335790D02*
X107023810Y-116335790D01*
X107023810Y-116335790D02*
X106928572Y-116383409D01*
X106928572Y-116383409D02*
X106880953Y-116431028D01*
X106880953Y-116431028D02*
X106833334Y-116526266D01*
X107833334Y-116954838D02*
X107833334Y-116288171D01*
X107833334Y-116383409D02*
X107880953Y-116335790D01*
X107880953Y-116335790D02*
X107976191Y-116288171D01*
X107976191Y-116288171D02*
X108119048Y-116288171D01*
X108119048Y-116288171D02*
X108214286Y-116335790D01*
X108214286Y-116335790D02*
X108261905Y-116431028D01*
X108261905Y-116431028D02*
X108261905Y-116954838D01*
X108261905Y-116431028D02*
X108309524Y-116335790D01*
X108309524Y-116335790D02*
X108404762Y-116288171D01*
X108404762Y-116288171D02*
X108547619Y-116288171D01*
X108547619Y-116288171D02*
X108642858Y-116335790D01*
X108642858Y-116335790D02*
X108690477Y-116431028D01*
X108690477Y-116431028D02*
X108690477Y-116954838D01*
X109166667Y-116954838D02*
X109166667Y-116288171D01*
X109166667Y-116383409D02*
X109214286Y-116335790D01*
X109214286Y-116335790D02*
X109309524Y-116288171D01*
X109309524Y-116288171D02*
X109452381Y-116288171D01*
X109452381Y-116288171D02*
X109547619Y-116335790D01*
X109547619Y-116335790D02*
X109595238Y-116431028D01*
X109595238Y-116431028D02*
X109595238Y-116954838D01*
X109595238Y-116431028D02*
X109642857Y-116335790D01*
X109642857Y-116335790D02*
X109738095Y-116288171D01*
X109738095Y-116288171D02*
X109880952Y-116288171D01*
X109880952Y-116288171D02*
X109976191Y-116335790D01*
X109976191Y-116335790D02*
X110023810Y-116431028D01*
X110023810Y-116431028D02*
X110023810Y-116954838D01*
D13*
%TO.C,IC2*%
X186550000Y-83910000D02*
X186550000Y-129150000D01*
X186550000Y-129150000D02*
X173450000Y-129150000D01*
X173450000Y-129150000D02*
X173450000Y-83910000D01*
X173450000Y-83910000D02*
X186550000Y-83910000D01*
D14*
%TO.C,IC3*%
X127326000Y-90920000D02*
X134928000Y-90920000D01*
X128452000Y-100700000D02*
X134928000Y-100700000D01*
D11*
%TO.C,C3*%
X125460000Y-65410000D02*
X130540000Y-65410000D01*
X125460000Y-68590000D02*
X130540000Y-68590000D01*
D13*
%TO.C,Jmc2*%
X145120000Y-52400000D02*
X145120000Y-62200000D01*
X129880000Y-52400000D02*
X145120000Y-52400000D01*
X145120000Y-62200000D02*
X129880000Y-62200000D01*
X129880000Y-62200000D02*
X129880000Y-52400000D01*
D14*
X145980000Y-57000000D02*
G75*
G02*
X145880000Y-57000000I-50000J0D01*
G01*
X145880000Y-57000000D02*
G75*
G02*
X145980000Y-57000000I50000J0D01*
G01*
%TO.C,R4*%
X180750000Y-70600000D02*
X183250000Y-70600000D01*
X180750000Y-77400000D02*
X180750000Y-70600000D01*
X182000000Y-66550000D02*
X182000000Y-70600000D01*
X182000000Y-77400000D02*
X182000000Y-81450000D01*
X183250000Y-70600000D02*
X183250000Y-77400000D01*
X183250000Y-77400000D02*
X180750000Y-77400000D01*
%TO.C,R5*%
X130100000Y-107250000D02*
X136900000Y-107250000D01*
X130100000Y-108500000D02*
X126050000Y-108500000D01*
X130100000Y-109750000D02*
X130100000Y-107250000D01*
X136900000Y-107250000D02*
X136900000Y-109750000D01*
X136900000Y-109750000D02*
X130100000Y-109750000D01*
X140950000Y-108500000D02*
X136900000Y-108500000D01*
D13*
%TO.C,J3*%
X159380000Y-53500000D02*
X169540000Y-53500000D01*
X159380000Y-63300000D02*
X159380000Y-53500000D01*
X169540000Y-53500000D02*
X169540000Y-63300000D01*
X169540000Y-63300000D02*
X159380000Y-63300000D01*
D14*
X158620000Y-58700000D02*
G75*
G02*
X158520000Y-58700000I-50000J0D01*
G01*
X158520000Y-58700000D02*
G75*
G02*
X158620000Y-58700000I50000J0D01*
G01*
D13*
%TO.C,Jmc1*%
X177600000Y-65380000D02*
X177600000Y-80620000D01*
X167800000Y-65380000D02*
X177600000Y-65380000D01*
X177600000Y-80620000D02*
X167800000Y-80620000D01*
X167800000Y-80620000D02*
X167800000Y-65380000D01*
D14*
X173050000Y-81430000D02*
G75*
G02*
X172950000Y-81430000I-50000J0D01*
G01*
X172950000Y-81430000D02*
G75*
G02*
X173050000Y-81430000I50000J0D01*
G01*
%TO.C,R8*%
X168250000Y-92100000D02*
X170750000Y-92100000D01*
X168250000Y-98900000D02*
X168250000Y-92100000D01*
X169500000Y-92100000D02*
X169500000Y-88050000D01*
X169500000Y-102950000D02*
X169500000Y-98900000D01*
X170750000Y-92100000D02*
X170750000Y-98900000D01*
X170750000Y-98900000D02*
X168250000Y-98900000D01*
%TO.C,R3*%
X149250000Y-92100000D02*
X151750000Y-92100000D01*
X149250000Y-98900000D02*
X149250000Y-92100000D01*
X150500000Y-88050000D02*
X150500000Y-92100000D01*
X150500000Y-98900000D02*
X150500000Y-102950000D01*
X151750000Y-92100000D02*
X151750000Y-98900000D01*
X151750000Y-98900000D02*
X149250000Y-98900000D01*
%TO.C,D1*%
X117300000Y-122400000D02*
X117300000Y-127200000D01*
X117300000Y-127200000D02*
X127800000Y-127200000D01*
X127800000Y-127200000D02*
X127800000Y-124000000D01*
D13*
%TO.C,J4ind*%
X102100000Y-104275000D02*
X111900000Y-104275000D01*
X102100000Y-114435000D02*
X102100000Y-104275000D01*
X111900000Y-104275000D02*
X111900000Y-114435000D01*
X111900000Y-114435000D02*
X102100000Y-114435000D01*
D14*
X106750000Y-103465000D02*
G75*
G02*
X106650000Y-103465000I-50000J0D01*
G01*
X106650000Y-103465000D02*
G75*
G02*
X106750000Y-103465000I50000J0D01*
G01*
%TO.C,R2*%
X114250000Y-58000000D02*
X116750000Y-58000000D01*
X114250000Y-64800000D02*
X114250000Y-58000000D01*
X115500000Y-53950000D02*
X115500000Y-58000000D01*
X115500000Y-64800000D02*
X115500000Y-68850000D01*
X116750000Y-58000000D02*
X116750000Y-64800000D01*
X116750000Y-64800000D02*
X114250000Y-64800000D01*
D11*
%TO.C,C4*%
X151000000Y-68090000D02*
X145920000Y-68090000D01*
X151000000Y-64910000D02*
X145920000Y-64910000D01*
D14*
%TO.C,C10*%
X162250000Y-115000000D02*
G75*
G02*
X149750000Y-115000000I-6250000J0D01*
G01*
X149750000Y-115000000D02*
G75*
G02*
X162250000Y-115000000I6250000J0D01*
G01*
D11*
%TO.C,C7*%
X124920000Y-89090000D02*
X130000000Y-89090000D01*
X124920000Y-85910000D02*
X130000000Y-85910000D01*
D14*
%TO.C,R1*%
X101750000Y-73600000D02*
X104250000Y-73600000D01*
X101750000Y-80400000D02*
X101750000Y-73600000D01*
X103000000Y-69550000D02*
X103000000Y-73600000D01*
X103000000Y-80400000D02*
X103000000Y-84450000D01*
X104250000Y-73600000D02*
X104250000Y-80400000D01*
X104250000Y-80400000D02*
X101750000Y-80400000D01*
%TO.C,U1*%
X117125000Y-113275000D02*
X117125000Y-116500000D01*
X127795000Y-113275000D02*
X117125000Y-113275000D01*
X127795000Y-118105000D02*
X127795000Y-113275000D01*
%TO.C,R6*%
X164250000Y-92100000D02*
X166750000Y-92100000D01*
X164250000Y-98900000D02*
X164250000Y-92100000D01*
X165500000Y-88050000D02*
X165500000Y-92100000D01*
X165500000Y-98900000D02*
X165500000Y-102950000D01*
X166750000Y-92100000D02*
X166750000Y-98900000D01*
X166750000Y-98900000D02*
X164250000Y-98900000D01*
D11*
%TO.C,C8*%
X138040000Y-85910000D02*
X132960000Y-85910000D01*
X138040000Y-89090000D02*
X132960000Y-89090000D01*
%TO.C,C2*%
X110910000Y-80460000D02*
X110910000Y-85540000D01*
X114090000Y-80460000D02*
X114090000Y-85540000D01*
%TO.C,C1*%
X106910000Y-80500000D02*
X106910000Y-85580000D01*
X110090000Y-80500000D02*
X110090000Y-85580000D01*
D13*
%TO.C,J5*%
X131960000Y-117800000D02*
X142120000Y-117800000D01*
X131960000Y-127600000D02*
X131960000Y-117800000D01*
X142120000Y-117800000D02*
X142120000Y-127600000D01*
X142120000Y-127600000D02*
X131960000Y-127600000D01*
D14*
X131200000Y-123000000D02*
G75*
G02*
X131100000Y-123000000I-50000J0D01*
G01*
X131100000Y-123000000D02*
G75*
G02*
X131200000Y-123000000I50000J0D01*
G01*
D11*
%TO.C,C6*%
X179000000Y-59410000D02*
X173920000Y-59410000D01*
X179000000Y-62590000D02*
X173920000Y-62590000D01*
D13*
%TO.C,IC1*%
X118910000Y-70450000D02*
X164150000Y-70450000D01*
X118910000Y-83550000D02*
X118910000Y-70450000D01*
X164150000Y-70450000D02*
X164150000Y-83550000D01*
X164150000Y-83550000D02*
X118910000Y-83550000D01*
D14*
%TO.C,R7*%
X160250000Y-92100000D02*
X162750000Y-92100000D01*
X160250000Y-98900000D02*
X160250000Y-92100000D01*
X161500000Y-88050000D02*
X161500000Y-92100000D01*
X161500000Y-98900000D02*
X161500000Y-102950000D01*
X162750000Y-92100000D02*
X162750000Y-98900000D01*
X162750000Y-98900000D02*
X160250000Y-98900000D01*
D13*
%TO.C,LED1*%
X168000000Y-107870000D02*
X168000000Y-107870000D01*
X168000000Y-113670000D02*
X168000000Y-113670000D01*
X168000000Y-107870000D02*
G75*
G02*
X168000000Y-113670000I0J-2900000D01*
G01*
X168000000Y-113670000D02*
G75*
G02*
X168000000Y-107870000I0J2900000D01*
G01*
%TO.C,J2gen*%
X102100000Y-90275000D02*
X111900000Y-90275000D01*
X102100000Y-100435000D02*
X102100000Y-90275000D01*
X111900000Y-90275000D02*
X111900000Y-100435000D01*
X111900000Y-100435000D02*
X102100000Y-100435000D01*
D14*
X106750000Y-89465000D02*
G75*
G02*
X106650000Y-89465000I-50000J0D01*
G01*
X106650000Y-89465000D02*
G75*
G02*
X106750000Y-89465000I50000J0D01*
G01*
D11*
%TO.C,C5*%
X166910000Y-125500000D02*
X166910000Y-120420000D01*
X170090000Y-125500000D02*
X170090000Y-120420000D01*
%TO.C,C9*%
X144910000Y-120040000D02*
X144910000Y-114960000D01*
X148090000Y-120040000D02*
X148090000Y-114960000D01*
%TD*%
M02*
